<?xml version="1.0" encoding="UTF-8"?>
<svg id="Layer_2" data-name="Layer 2" xmlns="http://www.w3.org/2000/svg" viewBox="0 0 128.12 101.36">
  <defs>
    <style>
      .cls-1 {
        fill: #fff;
      }
    </style>
  </defs>
  <g id="Layer_3" data-name="Layer 3">
    <g>
      <path class="cls-1" d="M49.66,92.06l-.08.58c-.84,0-.86-.41-1.09.24.58-.41.85-.11,1.12.19.13.15.26.3.43.37.04.02.09.03.14.03.06.03.13.05.2.05.14.01.28-.02.43-.12l.04.6c-.07-.13-.14-.09-.21-.22.01.63.31.65.64.59.34-.05.71-.16.93.41.14.42.14.93-.09.81.22.2.43.37.63.53.11.28-.06.51-.17.22.21.37.42.71.6,1.14l.12.03-.03.05c.24-.26.65-.56.81-.66.13.37-.14.13-.16.38.2-.06.33-.12.48-.16.03.27-.05.44-.18.54-.13.1-.28.11-.47,0,.02.99.13.87.33.74.1-.07.21-.15.33-.12.06.01.13.05.2.12.06.07.12.17.19.31-.12,0-.21.03-.38.05.08.48.17.63.31.75.14.11.33.2.46.42-.02-.06-.06-.15-.11-.28-.05-.13-.13-.29-.18-.47-.1-.34-.11-.73.08-.79.04.08.1.15.17.18.06.03.13.03.21-.02-.03.41.15.4.3.51l-.03.43c.19-.04.17-.24.26-.32.17.21.18.46.22.65.1.07.07,0,.04-.11-.03-.1-.06-.25.04-.15,0,0,.01.01.02.02.02.03.04.07.05.1.02.02.04-.03.07-.04.05-.04.09-.09.14-.15.1-.12.21-.3.35-.57.19-.03-.01.28.07.33.05-.15.1-.3.14-.48.04-.03.04.1.04.16.07-.13.05-.26.05-.39,0-.14,0-.28.1-.49-.01-.34.14-.28.35-.19.11.04.21.09.36.07.13-.03.25-.14.28-.46.17.16.09.52.21.8.15-.29.23-.49.29-.65.08-.16.14-.29.19-.47,0-.23-.03-.62-.05-1.32.18-.04.36-.12.56-.21-.27,0-.41-.38-.51-.84-.1-.46-.15-.99-.22-1.43-.22-.1-.4-.21-.5-.25.02-.31.02-.61.02-.88.11.03.24.27.39.62-.02-.09-.04-.18-.06-.25.27,0,.51.4.68.93-.14-.02-.27-.06-.41-.11.2.55.4,1.21.67,1.57-.02-.14-.02-.32.01-.47.05.16.1.3.15.34.06.04,0-.21-.05-.51.2.16.4.31.61.45l-.18-.31.95-.93c-.04-.36-.1-.7-.18-1.03-.04-.16-.08-.32-.13-.47-.02-.08-.04-.16-.07-.22-.03-.06-.05-.12-.08-.19-.2-.5-.32-1.03-.21-1.58.36.49.76.47,1.33.79-.74-.07-.12.85-.49,1.26.19-.22.44-.02.5.09l-.11-1.14c.46.27.44,0,.75-.11-1.01-.33-.27-.96-.36-1.46.32.15.59.41.28.78.94-.07-.75-1.2.1-1.32-.05.11-.13.13,0,.26-.14-.39.42-.84.6-.55l-.05.1c.49-.61,1.22-2,.54-2.58.1.06.85.66.98.8-.61-.92-1.19-1.85-1.75-2.8.57.52,2.35,1.14,2.35,1.91.19-.09.42-.21.41-.68-.16.04-1.09-.35-1.05-.54.97.08.56-.03,1.48-.09-.24.06-1.11-.79-.9-1.02.12.14.98.66,1.02.82l-.53-1.28c.06.28.79.61,1.16.67-.23-.07.38-.51.41-.73l-.41.09c.64-.56-.83-1.65-.27-2.29.13.23,1.03,1.11,1.4.87-.37-.52-1.74-2.47-1.6-3.37l.36.11.07-.71c.45.88,1.29,2.87,1.55,3.73.41-.07.37.19.64-.19.35.08.22.5.15.62l.83-.69c-.57-.41-.03-1.09-.49-1.43-.07.45-.12.92-.18,1.37-.57-.4-1.12-1.81-.5-2.32.34.03.85.93,1.04,1.07-.12-.23.13-.85.31-.79l.07.49c.48-.14-.24-1.14.6-1.08.15-.1,1.03.23.74-.07-.78-.34-2.66-1.97-2.96-2.53.09-.01,1.24-.19,1.66-.06.66.22.77,1.37,1.34,1.56-.13-.14-.19-.42-.2-.52.25-.02.37.47.59.12-.47-.55.62-.54-.3-.56.14-.43.41-.19.72-.54-.43-.22-.79-1.42-.63-1.86.11.15.34.26.44.3.64-.54,1.22-.57,1.79-1.08.17.08.58,0,.66.33,0-.17-.08-.42.09-.59.38.09.29.19.2.32-.09.12-.17.27.2.44-.25-.34.1-.82.2-1.23-.48-.43-.7.39-.78.81-.58-.68-.72-1.76-.31-2.61.38-.59.58.27.59.1.53-.33.5-.8.51-1.19,0-.4.02-.74.64-.79.66.21.67.9.98,1.18-.3.48-.87.19-1.15.42l.52-.05c-.03.25-.23.57-.48.55.29.1.72-.18,1.21-.51.49-.33,1.03-.71,1.56-.76.03-.25.17-.57-.07-.68l-.21.23c-.48-.23.13-.83-.31-.8.17-.49.29-1.16.92-1.26l.42.49c-.11-.15-.52-.12-.55.13.03-.19.33-.12.59-.11.27.02.5-.03.4-.45l-.58-.18c.19-.48.31-1.33.86-1.41-.52-.43-.07.12-.76-.34.74.64-1.2.64-.25,1.21-.78-.56-.75.03-1.57-.32.13.17.37.25-.06.4.02.06.02.15.02.21-.01,0-.02,0-.03,0,.01,0,.02,0,.03,0,0,.04,0,.04.01,0,.14.02.27.07.36.15.08.53-.51.89-.57,1.22-.27.06-.04-.26-.29-.37l-.08.5c-.29-.37-1.01-.24-.66-.83l-.46.31c-.42-.02-.85.16-.96.48-.28.07-.23.81-.26.38-.18.24-.35.5-.51.76l-.08-.09c-.71.5-.89,1.68-2.16,1.7-.14.28-.26.58-.71.8l-.34-.24c-.19.34-1.09.47-.92.89-.52-.26-.89.02-1.21.4-.32.37-.54.87-.84,1.04l.37.39c-.33.31-.52.72-.74,1.27l.37.29c-.02.61-1.05.69-1.51,1.29-.1-.15.06-.27.23-.3-.7-.01-.86.49-.97.99-.12.5-.19,1.01-.75,1.09.01.27-.12.35-.3.39.01-.02.01-.03.01-.05-.02.01-.04.04-.05.06-.12.02-.25.04-.37.07.14,0,.27,0,.34-.03-.09.13-.18.35-.23.61l-.46-.23s-.02.03-.02.05c-.29.07.08.29.46.42,0,.14.01.29.06.42-.77-.34-.14.64-.98.34.25.37-.41,1.13.25,1.74-.1-.06-.18-.04-.12-.14-.23.15-.46.3-.38.63l-.59-.27.41.94c-.51.06-.78.06-1.01-.49.18,1.09-.13.71.14,1.69l-.33-.25c-.12.22.15.84-.22.79-.98.05-1.49,2.27-2.8,3.17,1.2.33-.79.33.02.82-.29-.06-.53.04-.65-.28-.02.19-.09.34-.17.46-.08.11-.2.25-.22.25-.09.06-.1.12.17.47-.25-.16-.31-.32-.46-.4.04.05.16.23.02.14-.14-.1-.17-.2-.26-.3-.03.18.58.93,1.16,1.66-.39-.1-.37,0-.11.72-.21-.18-.43-.38-.38-.72-.03.04-.14.11-.22.21-.08.11-.15.25-.14.48,0,.14.04.3.1.51-.1-.18-.11.14-.1.29-.16.29-.2.21-.31.65l.07.09c.11.74.08.91.03.94-.06.03-.14-.09-.19.15l-.02-.16c-.2-.21-.2-.03-.22.17-.01.18-.04.39-.2-.02l.08,1.06c.05.95,0,1.06-.07.91-.03-.08-.07-.23-.11-.38,0-.05-.02-.05-.03-.13l-.02-.23c-.01-.13-.03-.25-.04-.38-.03-.24-.06-.35-.08-.23l.06.79c-.03.29-.1-.71-.14-1.74-.03-.88-.05-1.77-.07-2.31,0-.21.02-.26.04-.37-.03-.75-.04-.42-.06.07-.02.5-.04,1.21-.12,1.2.02-.7.12-1.63.08-1.86,0-.28-.06.16-.17.42-.1.27-.26.35-.2-.23-.07.42-.11.89-.26,1.02-.07-.05-.07-.49-.07-.8,0-.37,0-.57-.3-.2.02-.1.06-.18.09-.25-.2.08-.52-.15-.94.07.28-.37.35-.56.3-.67-.03-.06-.07-.09-.15-.13-.1-.08-.22-.16-.34-.23-.48-.3-.96-.51-.32-.99-.25-.28-.48-.56-.74-.83l.15-.08c-.36-.62-.82-.57-1.27-.51-.02-.19.17-.2.24-.24-.43-.97-.55-1.04-1.72-1.11l.32-.42c-.19.02-.29-.39-.5-.84-.21-.45-.53-.93-1.1-1.07.05-.04.13-.09.24-.09-.61-.19-.87-.88-1.18-1.44-.3-.55-.68-.9-1.44-.31l-.86-.11c.63.72-.63.54-.53,1.03-.35-.15-.37-1.05.04-.84v.12c.75-.67-.71-1-.28-1.51-1.5-1.12-2.72-2.59-4.19-3.59l-.24.76c-.16-.13-.33-.24-.49-.36-.04-.23.13-.62.49-.37.03-.49-.82-.07-.92.07-.57-.71.75-.59.54-.74l-.34-.14.02.12c-.41.12-.6.39-1.03.09-.21-.3.09-.5,0-.59.03-.05,0-.09-.16-.12l-.65-.43-.03.68c-.44.09-.62-.38-.64.39.03-.58-.55-1.02-1.16-1.35-.62-.31-1.25-.53-1.32-.75-.62.18-1.03-.04-1.54-.33.08.17-.14.82-.55.54.76-1.19-.57-.93-.53-2.02.03.38-.31.27-.64.2-.33-.06-.66-.07-.59.47-.34-.26.18-.49.02-.92-1.13.12-1.89-1.19-3.13-1.44-.08.17,0,.5-.33.66l-.29-1.09c-.26,0-.58.92-.77.16,0,.17.01.42-.16.42-.98-.83-2.21-1.04-3.41-1.34-1.21-.26-2.37-.66-3.33-1.78.22.43,0,.41-.25.35.14.12-.12.44-.16.69l-.8-.93c-.36.62-1.07-.23-1.34.38l.34-.03c-.6.65.14,1.83-.17,2.79.68-.74.84,1.58,1.92.55.11.24-.23.27-.2.52.3-.36.55-.38.91-.07l-.08.09c.6.12.99.33,1.39.58.39.25.79.55,1.39.91l.06-.5c.26.16.27.32.36.49.55-.61-.76-.3-.22-.99.05,1.08,1.96.68,1.83,1.84.42.16.07-.59.49-.43v.33s.25-.34.25-.34c.25.17.26.58.18.83-.06-.05-.21,0-.29,0,.23.48,1.04.26,1.12.42l-.33-.33c1.26.14,2.47,1.1,3.8.97v-.25c1.02-.04.57.53,1.55.75l-.06.04c.28-.13.57-.12.81.01-.34.14.2.68-.23.81,1.08,0,.59-.12,1.55-.62l-.04.41c.35-.21.45-.37.95-.24-.52.11.01.67-.59.86.53,1.21,1.77-.04,1.59,1.27.93-.71-.5-.96-.16-1.03-.03-.42.73-.52.97-.26.28.19-.16,1.47.56,1.86-.07-.05-.11.02-.18-.03.13.39.71,0,.8.57.52-.45.4.28.89-.39l-.75-.23c.48.04,1.34-.58,1.71.2-.13.11-.44.19-.63.21.05.31.43.07.48.4-.49.66-.88-.34-1.61-.03,0,.41,1.06-.06.39.58.89-.8.61.55,1.54.12l-.3.4c.12-.02.4-.11.53-.01l-.6.38c.68-.21.46.86.97.86-.75-.49.17-.61.06-1.12,1.31.08-.21,1.44.93,1.95-.18-.04-.34-.6.01-.64.13.22.27.55.24.85.71.41.21-.49.67-.52-.14.66.47.05.87.12l-.31.4c.54.83.85-.68,1.28.16l-.72.33c.15.04.31.08.46.13l-.43.39c.63-.03.68.16.93.58.15-.34.64-.66.97-.4.02.41-.43.25.06.59-.31.15-.67.35-.57-.16-.13.11-.31.16-.43.26.01.45.52.55.68.69-.05-.07-.1-.15-.09-.24l1.1.05c-.03.23-.21.27-.39.31.16.07.41-.02.63.12-.33.26-.61.57-1,.48.3.06.6.13.89.21-.08.17-.05.64-.23.67.14.47,1.33.19,1.5.84.08-.03.18-.04.3,0,.32.46.25,1.16,1.1,1.28-.11.25-.21.5-.33.75.44.28.4-.98,1.14-.5.56.32-.35.57-.38.86.48-.01,1.39-.05,1.24.75-.22-.06-.22-.24-.36-.34M54.98,98.37c-.09.04-.32.28-.34-.06.19-.54.21-.18.34.06M59.88,93.12c.08.23-.08.35-.31.39.03-.18.12-.31.31-.39M75.42,68.47s0,.02,0,.03c-.36.02-.23.02,0-.03M76.06,68.27c.01-.1-.03-.15-.09-.19.04.13-.07.22-.23.29.11.08.23.11.32-.09M38.53,76.62l.04.18c-.31-.01-.18-.09-.04-.18"/>
      <path class="cls-1" d="M17.97,38.92c0,.21,0,.42.02.64-.38.08-.61-.02-.75-.04-.15,0-.2.05-.24.44.24-.26.44-.31.62-.26.17.05.33.19.46.37.28.35.55.7.93,0v.54c-.03-.08-.08,0-.12-.09-.01.84.37.14.67-.12.15-.16.29-.24.41-.13.11.18.14.43-.02.57l.44-.24c.09.07,0,.3-.09.24.18.02.36.05.54.07v.04c.1-.18.32-.42.39-.5.06.24-.06.1-.07.27.08-.06.16-.11.23-.16.04.35-.16.54-.3.43,0,.66.07.58.16.48.1-.11.21-.23.39.16-.07.02-.14.04-.22.06.03.33.1.44.19.52.05.04.09.08.15.12.05.05.08.1.12.19-.02-.09-.09-.31-.17-.56-.07-.25-.08-.53.04-.6.06.11.12.17.22.05-.01.32.08.29.19.34v.37c.12-.06.1-.25.16-.35.1.13.13.37.16.57.09.05.05-.04.03-.15-.03-.11-.04-.25.04-.19h0c.03.06.05.09.08.12l.03.03s0,.01.01,0l.02-.03c.06-.07.12-.18.2-.35.12.01,0,.19.04.24.03-.1.05-.2.07-.31.02-.01.03.07.02.12.08-.17-.02-.33.09-.56,0-.22.07-.16.19-.08.11.07.26.18.32-.2.08.11.03.32.09.49.12-.27.16-.4.2-.54.04-.14.07-.29.1-.72l.34.25c-.32-.37-.25-1.06-.32-1.78-.13-.19-.26-.42-.31-.5,0-.25,0-.49,0-.71.07.09.16.38.26.76-.01-.09-.03-.17-.04-.24.18.17.33.66.43,1.14-.09-.11-.17-.22-.25-.33.11.51.19,1.01.34,1.39,0-.09.01-.18.04-.25.02.13.04.24.08.3.04.07.02-.1,0-.32l.39.75-.11-.33.52.21c.07-.02.14-.05.21-.07-.15-1.4-.61-2.78-.52-3.5.29.56.59.75,1.03,1.27-.29-.18-.31,0-.31.28,0,.28.02.67-.13.79.16-.13.32.2.36.37.01-.45.01-.87,0-1.26.34.46.35.18.62.17-.81-.69-.19-1.01-.28-1.47.28.21.52.5.25.78.41.09.26-.25.08-.56-.18-.31-.38-.61-.01-.56-.03.05-.11.08.02.21-.05-.2,0-.29.1-.34.11-.04.26-.02.36.1l-.03.05c.33-.26.73-.98.06-1.58.09.07.82.69.95.82-.65-.79-1.28-1.6-1.9-2.43.56.53,2.13,1.48,2.26,2.01.14,0,.31-.02.23-.34-.12-.02-.96-.57-.96-.68.82.35.47.15,1.22.39-.19-.03-1.04-.88-.9-.98.12.13.91.76.97.88-.22-.35-.43-.71-.64-1.06.1.21.74.66,1.05.82-.2-.12.24-.23.22-.38l-.31-.06c.42-.2-.94-1.44-.58-1.73.14.21,1,1.12,1.26,1.07-.37-.48-1.77-2.34-1.79-2.98l.3.19-.04-.51c.24.4.59,1.03.94,1.65.35.62.68,1.23.85,1.59.31.07.32.25.47.06.29.17.26.44.23.5.18-.08.35-.17.53-.24-.51-.48-.19-.79-.61-1.2.02.32.04.63.08.94-.52-.48-1.15-1.66-.76-1.87.27.13.81.96.97,1.12-.13-.21-.04-.6.1-.5l.13.39c.33.04-.37-.93.28-.61.1-.03.8.5.54.18-.64-.51-2.31-2.34-2.63-2.87.07.02.9.22,1.25.46.53.38.78,1.3,1.24,1.62-.12-.15-.21-.38-.23-.47.18.06.35.48.46.28-.43-.57.37-.23-.31-.53.03-.29.27-.03.44-.21-.35-.31-.8-1.38-.74-1.67.1.15.28.31.37.38.4-.21.78-.1,1.12-.33.13.12.41.18.52.48-.02-.14-.12-.37-.02-.45.55.38-.18.23.39.74-.22-.35-.06-.65-.05-.97-.4-.5-.42.13-.41.44-.5-.73-.76-1.67-.59-2.27.19-.38.44.4.43.26.65-.22-.3-1.62.52-1.37.48.37.57.96.81,1.29-.14.33-.56-.08-.72.04l.34.1c.02.21-.07.43-.24.34.21.17.46.05.74-.1.28-.14.61-.29.93-.21-.01-.21.03-.46-.13-.62l-.1.15c-.35-.33-.02-.7-.3-.79.04-.39.05-.96.45-.86l.34.55c-.09-.17-.35-.25-.35-.04,0-.31.81.57.58-.24l-.39-.31c.06-.39.04-1.13.39-1.07-.38-.52-.03.09-.53-.49.55.76-.7.29-.02,1.04-.57-.68-.49-.17-1.07-.7.1.19.27.31,0,.34.02.06.03.14.04.19,0,0-.01,0-.02,0l.02.02s0,.04,0,0c.09.05.19.13.26.23.11.49-.23.66-.22.94-.17-.02-.06-.24-.24-.4v.42c-.23-.4-.71-.5-.54-.9l-.28.13c-.29-.15-.57-.1-.6.15-.18,0-.05.64-.13.26l-.26.5-.07-.1c-.45.2-.38,1.19-1.32.79-.07.19-.11.41-.41.46l-.28-.3c-.08.24-.75.05-.57.44-.85-.72-.95.46-1.35.54l.33.41c-.21.14-.29.42-.38.78l.33.34c.06.45-.73.2-1,.53-.1-.15,0-.19.13-.16-.55-.21-.61.12-.63.46-.02.35,0,.71-.44.6.04.2-.05.22-.19.19,0,0,0-.02,0-.04-.01,0-.03.02-.04.03-.09-.02-.2-.05-.29-.06.12.04.22.08.28.08-.05.07-.1.21-.1.38l-.41-.3s0,.02,0,.03c-.22-.03.11.24.43.44.02.1.05.21.11.33-.67-.47-.02.43-.76-.04.25.34-.18.7.46,1.32-.09-.07-.16-.08-.12-.13-.17.04-.34.08-.22.34l-.53-.36.48.78c-.42-.1-.65-.18-.92-.63.31.82,0,.47.36,1.22l-.32-.27c-.07.12.25.62-.08.48-.4-.11-.66.17-.92.52-.03.04-.07.09-.1.13-.04.05-.07.09-.08.1-.04.04-.09.08-.14.12-.11.07-.24.1-.41.03.44.44.32.38.17.29-.15-.09-.31-.21-.01.2-.2-.22-.32-.33-.45-.59.05.19-.06.14-.11.13-.06,0-.06.04.12.5-.16-.29-.2-.47-.3-.63.03.07.11.3.01.13-.09-.17-.11-.27-.17-.42,0,.03,0,.09.04.19.11.36.42,1.17.72,1.93-.25-.33-.24-.24-.06.52-.14-.29-.28-.59-.25-.84-.03.01-.13-.01-.18.07-.05.08-.07.27.03.75-.07-.21-.07.04-.06.17-.1.12-.12.04-.19.32l.05.12c.15,1.35-.04.46-.09.77v-.14c-.15-.31-.14-.17-.15-.02,0,.14-.02.28-.13-.17l.06.91c.04.75.02.85-.02.69-.03-.32-.08-.77-.13-1.18-.03-.23-.05-.35-.07-.21l.05.58c-.02.27-.08-.48-.11-1.27-.03-.72-.06-1.45-.07-1.8,0-.16.01-.23.02-.33-.05-1.16-.02,1.06-.1,1.16,0-.58.06-1.39.03-1.55,0-.23-.04.17-.1.45-.06.29-.16.44-.13-.06-.04.38-.06.79-.15.99-.05,0-.05-.41-.05-.67,0-.27-.02-.39-.19.06.01-.1.03-.19.06-.26-.1.14-.23.16-.42.36-.05.05-.11.12-.16.21.34-.92.17-.79-.06-.72-.22.08-.5.15,0-.48l-.13-.07-.06-.03s-.02,0-.04-.02l-.06-.05.13-.1c-.21-.36-.58-.18-.94,0,.01-.14.16-.21.22-.26-.2-.63-.31-.61-1.18-.32l.3-.43c-.15.07-.17-.21-.26-.51-.09-.3-.27-.6-.68-.52.04-.04.11-.12.19-.15-.44.06-.52-.45-.67-.81-.15-.36-.36-.56-.98.16l-.6.17c.36.4-.52.64-.51,1.02-.23,0-.12-.75.14-.7l-.02.1c.62-.78-.35-.63.02-1.19-.23-.13-.43-.28-.62-.46-.1-.09-.19-.18-.28-.27l-.29-.26c-.38-.35-.75-.72-1.17-.96l-.25.73-.28-.19c0-.2.16-.59.36-.45.08-.45-.52.14-.6.28-.28-.5.56-.72.44-.8l-.2-.04v.1c-.28.2-.44.51-.68.35-.1-.21.12-.46.06-.52.02-.05.01-.08-.09-.06l-.36-.23-.1.62c-.29.2-.35-.19-.45.51.18-1.08-1.27-.98-1.3-1.35-.41.31-.64.22-.92.06.03.14-.18.79-.4.62.59-1.28-.25-.74-.11-1.76-.04.7-.79-.11-.82.89-.17-.18.16-.5.11-.87-.35.16-.6-.03-.85-.26-.26-.22-.52-.48-.87-.49-.06.17-.04.47-.26.69l-.07-.98c-.15.05-.43.98-.47.3-.01.16-.03.4-.13.43-.5-.61-1.19-.65-1.86-.72-.67-.07-1.31-.24-1.77-1.21.09.39-.03.4-.17.38.07.1-.1.44-.14.69l-.38-.8c-.25.65-.59-.09-.78.54l.19-.08c-.39.71-.05,1.77-.31,2.74.44-.81.34,1.43,1.03.29.04.22-.15.3-.16.53.2-.39.34-.45.52-.21l-.05.1c.65.05.83.51,1.45.97l.08-.49c.13.11.12.27.16.41.37-.67-.41-.17-.03-.92-.07,1.03,1.05.33.87,1.47.23.07.1-.57.32-.5l-.03.32.17-.37c.13.11.09.5.02.75-.03-.04-.12.04-.17.05.09.41.58.04.61.18l-.16-.25c.35-.05.69.08,1.03.17.34.1.68.18,1.08-.01l.03-.24c.6-.24.27.37.84.37l-.04.05c.18-.18.36-.24.48-.17-.22.21.04.58-.23.81.65-.26.37-.25,1.02-.94l-.07.39c.24-.28.32-.44.6-.43-.33.22-.07.61-.46.92.16,1,1.09-.46.81.78.67-.88-.19-.74.03-.89.03-.37.52-.65.63-.48.16.1-.29,1.38.12,1.53-.04-.02-.07.05-.11.03.03.31.45-.21.44.28.38-.53.21.15.61-.57-.15,0-.29-.02-.45,0,.3-.11.92-.86,1.05-.26-.1.13-.3.28-.43.35-.01.27.26-.04.25.23-.41.72-.51-.07-1.01.39-.05.37.67-.32.16.42.67-.94.3.32.97-.31l-.25.43c.08-.05.27-.21.34-.16l-.44.5c.47-.37.17.63.51.47-.42-.2.2-.57.19-.98.84-.3-.32,1.28.34,1.39-.11.01-.12-.43.11-.56.05.15.09.4.02.67.41.13.21-.47.52-.64-.19.6.3-.1.57-.16l-.26.43c.24.53.67-.82.84-.25l-.54.49.29-.03-.35.46c.44-.23.45-.09.56.17.15-.33.54-.74.73-.62-.05.33-.34.35-.05.47-.24.22-.52.5-.36.04-.1.13-.23.22-.34.35-.07.37.26.29.35.35-.02-.04-.05-.09-.03-.16.25-.11.5-.21.76-.31-.06.19-.19.28-.32.37.1,0,.29-.14.42-.1-.27.31-.52.65-.78.7l.6-.12c-.09.16-.13.51-.27.6.03.31.92-.28.94.16.06-.05.14-.09.22-.09.15.26,0,.78.63.58l-.38.66c.29.06.46-.85.96-.75.38.05-.36.53-.43.75.09-.04.2-.09.32-.14.15,0,.3-.01.44,0,.27.04.44.18.43.62-.2-.02-.22-.21-.37-.29M21.75,41.38c-.06.04-.19.24-.21,0,.11-.41.13-.16.21,0M24.84,39.41c.05.23-.08.17-.24.02.03-.09.1-.12.24-.02M33.68,25.24s0,.02,0,.03c-.25-.08-.15-.05,0-.03M34.09,25.26c0-.08-.04-.14-.09-.19.04.12-.02.17-.12.18.09.1.17.16.21.01M12.23,29.39v.15c-.19.07-.1-.03,0-.15"/>
      <path class="cls-1" d="M.15,25.75l.09-.68-.24.57s.15-.06.15.1"/>
      <path class="cls-1" d="M105.29,15.35c0,.21,0,.42.02.64-.38.08-.61-.02-.75-.04-.15,0-.2.05-.24.44.24-.26.44-.31.62-.26.17.05.33.19.46.37.28.35.55.7.93,0v.54c-.03-.08-.08,0-.12-.09-.01.84.37.14.67-.12.15-.16.29-.24.41-.13.11.18.14.43-.02.57l.44-.24c.09.07,0,.3-.09.24.18.02.36.05.54.07v.04c.1-.18.32-.42.39-.5.06.24-.06.1-.07.27.08-.06.16-.11.23-.16.04.35-.16.54-.3.43,0,.66.07.58.16.48.1-.11.21-.23.39.16-.07.02-.14.04-.22.06.03.33.1.44.19.52.05.04.09.08.15.12.05.05.08.1.13.19-.02-.09-.09-.31-.17-.56-.07-.25-.08-.53.04-.6.06.11.12.17.22.05-.01.32.08.29.19.34v.37c.12-.06.1-.25.16-.35.1.13.13.37.16.57.09.05.05-.04.03-.15-.03-.11-.04-.25.04-.19h0c.03.06.05.09.08.12l.03.03s0,.01.01,0l.02-.03c.06-.07.12-.18.2-.35.12.01,0,.19.04.24.03-.1.05-.2.07-.31.03-.01.03.07.02.12.08-.17-.02-.33.09-.56,0-.22.07-.16.19-.08.11.07.26.18.32-.2.08.11.03.32.09.49.12-.27.16-.4.2-.54.04-.14.07-.29.1-.72l.34.25c-.32-.37-.25-1.06-.32-1.78-.13-.19-.26-.42-.31-.5,0-.25,0-.49,0-.71.07.09.16.38.26.76-.01-.09-.03-.17-.04-.24.18.17.33.66.43,1.14-.09-.11-.17-.22-.25-.33.11.51.19,1.01.34,1.39,0-.09.01-.18.04-.25.02.13.04.24.08.3.04.07.02-.11,0-.32l.39.75-.11-.33.52.21c.07-.02.14-.05.21-.07-.15-1.4-.61-2.78-.52-3.5.29.56.59.75,1.03,1.27-.29-.18-.31,0-.31.28,0,.28.02.67-.13.79.16-.13.32.2.36.37.01-.45.01-.87,0-1.26.34.46.35.18.62.17-.81-.69-.19-1.01-.28-1.47.28.21.52.5.25.78.41.09.26-.25.08-.56-.18-.31-.38-.61-.01-.56-.03.05-.11.08.02.21-.05-.2,0-.29.1-.34.11-.04.26-.02.36.1l-.03.05c.33-.26.73-.98.06-1.58.09.07.82.69.95.82-.65-.79-1.28-1.6-1.9-2.43.56.53,2.13,1.48,2.26,2.01.14,0,.31-.02.23-.34-.12-.02-.96-.57-.96-.68.82.35.47.15,1.22.39-.19-.03-1.04-.88-.9-.98.12.13.91.76.97.88-.22-.35-.43-.71-.64-1.06.1.21.74.66,1.05.82-.2-.12.24-.23.22-.38l-.31-.06c.42-.2-.94-1.44-.58-1.73.14.21,1,1.12,1.26,1.07-.37-.48-1.77-2.34-1.79-2.98l.3.19-.04-.51c.24.4.59,1.03.94,1.65.35.62.68,1.23.85,1.59.31.07.32.25.47.06.29.17.26.44.23.5.18-.08.35-.17.53-.24-.51-.48-.19-.79-.61-1.2.02.32.04.63.08.94-.52-.48-1.15-1.66-.76-1.87.27.13.81.96.97,1.12-.13-.21-.04-.6.1-.5l.13.39c.33.04-.37-.93.28-.61.1-.03.8.5.54.18-.64-.51-2.31-2.34-2.63-2.87.07.02.9.22,1.25.46.53.38.78,1.3,1.24,1.62-.12-.15-.21-.38-.23-.47.18.06.35.48.46.28-.43-.57.37-.23-.31-.53.03-.29.27-.03.44-.21-.35-.31-.8-1.38-.74-1.67.1.15.28.31.37.38.4-.21.78-.1,1.12-.33.13.12.41.18.52.48-.02-.14-.12-.37-.02-.45.55.38-.18.23.39.74-.22-.35-.06-.65-.05-.97-.4-.5-.42.13-.41.44-.5-.73-.76-1.67-.59-2.27.19-.38.44.4.43.26.65-.22-.3-1.62.52-1.37.48.37.57.96.81,1.29-.14.33-.56-.08-.72.04l.34.1c.02.21-.07.43-.24.34.21.17.46.05.74-.1.28-.14.61-.29.93-.21-.01-.21.03-.46-.13-.62l-.1.15c-.35-.33-.02-.7-.3-.79.04-.39.05-.96.45-.86l.34.55c-.09-.17-.35-.25-.35-.04,0-.31.81.57.58-.24l-.39-.31c.06-.39.04-1.13.39-1.07-.38-.52-.03.09-.53-.49.55.76-.7.29-.02,1.04-.57-.68-.49-.17-1.07-.7.11.19.27.31,0,.34.02.06.03.14.04.19,0,0-.01,0-.02,0l.02.02s0,.04,0,0c.09.05.19.13.26.23.11.49-.23.66-.22.94-.17-.02-.06-.24-.24-.4v.42c-.23-.4-.71-.5-.54-.9l-.28.13c-.29-.15-.57-.1-.6.15-.18,0-.05.64-.13.26l-.26.5-.07-.1c-.45.2-.38,1.19-1.32.79-.07.19-.11.41-.41.46l-.28-.3c-.08.24-.75.05-.57.44-.85-.72-.95.46-1.35.54l.33.41c-.21.14-.29.42-.38.78l.33.34c.06.45-.73.2-1,.53-.1-.15,0-.19.13-.16-.55-.21-.61.12-.63.46-.02.35,0,.71-.44.6.04.2-.05.22-.19.19,0,0,0-.02,0-.04-.01,0-.02.02-.04.03-.09-.02-.2-.05-.29-.06.12.04.22.08.28.08-.05.07-.1.21-.1.38l-.41-.3s0,.02,0,.03c-.22-.03.11.24.43.44.02.1.05.21.11.33-.67-.47-.02.43-.76-.04.26.34-.18.7.46,1.32-.09-.07-.16-.08-.12-.13-.17.04-.34.08-.22.34l-.53-.36.48.78c-.42-.1-.65-.18-.92-.63.32.82,0,.47.36,1.22l-.32-.27c-.07.12.25.62-.08.48-.4-.11-.66.17-.92.52-.03.04-.07.09-.1.13-.04.05-.07.09-.08.1-.04.04-.09.08-.14.12-.11.07-.24.1-.41.03.44.44.32.38.17.29-.15-.09-.31-.21-.01.2-.2-.22-.32-.33-.45-.59.05.19-.06.14-.11.13-.06,0-.06.04.12.5-.16-.29-.2-.47-.3-.63.03.07.11.3.01.13-.09-.17-.11-.27-.17-.42,0,.03.01.09.04.19.11.36.42,1.17.72,1.93-.25-.33-.24-.24-.06.52-.14-.29-.28-.59-.25-.84-.03.01-.13-.01-.18.07-.05.08-.07.27.03.75-.07-.21-.07.04-.06.17-.1.12-.12.04-.19.32l.05.12c.15,1.35-.04.46-.09.77v-.14c-.15-.31-.14-.17-.15-.02,0,.14-.02.28-.13-.17l.06.91c.04.75.02.85-.02.69-.03-.32-.08-.77-.13-1.18-.03-.23-.05-.35-.07-.21l.05.58c-.02.27-.08-.48-.11-1.27-.03-.72-.06-1.45-.07-1.8,0-.16.01-.23.02-.33-.05-1.16-.02,1.06-.1,1.16,0-.58.06-1.39.03-1.55,0-.23-.04.17-.1.45-.06.29-.16.44-.13-.06-.04.38-.06.79-.15.99-.05,0-.05-.41-.05-.67,0-.27-.02-.39-.19.06.01-.1.03-.19.06-.26-.1.14-.23.16-.42.36-.05.05-.11.12-.16.21.34-.92.17-.79-.06-.72-.22.08-.5.15,0-.48l-.13-.07-.06-.03s-.02,0-.04-.02l-.06-.05.13-.1c-.21-.36-.58-.18-.94,0,.01-.14.16-.21.22-.26-.19-.63-.31-.61-1.18-.32l.3-.43c-.15.07-.17-.21-.26-.51-.09-.3-.27-.6-.68-.52.04-.04.11-.12.19-.15-.44.06-.52-.45-.68-.81-.15-.36-.36-.56-.98.16l-.6.17c.36.4-.52.64-.51,1.02-.23,0-.12-.75.14-.7l-.02.1c.62-.78-.35-.63.01-1.19-.23-.13-.43-.28-.62-.46-.1-.09-.19-.18-.28-.27l-.29-.26c-.38-.35-.75-.72-1.17-.96l-.25.73-.27-.19c0-.2.16-.59.36-.45.08-.45-.52.14-.6.28-.28-.5.56-.72.44-.8l-.2-.04v.1c-.28.2-.44.51-.68.35-.1-.21.12-.46.06-.52.02-.05.01-.08-.09-.06l-.36-.23-.1.62c-.29.2-.35-.19-.45.51.18-1.08-1.27-.98-1.3-1.35-.41.31-.64.22-.92.06.03.14-.18.79-.4.62.59-1.28-.25-.74-.11-1.76-.04.7-.79-.11-.82.89-.17-.18.16-.5.11-.87-.35.16-.6-.03-.85-.26-.26-.22-.52-.48-.87-.49-.06.17-.04.47-.26.69l-.07-.98c-.15.05-.43.98-.47.3-.01.16-.03.4-.13.43-.5-.61-1.19-.65-1.86-.72-.67-.07-1.31-.24-1.77-1.21.09.39-.03.4-.17.38.07.1-.1.44-.14.69l-.38-.8c-.25.65-.59-.09-.78.54l.19-.08c-.39.71-.06,1.77-.31,2.74.44-.81.34,1.43,1.03.29.04.22-.15.3-.16.53.2-.39.34-.45.52-.21l-.05.1c.65.05.83.51,1.45.97l.08-.49c.13.11.12.27.16.41.37-.67-.41-.17-.03-.92-.07,1.03,1.05.33.87,1.47.23.07.1-.57.32-.5l-.03.32.17-.37c.13.11.09.5.02.75-.03-.04-.12.04-.17.05.08.41.58.04.61.18l-.16-.25c.35-.05.69.08,1.03.17.34.1.68.18,1.08-.02l.03-.24c.6-.24.27.37.84.37l-.04.05c.18-.18.36-.24.48-.17-.22.21.04.58-.23.81.65-.26.37-.25,1.02-.94l-.07.39c.24-.28.32-.44.6-.43-.33.22-.07.61-.46.92.16,1,1.09-.46.81.78.67-.88-.19-.74.03-.89.03-.37.52-.65.63-.48.16.1-.29,1.38.12,1.53-.04-.02-.07.05-.11.03.03.31.45-.21.44.28.38-.53.21.15.61-.57-.15,0-.29-.02-.45,0,.3-.11.92-.86,1.05-.26-.1.13-.3.28-.43.35-.01.27.26-.04.25.23-.41.72-.51-.07-1.01.39-.05.37.67-.32.16.42.67-.94.3.32.97-.31l-.25.43c.08-.05.27-.21.34-.16l-.44.5c.47-.37.17.63.51.47-.42-.2.2-.57.19-.98.84-.3-.32,1.28.34,1.39-.11.01-.12-.43.11-.56.05.15.09.4.02.67.41.13.21-.47.52-.64-.19.6.3-.1.57-.16l-.27.43c.24.53.67-.82.84-.25l-.54.49.29-.03-.35.46c.44-.23.45-.09.56.17.15-.33.54-.74.73-.62-.05.33-.34.35-.05.47-.24.22-.52.5-.36.04-.1.13-.23.22-.34.35-.07.37.26.29.35.35-.02-.04-.05-.09-.03-.16.25-.11.51-.21.76-.31-.06.19-.19.28-.32.37.1,0,.29-.14.42-.1-.27.31-.52.65-.78.7l.6-.12c-.09.16-.13.51-.27.6.03.31.92-.28.94.16.06-.05.14-.09.22-.09.15.26,0,.78.63.58l-.38.66c.29.06.46-.85.96-.75.38.05-.36.53-.43.75.09-.04.2-.09.32-.14.15,0,.3-.01.44,0,.27.04.44.18.43.62-.2-.02-.22-.21-.37-.29M109.07,17.81c-.06.04-.19.24-.21,0,.11-.41.13-.16.21,0M112.16,15.84c.05.23-.08.17-.24.02.03-.09.1-.12.24-.02M120.99,1.67s0,.02,0,.03c-.24-.08-.15-.05,0-.03M121.41,1.69c0-.08-.04-.14-.09-.19.04.12-.03.17-.12.18.09.1.17.16.21.01M99.54,5.81v.15c-.19.07-.1-.03,0-.15"/>
      <path class="cls-1" d="M103.96,97.08l-.06.48c-.65.34-.66.03-.84.63.9-1.1.81.46,1.76-.6-.02.11-.05.22-.07.33-.02-.04-.08.02-.11-.03-.11.36.1.21.36.02.13-.09.27-.2.4-.25.06-.02.11-.04.16-.03.06.02.12.07.17.15.1.24.11.53-.12.54.21.04.41.09.61.12.1.14-.06.33-.17.18.23.17.44.39.64.59l-.02.04c.12-.07.3-.15.45-.22.09-.07.18-.12.24-.17.08.27-.14.12-.18.32l.49-.2c0,.21-.09.37-.22.46-.14.1-.32.13-.45.06-.12.78.04.69.24.57.1-.06.22-.14.35-.13.06,0,.13.02.2.07.05.05.11.13.17.25-.13.02-.21.05-.39.08.05.4.11.54.24.64.13.1.28.17.45.39-.03-.11-.19-.39-.25-.7-.06-.31-.04-.64.16-.73.07.13.2.21.41.05-.03.2,0,.29.07.34.07.05.19.05.26.08l-.06.48c.21-.09.21-.32.34-.47.19.15.24.47.26.74.13.07.09-.06.05-.21-.04-.15-.06-.33.09-.27.09.12.19.17.25.19.04.01.08.02.12.03,0,0,.02.01.03,0l.04-.06s.06-.09.09-.13c.15,0-.01.19.04.24.04-.1.07-.21.11-.32.03-.02.03.07.03.12.11-.18-.02-.34.14-.59,0-.23.1-.17.25-.09.16.07.36.19.45-.22.11.11.03.34.1.53.18-.29.25-.43.3-.57.05-.15.12-.31.17-.77l.5.27c-.38-.33-.37-.87-.43-1.5-.02-.15-.03-.3-.05-.45-.13-.13-.24-.25-.31-.34-.04-.02-.06-.05-.08-.07v-.09c.02-.2.04-.4.04-.58.08.07.19.31.29.64-.01-.08-.03-.15-.04-.22.22.11.4.53.52,1.02-.11-.08-.22-.17-.32-.27.15.52.3,1.13.51,1.53-.02-.12,0-.26.02-.37.04.15.07.28.12.33.05.06,0-.16-.03-.42.16.21.32.42.48.62l-.14-.33c.24-.1.51-.2.78-.33-.02-.3-.07-.6-.13-.89-.06-.28-.12-.55-.18-.81-.12-.52-.22-.97-.13-1.31.32.47.67.59,1.17,1.01-.16-.08-.25-.08-.29-.03-.02.02-.03.05-.04.09-.01.05-.02.11-.02.17-.01.25,0,.59-.21.73.2-.15.4.11.43.25.02-.2.04-.39.05-.58,0-.18.03-.38,0-.51.4.34.39.15.65.18-.88-.57-.26-.79-.34-1.17.28.22.51.49.26.66.8.27-.66-1.12.06-.92-.04.06-.11.05,0,.19-.12-.33.33-.48.5-.2l-.04.06c.41-.27.99-1.05.41-1.72.08.08.72.8.83.94-.51-.9-1.02-1.82-1.49-2.74.48.6,1.95,1.71,1.97,2.29.16,0,.34,0,.33-.36-.13-.03-.9-.67-.87-.79.8.42.46.19,1.22.48-.19-.04-.92-1.01-.75-1.11.1.15.81.87.84,1-.15-.39-.3-.78-.44-1.18.05.24.65.76.94.94-.19-.14.3-.24.32-.41l-.32-.08c.5-.2-.68-1.59-.23-1.89.1.23.83,1.26,1.12,1.21-.3-.54-1.39-2.6-1.27-3.28l.28.22.07-.54c.34.88,1,2.78,1.21,3.55.32.1.29.29.5.09.28.2.18.48.13.54l.64-.23c-.45-.54-.03-.87-.39-1.32-.05.34-.09.68-.13,1.02-.45-.53-.88-1.85-.4-2.04.26.16.66,1.07.81,1.25-.09-.23.1-.63.23-.52l.06.42c.36.07-.19-1.01.45-.64.11-.03.77.57.56.22-.59-.57-2.02-2.61-2.24-3.18.07.02.95.3,1.27.56.49.43.58,1.41,1,1.78-.1-.17-.14-.42-.15-.51.19.07.28.53.44.32-.35-.63.46-.23-.22-.58.1-.31.3-.01.54-.19-.32-.35-.58-1.48-.45-1.79.08.16.25.34.33.42.48-.22.9-.05,1.32-.28.12.13.42.21.48.52,0-.14-.05-.39.07-.47.53.41-.25.24.29.8-.18-.38.07-.68.15-1-.34-.54-.5.1-.56.44-.41-.78-.51-1.78-.2-2.38.29-.38.41.43.42.29.77-.2-.04-1.7.84-1.38.47.41.46,1.02.67,1.37-.22.33-.62-.12-.82,0l.37.13c-.02.21-.17.43-.34.34.4.36,1.23-.44,1.95-.23.03-.21.12-.46-.04-.64l-.15.14c-.33-.36.1-.71-.2-.82.12-.39.22-.96.65-.85l.29.58c-.07-.17-.36-.27-.38-.05.05-.32.82.62.69-.23l-.39-.33c.13-.4.22-1.15.61-1.06-.35-.55-.05.09-.52-.53.25.4.04.46-.15.52-.19.07-.36.13-.04.53-.52-.72-.52-.19-1.08-.77.09.19.25.34-.05.34.01.06.01.15,0,.2-.01,0-.01,0-.02,0l.02.02s0,.04,0,0c.1.06.19.15.25.25.05.5-.37.64-.41.93-.19-.03-.03-.25-.2-.43l-.06.44c-.2-.43-.71-.54-.45-.96l-.34.12c-.3-.16-.61-.14-.69.11-.2-.03-.17.65-.19.25l-.38.51-.06-.1c-.53.19-.66,1.18-1.6.73-.11.19-.21.41-.54.44l-.25-.33c-.14.23-.83.01-.7.43-.39-.41-.68-.3-.92-.1-.24.21-.43.54-.67.57l.28.45c-.26.13-.42.41-.59.79l.28.37c-.03.49-.83.18-1.2.5-.08-.16.05-.2.18-.16-.55-.27-.68.09-.78.45-.1.37-.17.74-.61.61,0,.22-.1.23-.25.2,0,0,.01-.02,0-.04-.01,0-.03.02-.05.03-.1-.03-.2-.06-.3-.08.12.05.22.09.28.1-.07.07-.15.21-.19.4l-.37-.35s-.01.02-.02.03c-.23-.05.06.26.37.5,0,.11,0,.23.04.36-.62-.54-.11.46-.8-.09.2.39-.35.74.19,1.44-.08-.08-.15-.09-.1-.15-.19.04-.38.08-.31.36l-.49-.42.34.87c-.43-.13-.65-.23-.84-.74.15.91-.11.51.12,1.35l-.28-.31c-.1.13.12.69-.19.52-.4-.14-.73.16-1.09.52-.35.37-.74.8-1.32.92.53.32.36.31.14.31-.11,0-.23,0-.27.03-.03.02,0,.08.18.23-.24-.16-.4-.23-.54-.44.04.18-.09.17-.17.18-.08.02-.09.06.12.44-.19-.22-.24-.38-.36-.51.03.06.12.25.01.12-.11-.14-.13-.23-.2-.34-.03.12.44.97.88,1.77-.29-.23-.29-.17-.13.42,0,.03.02.06.02.08-.15-.21-.31-.44-.29-.67,0-.01,0-.03,0-.05,0,0-.01,0-.02,0-.12.05-.41.03-.21.8-.07-.18-.09.06-.08.18-.14.15-.16.08-.26.36l.06.1c.07.61.04.73,0,.73-.04,0-.11-.13-.15.03v-.13c-.17-.25-.17-.11-.19.03,0,.07-.02.14-.04.14-.01,0-.03-.01-.04-.05,0,0-.02-.08-.03-.15-.01-.07-.02-.15-.03-.24l.04.86c.02.61-.01.61-.05.39-.04-.25-.09-.6-.13-.94-.05-.31-.08-.53-.13-.4l.04.51c-.04.2-.1-.44-.11-1.12-.02-.69.01-1.4,0-1.52,0-.14.03-.18.05-.26,0-.5-.02-.27-.07.07-.04.34-.09.83-.17.84.05-.47.18-1.12.15-1.27.02-.19-.07.13-.19.33-.11.21-.28.31-.2-.09-.09.3-.15.63-.3.76-.03,0-.05-.07-.05-.15,0-.16.03-.41.03-.54,0-.13-.06-.14-.29.11.03-.08.06-.14.1-.2-.1.06-.23.07-.38.09-.04,0-.08.01-.12.02-.05,0-.11,0-.16,0-.11.01-.22.04-.32.11.25-.36.27-.56.18-.68-.09-.11-.3-.14-.5-.15-.4-.03-.79-.02-.29-.65l-.61-.38.11-.12c-.31-.35-.67-.13-1.02.1-.02-.15.13-.23.18-.29-.36-.63-.46-.63-1.34-.26l.23-.47c-.28.17-.39-1.18-1.26-.98.03-.05.1-.13.18-.17-.47.09-.66-.46-.9-.81-.24-.34-.51-.52-1.06.26l-.63.21c.47.4-.45.69-.37,1.08-.25,0-.28-.78.01-.74v.11c.53-.84-.51-.64-.21-1.24-.14-.06-.27-.13-.4-.2-.13-.07-.26-.14-.39-.22-.25-.15-.49-.33-.73-.5-.48-.35-.95-.71-1.46-.94l-.16.76c-.11-.07-.23-.12-.34-.18-.03-.2.08-.6.33-.48.02-.45-.57.18-.63.34-.4-.47.51-.76.36-.84l-.23-.02.02.1c-.28.23-.41.54-.71.39-.15-.21.06-.48,0-.54.02-.05,0-.08-.11-.06l-.44-.22-.02.64c-.3.21-.42-.18-.43.54.02-.55-.38-.79-.79-.94-.41-.16-.84-.17-.89-.36-.42.34-.7.25-1.03.09.05.15-.09.81-.37.65.51-1.31-.38-.75-.35-1.79.04.71-.91-.09-.82.92-.22-.18.12-.51.02-.89-.19.09-.36.08-.52.03-.17-.04-.32-.14-.48-.25-.32-.21-.65-.48-1.05-.48-.06.18,0,.48-.22.71l-.18-.99c-.17.05-.38,1-.51.31,0,.16,0,.4-.11.43-.32-.31-.68-.46-1.05-.55-.19-.04-.38-.07-.57-.09l-.58-.04c-.78-.06-1.53-.22-2.14-1.19.14.39,0,.4-.16.38.09.1-.08.45-.11.7l-.51-.8c-.24.66-.69-.08-.86.56l.22-.08c-.39.72.07,1.78-.14,2.76.45-.82.53,1.44,1.23.28.07.22-.15.3-.14.54.2-.4.36-.46.59-.22l-.05.1c.77.04,1.01.52,1.8.95l.04-.5c.17.1.17.27.23.4.37-.69-.5-.15-.14-.92.03,1.03,1.27.32,1.17,1.47.27.07.05-.58.32-.51v.32s.16-.37.16-.37c.17.11.17.51.11.76-.04-.04-.14.04-.19.05.15.41.68.03.74.17l-.22-.25c.82-.09,1.64.48,2.5.1v-.24c.67-.26.38.38,1.03.36l-.04.05c.18-.19.38-.25.54-.18-.23.22.13.59-.15.83.72-.27.39-.26,1.04-.98l-.02.4c.24-.3.31-.47.64-.48-.35.24.01.62-.4.96.36,1,1.19-.5,1.07.77.63-.92-.34-.75-.11-.91-.02-.38.49-.68.65-.51.19.09-.11,1.42.38,1.57-.05-.02-.08.05-.12.03.09.32.49-.22.56.28.35-.56.28.14.61-.62l-.52.02c.33-.11.92-.94,1.18-.34-.09.14-.3.3-.43.38.04.27.3-.07.33.22-.33.75-.61-.04-1.11.46,0,.37.73-.38.27.41.61-1,.42.32,1.06-.36l-.21.45c.08-.05.27-.22.36-.17l-.41.53c.47-.4.31.65.67.48-.52-.2.12-.6.03-1.03.91-.34-.13,1.35.67,1.43-.12.02-.24-.42,0-.57.1.15.2.4.17.67.51.1.14-.5.46-.69-.09.62.33-.12.62-.2l-.21.46c.38.55.59-.88.9-.29l-.51.53.32-.04-.3.49c.45-.25.49-.11.68.16.1-.35.45-.8.69-.7.02.35-.31.38.05.48-.22.24-.49.55-.41.07-.09.14-.22.25-.31.38,0,.39.38.28.51.33-.04-.04-.08-.09-.07-.17.27-.13.53-.25.8-.36-.02.21-.15.31-.28.41.12,0,.29-.16.45-.12-.24.34-.44.71-.72.77l.65-.15c-.06.17-.03.55-.16.65.1.34.98-.35,1.13.1.06-.06.13-.11.23-.11.23.27.19.85.83.61l-.24.73c.35.04.28-.93.87-.86.45.02-.25.58-.27.82.36-.2,1.07-.59.96.09-.17.04-.17-.1-.29-.12M108.16,99.92c-.1.06-.35.3-.34,0,.24-.49.23-.2.34,0M112.67,97.69c.06.21-.07.25-.25.17.03-.12.11-.19.25-.17M124.97,83.47s0,.02,0,.03c-.26-.1-.16-.06,0-.03M125.43,83.51c.01-.08-.02-.14-.06-.2.02.13-.06.17-.17.18.08.11.16.17.23.02M95.77,87.69l.03.15c-.21.08-.12-.03-.03-.15"/>
    </g>
  </g>
</svg>