<?xml version="1.0" encoding="UTF-8"?>
<svg id="Layer_2" data-name="Layer 2" xmlns="http://www.w3.org/2000/svg" viewBox="0 0 395.51 274.5">
  <defs>
    <style>
      .cls-1 {
        fill: #fff;
      }
    </style>
  </defs>
  <g id="Layer_3" data-name="Layer 3">
    <g>
      <path class="cls-1" d="M205.54,193.42c-.22-.02-.14.25-.17.3.37-.06.16-.37.17-.3"/>
      <path class="cls-1" d="M205.82,190.75l.07-.11c-.18.08-.35.15-.53.22.15-.04.31-.06.46-.11"/>
      <path class="cls-1" d="M202.71,190.12c.16.55,1.13.25,1.65.5l.07.12.32-.33c-.68-.05-1.61-.02-2.04-.3"/>
      <path class="cls-1" d="M201.54,188.6c.01.21-.38.01.32.2-.03-.03-.03-.05-.04-.07-.06-.02-.14-.06-.27-.13"/>
      <path class="cls-1" d="M201.82,188.72c.29.11-.13-.22,0,0"/>
      <path class="cls-1" d="M200.48,188.19c.15.02.29.04.44.05-.03-.13-.33-.33-.17-.33-.4-.12-.39.01-.26.28"/>
      <path class="cls-1" d="M199.96,188.3l.23.05c-.01-.06-.05-.1-.23-.05"/>
      <path class="cls-1" d="M200.66,188.44l-.47-.1c.01.1-.05.23.21.06-.1.1.05.03.26.04"/>
      <path class="cls-1" d="M200.86,188.62c.16.19.42.39-.04.35.38.16.58.13.59.04,0-.08-.18-.24-.55-.39"/>
      <path class="cls-1" d="M202.4,190.54l.29.23.33-.07c-.16.03-.59-.31-.61-.16"/>
      <path class="cls-1" d="M198.52,186.56c-.08.06-.06.29-.12.41l.31.1c-.08-.15-.27-.38-.19-.51"/>
      <path class="cls-1" d="M198.4,186.97c-.16-.05-.31-.11-.47-.17.3.3.42.27.47.17"/>
      <path class="cls-1" d="M199.63,188.71c.29.03.58.05.86.07-.32-.05-.66-.08-.99-.15l.13.08Z"/>
      <polygon class="cls-1" points="197.29 185.37 197.63 185.4 197.07 185.31 197.29 185.37"/>
      <path class="cls-1" d="M196.51,184.54c.27.03.1-.41.31-.32-.2-.22-.5-.32-.76-.44.21.17.36.38.44.76"/>
      <path class="cls-1" d="M195.66,183.56c.11.08.25.14.41.21-.11-.09-.24-.16-.41-.21"/>
      <path class="cls-1" d="M197.38,186.23c.02-.07.08-.23-.06-.46l-.07.33s.08.09.13.13"/>
      <path class="cls-1" d="M197.25,186.11h0c-.14-.15-.23-.26-.26-.31.03.04.11.14.26.31"/>
      <path class="cls-1" d="M197.42,186.27s-.02-.02-.03-.03c0,.03,0,.05.03.03"/>
      <path class="cls-1" d="M198.72,187.8c-.32-.02-.89-.28-.58.28.28-.03.1-.33.58-.28"/>
      <path class="cls-1" d="M197.34,186.68c.11.13.22.26.34.39.04-.06.05-.2.2-.17-.18-.07-.36-.14-.54-.21"/>
      <polygon class="cls-1" points="197.1 186.57 197.34 186.68 197.22 186.53 197.1 186.57"/>
      <path class="cls-1" d="M195.93,184.4c-.23-.09-.37-.29-.54-.5.06.13.12.27.19.4.07.13.16.24.24.36.09-.02.29-.02.1-.26"/>
      <path class="cls-1" d="M196.52,185.27s-.03-.02-.04-.03c0,.04,0,.06.04.03"/>
      <path class="cls-1" d="M194.11,181.6s-.02.04-.03.06c.02,0,.03,0,.05-.01l-.02-.05Z"/>
      <path class="cls-1" d="M195.81,184.73c.09.21.22.27.37.31-.13-.1-.24-.23-.35-.38-.04,0-.07.02-.01.07"/>
      <path class="cls-1" d="M195.17,183.02c0,.12.03.26.06.4.02-.14.02-.4-.06-.4"/>
      <path class="cls-1" d="M196.49,185.14s.02,0,.03.02c0-.09-.01-.07-.03-.02"/>
      <path class="cls-1" d="M196.49,185.14c-.1-.06-.21-.08-.31-.11.1.09.2.16.3.21,0-.03,0-.07.01-.11"/>
      <path class="cls-1" d="M192.11,181.54c.26-.05.71.42.69,1.02.41.39,1.02-.32,1.28-.89-.11.03-.2.08-.55-.33-.03.11,0,.41,0,.64,0,.23-.03.4-.24.25-.42-.58-.15-.56-.16-.92-.2.4-.76-.65-1.16-.35l.38.53c-.06.04-.26-.13-.26.06"/>
      <path class="cls-1" d="M194.48,182.52l.13.16c-.07-.23-.06-.42,0-.79-.26-.25-.38-.27-.47-.25.14.3.26.62.42.92l-.07-.04Z"/>
      <path class="cls-1" d="M195.07,183.48c-.32.02-.69-.36-.8.07.35.52.42.25.73.49-.59-.79.27.16.04-.53.14.14.25.27.35.4-.07-.16-.13-.32-.16-.49,0,.01,0,.02,0,.03h0s0,0,0,0c0,.05-.02.08-.03.03,0,0-.01,0-.02-.01-.04.02-.08.02-.11.02-.1-.27.04-.08.11-.02.01,0,.03,0,.04-.01h0c-.21-.25-.43-.5-.62-.76.03.1.08.21.15.33.08.13.18.27.31.46"/>
      <path class="cls-1" d="M197.32,188.22s0-.05.02-.07c-.08-.02-.11-.01-.02.07"/>
      <path class="cls-1" d="M197.11,187.81c.08.02.2-.02.37.16.11.2-.09.11-.14.18.17.04.53.16.26-.23l-.08-.02c-.26-.35-.41-.96-.33-.94-.09.27-.13.47-.09.84"/>
      <path class="cls-1" d="M195.82,185.71c-.22-.18-.43-.37-.64-.57.02.16.04.33.07.5l.1-.11c.27.41.34.21.46.19"/>
      <polygon class="cls-1" points="194.2 181.46 194.51 181.43 193.94 181.18 194.2 181.46"/>
      <polygon class="cls-1" points="193.77 180.5 194.03 180.44 193.78 180.24 193.77 180.5"/>
      <path class="cls-1" d="M215.65,141.94l.2.19c-.08-.1-.14-.15-.2-.19"/>
      <path class="cls-1" d="M214.69,140.28l-.13.03c.11.04.17.04.13-.03"/>
      <path class="cls-1" d="M196.76,154.21c.36-.25.87-.49.58-.56h-.31c-.06.25-.15.43-.28.56"/>
      <path class="cls-1" d="M204.41,136.58s-.09.03-.13.04c.03.13.06.25.08.37.02-.12.03-.26.05-.41"/>
      <path class="cls-1" d="M203.58,135.68l.44-.31c-.12.06-.26.16-.44.31"/>
      <path class="cls-1" d="M220.66,151.15l.39.17c-.19-.45-.24-.19-.39-.17"/>
      <path class="cls-1" d="M192.65,169.63c.15-.3.22-.55.26-.76-.21.36-.49.64-.26.76"/>
      <path class="cls-1" d="M212.64,142.84c.12.11.21.14.26.1-.12-.11-.22-.16-.26-.1"/>
      <path class="cls-1" d="M193.02,167.97c-.04.05-.06.1-.09.16.02.24.03.47-.02.75.16-.26.26-.57.11-.9"/>
      <path class="cls-1" d="M219.23,188s-.06.03-.09.04c.02.03.05,0,.09-.04"/>
      <path class="cls-1" d="M208.3,190.3c.1-.04.26-.06.41-.09-.08,0-.2.02-.41.09"/>
      <path class="cls-1" d="M192.86,176.37c.05.22.04.03,0,0"/>
      <path class="cls-1" d="M191.92,177.66s-.09-.07-.15-.07c.07,0,.12.03.15.07"/>
      <path class="cls-1" d="M191.65,165.32s0-.01,0-.02c-.07.06-.06.05,0,.02"/>
      <path class="cls-1" d="M192.78,176.72c.02-.09.04-.19.04-.3-.02.05-.03.14-.04.3"/>
      <path class="cls-1" d="M192.91,176.66c0,.08,0,.14,0,.2.05.02.08,0,0-.2"/>
      <path class="cls-1" d="M192.81,176.06c.01.13.02.25.02.36.01-.05.03-.07.04-.06-.01-.06-.04-.15-.06-.31"/>
      <path class="cls-1" d="M224.55,168.39s-.01.04-.02.06c.15.24.12.13.02-.06"/>
      <path class="cls-1" d="M196.67,147.21s0,.02,0,.03c0,0,.02-.02.03-.03h-.03Z"/>
      <path class="cls-1" d="M196.88,146.31c.15.5.01.67-.19.9l.87.11-.69-1.01Z"/>
      <path class="cls-1" d="M217.93,145.92l-.06-.67c.73.47.85,1.04.9.34-.84.33-1.23-2.13-2.07-1.77l-.03-.45c.05.11.11.1.15.21-.01-.92-.85-.21-1.26-1.16-.12-.35-.13-.63.08-.47-.2-.2-.4-.39-.6-.58-.1-.21.06-.24.16-.03l-.69-1.01h.03c-.21-.08-.6-.3-.78-.42-.05-.33.16.08.22-.04l-.54-.46c.05-.36.54,0,.76.41.43-1.01-.48-.36-.77-1.79l.44.48c.21-.62-.22-.95-.35-1.73-.04.24.12,1.66-.47,1.16-.06-.21-.18-.46-.55-.69.27-.18-.02-.46-.3-.85l.37-.21c-.39-.37-.55-.21-.88-.36-.3-.5-.1-.79.05-1.06-.49-.81-.06.83-.76-.03-.04-.09-.08-.18-.13-.26-.03-.07-.13-.22-.21-.32-.16-.23-.33-.44-.51-.64-.36-.4-.77-.76-1.23-1.15-.22-.39-.18-.45-.09-.44.08,0,.21.07.14-.12-.2-.07-.38-.12-.55-.15-.1-.14-.05-.24-.02-.29-.21-.15-.23-.01-.28.09-.05.1-.13.17-.39-.07-.05.14-.13.05-.25-.17-.17.13-.43.2-.73.42-.29.22-.63.59-.8,1.12-.22.09-.03-.39-.14-.51-.43.85-.59,1.16-.72,1.48-.06.15-.12.3-.18.49-.05.18-.14.43-.19.7l-.66.46c.58-.27.48.52.39,1.21.24-.07.44-.13.56-.19l-.37.93c-.12.06-.19-.1-.25-.34,0,.07-.01.15-.02.21-.32.2-.43-.08-.48-.43.14-.05.28-.1.42-.15-.07-.34-.18-.69-.41-.79,0,.08-.03.21-.09.33-.02-.09-.05-.16-.1-.16-.06,0-.04.14-.04.34l-.52-.08.12.15-.97.92c-.11,1.04.04,2.09-.56,3.43-.11-.49-.44-.36-.78-.59.58-.12.44-1.07.93-1.67-.25.31-.37.13-.37.01-.13.46-.27.91-.39,1.37-.27-.2-.37.11-.67.35.7.11-.15,1.1-.25,1.68-.21-.08-.34-.31.05-.87-.81.39.17,1.22-.55,1.64.08-.15.15-.21.09-.32-.02.43-.62,1.17-.68.88l.08-.15c-.31.46-.71,1.19-.98,1.86-.27.67-.41,1.28-.19,1.48-.07-.02-.54-.44-.6-.55.25.87.53,1.74.81,2.59-.36-.37-1.69-.29-1.52-1.22-.18.2-.4.46-.48,1.03.14-.13.82-.09.76.14-.77.37-.46.29-1.23.84.21-.2.76.39.57.76-.08-.11-.69-.28-.7-.46l.24,1.26c-.01-.29-.56-.3-.85-.17.17-.04-.38.83-.42,1.12l.33-.34c-.57,1.05.49,1.48.03,2.55-.09-.19-.75-.68-1.06-.15.13.2.44.65.72,1.18.28.53.52,1.14.48,1.66l-.27.11c-.01.27-.01.55-.02.82-.4-.64-1.05-2.35-1.22-3.24-.32.36-.28.02-.5.66-.27.15-.16-.45-.11-.64l-.67,1.43c.43.08.03,1.28.4,1.34.03-.58.07-1.17.13-1.75.22.04.43.38.53.83.1.45.11,1.01-.1,1.52-.26.21-.68-.45-.83-.47.1.18-.06,1.08-.18,1.15-.03-.17-.06-.35-.09-.52-.35.54.27,1.13-.36,1.72-.11.23-.76.58-.52.69.6-.27,2.13.1,2.42.46-.05.07-.81,1.12-1.13,1.34-.49.3-.76-.84-1.18-.58.11.05.2.31.22.41-.16.23-.34-.2-.42.38.42.2-.31,1.14.31.36,0,.58-.23.56-.36,1.22.33-.14.85.79.87,1.36-.11-.05-.28.04-.36.09-.14.56-.26.98-.38,1.4-.12.42-.25.83-.31,1.36-.12.08-.31.59-.48.34.06.16.2.32.17.66-.46.6.03-.75-.5-.31.26.07.25.9.39,1.39.21-.06.24-.33.22-.64-.02-.32-.1-.68-.15-.93.28.03.54.27.74.64.11.18.19.4.27.64.08.24.15.5.19.78.08.88-.39.35-.32.51-.06.41-.02.7.06.94.08.23.18.4.28.56.2.31.35.6.15,1.26-.35.53-.71.04-.96.16-.08-.36-.02-.64.06-.88.08-.25.17-.46.17-.7l-.18.6c-.11-.23-.19-.72-.08-.97-.16.22-.21.93-.22,1.74,0,.81.05,1.72-.02,2.38.14.22.33.59.44.39-.04-.13-.07-.26-.1-.4.12-.2.24-.02.34.14.1.16.19.3.22.04.14.25.3.51.44.79.14.28.23.6.23.97l-.36.22c.11-.04.13-.52-.03-.71.12.14.03.44.01.74-.03.3,0,.61.3.7.04-.19.09-.38.14-.57.32.47.91.94.99,1.58.29-.4-.09-.13.22-.69-.47.54-.4-1.54-.83-.79.42-.58.04-.83.39-1.5-.13.04-.22.25-.24-.28-.04-.02-.1-.06-.13-.1,0-.02,0-.02,0-.04,0,.01,0,.02-.01.03-.02-.02-.03-.02,0,.01-.04.13-.1.25-.16.3-.35-.21-.46-1.07-.63-1.34.03-.33.17.12.29-.07-.09-.14-.19-.27-.28-.41.29-.07.44-.87.66-.14l-.03-.66c.16-.4.21-.92.1-1.28.07-.32-.31-.83-.08-.54-.05-.36-.12-.72-.15-1.09h.08c.06-.54-.03-1.1-.05-1.67,0-.57.08-1.17.41-1.74-.03-.37-.05-.75.12-1.34l.27-.07c-.03-.48.51-1.32.28-1.57.76-.35.62-2.16.96-2.92l-.32-.12c.17-.54.2-1.09.28-1.8l-.3-.04c-.05-.65.65-1.44.94-2.36.09.1-.02.32-.14.46.99-.87.34-2.46,1.18-3.27,0-.28.1-.44.24-.59,0,.02-.01.04,0,.07.01-.02.03-.06.04-.1.09-.09.19-.18.28-.28-.11.07-.2.15-.26.22.07-.19.15-.49.19-.79h.34s.01-.04.02-.06c.22-.22-.05-.28-.33-.22.01-.16,0-.31-.02-.44.57-.02.15-.79.78-.87-.16-.29.44-1.45,0-1.84.07.02.14-.04.08.11.2-.28.41-.55.39-.89l.43.05-.17-.9c.42-.29.63-.39.71.14.05-1.17.22-.85.22-1.88l.21.16c.14-.29.08-.92.36-.99.39-.21.84-.98,1.36-1.89.53-.9,1.13-1.92,1.82-2.59-.85-.1.75-.56.28-.93.21,0,.44-.16.41.18.36-.9,1.01-1.04.94-1.87.21,0,.11.32.26.3,0-.09.03-.34.18-.36.14-.02.05.2.04.37.5-.82.1-1.21-.3-1.57.48-.27.59-.49.51-.98.24-.04.55-.18.26.36.11-.13.45-.52.74-.91.03-.04.06-.09.09-.13.02-.03.03-.06.05-.08.03-.05.06-.11.07-.16.03-.11.03-.22-.03-.31.11.03.2-.22.21-.32.32-.39.35-.36.64-.81-.03,0-.06,0-.1,0,.03-.6.16-.67.3-.74.07.14.15.3.25.39v.07c.26.66.31.66.39.7.04.02.08.04.13.13.05.09.12.26.19.54.05-.11.11-.22.15-.33.22-.28.34.06.4.41.02.09.03.17.05.27.03.11.06.22.1.32.08.21.19.39.36.52l-.02-.34c.44.23-.07,1.52.1,1.93,0,.11-.16-.07-.27-.15.3,1.16.43-.11.98.54-.1.25-.58.15-.31.64,0,.33,1.51.99,1.55,1.88.06-.24.11-.47.43-.21.37.48.29,1.73,1.03,1.92,0,.09-.03.14-.06.16.36.32.95,1.18,1.35,1.28-.37.46.09,1.02.53,1.53.44.52.86.99.41,1.22.24.41.46.82.69,1.24h-.11c.35.85.7,1.03,1.06,1.22.03.22-.12.12-.18.13.39,1.28.46,1.38,1.39,2.19l-.25.24c.29.21.29,1.95,1.11,3.01-.04,0-.11,0-.19-.08.46.6.53,1.51.67,2.25.12.75.3,1.36.95,1.43.2.27.38.55.57.83-.28-1.22.55.02.59-.53.21.46.03,1.33-.21.77l.03-.11c-.33-.02-.27.37-.18.77.09.4.19.82-.02.86.68,2.35.83,4.75,1.1,6.99l.45-.32c.03.26.04.53.07.79-.09.22-.34.32-.39-.24-.24.33.34.91.44.92-.07,1.12-.61-.37-.58-.03l.09.45.04-.11c.24.35.44.37.47,1.04-.07.44-.28.24-.29.41-.03,0-.05.06,0,.26.02.33,0,.66,0,.99l.37-.41c.2.43,0,.94.42.46-.33.35-.34,1.29-.39,2.14-.06.86-.12,1.7-.27,1.88.17.64.04,1.23-.21,1.93.13-.15.57-.15.34.47-.76-.49-.75,1-1.55,1.21.28-.12.14.3,0,.69-.12.4-.26.77.18.59-.32.44-.31-.12-.68.13-.14.63-.56,1.19-1.04,1.73-.49.54-1.04,1.05-1.52,1.65.07.1.37.02.28.39-.33.07-.66.12-.99.17-.17.25.26.68-.43.76.12.02.31.05.18.22-1.33.79-2.53,1.76-3.91,2.51-1.36.76-2.91,1.27-4.5,1.06.44.13.19.22-.12.29.21.02.05.28.12.43-.46-.07-.9-.13-1.35-.23-.09.23-.43.29-.77.31-.17.02-.33.03-.46.07-.13.03-.22.09-.26.19.14-.03.27-.05.41-.09-.26.27-.06.53.22.8.28.27.64.55.63.87.31-.32.76-.15,1.29-.07.26.04.54.08.81.03.27-.05.53-.18.75-.43.27.07-.15.25,0,.36.21-.33.52-.47,1.16-.54l-.05.09c.84-.31,1.45-.48,2.09-.68.32-.1.66-.19,1.02-.33.37-.12.77-.29,1.24-.5l-.29-.2c.4-.17.52-.15.74-.19.08-.33-.18-.18-.45-.03-.27.15-.56.28-.49-.06.2.07.47,0,.76-.13.15-.07.3-.15.46-.24.15-.1.31-.2.46-.3.62-.41,1.19-.84,1.57-.69.52-.43-.38-.15.13-.58l.26.03-.04-.3c.35-.26.68-.24.81-.13-.09.06-.19.24-.27.33.15-.06.29-.16.43-.28.13-.13.26-.28.37-.42.23-.28.39-.56.49-.61-.17.14-.35.27-.53.39.57-.73,1.26-1.49,1.84-2.33.58-.83,1.08-1.72,1.3-2.6l-.19.05c.34-1.31.64-.89,1.05-2.31l.02.06c-.04-.33.02-.72.15-1.1.06.41.52-.58.57-.06.06-.75.03-.94-.03-1.08-.06-.13-.16-.22-.34-.73l.28-.17c-.16-.36-.27-.4-.24-1.12.13.61.43-.42.62.28.19-.37.25-.71.26-1.01.02-.3-.04-.57-.08-.81-.05-.24-.08-.45-.07-.64.01-.19.09-.36.28-.54-.35-.34-.43-.01-.45.35-.01.35,0,.77-.06.57-.12.16-.24.01-.32-.23-.09-.24-.16-.57-.13-.8,0-.23.21-.44.42-.74.1-.15.2-.32.28-.53.07-.21.1-.46.07-.76,0,.12.06.12.06.24.14-.46-.3-.86-.06-1.44-.44-.27-.06-.72-.59-.75.08.36.17.72.23,1.08-.18-.61-.87-1.11-.69-2.15.11.06.29.35.39.54.12-.32-.16-.56-.05-.88.54.01.27,1.31.75,1.93.18-.35-.52-1.22.08-.95-.39-.2-.4-.49-.39-.84,0-.34,0-.72-.34-1.08h.32c-.07-.12-.26-.36-.29-.59l.47.36c-.44-.6.08-1.31-.23-1.9.27,1.3-.31.36-.43.96-.36-.76-.21-1.02-.02-1.33.19-.3.39-.64.1-1.52.1.23.03.95-.2.6-.02-.35,0-.83.11-1.08-.35-1.17-.27.26-.58-.2.27-.49-.3-.53-.56-1.01l.31-.09c-.17-1.38-.72-.17-.84-1.42l.58.37-.3-.58.39.02c-.47-.59-.45-.82-.57-1.51-.16.22-.58.09-.78-.47.05-.45.36.12.04-.68.25.12.56.24.4.69.11,0,.25.12.36.12.06-.49-.31-1.08-.42-1.38.03.12.06.26.04.34-.27-.35-.56-.68-.84-1.02.04-.23.19-.11.33,0-.12-.23-.32-.34-.47-.68.28,0,.52-.12.82.33-.23-.34-.45-.68-.69-1.01.08-.11.06-.68.21-.57-.05-.34-.32-.67-.59-1.02-.28-.35-.56-.73-.64-1.17-.06-.02-.14-.09-.25-.24-.29-.77-.29-1.57-1.03-2.3l.18-.7c-.43-.64-.21.93-.91-.14-.53-.73.21-.47.18-.81-.41-.3-1.18-.77-1.23-1.67.2.2.24.42.39.63M213.05,137.94c.16.11.52.31.44.52-.42.02-.35-.21-.44-.52M203.14,137.36c-.01-.17.15-.31.38-.44-.07.16-.19.31-.38.44M192.42,173.92s0-.01-.02-.02c.12-.37.07-.24.02.02M192.31,174.7c.05.08.09.07.14.03-.08-.05-.1-.22-.08-.42-.08.06-.14.16-.05.39M222.65,171.17l.07-.16c.12.35.03.25-.07.16"/>
      <path class="cls-1" d="M203.68,135.79c.07-.01.13.01.19.04,0-.09-.05-.13-.19-.04"/>
      <path class="cls-1" d="M220.59,151.12s0,.02,0,.03c.02,0,.04,0,.06,0l-.07-.03Z"/>
      <path class="cls-1" d="M191.14,161.79c.09-.16.17-.24.25-.28-.07-.03-.16.03-.25.28"/>
      <path class="cls-1" d="M193.44,178.6c-.07-.15-.13-.3-.19-.45.07.22.02.32,0,.45.07-.03.15-.14.19,0"/>
      <path class="cls-1" d="M193.2,183.37c.07.05.08.14.15.19l.12-.09c-.16-.28-.38-.43-.27-.1"/>
      <path class="cls-1" d="M192.54,179.32c-.25.11-.08.4.09.72,0-.02-.02-.04-.02-.06.39-.02.15-.33-.07-.66"/>
      <path class="cls-1" d="M192.67,180.11c.05.1.09.2.11.31.15-.01-.01-.14-.11-.31"/>
      <path class="cls-1" d="M192.56,175.66c-.05.17.35.07.25.17.36.15-.52-1.04-.25-.17"/>
      <polygon class="cls-1" points="191.77 179.85 192.06 179.63 191.74 179.51 191.77 179.85"/>
      <path class="cls-1" d="M191.37,176.96c0,.2,0,.4,0,.59.05-.02.1.05.14.13-.06-.36-.05-.76-.15-.73"/>
      <path class="cls-1" d="M191.52,177.69c.03.19.07.36.14.45-.03-.1-.07-.31-.14-.45"/>
      <path class="cls-1" d="M191.46,179.1c0-.06.02-.13.02-.19l-.07-.41.05.6Z"/>
      <path class="cls-1" d="M191.3,170.67l-.05-.65c-.11-.08-.19.09-.16.34.07.16.09.4.21.31"/>
      <path class="cls-1" d="M190.3,172.59c.07-.18.15-.19.26-.28l-.41-.03.15.31Z"/>
      <path class="cls-1" d="M190.29,170.67c-.11-.07-.26-.98-.29-.14.11.08.16.74.29.14"/>
      <polygon class="cls-1" points="192.49 161.1 192.46 161.26 193.11 161.42 192.49 161.1"/>
      <path class="cls-1" d="M193.8,152.36c-.45.66.31.33-.14.91.08.23.37-.47.42-.25.02-.5.21-.69-.29-.66"/>
      <path class="cls-1" d="M194.09,153.02c0,.08,0,.17,0,.26.01-.14,0-.21,0-.26"/>
      <path class="cls-1" d="M206.6,190.14c-.15-.04-.3-.07-.45-.11.1.08.2.14.3.21l.15-.1Z"/>
      <path class="cls-1" d="M205.75,190.68l-.12-.43-.27.4c.1-.02.31-.06.39.03"/>
      <path class="cls-1" d="M213.01,136.3l-.11.03c-.05.13,0,.23.13.44l-.02-.46Z"/>
      <polygon class="cls-1" points="216.33 142.28 216.28 142.17 216.05 142.55 216.33 142.28"/>
      <path class="cls-1" d="M219.47,147.11c-.09-.22-.29-.43-.38-.64.29.43-.02.91.38.64"/>
      <path class="cls-1" d="M275.86,240.76c.29.37.33.67.37.73.04.07.08,0,.1.11-.01-.16-.04-.3-.08-.42-.04-.11-.08-.18-.13-.26-.09-.15-.16-.21-.21-.25-.1-.09-.15-.1-.15-.08-.01.04.09.2.09.17"/>
      <polygon class="cls-1" points="268 238.75 268.15 238.71 267 238.69 268 238.75"/>
      <path class="cls-1" d="M260.87,237.88c.65.3,2.59.23,3.86.47l.2.08.6-.12c-1.55-.17-3.57-.26-4.66-.43"/>
      <path class="cls-1" d="M257.1,237.02c.23.11-.83,0,.89.11-.08-.02-.11-.03-.16-.04-.15-.01-.37-.03-.73-.07"/>
      <path class="cls-1" d="M257.82,237.09c.76.06-.49-.12,0,0"/>
      <path class="cls-1" d="M254.33,236.86h1c-.2-.08-1.09-.16-.76-.17-1.02-.03-.82.04-.24.17"/>
      <path class="cls-1" d="M253.38,236.96h.52c-.09-.03-.22-.04-.52,0"/>
      <path class="cls-1" d="M254.99,236.98h-1.1c.14.04.15.12.5,0-.09.06.13.01.59,0"/>
      <path class="cls-1" d="M255.61,237.06c.55.1,1.27.19.27.19,1.9.12,1.64-.07-.27-.19"/>
      <path class="cls-1" d="M260.48,238.09l.74.14h.65c-.32,0-1.42-.22-1.39-.14"/>
      <path class="cls-1" d="M248.15,236.32c-.07.05.33.15.4.22h.74c-.38-.07-1.09-.15-1.13-.22"/>
      <path class="cls-1" d="M248.55,236.54l-1.1.02c.98.07,1.16.04,1.1-.02"/>
      <polygon class="cls-1" points="253.18 237.21 255 237.17 252.84 237.19 253.18 237.21"/>
      <polygon class="cls-1" points="243.95 236.07 244.58 235.99 243.46 236.11 243.95 236.07"/>
      <path class="cls-1" d="M241.16,235.95c.47-.07-.62-.19-.13-.23-.76-.02-1.41.03-1.99.08.62-.01,1.28.03,2.13.15"/>
      <path class="cls-1" d="M238.06,235.87c.31,0,.63-.04.98-.06-.33,0-.65.03-.98.06"/>
      <path class="cls-1" d="M245.57,236.43c-.08-.04-.24-.12-.86-.19l.42.16c.13,0,.28.02.43.03"/>
      <path class="cls-1" d="M245.15,236.41h-.01c-.47-.03-.79-.06-.93-.06.12,0,.41.03.95.06"/>
      <path class="cls-1" d="M245.68,236.43s-.07,0-.11,0c.04.02.07.02.11,0"/>
      <path class="cls-1" d="M250.31,236.88c-.65.04-2,.04-.71.24.47-.07-.27-.18.71-.24"/>
      <path class="cls-1" d="M246.21,236.64l1.16.1s-.23-.11.09-.13l-1.26.03Z"/>
      <polygon class="cls-1" points="245.63 236.65 246.21 236.64 245.77 236.6 245.63 236.65"/>
      <path class="cls-1" d="M240.05,236.09c-.51.04-1.06.02-1.68,0,.67.06,1.36.1,2.01.13.09-.04.39-.11-.33-.13"/>
      <path class="cls-1" d="M242.53,236.25s-.08,0-.11,0c.07.02.12.02.11,0"/>
      <path class="cls-1" d="M232.23,235.85s.06.02.1.03c0,0,.01-.02.02-.02h-.12Z"/>
      <path class="cls-1" d="M240.49,236.26c.5.05.8.03,1.09,0-.38,0-.77-.01-1.2-.03-.04.02-.05.03.11.03"/>
      <path class="cls-1" d="M236.34,235.86c.26.04.56.08.87.11-.25-.06-.77-.15-.87-.11"/>
      <path class="cls-1" d="M242.25,236.21s.05,0,.08,0c-.16-.04-.14-.02-.08,0"/>
      <path class="cls-1" d="M242.25,236.21c-.26,0-.46.03-.67.05.31,0,.59,0,.84,0-.06-.01-.12-.03-.17-.05"/>
      <path class="cls-1" d="M230.34,236.69c.09-.13,1.42-.21,2.55-.02,1.12-.06.41-.52-.56-.79-.04.06-.04.11-1.2.15.4.09,2.55.26,1.58.34-1.53.01-1.25-.09-1.99-.19.63.18-1.95.17-1.63.42l1.34-.04s-.46.08-.09.13"/>
      <path class="cls-1" d="M234.53,235.97h.48c-.54-.04-.93-.11-1.64-.24-.79.03-.96.08-1.01.12l2.34.1h-.16Z"/>
      <path class="cls-1" d="M237.13,236.06c-.38.13-1.52.14-.83.32,1.39.05.98-.08,1.82-.1-2.25-.06.65-.05-.97-.2.44,0,.84,0,1.22.01-.4-.04-.79-.07-1.16-.12.02,0,.03,0,.05.01h.01,0c.1.02.13.04.02.02,0,0-.03,0-.05,0-.02.02-.06.03-.1.05-.65-.06-.1-.04.1-.05,0,0,.03-.01.03-.02h0s-2.26-.02-2.26-.02c.48.04,1.07.06,2.13.09"/>
      <path class="cls-1" d="M248.39,237.35c-.07-.02-.07-.03-.07-.04-.15,0-.2.02.07.04"/>
      <path class="cls-1" d="M247.47,237.21c.16,0,.3-.06.83-.01.46.07,0,.07.01.12.32-.02,1.13-.03.13-.16h-.16c-.9-.09-2.06-.34-1.9-.35.26.14.48.25,1.08.41"/>
      <path class="cls-1" d="M242.24,236.65l-1.88-.02.95.17-.04-.08c1.06.08.84-.02.97-.07"/>
      <polygon class="cls-1" points="232.02 235.77 232.27 235.63 231.18 235.8 232.02 235.77"/>
      <polygon class="cls-1" points="229.58 235.71 229.68 235.58 229.03 235.64 229.58 235.71"/>
      <path class="cls-1" d="M145.67,244.96h.55c-.26,0-.43,0-.55,0"/>
      <path class="cls-1" d="M141.7,244.68l-.1.06c.19-.02.26-.04.1-.06"/>
      <path class="cls-1" d="M169.7,235.59c-.81-.1-1.71-.26-1.61-.12l.25.14c.56-.04.99-.04,1.36-.02"/>
      <path class="cls-1" d="M128.84,239c.08,0,.16,0,.24.01.19-.07.36-.14.52-.2-.23.06-.49.12-.76.19"/>
      <path class="cls-1" d="M128.36,239.67l-1.05.06c.24,0,.58-.02,1.05-.06"/>
      <path class="cls-1" d="M167.4,245.79l.65-.13c-1-.03-.56.06-.65.13"/>
      <path class="cls-1" d="M204.61,235.29c-.69-.06-1.24-.09-1.73-.1.83.09,1.51.22,1.73.1"/>
      <path class="cls-1" d="M144,246.38c.34,0,.48-.02.48-.06-.35,0-.55.02-.48.06"/>
      <path class="cls-1" d="M200.88,235.19c.12.01.24.02.37.03.51-.02,1.02-.04,1.64-.03-.62-.06-1.32-.11-2,0"/>
      <path class="cls-1" d="M246.3,245.11c.06,0,.13,0,.18,0,.02-.02-.06-.02-.18,0"/>
      <path class="cls-1" d="M269.36,244.38c-.22.04-.59.11-.94.16.17-.01.45-.06.94-.16"/>
      <path class="cls-1" d="M219.77,235.38c.52,0,.08-.01,0,0"/>
      <path class="cls-1" d="M222.28,236.01c-.11.01-.19.03-.21.06.04-.03.12-.05.21-.06"/>
      <path class="cls-1" d="M195.73,236.08s-.03,0-.04,0c.15.03.13.02.04,0"/>
      <path class="cls-1" d="M220.55,235.46c-.19-.02-.42-.04-.66-.06.11.01.31.03.66.06"/>
      <path class="cls-1" d="M220.45,235.39c.18,0,.32.02.45.02.07-.02,0-.04-.45-.02"/>
      <path class="cls-1" d="M219.05,235.38c.3,0,.57.02.84.03-.1-.01-.14-.02-.12-.03-.15,0-.37,0-.72,0"/>
      <path class="cls-1" d="M204.04,246.7s.07,0,.11.01c.52-.06.29-.05-.11-.01"/>
      <path class="cls-1" d="M156.31,237.56s.04,0,.06,0c-.02,0-.05,0-.08,0h.02Z"/>
      <path class="cls-1" d="M154.47,237.75c.78-.22,1.23-.21,1.83-.2l-.63-.39-1.2.59Z"/>
      <path class="cls-1" d="M155.19,245.44l-1.29-.19c1.58-.14,2.71-.01,1.5-.25-.21.44-5.05-.2-5.26.23l-.85-.14c.25.02.29,0,.53.01-1.65-.31-1.26.26-3.4.06-.75-.08-1.26-.18-.75-.2h-1.67c-.48-.04-.36-.11.12-.07l-2.54-.14h.02c-.37.03-1.2.08-1.6.09-.64-.11.33-.02.17-.09h-1.41c-.56-.17.61-.18,1.58-.09-1.28-.55-1.18.03-3.98-.48l1.33.06c-.83-.33-1.87-.32-3.35-.63.34.12,2.95.68,1.42.65-.43-.07-.99-.14-1.82-.13,0-.16-.8-.2-1.8-.3l.09-.2c-1.09-.06-1.01.06-1.66.08-1.2-.17-1.43-.36-1.69-.54-1.91-.29,1.29.44-.99.17-1.58-.31-2.71-.39-4.6-.67-1.06-.32.22-.08-.16-.23-.33-.02-.66-.04-.99-.07-.23-.07-.14-.1-.09-.11-.39-.08-.45-.05-.5,0-.05.03-.15.07-.57-.07-.11.02-.26-.04-.41-.15-.07-.06-.14-.14-.18-.23-.05-.1-.01-.25.1-.34.23-.19.52-.27.75-.35.12-.04.23-.08.33-.12.2-.08.4-.15.58-.24.4-.04-.15.17-.01.22,1.03-.36,1.5-.48,1.91-.61.41-.13.78-.24,1.66-.51.53-.04,1.05-.08,1.58-.11-1.17.02.26-.4,1.53-.72-.42-.02-.78-.04-1.02-.04.68-.13,1.36-.26,2.05-.38.25,0,.05.1-.27.23.14-.04.27-.07.37-.1.75-.01.38.16-.13.34-.26-.01-.51-.02-.76-.04-.49.19-.95.4-.82.51.13-.04.38-.1.66-.15-.13.05-.21.09-.14.11.07.01.28-.06.61-.16l.5.17.1-.11c.9-.06,1.8-.11,2.71-.16,1.9-.44,3.55-.95,6.62-1.3-.75.23-.14.29-.17.5-.86-.15-2.37.29-3.96.39.83-.05.66.06.45.11l2.82-.45c-.05.17.61.08,1.36.09-.59-.29,2.1-.38,3.25-.56.08.11-.19.24-1.6.31,1.57.13,1.98-.53,3.53-.42-.34.03-.53.02-.66.09.8-.15,2.77-.2,2.31-.07l-.34.02c2.29-.11,6.97-.39,7.3-.68.02.04-.28.35-.42.42l4.05-1.13c-.35.26,1.06.77-.84.99.55,0,1.22.02,2.37-.11-.37-.02-.94-.31-.43-.35,1.41.21.98.1,2.7.27-.56-.03.05-.43.93-.45-.14.06.09.37-.23.42l2.18-.45c-.55.09-.09.32.41.41-.23-.07,1.9-.06,2.48-.11l-.93-.06c2.48-.02,2.43-.6,4.89-.64-.3.09-.72.49.53.51.57-.21,2.52-.98,4.69-1.17l.42.1,1.67-.16c-1.04.3-3.94.97-5.53,1.24.93.06.26.12,1.65.08.49.09-.75.17-1.16.19h3.23c-.15-.22,2.47-.28,2.34-.46l-3.51.3c-.15-.22,2.02-.68,4.31-.67.58.08-.43.4-.38.48.3-.08,2.17-.18,2.38-.13l-.97.13c1.28.06,2.08-.33,3.61-.13.53,0,1.58.27,1.67.14-.87-.24-1.04-1.03-.47-1.22.19.01,2.78.21,3.39.34.87.19-1.31.48-.56.65.03-.06.51-.14.71-.17.56.05-.23.19.98.15.2-.23,2.46,0,.57-.19,1.18-.07,1.26.04,2.64.02-.44-.14,1.24-.5,2.43-.57-.07.06.2.13.33.17,2.42.02,3.72.12,5.98.13.21.06,1.3.13.83.22.33-.04.62-.11,1.32-.11,1.35.2-1.55.02-.53.26.09-.13,1.8-.17,2.8-.24-.3-.21-2.29-.06-3.29.02,0-.28,1.73-.56,4.09-.67,1.88-.05.81.19,1.14.15,3.53.09,3.01-.46,5.94-.21,1.16.2.05.35.3.49-1.53.04-2.35-.15-3.38-.15l1.28.1c-.49.05-1.51.08-2.06.03.97.17,5.96.11,8.67.32.48-.05,1.32-.09.93-.17h-.86c-.79-.15,1.62-.16.54-.25,1.16-.08,2.46-.21,4.08-.08l.3.21c-.03-.06-1.06-.15-1.52-.1.68-.07,2.49.34,3.24.09l-1.14-.17c1.16-.07,2.6-.25,4.04-.14-.65-.22-.33.01-1.35-.25.88.31-3.69-.12-2.27.23-1.04-.3-1.82-.16-3.18-.43.04.07.48.14-.73.08-.06.02-.18.04-.27.05-.04,0-.05,0-.08,0,.02,0,.04,0,.07,0-.05,0-.06.01.02,0,.29.04.52.08.61.12-.6.14-2.53.09-3.18.16-.72-.05.3-.07-.09-.15l-.97.1c-.09-.15-1.9-.28-.21-.34l-1.52-.03c-.9-.1-2.13-.15-2.89-.1-.72-.04-1.82.14-1.19.03l-2.39.07-.02-.04c-2.36-.04-4.85.2-7.54-.07-.79.04-1.61.08-2.94.04l-.26-.13c-1.02.04-3.06-.13-3.5,0-1.1-.35-4.94-.06-6.74-.1l-.07.17c-1.23,0-2.41.06-3.94.15l.1.15c-1.32.14-3.39-.06-5.48,0,.14-.06.67-.05,1.05-.03-2.5-.29-5.26.34-7.52.16-.56.07-.97.06-1.37.03.05,0,.1,0,.14-.01-.06,0-.14,0-.23,0-.25-.02-.51-.04-.78-.06.24.03.46.05.66.06-.43.01-1.09.05-1.74.11l-.28-.15c-.05,0-.09,0-.15,0-.64-.04-.51.09-.17.2-.32.04-.62.08-.85.12-.52-.24-1.69.14-2.4-.11-.43.15-3.24.21-3.58.51-.02-.04-.21-.05.13-.06-.72,0-1.44,0-2.08.1l-.31-.19-1.56.34c-.96-.08-1.36-.14-.42-.33-2.28.34-1.85.17-3.79.5l.09-.14c-.7.04-1.8.27-2.22.19-1.57-.17-7.7.4-11.71.49.81.32-1.87-.02-2,.29-.24-.07-.8-.07-.16-.21-2.03.27-3.08.14-4.45.53-.24-.07.42-.18.21-.21-.16.04-.64.15-.86.12-.21-.03.29-.11.61-.18-2.08.24-2.26.55-2.38.83-1.07,0-1.59.09-2.32.37-.38-.03-1-.04.28-.25-.36.04-1.48.17-2.5.33-1.03.16-1.96.38-1.98.49-.24-.01-1.01.2-1.19.27-.4.09-.72.17-.98.25-.14.04-.24.07-.38.11-.15.05-.3.09-.43.15-.14.05-.27.11-.41.17-.13.07-.28.13-.42.22-.13.09-.29.18-.42.3-.14.12-.27.27-.37.47.04-.08.09-.14.14-.21l.18-.18c-.03.07-.06.14-.1.21-.03.08-.08.15-.1.24-.03.09-.05.19-.04.29.01.11.05.21.11.3.22.37.66.7,1.43.99h-.06c.2.1.42.18.58.24.15.06.28.1.4.14.24.08.42.13.57.17.3.08.46.1.62.13.32.05.62.12,2.05.49l-.13-.18c.17-.14.8.02,1.6.23.81.2,1.79.45,2.65.49l-.6-.17c.93.01,2.52.79,3.45.93.2.05-.33.01-.61,0,2.41.47.34-.17,2.16-.03.32.14-.46.24.76.38.6.16,3.58-.03,5.23.31-.36-.12-.72-.23.13-.23,1.29.07,3.47.59,4.66.39.16.03.22.06.23.08.99,0,3.22.09,3.82-.03.88.61,6.16.06,6.11.56l3.04.11-.08.05c1.94.12,2.64.02,3.32-.07.45.05.12.09.08.11,2.84.21,3.12.19,5.51.02l.24.17c.65-.07,4.1.38,6.89.25-.03.02-.09.05-.31.07,3.14-.12,7.5.6,8.66.02l2.07-.12c-2.68-.08.4-.25-.7-.37,1.05-.02,2.72.21,1.43.23l-.2-.03c-.48.31,3.33.15,3.25.36,5.27.03,10.41.21,15.34.2l-.57-.24h1.72c.45.06.61.19-.62.19.65.13,2.06-.13,2.09-.18,2.41.08-.94.29-.2.29l1-.03-.23-.03c.81-.11.88-.21,2.36-.21.93.04.48.14.85.15,0,.02.12.02.56,0h2.17s-.87-.19-.87-.19c.96-.11,2.04-.02,1.04-.22,1.47.32,8.09-.02,9,.06,1.34-.17,2.67-.2,4.32-.23-.41-.03-.66-.24.76-.25-.51.46,2.6.12,3.76.4-1.03-.17,4.03-.19,2.41-.44,1.19,0,.08.16.98.23,2.81-.28,6.22-.14,9.7-.37.05-.06-.54-.12.21-.24l1.85.19c.69-.07.61-.37,1.88-.24-.18-.04-.45-.1.01-.14,3.42-.06,6.9-.36,10.39-.68,3.49-.33,6.99-.68,10.48-.93-.95.03-.33-.07.38-.19-.47.04-.01-.14-.11-.21.97-.08,1.95-.17,2.92-.29.24-.16,1.01-.33,1.75-.53.74-.2,1.46-.47,1.57-.65-.3.15-.59.26-.89.37.56-.32.09-.3-.48-.28-.58.02-1.28.02-1.23-.15-1.26.59-3.57.29-5.73.97-.5,0,.4-.16.13-.2-.54.21-1.22.33-2.49.42l.14-.05c-3.54.43-5.08.44-9.09.67l.31.13c-.86.05-1.05.01-1.45,0-.97.31,2.42-.17,1.54.16-1.16-.22-6.07.43-6.87.11-1.33.08.4.16-.93.24l-.36-.08-.33.15c-.87.03-1.32-.07-1.35-.15.21,0,.6-.06.82-.08-1.13-.05-3.17.21-3.56.19h1.28c-3.61.28-8.04.34-11.53.67l.27.06c-2.67.23-2.14,0-5.08.15l.11-.02c-.58.09-1.37.15-2.17.17.74-.11-1.4-.13-.43-.25-2.89.22-1.43.15-3.34.47l-.44-.11c-.65.13-.7.19-2.17.25,1.2-.13-.94-.17.4-.33-3.08-.2-4.56.36-5.98-.01-1.41.36,2.67.15,1.88.23.66.1-1.16.27-2.13.25-.98,0-1.68-.41-4.15-.37.25,0,.26-.03.51-.03-.93-.08-1.81.14-2.95,0-.63.21-1.47,0-1.66.26l2.27-.08c-1.28.08-2.49.4-4.61.26.16-.05.79-.13,1.23-.17-.62-.07-1.19.06-1.84-.02.18-.26,2.76-.07,4.13-.28-.67-.1-2.6.21-1.91-.08-.99.37-2.44-.03-4.11.25l.11-.16c-.26.03-.81.1-1.3.1l.88-.21c-1.36.18-2.61-.15-3.91-.06,2.72,0,.61.19,1.76.3-3.36.21-1.93-.41-5.69-.35.51-.02,1.91.1,1.11.17-.72-.04-1.66-.1-2.1-.18-2.49.02.38.16-.68.25-.85-.2-1.22.07-2.32.12v-.16c-2.84-.13-.76.33-3.32.18l1.08-.21-1.33.04.28-.18c-1.45.12-1.9.08-3.32,0,.33.12-.19.29-1.45.27-.86-.11.48-.14-1.3-.15.4-.09.85-.21,1.62-.05.08-.05.4-.09.48-.14-.92-.12-2.32-.06-2.96-.07.25.01.55.02.7.05l-2.59.17c-.41-.07-.08-.11.24-.15-.52,0-.89.07-1.66.07.2-.13.16-.26,1.25-.3l-2.46.09c-.16-.06-1.26-.18-.94-.22-1.36-.11-3.35.17-5.16.01-.09.02-.28.04-.67.05-1.7-.08-3.2-.29-5.22-.19l-1.13-.28c-1.58,0,1.53.35-1.09.34-1.86,0-.69-.23-1.33-.32-.93.08-2.55.25-4.24-.03.57-.02,1.01.04,1.54.05M135.78,244.27c.38,0,1.13-.04,1.4.08-.44.14-.77.03-1.4-.08M131.72,238.96c-.27.09-.71.11-1.2.1.35-.06.75-.09,1.2-.1M214.1,235.41s-.03,0-.04,0c-.84-.08-.54-.05.04,0M215.85,235.51c.18-.02.16-.04.09-.07-.12.04-.52.03-.96.02.12.04.35.08.87.05M209.57,247.73l-.34-.04c.77-.05.55-.01.34.04"/>
      <path class="cls-1" d="M128.43,239.59c-.11-.01-.14-.04-.17-.06-.14.05-.14.08.17.06"/>
      <path class="cls-1" d="M167.28,245.81h.06s.05-.01.06-.02l-.12.02Z"/>
      <path class="cls-1" d="M188.77,236.74c-.36-.02-.56-.05-.69-.08-.02.04.14.07.69.08"/>
      <path class="cls-1" d="M225.13,235.44h-1.12c.54.02.73.06,1.01.09-.02-.04-.24-.1.11-.09"/>
      <path class="cls-1" d="M234.82,236.75c.16-.01.35.01.51,0l-.04-.08c-.7-.02-1.19.02-.47.08"/>
      <path class="cls-1" d="M226.15,236c.08.14.79.11,1.57.11-.05,0-.09,0-.14,0,.24-.18-.6-.14-1.44-.11"/>
      <path class="cls-1" d="M227.91,236.11c.24,0,.49,0,.73.02.09-.07-.29-.02-.73-.02"/>
      <path class="cls-1" d="M218.07,235.46c.37.04.24-.17.45-.11.42-.16-2.49.16-.45.11"/>
      <polygon class="cls-1" points="226.77 236.46 226.5 236.28 226.05 236.41 226.77 236.46"/>
      <path class="cls-1" d="M220.58,236.18l1.25.07s.14-.04.34-.05c-.77-.02-1.62-.08-1.59-.03"/>
      <path class="cls-1" d="M222.17,236.2c.4.01.78.02,1.01,0-.22,0-.69-.01-1.01,0"/>
      <polygon class="cls-1" points="225.06 236.46 224.69 236.42 223.81 236.38 225.06 236.46"/>
      <path class="cls-1" d="M207.11,235.94l-1.37.04c-.14.06.23.09.74.08.33-.04.84-.05.63-.11"/>
      <path class="cls-1" d="M211.24,236.44c-.37-.04-.39-.08-.6-.13l-.04.2.65-.07Z"/>
      <path class="cls-1" d="M207.25,236.44c-.14.06-1.99.15-.25.15.14-.06,1.51-.09.25-.15"/>
      <polygon class="cls-1" points="186.65 236.19 186.99 236.19 186.94 235.85 186.65 236.19"/>
      <path class="cls-1" d="M168.51,237.34c1.62.04.38-.22,1.84-.16.38-.09-1.2-.05-.81-.13-.98.11-1.49.08-1.03.29"/>
      <path class="cls-1" d="M169.54,237.06c.16-.02.32-.04.5-.06-.28.03-.42.05-.5.06"/>
      <path class="cls-1" d="M273.21,243.75c.36-.08.71-.16,1.08-.27-.25.05-.48.09-.72.12l-.36.15Z"/>
      <path class="cls-1" d="M275.14,242.73c.12,0,.25.02.39,0,.05-.07.1-.11.15-.19.05-.08.1-.16.14-.24.05-.1.08-.21.11-.31.02-.12.03-.26.02-.38,0,.3-.18.65-.36.81-.18.18-.35.28-.46.31"/>
      <path class="cls-1" d="M132.96,243.56l-.08.04c.15.07.39.1.88.16l-.79-.2Z"/>
      <polygon class="cls-1" points="146.99 244.83 146.75 244.82 147.19 245.04 146.99 244.83"/>
      <path class="cls-1" d="M158.83,245.18c-.48-.03-1.05,0-1.54-.04,1.05,0,1.66.28,1.54.04"/>
      <path class="cls-1" d="M360.55,245.33c.12.31.17.53.2.68.03.15.05.23.07.26.04.08.08,0,.09.11-.03-.62-.19-.96-.28-1.14-.09-.18-.15-.21-.16-.2-.02.03.07.31.07.28"/>
      <path class="cls-1" d="M345.48,238.79h.29c-.79-.13-1.57-.26-2.36-.38l2.07.38Z"/>
      <path class="cls-1" d="M330.62,236.05c1.38.44,5.41.8,8.05,1.38l.43.13,1.23.04c-3.22-.6-7.43-1.16-9.7-1.56"/>
      <path class="cls-1" d="M322.71,234.44c.48.16-1.74-.15,1.86.27-.18-.04-.23-.05-.33-.07-.32-.04-.77-.1-1.53-.2"/>
      <path class="cls-1" d="M324.24,234.64c1.58.2-1.02-.21,0,0"/>
      <path class="cls-1" d="M316.94,233.8l2.09.16c-.43-.11-2.28-.33-1.59-.29-2.14-.2-1.71-.09-.5.13"/>
      <path class="cls-1" d="M314.95,233.75l1.08.09c-.19-.04-.47-.08-1.08-.09"/>
      <path class="cls-1" d="M318.33,234.03l-2.3-.19c.3.07.32.15,1.05.09-.2.05.26.03,1.24.1"/>
      <path class="cls-1" d="M319.62,234.22c1.16.19,2.66.41.57.23,3.98.46,3.42.22-.57-.23"/>
      <path class="cls-1" d="M329.83,236.18l1.54.3,1.35.13c-.68-.07-2.98-.52-2.9-.43"/>
      <path class="cls-1" d="M303.97,232.35c-.13.04.69.2.84.28l1.55.09c-.79-.11-2.29-.28-2.38-.36"/>
      <path class="cls-1" d="M304.81,232.63l-2.31-.12c2.06.2,2.44.19,2.31.12"/>
      <polygon class="cls-1" points="314.55 233.97 318.34 234.22 313.82 233.89 314.55 233.97"/>
      <polygon class="cls-1" points="295.16 231.59 296.48 231.58 294.14 231.57 295.16 231.59"/>
      <path class="cls-1" d="M289.32,231.17c.98-.03-1.32-.26-.29-.24-1.59-.1-2.95-.11-4.18-.12,1.3.05,2.68.15,4.47.36"/>
      <path class="cls-1" d="M282.79,230.78c.65.02,1.32.02,2.06.03-.69-.02-1.37-.04-2.06-.03"/>
      <path class="cls-1" d="M298.57,232.14c-.18-.04-.51-.15-1.8-.29l.9.21c.28.02.59.05.91.08"/>
      <path class="cls-1" d="M297.7,232.07h-.03c-.98-.09-1.67-.15-1.96-.17.25.02.85.07,1.99.17"/>
      <path class="cls-1" d="M298.8,232.16c-.08,0-.15-.01-.23-.02.09.02.14.03.23.02"/>
      <path class="cls-1" d="M308.53,233.21c-1.36-.06-4.19-.24-1.47.14.98,0-.58-.22,1.47-.14"/>
      <path class="cls-1" d="M299.91,232.43l2.44.25s-.48-.13.19-.11l-2.64-.13Z"/>
      <polygon class="cls-1" points="298.71 232.37 299.91 232.43 299.01 232.34 298.71 232.37"/>
      <path class="cls-1" d="M286.98,231.2c-1.06-.01-2.22-.09-3.53-.16,1.4.12,2.85.23,4.23.33.2-.03.81-.07-.69-.17"/>
      <path class="cls-1" d="M292.19,231.61c-.07,0-.17,0-.24,0,.14.02.26.04.24,0"/>
      <path class="cls-1" d="M270.57,230.27c.07.01.13.02.21.04.02,0,.03-.01.05-.02h-.26Z"/>
      <path class="cls-1" d="M287.91,231.41c1.05.1,1.68.11,2.29.11-.79-.05-1.62-.1-2.52-.16-.09.01-.11.03.23.04"/>
      <path class="cls-1" d="M279.19,230.62c.55.06,1.17.12,1.82.19-.53-.08-1.62-.22-1.82-.19"/>
      <path class="cls-1" d="M291.6,231.54c.05,0,.1,0,.16,0-.34-.06-.3-.04-.16,0"/>
      <path class="cls-1" d="M291.6,231.54c-.54-.02-.97-.02-1.4-.02.64.04,1.24.06,1.76.08-.13-.02-.26-.04-.35-.07"/>
      <path class="cls-1" d="M266.62,230.97c.19-.12,2.97-.1,5.35.17,2.36.03.84-.48-1.2-.84-.08.05-.08.1-2.51.06.85.11,5.37.45,3.32.46-3.21-.1-2.63-.18-4.18-.33,1.32.23-4.1.04-3.41.31l2.82.05c.05.04-.97.05-.19.12"/>
      <path class="cls-1" d="M275.39,230.57l1,.04c-1.14-.09-1.95-.19-3.44-.37-1.66-.03-2.01,0-2.13.04l4.91.29h-.34Z"/>
      <path class="cls-1" d="M280.86,230.89c-.79.09-3.19,0-1.73.25,2.93.17,2.06,0,3.81.06-4.72-.27,1.36,0-2.04-.29.93.03,1.76.08,2.55.13-.85-.08-1.67-.15-2.44-.22.04,0,.07.01.11.02h.02s0,0,0,0c.2.03.27.05.04.02-.02,0-.07,0-.1,0-.03.02-.12.03-.22.04-1.37-.12-.21-.05.22-.04.02,0,.05-.01.06-.02,0,0-.01,0-.02,0l-4.74-.21c1,.08,2.25.15,4.48.27"/>
      <path class="cls-1" d="M304.51,233.42c-.15-.03-.14-.04-.15-.05-.31-.01-.42,0,.15.05"/>
      <path class="cls-1" d="M302.58,233.16c.34.01.64-.02,1.75.1.96.13-.01.07.04.12.68.02,2.36.12.26-.15h-.34c-1.89-.24-4.32-.62-3.99-.61.54.17,1.03.31,2.28.55"/>
      <path class="cls-1" d="M291.59,231.98l-3.94-.22,1.99.27-.1-.08c2.24.19,1.76.07,2.04.03"/>
      <polygon class="cls-1" points="270.12 230.17 270.65 230.05 268.36 230.14 270.12 230.17"/>
      <polygon class="cls-1" points="265 229.93 265.19 229.81 263.84 229.82 265 229.93"/>
      <path class="cls-1" d="M88.57,258.35l1.16.07c-.55-.04-.9-.06-1.16-.07"/>
      <path class="cls-1" d="M80.24,257.48l-.21.04c.39,0,.55,0,.21-.04"/>
      <path class="cls-1" d="M139.11,229.54c-1.69-.05-3.59-.16-3.38-.02l.52.12c1.18-.08,2.08-.1,2.85-.1"/>
      <path class="cls-1" d="M53.41,238.47c.16-.02.33-.04.49-.05.39-.13.76-.25,1.09-.35-.48.12-1.02.26-1.58.41"/>
      <path class="cls-1" d="M52.36,239.29c-.73.12-1.46.25-2.18.38.49-.08,1.19-.2,2.18-.38"/>
      <path class="cls-1" d="M134.25,261.27l1.36-.09c-2.11-.09-1.19.02-1.36.09"/>
      <path class="cls-1" d="M212.5,228.51c-1.46-.07-2.62-.1-3.64-.12,1.76.09,3.17.23,3.64.12"/>
      <path class="cls-1" d="M85.14,259.54c.71.04,1.01.05,1,.01-.73-.05-1.14-.06-1-.01"/>
      <path class="cls-1" d="M204.66,228.37c.26.01.51.02.77.04,1.07-.02,2.14-.03,3.44-.01-1.3-.07-2.78-.12-4.21-.02"/>
      <path class="cls-1" d="M300.17,258.87c.12,0,.27-.01.38-.02.03-.02-.13,0-.38.02"/>
      <path class="cls-1" d="M348.27,253.45c-.46.13-1.22.32-1.94.49.35-.07.94-.22,1.94-.49"/>
      <path class="cls-1" d="M244.38,229.05c1.09.03.17-.01,0,0"/>
      <path class="cls-1" d="M249.65,229.79c-.23,0-.41.02-.44.05.09-.03.24-.05.44-.05"/>
      <path class="cls-1" d="M193.83,229.25s-.06,0-.09,0c.32.03.27.02.09,0"/>
      <path class="cls-1" d="M246.02,229.16c-.41-.03-.88-.06-1.39-.09.22.02.65.05,1.39.09"/>
      <path class="cls-1" d="M245.8,229.09c.37.02.67.03.95.05.14-.02.02-.04-.95-.05"/>
      <path class="cls-1" d="M242.87,229.01c.62.02,1.2.04,1.76.07-.21-.02-.3-.03-.24-.03-.32,0-.77-.02-1.51-.04"/>
      <path class="cls-1" d="M211.31,263.06c.07,0,.15,0,.23.01,1.1-.07.61-.06-.23-.01"/>
      <path class="cls-1" d="M110.94,232.52c.05,0,.08,0,.12-.02-.05,0-.12,0-.16,0h.04Z"/>
      <path class="cls-1" d="M107.05,232.9c1.64-.3,2.59-.34,3.85-.38l-1.32-.33-2.53.71Z"/>
      <path class="cls-1" d="M108.57,259.94l-2.72-.32c3.31.03,5.69.25,3.14-.1-.21.21-2.86.04-5.52-.15-2.65-.19-5.3-.39-5.51-.19l-1.79-.24c.51.05.6.03,1.11.08-3.48-.51-2.63.11-7.13-.36-1.57-.18-2.66-.35-1.58-.3l-3.51-.23c-1.02-.11-.76-.16.25-.05l-5.33-.53h.04c-.77-.02-2.5-.11-3.35-.16-1.34-.22.68.03.34-.06l-2.96-.25c-1.18-.26,1.27-.07,3.3.18-2.69-.78-2.46-.15-8.35-1.2l2.78.31c-1.76-.48-3.93-.68-7.03-1.3.72.21,6.21,1.29,3.01.95-.89-.16-2.07-.34-3.8-.51,0-.16-1.67-.37-3.76-.71l.18-.18c-2.27-.32-2.11-.19-3.45-.33-2.5-.48-2.99-.76-3.55-1.01-3.98-.86,2.7.84-2.03-.12-1.65-.4-3.05-.73-4.53-1.09-1.48-.36-3.04-.74-4.95-1.35-2.17-.88.43.02-.34-.33-.67-.19-1.33-.39-1.98-.62-.46-.21-.29-.19-.2-.18-.79-.34-.84-.32-1.01-.34-.08-.02-.19-.04-.43-.15-.24-.11-.6-.29-1.14-.68-.17-.06-.53-.32-.89-.76-.35-.44-.63-1.1-.35-1.72.26-.64.97-1.23,1.72-1.72.76-.5,1.6-.92,2.34-1.33.79-.28-.32.28-.05.25,1.03-.51,1.82-.82,2.42-1.06.61-.24,1.06-.4,1.49-.56.85-.31,1.6-.59,3.45-1.2,1.08-.23,2.17-.45,3.25-.65-2.41.4.57-.52,3.23-1.2-.87.1-1.6.18-2.1.26,1.42-.34,2.84-.67,4.26-.98.53-.06.11.09-.58.31.29-.07.56-.14.78-.2,1.55-.21.77.06-.3.38-.53.06-1.06.12-1.57.17-1.03.34-1.99.68-1.74.76.27-.08.8-.21,1.39-.34-.27.09-.44.16-.31.15.15,0,.58-.14,1.27-.33l1.02.04.22-.14c1.88-.3,3.76-.58,5.64-.83,3.99-.88,7.46-1.74,13.89-2.62-1.58.36-.31.32-.37.54-1.78,0-4.97.71-8.3,1.14,1.74-.22,1.37-.07.93.02,1.97-.34,3.94-.67,5.91-.98-.11.18,1.28-.03,2.84-.15-1.21-.19,4.41-.74,6.83-1.08.16.1-.41.26-3.37.56,3.29-.11,4.18-.84,7.4-.95-.72.07-1.11.1-1.39.18,1.68-.27,5.82-.58,4.85-.39l-.72.07c2.4-.21,6.06-.54,9.2-.82,3.14-.29,5.78-.56,6.13-.73.05.03-.61.38-.89.46,2.84-.53,5.68-1.04,8.52-1.54-.74.29,2.2.67-1.78,1.07,1.15-.04,2.57-.1,4.98-.33-.78.01-1.97-.23-.9-.32,2.95.09,2.05.02,5.68.04-1.18.02.11-.44,1.96-.53-.29.07.17.37-.5.44l4.59-.62c-1.15.13-.19.32.85.38-.48-.05,3.99-.19,5.22-.28h-1.96c5.21-.18,5.12-.75,10.3-.94-.62.1-1.53.53,1.1.48,1.2-.24,5.3-1.12,9.88-1.4l.88.08,3.51-.22c-2.18.34-8.3,1.13-11.64,1.49,1.95.02.55.11,3.47,0,1.03.07-1.59.21-2.45.24l6.8-.16c-.31-.22,5.2-.37,4.93-.55l-7.38.45c-.31-.21,4.25-.77,9.08-.85,1.23.06-.91.42-.81.49.62-.09,4.57-.26,5.02-.21l-2.04.17c2.69.02,4.37-.39,7.6-.24,1.11,0,3.33.23,3.52.09-1.82-.22-2.19-1-.98-1.21.39,0,5.85.15,7.13.27,1.84.18-2.75.51-1.18.66.07-.06,1.08-.15,1.5-.18,1.17.04-.48.19,2.06.14.42-.23,5.17-.03,1.2-.2,2.49-.09,2.64.02,5.56,0-.93-.14,2.62-.51,5.11-.58-.15.06.41.13.68.16,5.1.01,7.83.12,12.59.15.44.06,2.73.14,1.75.23.68-.03,1.31-.11,2.78-.1,2.83.22-3.27,0-1.11.26.19-.13,3.79-.15,5.88-.2-.64-.21-4.82-.09-6.91-.02,0-.28,3.63-.55,8.61-.61,3.95-.02,1.71.2,2.4.17,7.42.17,6.33-.39,12.48-.05,2.44.24.1.36.64.5-3.22,0-4.93-.22-7.11-.26l2.68.14c-1.02.04-3.17.04-4.34-.03,2.05.19,12.53.28,18.24.61,1.02-.03,2.77-.03,1.95-.13l-1.81-.03c-1.66-.2,3.41-.09,1.12-.23,2.43-.02,5.16-.09,8.57.12l.63.23c-.07-.06-2.23-.21-3.19-.18,1.43-.04,5.23.47,6.8.27l-2.39-.24c2.44,0,5.46-.09,8.49.11-1.37-.26-.7-.01-2.84-.34,1.85.37-7.75-.34-4.76.09-2.2-.36-3.82-.26-6.7-.6.09.07,1.02.16-1.52.04-.12.02-.39.03-.56.04-.08,0-.11,0-.17-.01.05,0,.09,0,.14.01-.11,0-.12,0,.05,0,.6.05,1.09.1,1.29.15-1.27.11-5.31-.02-6.68.02-1.51-.08.63-.06-.19-.15l-2.05.06c-.2-.16-4-.35-.45-.35l-3.2-.09c-1.88-.13-4.48-.22-6.08-.19-1.51-.06-3.82.09-2.5,0h-5.02s-.05-.03-.05-.03c-4.95-.1-10.2.11-15.86-.19-1.67.03-3.39.07-6.18.02l-.54-.13c-2.14.04-6.43-.12-7.35.02-2.31-.34-10.4-.01-14.16-.02l-.14.17c-2.59.03-5.08.11-8.29.24l.2.14c-2.77.17-7.13.04-11.52.17.3-.06,1.41-.08,2.2-.06-5.25-.2-11.05.56-15.81.49-1.18.1-2.04.11-2.87.11.11,0,.21-.01.29-.02-.12,0-.3.01-.49.02-.52,0-1.06,0-1.65-.01.5.02.97.03,1.39.02-.91.04-2.3.11-3.65.21l-.59-.13c-.11,0-.2.01-.31.02-1.33,0-1.07.12-.35.21-.68.06-1.31.11-1.79.18-1.09-.21-3.56.25-5.05.05-.91.17-6.82.45-7.52.78-.05-.03-.45-.03.28-.07-1.51.05-3.03.11-4.38.27l-.65-.16-3.28.48c-2.01,0-2.85,0-.87-.3-4.79.56-3.9.35-7.96.88l.19-.15c-1.46.11-3.78.47-4.67.43-1.64,0-5.68.32-10.36.75-4.67.45-9.99.97-14.18,1.38,1.67.18-3.91.3-4.2.65-.5-.03-1.67.08-.33-.18-4.25.65-6.42.74-9.31,1.46-.5-.01.89-.28.45-.26-.34.07-1.34.3-1.79.31-.44.02.61-.18,1.28-.33-4.34.73-4.72,1.12-4.99,1.42-2.21.28-3.3.52-4.83,1.02-.77.08-2.06.26.6-.34-.75.15-3.06.61-5.17,1.15-2.11.53-4.03,1.16-4.07,1.29-.48.09-2.05.68-2.42.86-1.62.62-2.48,1.06-3.31,1.53-.41.25-.82.51-1.28.88-.23.19-.47.41-.71.7-.24.29-.49.64-.64,1.13.12-.36.32-.67.54-.93-.17.33-.34.68-.43,1.1-.09.41-.08.89.09,1.35.17.46.47.9.88,1.31.4.41.91.78,1.51,1.14l-.08-.02c.67.44,1.24.73,1.71.96.47.23.84.39,1.14.51.6.25.92.35,1.24.46.32.11.63.21,1.23.42.6.21,1.49.52,2.96.98l-.28-.24c.32-.08,1.62.33,3.3.82,1.67.48,3.73,1.03,5.5,1.31l-1.25-.34c1.93.29,5.28,1.49,7.22,1.85.42.1-.68-.06-1.27-.14,5.04,1.04.69-.08,4.48.47.68.22-.94.15,1.6.55.63.14,2.49.32,4.63.53,2.14.21,4.55.45,6.29.77-.76-.18-1.51-.36.26-.21,2.71.3,7.28,1.15,9.76,1.12.34.06.47.09.48.12,2.08.14,6.75.52,8.01.48.93.36,4.16.57,7.15.72,2.99.16,5.73.28,5.68.53l6.39.4-.17.04c4.08.29,5.53.25,6.98.21.94.09.25.1.17.12,5.96.43,6.56.44,11.58.43l.51.19c1.36-.03,8.62.64,14.49.65-.06.02-.18.04-.65.05,6.6.05,15.78.92,18.21.37l4.35-.06c-5.63-.16.84-.24-1.47-.39,2.21,0,5.72.28,3,.27l-.43-.04c-1.01.3,6.99.22,6.84.43,11.08.13,21.88.33,32.26.26l-1.2-.23h3.62c.95.03,1.28.16-1.31.18,1.36.13,4.33-.16,4.4-.21,5.06.04-1.97.31-.42.29l2.11-.04-.47-.02c1.71-.12,1.86-.23,4.96-.26,1.97.02,1.01.13,1.78.13,0,0,.06.01.24.01.18,0,.48,0,.94-.03l4.56-.06-1.83-.16c2.02-.13,4.29-.08,2.18-.25,1.55.14,5.8.07,9.91-.04,4.1-.11,8.06-.27,9.01-.25,2.83-.24,5.62-.34,9.08-.46-.86,0-1.39-.2,1.6-.3-1.07.49,5.47-.04,7.9.15-2.16-.1,8.48-.49,5.08-.62,2.49-.1.16.16,2.05.16,5.91-.5,13.06-.67,20.37-1.3.11-.07-1.12-.06.44-.27l3.88-.02c1.44-.15,1.3-.44,3.95-.47-.38-.02-.94-.04.03-.14,7.17-.49,14.47-1.31,21.78-2.28,7.31-.99,14.62-2.09,21.83-3.47-1.96.33-.67.03.8-.32-.97.2-.01-.15-.22-.18,2-.4,4-.86,5.98-1.41.5-.28,2.07-.79,3.55-1.44.74-.32,1.45-.68,1.99-1.02.55-.33.92-.65,1.02-.79-.53.42-1.1.77-1.68,1.09.55-.37.6-.48.38-.43-.22.05-.71.24-1.28.42-1.12.38-2.53.72-2.41.51-1.29.63-3.12,1.11-5.19,1.56-2.07.46-4.37.91-6.63,1.58-1.03.14.85-.28.29-.24-1.14.37-2.55.69-5.19,1.1l.29-.09c-3.69.67-6.35,1.04-9.13,1.4-2.78.35-5.68.69-9.87,1.14l.64.08c-1.8.19-2.19.18-3.04.24-2.04.48,5.06-.57,3.21-.09-1.21-.01-4.39.35-7.48.67-3.09.32-6.08.58-6.91.48-2.78.25.83.11-1.95.36l-.75-.03-.69.19c-1.83.14-2.76.09-2.83.02.44-.03,1.26-.13,1.73-.18-2.37.09-6.67.59-7.48.61l2.68-.15c-7.59.71-16.89,1.18-24.23,1.77l.56.04c-5.61.43-4.5.16-10.67.51l.22-.03c-1.23.13-2.88.24-4.57.3,1.55-.15-2.94-.05-.9-.23-6.09.39-3.01.23-7.03.66l-.93-.09c-1.37.16-1.48.22-4.56.35,2.53-.18-1.97-.13.85-.35-6.48-.07-9.6.54-12.58.22-2.96.41,5.61.06,3.94.17,1.4.08-2.45.32-4.48.33-2.07.04-3.52-.35-8.73-.26.52,0,.55-.03,1.07-.04-1.95-.05-3.81.18-6.2.07-1.34.22-3.1.02-3.48.29l4.77-.12c-2.7.1-5.24.44-9.7.33.35-.06,1.67-.13,2.58-.18-1.3-.07-2.51.07-3.86,0,.38-.26,5.8-.1,8.69-.34-1.4-.09-5.48.25-4.03-.05-2.09.38-5.13,0-8.65.29l.23-.16c-.56.03-1.71.11-2.74.1l1.86-.21c-2.85.18-5.5-.14-8.23-.05,5.73,0,1.28.19,3.71.31-7.06.2-4.06-.41-11.97-.37,1.07-.01,4.02.12,2.34.18-1.51-.04-3.49-.12-4.42-.21-5.24-.02.8.17-1.43.25-1.78-.21-2.57.05-4.87.09v-.16c-5.98-.18-1.6.31-6.98.1l2.28-.18h-2.8s.58-.16.58-.16c-3.05.08-4,.03-6.98-.09.69.13-.4.28-3.04.22-1.8-.14,1.01-.13-2.74-.2.85-.08,1.78-.18,3.41,0,.17-.05.84-.08,1.01-.13-1.94-.15-4.88-.14-6.24-.18.52.02,1.15.05,1.47.08l-5.44.07c-.85-.09-.17-.11.5-.14-1.1-.02-1.86.03-3.48,0,.42-.12.33-.25,2.62-.24l-5.18-.02c-.34-.07-2.65-.25-1.98-.27-2.86-.18-7.04-.01-10.84-.29-.2.02-.6.02-1.41,0-3.57-.19-6.73-.51-10.97-.57l-2.39-.37c-3.32-.14,3.23.48-2.29.25-3.91-.17-1.45-.29-2.81-.44-1.95,0-5.34.01-8.91-.44,1.19.04,2.12.14,3.23.2M67.86,256.02c.79.08,2.37.19,2.93.35-.92.06-1.6-.12-2.93-.35M59.39,237.67c-.57.15-1.47.28-2.5.4.73-.15,1.57-.29,2.5-.4M232.46,228.85s-.06,0-.09,0c-1.77-.1-1.14-.06.09,0M236.14,229.01c.37-.01.35-.04.19-.06-.26.03-1.08.02-2.02-.02.26.05.73.09,1.83.08M222.93,263.99l-.72-.03c1.62-.07,1.16-.02.72.03"/>
      <path class="cls-1" d="M52.5,239.19c-.22.02-.29,0-.35-.02-.3.09-.3.12.35.02"/>
      <path class="cls-1" d="M134,261.29h.12c.07,0,.11,0,.13-.02l-.25.02Z"/>
      <path class="cls-1" d="M179.18,229.98c-.76-.01-1.18-.04-1.46-.06-.04.04.3.07,1.46.06"/>
      <path class="cls-1" d="M255.64,229.38l-2.36-.05c1.14.04,1.54.09,2.12.14-.05-.04-.5-.11.24-.08"/>
      <path class="cls-1" d="M276.01,231.37c.34,0,.73.04,1.07.04l-.09-.08c-1.46-.08-2.49-.08-.98.04"/>
      <path class="cls-1" d="M257.79,230c.18.14,1.66.16,3.31.21-.1,0-.19,0-.29-.01.49-.17-1.27-.18-3.02-.19"/>
      <path class="cls-1" d="M261.49,230.22c.51.02,1.03.04,1.52.07.2-.07-.62-.04-1.52-.07"/>
      <path class="cls-1" d="M240.81,229.05c.78.06.5-.16.94-.09.88-.15-5.22.06-.94.09"/>
      <polygon class="cls-1" points="259.11 230.5 258.53 230.31 257.6 230.4 259.11 230.5"/>
      <path class="cls-1" d="M246.1,229.88l2.63.14s.3-.03.71-.03c-1.62-.06-3.4-.16-3.34-.1"/>
      <path class="cls-1" d="M249.44,229.98c.85.03,1.65.06,2.12.05-.46-.02-1.44-.05-2.12-.05"/>
      <polygon class="cls-1" points="255.51 230.4 254.73 230.33 252.87 230.25 255.51 230.4"/>
      <path class="cls-1" d="M217.76,229.2h-2.88c-.29.07.49.11,1.56.1.69-.03,1.76-.04,1.32-.1"/>
      <path class="cls-1" d="M226.45,229.79c-.78-.05-.83-.09-1.27-.15l-.09.2,1.36-.05Z"/>
      <path class="cls-1" d="M218.07,229.7c-.29.05-4.18.11-.53.14.29-.05,3.17-.06.53-.14"/>
      <polygon class="cls-1" points="174.72 229.47 175.45 229.46 175.34 229.13 174.72 229.47"/>
      <path class="cls-1" d="M136.56,231.36c3.41-.06.8-.24,3.88-.27.8-.11-2.52.02-1.7-.08-2.05.17-3.13.17-2.18.35"/>
      <path class="cls-1" d="M138.74,231.01c.33-.03.68-.06,1.05-.09-.59.05-.87.07-1.05.09"/>
      <path class="cls-1" d="M356.06,251.04c.7-.29,1.39-.62,2.07-1.01-.45.24-.9.44-1.36.62-.23.14-.47.26-.71.39"/>
      <path class="cls-1" d="M359.65,248.4c.18-.09.37-.21.54-.35.13-.24.23-.51.3-.79.06-.28.08-.58.05-.87.01.33-.08.81-.28,1.19-.19.39-.45.68-.61.82"/>
      <path class="cls-1" d="M61.91,254.69l-.17.02c.33.11.83.19,1.84.36l-1.67-.38Z"/>
      <polygon class="cls-1" points="91.34 258.39 90.83 258.34 91.76 258.62 91.34 258.39"/>
      <path class="cls-1" d="M116.21,260.02c-1.01-.07-2.21-.1-3.23-.18,2.22.11,3.49.43,3.23.18"/>
      <path class="cls-1" d="M395.2,246.28c.16.7.16.95.21,1.02.04.08.08,0,.09.11-.01-.64-.14-1-.21-1.21-.08-.21-.12-.25-.13-.24-.03.03.04.34.04.31"/>
      <path class="cls-1" d="M378.07,236.32l.35.05c-.94-.24-1.89-.47-2.84-.69.83.2,1.66.42,2.49.64"/>
      <path class="cls-1" d="M360.1,232c1.67.56,6.57,1.29,9.75,2.15l.51.18,1.49.17c-3.89-.97-9-1.91-11.75-2.51"/>
      <path class="cls-1" d="M350.49,229.76c.59.19-2.12-.27,2.26.41-.22-.05-.28-.06-.41-.09-.39-.07-.93-.16-1.86-.32"/>
      <path class="cls-1" d="M352.35,230.07c1.92.32-1.24-.29,0,0"/>
      <path class="cls-1" d="M343.46,228.72l2.55.3c-.52-.14-2.78-.48-1.93-.4-2.61-.34-2.08-.2-.61.1"/>
      <path class="cls-1" d="M341.03,228.54l1.32.15c-.23-.06-.57-.11-1.32-.15"/>
      <path class="cls-1" d="M345.15,229.04l-2.8-.34c.36.09.39.17,1.28.16-.24.04.32.05,1.51.18"/>
      <path class="cls-1" d="M346.72,229.31c1.41.27,3.24.6.69.28,2.42.36,3.46.49,3.29.42-.17-.07-1.55-.34-3.98-.7"/>
      <path class="cls-1" d="M359.13,232.06l1.87.43,1.64.25c-.82-.13-3.62-.79-3.51-.69"/>
      <path class="cls-1" d="M327.65,226.51c-.16.03.84.23,1.02.32l1.89.17c-.96-.15-2.79-.4-2.91-.49"/>
      <path class="cls-1" d="M328.67,226.84l-2.82-.24c2.51.3,2.97.32,2.82.24"/>
      <path class="cls-1" d="M340.54,228.74l4.63.49c-1.84-.22-3.68-.42-5.51-.62l.89.12Z"/>
      <polygon class="cls-1" points="316.9 225.33 318.51 225.38 315.65 225.26 316.9 225.33"/>
      <path class="cls-1" d="M309.76,224.65c1.19.01-1.61-.31-.35-.26-1.94-.16-3.61-.23-5.1-.28,1.59.1,3.28.26,5.45.54"/>
      <path class="cls-1" d="M301.8,224.01c.79.04,1.62.07,2.51.11-.84-.05-1.67-.09-2.51-.11"/>
      <path class="cls-1" d="M321.06,226.03c-.21-.05-.62-.18-2.2-.38l1.09.26c.34.04.72.08,1.11.12"/>
      <path class="cls-1" d="M319.99,225.92h-.04c-1.2-.14-2.03-.23-2.39-.27.31.03,1.04.11,2.43.27"/>
      <path class="cls-1" d="M321.34,226.06c-.1-.01-.18-.02-.28-.03.1.03.17.04.28.03"/>
      <path class="cls-1" d="M333.21,227.63c-1.66-.13-5.11-.47-1.8.06,1.19.05-.7-.26,1.8-.06"/>
      <path class="cls-1" d="M322.7,226.39l2.98.37c-.05-.04-.59-.16.24-.1l-3.22-.26Z"/>
      <polygon class="cls-1" points="321.23 226.27 322.7 226.39 321.59 226.26 321.23 226.27"/>
      <path class="cls-1" d="M306.91,224.59c-1.3-.05-2.71-.17-4.31-.3,1.71.17,3.48.34,5.16.49.24-.02.99-.04-.85-.2"/>
      <path class="cls-1" d="M313.27,225.22c-.09,0-.2-.01-.29-.02.18.03.32.05.29.02"/>
      <path class="cls-1" d="M286.86,223.09c.09.01.16.03.25.04.02,0,.03-.01.06-.02l-.31-.02Z"/>
      <path class="cls-1" d="M308.05,224.84c1.28.14,2.06.18,2.79.21-.96-.08-1.98-.17-3.08-.26-.11.01-.13.02.29.05"/>
      <path class="cls-1" d="M297.4,223.72c.67.08,1.43.16,2.22.26-.65-.1-1.98-.27-2.22-.26"/>
      <path class="cls-1" d="M312.55,225.12c.06,0,.12,0,.19.01-.42-.07-.37-.05-.19-.01"/>
      <path class="cls-1" d="M312.55,225.12c-.66-.04-1.19-.06-1.71-.08.78.06,1.51.11,2.14.16-.16-.03-.32-.06-.43-.08"/>
      <path class="cls-1" d="M282.03,223.68c.24-.12,3.63-.02,6.54.33,2.88.11,1.03-.46-1.46-.87-.09.05-.1.1-3.06-.02,1.03.13,6.56.62,4.05.56-3.93-.2-3.21-.26-5.11-.46,1.61.26-5.01-.08-4.17.22l3.44.13c.06.04-1.19.02-.24.12"/>
      <path class="cls-1" d="M292.75,223.55l1.22.07c-1.39-.13-2.38-.25-4.2-.49-2.03-.08-2.46-.06-2.6-.03l6,.45h-.42Z"/>
      <path class="cls-1" d="M299.44,224.05c-.96.06-3.89-.1-2.11.19,3.57.28,2.51.08,4.65.2-5.77-.44,1.66.06-2.5-.37,1.14.07,2.16.14,3.12.22-1.04-.11-2.04-.21-2.98-.31.05,0,.09.01.13.02h.03s0,0,0,0c.25.04.33.06.05.02-.02,0-.09,0-.12,0-.04.02-.15.03-.26.03-1.67-.16-.26-.06.26-.03.02,0,.07,0,.07-.02,0,0-.01,0-.02,0l-5.78-.37c1.22.11,2.75.22,5.47.43"/>
      <path class="cls-1" d="M328.31,227.62c-.18-.03-.17-.04-.18-.05-.37-.03-.52-.03.18.05"/>
      <path class="cls-1" d="M325.95,227.26c.42.03.78.01,2.13.19,1.17.18-.01.07.04.12.82.06,2.88.24.32-.13l-.41-.03c-2.31-.33-5.27-.83-4.86-.81.66.2,1.25.36,2.78.66"/>
      <path class="cls-1" d="M312.54,225.56l-4.81-.38,2.44.35-.12-.09c2.73.29,2.15.14,2.49.12"/>
      <polygon class="cls-1" points="286.31 222.98 286.96 222.87 284.16 222.9 286.31 222.98"/>
      <polygon class="cls-1" points="280.05 222.59 280.29 222.47 278.63 222.45 280.05 222.59"/>
      <path class="cls-1" d="M64.38,266.11l1.41.13c-.67-.06-1.1-.1-1.41-.13"/>
      <path class="cls-1" d="M54.23,264.76l-.26.03c.47.03.67.03.26-.03"/>
      <path class="cls-1" d="M126.1,221.97c-2.07-.02-4.38-.08-4.13.06l.64.11c1.44-.1,2.55-.15,3.49-.17"/>
      <path class="cls-1" d="M21.64,235.5c.19-.04.39-.07.59-.11.47-.17.92-.33,1.32-.48-.57.18-1.23.38-1.91.59"/>
      <path class="cls-1" d="M20.39,236.46c-.88.21-1.76.43-2.63.66.59-.15,1.44-.36,2.63-.66"/>
      <path class="cls-1" d="M120.16,270.79l1.66-.05c-2.58-.14-1.45,0-1.66.05"/>
      <path class="cls-1" d="M215.86,220.34c-1.78-.08-3.2-.12-4.45-.13,2.15.1,3.88.25,4.45.13"/>
      <path class="cls-1" d="M60.19,267.12c.86.09,1.24.1,1.21.07-.89-.09-1.39-.13-1.21-.07"/>
      <path class="cls-1" d="M206.27,220.16c.31.01.62.03.94.04,1.3-.01,2.61-.03,4.21,0-1.59-.08-3.4-.13-5.15-.04"/>
      <path class="cls-1" d="M323,266.96c.15-.01.32-.02.46-.03.04-.02-.16,0-.46.03"/>
      <path class="cls-1" d="M381.41,257.59c-.55.2-1.46.5-2.32.78.42-.12,1.13-.35,2.32-.78"/>
      <path class="cls-1" d="M254.85,221.24c1.33.04.21,0,0,0"/>
      <path class="cls-1" d="M261.29,222.09c-.28,0-.5.01-.53.04.11-.03.3-.04.53-.04"/>
      <path class="cls-1" d="M193.02,221.03s-.07,0-.12,0c.4.03.33.02.12,0"/>
      <path class="cls-1" d="M256.85,221.39c-.5-.04-1.07-.08-1.7-.11.27.02.79.05,1.7.11"/>
      <path class="cls-1" d="M256.58,221.31c.46.03.82.04,1.16.06.17-.02.02-.04-1.16-.06"/>
      <path class="cls-1" d="M253,221.18c.76.03,1.47.06,2.15.1-.26-.02-.37-.03-.3-.04-.39-.01-.94-.03-1.85-.07"/>
      <path class="cls-1" d="M214.4,273.3c.09,0,.19,0,.29.01,1.34-.08.75-.06-.29-.01"/>
      <path class="cls-1" d="M91.68,225.8c.06,0,.09-.01.15-.02-.06,0-.14,0-.2.01h.05Z"/>
      <path class="cls-1" d="M86.94,226.32c2.01-.36,3.16-.44,4.7-.53l-1.61-.28-3.09.81Z"/>
      <path class="cls-1" d="M88.79,268.63l-3.32-.43c4.04.16,6.95.48,3.84.03-.26.2-3.5-.07-6.74-.37-3.24-.3-6.47-.63-6.73-.43l-2.19-.33c.63.07.73.06,1.35.13-4.24-.68-3.21-.01-8.7-.72-1.91-.26-3.24-.5-1.93-.39l-4.28-.43c-1.24-.17-.93-.21.31-.04-2.17-.27-4.33-.55-6.5-.85h.05c-.94-.07-3.05-.27-4.08-.38-1.64-.32.83.08.42-.04l-3.6-.45c-1.44-.35,1.54.02,4.02.4-1.64-.47-2.39-.56-3.62-.7-1.23-.15-2.96-.34-6.53-1.1l3.38.52c-2.13-.62-4.78-.97-8.54-1.86.88.28,7.54,1.79,3.65,1.2-1.08-.23-2.52-.51-4.62-.83.01-.16-2.03-.52-4.56-1.06l.22-.17c-2.74-.54-2.55-.39-4.18-.67-3.03-.75-3.61-1.09-4.28-1.41-4.8-1.34,3.25,1.17-2.45-.36-1.98-.61-3.66-1.13-5.43-1.71-1.76-.59-3.62-1.22-5.87-2.21-2.53-1.34.5.11-.39-.4-.78-.32-1.55-.68-2.29-1.07-.52-.33-.32-.27-.22-.24-.9-.54-.95-.55-1.14-.61-.1-.03-.21-.1-.48-.27-.25-.19-.67-.48-1.23-1.06-.19-.12-.56-.51-.89-1.14-.33-.62-.57-1.51-.31-2.43.23-.92.91-1.81,1.72-2.56.82-.76,1.75-1.42,2.6-2.02.91-.47-.36.36-.04.27,1.18-.77,2.09-1.25,2.8-1.61.72-.36,1.24-.61,1.74-.85,1.01-.46,1.89-.88,4.1-1.77,1.29-.4,2.59-.76,3.9-1.1-2.89.72.68-.61,3.88-1.61-1.05.2-1.94.37-2.53.51,1.71-.52,3.42-1.01,5.14-1.47.64-.12.13.08-.7.38.35-.11.68-.21.94-.28,1.88-.37.94-.02-.36.42-.64.12-1.28.23-1.9.35-1.24.46-2.39.92-2.1.97.33-.12.96-.31,1.67-.51-.32.12-.53.21-.37.19.18-.03.7-.21,1.54-.48l1.23-.07.26-.16c2.27-.51,4.54-.97,6.83-1.4,4.83-1.24,9.04-2.4,16.87-3.73-1.92.48-.37.34-.45.56-2.17.12-6.05,1.06-10.09,1.77,2.11-.37,1.67-.18,1.14-.05,2.39-.5,4.78-.98,7.19-1.43-.14.19,1.56-.13,3.46-.34-1.48-.12,5.37-1.04,8.31-1.52.2.09-.5.29-4.1.77,4.01-.31,5.08-1.1,9.02-1.39-.88.11-1.36.16-1.7.26,2.05-.37,7.09-.9,5.92-.66l-.88.11c2.93-.33,7.39-.84,11.23-1.27,3.84-.44,7.05-.82,7.48-1,.06.03-.74.41-1.09.5,3.46-.65,6.93-1.27,10.41-1.87-.9.32,2.69.59-2.17,1.14,1.4-.09,3.14-.19,6.08-.51-.96.04-2.41-.16-1.11-.29,3.61-.01,2.5-.06,6.94-.15-1.44.05.13-.44,2.39-.59-.35.08.21.36-.61.46l5.61-.75c-1.4.16-.23.33,1.04.35-.59-.04,4.88-.3,6.38-.42l-2.4.06c6.37-.32,6.26-.89,12.59-1.2-.76.12-1.87.57,1.35.45,1.46-.26,6.48-1.23,12.08-1.59l1.08.07,4.29-.28c-2.67.37-10.15,1.27-14.23,1.7,2.39-.02.67.1,4.24-.07,1.27.05-1.94.24-2.99.29l8.32-.28c-.38-.21,6.35-.46,6.03-.63l-9.03.57c-.38-.21,5.2-.85,11.1-1,1.5.04-1.11.43-.98.5.76-.1,5.59-.32,6.13-.28l-2.5.19c3.28-.01,5.35-.45,9.3-.33,1.36-.02,4.07.2,4.3.06-2.23-.21-2.68-.98-1.2-1.2.48,0,7.16.1,8.72.21,2.25.16-3.36.53-1.45.67.08-.06,1.32-.16,1.84-.19,1.43.03-.59.2,2.52.13.52-.23,6.32-.06,1.47-.21,3.04-.1,3.23,0,6.8-.03-1.14-.14,3.2-.52,6.25-.6-.18.06.51.13.84.16,6.24,0,9.58.12,15.39.16.54.06,3.34.15,2.14.23.84-.03,1.6-.1,3.4-.09,3.47.23-4-.01-1.36.25.23-.13,4.64-.13,7.19-.17-.78-.22-5.9-.12-8.46-.06,0-.28,4.45-.54,10.53-.56,4.83.01,2.09.22,2.93.19,9.07.23,7.74-.33,15.27.08,2.98.27.12.36.78.51-3.93-.05-6.03-.28-8.7-.34l3.28.17c-1.25.03-3.88,0-5.31-.08,1.25.11,5.08.2,9.47.34,4.39.13,9.34.31,12.84.52,1.24-.01,3.39.01,2.38-.1l-2.21-.06c-2.03-.22,4.17-.03,1.37-.21,2.97.02,6.31,0,10.48.29l.78.24c-.09-.06-2.73-.25-3.9-.24,1.75-.01,6.39.58,8.31.42l-2.92-.29c2.98.05,6.68.03,10.38.31-1.67-.3-.85-.03-3.47-.41,2.27.41-9.47-.52-5.82-.02-2.69-.41-4.67-.35-8.19-.74.11.07,1.25.18-1.86.01-.14.01-.47.02-.69.03-.09,0-.13,0-.21-.01.06,0,.11,0,.17.02-.14,0-.15,0,.06,0,.74.06,1.34.12,1.58.17-1.55.08-6.5-.12-8.17-.1-1.84-.1.77-.05-.23-.16l-2.5.03c-.24-.16-4.9-.41-.54-.35l-3.91-.14c-2.3-.16-5.47-.28-7.43-.27-1.85-.08-4.67.05-3.06-.03l-6.14-.04-.06-.04c-6.06-.14-12.48.04-19.4-.28-2.04.02-4.15.06-7.56.01l-.67-.13c-2.62.04-7.87-.12-8.99.02-2.83-.34-12.72.02-17.32.05l-.17.17c-3.17.04-6.21.15-10.14.31l.25.14c-3.39.2-8.72.12-14.09.32.36-.07,1.72-.1,2.69-.1-6.42-.13-13.51.73-19.33.77-1.45.12-2.49.16-3.51.17.13,0,.26-.02.36-.03-.15,0-.37.02-.59.03-.64,0-1.3.02-2.02.02.61,0,1.19,0,1.7,0-1.12.06-2.81.17-4.47.29l-.72-.12c-.13,0-.24.02-.38.03-1.63.03-1.31.15-.43.22-.83.07-1.6.15-2.19.22-1.34-.18-4.35.34-6.17.18-1.11.2-8.33.65-9.19,1-.06-.03-.55-.01.35-.08-1.85.1-3.7.21-5.35.41l-.8-.14-4.01.59c-2.46.08-3.48.1-1.06-.26-5.85.74-4.76.5-9.72,1.2l.23-.15c-1.78.17-4.62.63-5.7.63-2.01.08-6.94.58-12.64,1.26-5.7.68-12.17,1.56-17.28,2.23,1.02.04-.17.18-1.66.36s-3.27.41-3.45.6c-.61,0-2.03.2-.4-.16-5.17.97-7.81,1.25-11.31,2.23-.61.03,1.08-.36.54-.3-.41.1-1.62.42-2.17.48-.54.06.74-.24,1.55-.45-5.26,1.13-5.72,1.59-6.04,1.92-2.67.52-3.99.88-5.84,1.58-.47.09-1.09.22-1.19.21-.1,0,.31-.17,1.92-.63-.91.24-3.68.98-6.21,1.84-2.53.84-4.8,1.83-4.84,1.97-.28.09-.89.35-1.48.63-.59.28-1.15.59-1.36.71-1.88.99-2.85,1.67-3.76,2.41-.45.38-.88.78-1.34,1.33-.44.56-.98,1.28-1.21,2.41.09-.42.25-.81.45-1.17-.27.83-.5,1.78-.25,2.91.25,1.13,1.02,2.32,2.33,3.42l-.09-.04c.73.66,1.37,1.11,1.9,1.46.53.35.96.6,1.3.8.69.39,1.07.56,1.44.74.37.17.74.34,1.45.67.71.32,1.75.8,3.51,1.51l-.33-.29c.39-.03,1.94.6,3.95,1.31,2.01.72,4.48,1.53,6.61,2.01l-1.51-.49c2.33.52,6.37,2.08,8.72,2.62.51.14-.82-.13-1.54-.27,3.05.78,3.27.75,3.29.68.02-.08-.15-.23,2.15.21.83.28-1.15.07,1.94.69.76.19,3.03.53,5.63.91,2.6.38,5.54.79,7.65,1.22-.92-.23-1.84-.46.32-.19,3.3.48,8.87,1.62,11.89,1.73.42.08.57.12.59.14,2.53.26,8.23.89,9.77.9,1.14.4,5.08.77,8.73,1.06,3.64.29,6.99.52,6.94.77,2.6.23,5.2.44,7.8.65l-.21.03c4.99.44,6.76.44,8.52.45,1.15.12.31.1.21.12,7.29.62,8.02.64,14.15.77l.63.2c1.66,0,10.54.86,17.72.98-.07.02-.22.04-.79.04,8.07.18,19.29,1.19,22.26.66h5.33c-6.88-.23,1.03-.24-1.8-.41,2.71.04,7,.34,3.67.3l-.52-.04c-1.23.29,8.55.29,8.37.49,13.55.22,26.76.43,39.46.32l-1.46-.23,4.43-.03c1.16.04,1.56.17-1.6.2.83.06,2.16.02,3.28-.05,1.13-.07,2.06-.16,2.1-.18,6.19,0-2.41.32-.51.3l2.58-.06-.58-.02c2.09-.13,2.27-.24,6.07-.3,2.4,0,1.24.13,2.18.11,0,0,.08.01.3.01.22,0,.59-.01,1.15-.03l5.58-.11-2.24-.13c2.47-.15,5.24-.13,2.67-.27,1.89.12,7.1,0,12.11-.17,5.02-.17,9.85-.41,11.01-.41,3.45-.29,6.87-.45,11.1-.66-1.05.01-1.69-.16,1.95-.33-1.31.52,6.69-.18,9.66-.06-1.32-.02,1.27-.2,3.67-.38,2.4-.18,4.62-.38,2.54-.38,3.04-.18.2.15,2.51.09,7.22-.69,15.96-1.11,24.88-2.06.13-.07-1.37-.01.54-.29l4.74-.2c1.76-.22,1.59-.51,4.83-.67-.46,0-1.15,0,.03-.15,8.75-.86,17.65-2.09,26.54-3.61,4.44-.76,8.89-1.59,13.3-2.51,4.42-.92,8.81-1.92,13.14-3.1-2.36.58-.81.12.96-.43-1.16.33-.02-.15-.27-.15,2.41-.68,4.8-1.44,7.14-2.36.59-.37,2.44-1.19,4.13-2.21.85-.51,1.64-1.07,2.24-1.58.59-.51.98-.96,1.08-1.15-.54.62-1.16,1.16-1.81,1.65.61-.53.65-.67.41-.56-.25.11-.8.45-1.44.78-1.28.67-2.93,1.31-2.8,1.07-1.49.91-3.67,1.73-6.13,2.5-2.47.78-5.23,1.53-7.96,2.47-1.24.27,1.02-.38.34-.27-1.37.51-3.07.99-6.27,1.67l.35-.12c-4.47,1.05-7.7,1.65-11.07,2.24-3.38.58-6.9,1.13-12.01,1.87l.78.04c-2.2.31-2.67.33-3.7.44-1.24.3.3.08,1.87-.15,1.57-.23,3.17-.47,2.04-.16-1.48.07-5.35.64-9.11,1.14-3.76.5-7.41.93-8.42.87-3.39.4,1.02.06-2.38.46h-.91s-.84.23-.84.23c-2.23.23-3.36.23-3.46.15.54-.05,1.53-.19,2.11-.26-2.9.21-8.14.9-9.13.96l3.27-.27c-9.26,1.05-20.62,1.87-29.59,2.68l.69.03c-6.86.6-5.5.3-13.04.81l.27-.03c-1.5.16-3.52.31-5.58.41,1.9-.19-3.59.02-1.1-.21-7.44.52-3.68.3-8.59.81l-1.14-.07c-1.67.18-1.81.25-5.58.44,3.09-.23-2.41-.09,1.04-.37-7.92.05-11.74.69-15.38.41-3.62.45,6.85-.02,4.82.11,1.71.06-2.99.35-5.48.39-2.53.06-4.31-.31-10.67-.17.63-.01.68-.04,1.31-.05-2.38-.03-4.66.21-7.58.12-1.63.23-3.79.05-4.26.31l5.84-.15c-3.31.12-6.41.48-11.86.38.42-.06,2.05-.14,3.16-.19-1.59-.06-3.07.08-4.72.02.47-.26,7.09-.12,10.63-.38-1.71-.08-6.7.28-4.92-.03-2.56.39-6.27.02-10.57.32l.28-.16c-.68.03-2.09.11-3.35.11l2.27-.21c-3.49.19-6.72-.13-10.07-.05,7,0,1.57.19,4.53.31-8.64.2-4.97-.4-14.64-.4,1.31,0,4.92.13,2.87.19-1.84-.05-4.27-.13-5.4-.22-6.41-.04.98.17-1.75.24-2.18-.22-3.15.04-5.96.05l-.02-.16c-7.3-.23-1.94.3-8.51.05l2.78-.16-3.43-.02.71-.17c-3.73.05-4.89-.01-8.54-.17.85.14-.49.28-3.72.18-2.2-.17,1.24-.11-3.34-.24,1.04-.06,2.18-.15,4.16.05.21-.05,1.02-.07,1.24-.11-2.37-.18-5.97-.21-7.62-.27.64.03,1.4.06,1.79.1l-6.65-.02c-1.04-.1-.21-.12.61-.13-1.35-.03-2.28,0-4.26-.07.52-.11.4-.25,3.2-.2l-6.33-.12c-.42-.07-3.24-.3-2.42-.31-3.5-.24-8.61-.17-13.25-.53-.24.01-.73,0-1.72-.03-4.36-.29-8.22-.69-13.4-.88l-2.92-.45c-4.05-.25,3.95.59-2.8.17-4.78-.3-1.77-.34-3.43-.54-2.38-.07-6.53-.18-10.89-.78,1.45.09,2.59.23,3.94.33M39.16,262.42c.96.14,2.88.37,3.56.58-1.12,0-1.95-.24-3.56-.58M28.88,234.08c-.69.21-1.79.42-3.02.66.88-.23,1.89-.45,3.02-.66M240.27,220.86s-.07,0-.1,0c-2.16-.13-1.4-.08.1,0M244.77,221.07c.45,0,.42-.03.23-.06-.32.03-1.33,0-2.47-.05.32.05.9.1,2.24.11M228.62,274.15l-.88-.02c1.98-.09,1.42-.03.88.02"/>
      <path class="cls-1" d="M20.56,236.34c-.27.05-.35.04-.42.03-.36.13-.36.16.42-.03"/>
      <path class="cls-1" d="M119.85,270.8h.15c.08,0,.13,0,.15,0h-.31Z"/>
      <path class="cls-1" d="M175.1,221.83c-.93,0-1.44-.03-1.79-.05-.05.04.37.07,1.79.05"/>
      <path class="cls-1" d="M268.61,221.81l-2.88-.1c1.39.06,1.89.12,2.59.18-.06-.04-.61-.12.29-.08"/>
      <path class="cls-1" d="M293.51,224.36c.42.01.89.07,1.31.08l-.11-.08c-1.79-.13-3.04-.16-1.2,0"/>
      <path class="cls-1" d="M271.24,222.48c.22.15,2.03.2,4.04.29-.12,0-.24-.01-.36-.02.6-.15-1.55-.22-3.69-.27"/>
      <path class="cls-1" d="M275.76,222.79c.62.03,1.26.06,1.86.11.24-.06-.75-.06-1.86-.11"/>
      <path class="cls-1" d="M250.48,221.18c.96.07.61-.15,1.15-.07,1.07-.13-6.39-.03-1.15.07"/>
      <polygon class="cls-1" points="272.85 223.01 272.14 222.8 271 222.87 272.85 223.01"/>
      <path class="cls-1" d="M256.94,222.11l3.22.19s.36-.03.87-.02c-1.98-.1-4.16-.22-4.09-.17"/>
      <path class="cls-1" d="M261.03,222.28c1.03.05,2.02.09,2.59.09-.56-.03-1.76-.08-2.59-.09"/>
      <polygon class="cls-1" points="268.45 222.82 267.5 222.74 265.22 222.61 268.45 222.82"/>
      <path class="cls-1" d="M222.29,221.06h-3.52c-.36.04.6.09,1.91.09.84-.03,2.15-.03,1.61-.09"/>
      <path class="cls-1" d="M232.92,221.73c-.95-.06-1.01-.1-1.55-.16l-.11.2,1.66-.04Z"/>
      <path class="cls-1" d="M222.66,221.57c-.35.05-5.11.08-.65.14.36-.05,3.88-.03.65-.14"/>
      <polygon class="cls-1" points="169.65 221.36 170.54 221.34 170.41 221 169.65 221.36"/>
      <path class="cls-1" d="M122.99,223.85c4.16-.14.98-.26,4.74-.36.97-.13-3.08.08-2.08-.04-2.51.22-3.83.24-2.66.4"/>
      <path class="cls-1" d="M125.66,223.45c.4-.04.83-.08,1.28-.12-.73.06-1.07.09-1.28.12"/>
      <path class="cls-1" d="M390.59,253.68c.8-.47,1.58-.99,2.32-1.61-.49.38-1,.72-1.51,1.03-.26.2-.53.39-.8.58"/>
      <path class="cls-1" d="M394.4,249.83c.18-.16.36-.34.52-.54.19-.6.28-1.25.21-1.87,0,.35-.05.87-.21,1.34-.15.47-.37.87-.52,1.07"/>
      <path class="cls-1" d="M31.95,260.59h-.21c.39.15,1,.28,2.23.53l-2.02-.53Z"/>
      <polygon class="cls-1" points="67.76 266.31 67.14 266.23 68.28 266.56 67.76 266.31"/>
      <path class="cls-1" d="M98.12,268.99c-1.24-.11-2.7-.18-3.95-.29,2.71.19,4.26.56,3.95.29"/>
      <path class="cls-1" d="M206.84.1c0-.12-.09-.08-.11-.1.02.21.14.09.11.1"/>
      <polygon class="cls-1" points="207.08 2.13 207.03 2.09 207.14 2.39 207.08 2.13"/>
      <path class="cls-1" d="M207.07,4.03c.18-.18-.03-.69.03-1.03l.04-.06-.14-.15c.02.41.12.95.07,1.24"/>
      <path class="cls-1" d="M206.69,5.04c.07-.06.06.22.02-.24,0,.02-.01.03-.02.04,0,.04,0,.1,0,.19"/>
      <path class="cls-1" d="M206.69,4.85c0-.2-.06.13,0,0"/>
      <path class="cls-1" d="M206.73,5.77l-.06-.26c-.04.06-.05.29-.08.2.03.27.07.21.14.06"/>
      <path class="cls-1" d="M206.86,6.02l-.03-.14s-.02.06.03.14"/>
      <path class="cls-1" d="M206.78,5.59l.05.29s.09-.04-.02-.13c.05.02,0-.03-.04-.16"/>
      <path class="cls-1" d="M206.81,5.43c.04-.15.06-.34.12-.07-.02-.5-.15-.43-.12.07"/>
      <path class="cls-1" d="M207.26,4.12l.05-.2-.06-.17c.03.09-.05.38,0,.37"/>
      <path class="cls-1" d="M206.64,7.41s.1-.09.15-.11l-.04-.19c-.03.1-.05.29-.11.3"/>
      <path class="cls-1" d="M206.79,7.3l.06.29c0-.26-.02-.31-.06-.29"/>
      <polygon class="cls-1" points="207.06 6.07 206.92 5.59 207.06 6.16 207.06 6.07"/>
      <polygon class="cls-1" points="206.64 8.52 206.55 8.36 206.68 8.65 206.64 8.52"/>
      <path class="cls-1" d="M206.65,9.26c-.07-.12-.12.17-.17.04.01.2.08.37.13.53-.03-.16-.02-.34.04-.56"/>
      <path class="cls-1" d="M206.7,10.08c-.02-.08-.05-.17-.08-.26.02.09.04.17.08.26"/>
      <path class="cls-1" d="M206.84,8.09s-.08.07-.11.23l.11-.11s0-.07,0-.11"/>
      <path class="cls-1" d="M206.84,8.2h0c0,.13,0,.21,0,.25,0-.03,0-.11,0-.25"/>
      <path class="cls-1" d="M206.84,8.06s0,.02,0,.03c.01-.01.01-.02,0-.03"/>
      <path class="cls-1" d="M206.96,6.83c.06.17.12.53.21.18-.07-.12-.12.08-.21-.18"/>
      <path class="cls-1" d="M206.97,7.92l.02-.31s-.07.06-.1-.02l.07.33Z"/>
      <polygon class="cls-1" points="207 8.07 206.97 7.92 206.96 8.03 207 8.07"/>
      <path class="cls-1" d="M206.8,9.55c.05.13.05.28.06.44.02-.18.03-.36.03-.53-.03-.02-.09-.1-.09.09"/>
      <path class="cls-1" d="M206.83,8.9s0,.02,0,.03c0-.02.01-.03,0-.03"/>
      <path class="cls-1" d="M206.85,11.62s.01-.02.02-.03c0,0-.01,0-.02,0v.03Z"/>
      <path class="cls-1" d="M206.91,9.44c.02-.13,0-.21-.04-.29.01.1.02.2.02.32.02.01.03.01.02-.03"/>
      <path class="cls-1" d="M206.75,10.54c.02-.07.04-.15.06-.23-.03.07-.09.21-.06.23"/>
      <path class="cls-1" d="M206.8,8.97s0-.01,0-.02c-.02.04-.01.04,0,.02"/>
      <path class="cls-1" d="M206.8,8.97c.02.07.04.12.06.18,0-.08-.02-.16-.04-.22,0,.02-.02.03-.03.04"/>
      <path class="cls-1" d="M207.54,12.12c-.1-.02-.19-.37-.08-.68-.07-.3-.4-.1-.58.16.04,0,.08,0,.14.31.05-.11.13-.68.21-.42.05.4-.03.33-.09.53.12-.17.18.51.36.43l-.06-.35s.07.12.1.02"/>
      <path class="cls-1" d="M206.88,11.02v-.13c-.03.14-.07.25-.15.43.05.21.08.25.12.27v-.62s.03.04.03.04Z"/>
      <path class="cls-1" d="M206.87,10.33c.11.1.15.4.27.22,0-.37-.09-.26-.14-.48.03.6-.06-.17-.12.26-.02-.12-.02-.22-.03-.32-.01.11-.03.21-.05.31,0,0,0,0,0-.01h0s0,0,0,0c.01-.03.02-.03.01,0,0,0,0,0,0,.01.01,0,.03.01.04.03-.02.17-.03.03-.04-.03,0,0-.01,0-.02,0,0,0,0,0,0,0l.06.6c.01-.13.01-.28,0-.56"/>
      <path class="cls-1" d="M207.41,7.33s-.02.02-.02.02c.01.04.02.05.02-.02"/>
      <path class="cls-1" d="M207.34,7.58s-.06-.08-.05-.22c.03-.12.05,0,.09,0-.03-.08-.08-.3-.13-.03v.04c-.02.24-.16.55-.17.51.1-.07.16-.13.26-.29"/>
      <path class="cls-1" d="M207.13,8.97l.05.5.09-.25h-.06c.02-.27-.05-.21-.09-.24"/>
      <polygon class="cls-1" points="206.8 11.68 206.69 11.62 206.85 11.9 206.8 11.68"/>
      <polygon class="cls-1" points="206.81 12.33 206.72 12.3 206.78 12.47 206.81 12.33"/>
      <path class="cls-1" d="M208.03,48.76l.03.15c0-.07-.02-.11-.03-.15"/>
      <path class="cls-1" d="M208.04,47.71l-.05-.03s.05.07.05.03"/>
      <path class="cls-1" d="M206.83,28.18c-.09.21-.23.45-.12.42l.11-.07c-.02-.15,0-.26.02-.36"/>
      <path class="cls-1" d="M207.47,39.04s.02-.04.03-.06c-.04-.05-.07-.1-.1-.14.02.06.05.13.07.21"/>
      <path class="cls-1" d="M207.91,39.19l-.07.28c.02-.06.05-.15.07-.28"/>
      <path class="cls-1" d="M208.15,54.53l.11.17c0-.27-.06-.15-.11-.17"/>
      <path class="cls-1" d="M206.85,18.94c-.04.18-.06.33-.06.46.06-.22.15-.4.06-.46"/>
      <path class="cls-1" d="M206.89,48.35c.02.09.04.13.07.12-.02-.09-.04-.14-.07-.12"/>
      <path class="cls-1" d="M206.79,19.93s.02-.06.03-.1c-.02-.13-.03-.27-.03-.43-.05.16-.07.35,0,.53"/>
      <path class="cls-1" d="M208.06,75.47s0,.03-.01.05c.01,0,.02-.02.01-.05"/>
      <path class="cls-1" d="M206.97,81.57c0-.06,0-.16,0-.25,0,.04,0,.12,0,.25"/>
      <path class="cls-1" d="M206.77,14.93c0-.14-.01-.02,0,0"/>
      <path class="cls-1" d="M207.19,14.26s.03.05.05.05c-.03-.01-.04-.03-.05-.05"/>
      <path class="cls-1" d="M207.46,21.29s0,0,0,.01c.02-.04.02-.03,0-.01"/>
      <path class="cls-1" d="M206.82,14.72c-.01.05-.02.11-.03.18,0-.03.02-.08.03-.18"/>
      <path class="cls-1" d="M206.77,14.75s0-.08.01-.12c-.02-.02-.03,0-.01.12"/>
      <path class="cls-1" d="M206.77,15.12c0-.08,0-.15.01-.22,0,.03-.01.04-.02.03,0,.04,0,.1,0,.19"/>
    </g>
  </g>
</svg>