<?xml version="1.0" encoding="UTF-8"?>
<svg id="Layer_2" data-name="Layer 2" xmlns="http://www.w3.org/2000/svg" viewBox="0 0 358.12 145.49">
  <defs>
    <style>
      .cls-1 {
        fill: #fff;
      }
    </style>
  </defs>
  <g id="Layer_1-2" data-name="Layer 1">
    <g>
      <path class="cls-1" d="M299.52,73.89c-1.1-.1-2.22-.09-3.35.02,1.9-.86,3.72-1.05,4.58-1.16.44-.04.64-.08.54-.17-.11-.08-.53-.23-1.37-.36-.11.42-1.01.66-2.26.96-1.25.3-2.86.73-4.39,1.37-.38.17-.76.33-1.12.51-.18.09-.36.19-.54.28-.03.02-.11.06-.11.06l-.03.02-.06.04c-.09.06-.14.11-.18.16-.05.05-.09.11-.14.18-.17.26-.36.68-.49,1.28-.03,0-.06,0-.09,0-.01,0-.03.01-.04-.02l-.02-.11-.04-.21-.06-.38c.07.17.12.06.18.22-.06-.51-.1-.63-.21-.67-.11-.04-.24.04-.46.05-.11,0-.23,0-.36-.02-.06-.01-.13-.03-.2-.06-.03-.01-.07-.03-.11-.05l-.06-.03-.1-.08c-.55-.44-1.14-1.08-1.98-2.02-.27-.35-.54-.65-.77-.91-.22-.26-.4-.49-.51-.66-.21-.33-.15-.42.37-.08-.26-.21-.54-.39-.82-.57l-.84-.54c-.57-.35-1.16-.65-1.73-.97-.97-.61-.57-.73.38-.09-1.71-1.07-3.55-1.93-5.46-2.57l.06-.03c-.9-.06-2.86-.21-3.79-.18-1.42-.5.77-.04.44-.31-.55-.03-1.1-.07-1.65-.09l-1.63.02c-.32-.13-.4-.23-.29-.33.11-.1.4-.17.81-.2.41-.03.93-.05,1.49,0,.56.07,1.16.15,1.72.29-.67-.56-1.22-.84-1.72-.98-.51-.12-.99-.09-1.58-.07-.29,0-.62.05-.99.08-.37.03-.79.05-1.27.05-.97.03-2.21.02-3.95.04,1.05-.23,2.12-.4,3.2-.5-1.06-.44-2.27-.5-3.65-.37-.7.06-1.44.17-2.24.31-.4.07-.81.15-1.24.22l-.16.03s-.07.01-.06,0h0s-.02-.03-.03-.04c-.02-.03-.03-.06-.04-.09,0,.04.02.09.04.15.01.03.03.06.05.09l.02.02s.08,0,.11,0c.08,0,.17-.01.26-.02.69-.05,1.52-.06,2.18,0,.66.05,1.18.17,1.3.32.12.16-.15.34-1.01.62-.51.04-1.11.14-1.79.34-.17.05-.34.11-.52.18l-.07.02h-.03s-.05.04-.05.04c-.03.02-.07.04-.1.06-.14.09-.3.21-.49.37,0-.45-.29-.39-.72-.14-.05.05-.06-.03-.08-.06-.02-.04-.04-.08-.07-.13-.05-.09-.09-.18-.14-.28.17-.24.34-.48.5-.74-.04-.03-.08-.05-.13-.06-.05-.02-.11-.06-.16-.09-.11-.05-.22-.08-.32-.1-.11-.02-.22-.03-.34-.07-.06-.02-.12-.04-.19-.07h-.03s-.04-.05-.04-.05c-.03-.03-.06-.05-.09-.08-.06-.06-.12-.12-.19-.19-.34-.6-.58-1.1-.75-1.53-.17-.43-.3-.77-.36-1.07-.14-.6-.09-1.02-.07-1.44-1.31-1.87-1.04-1.07-.84-.38.1.35.16.68,0,.67-.15-.02-.55-.37-1.38-1.38-.25-.39-.52-.75-.79-1.08-.27-.34-.54-.66-.81-.98-.55-.63-1.15-1.17-1.76-1.73-.63-.55-1.32-1.05-2.05-1.6-.38-.26-.78-.52-1.2-.79-.42-.27-.85-.56-1.33-.82-1.92-1.71.64-.12.03-.84l-1.11-.41c-.37-.14-.75-.24-1.12-.36-.46-.31-.21-.38-.08-.41-1.75-.81-.53.53-3.21-.72-.27.09-.71-.1-1.28-.43-.28-.17-.6-.38-.94-.62-.34-.24-.73-.46-1.14-.71-.41-.24-.83-.51-1.29-.74l-.35-.16c-.07-.03-.09-.04-.12-.06l-.09-.05c-.12-.07-.25-.13-.36-.18-.46-.22-.94-.26-1.68-.23-.01-.02-.04-.03-.01-.06.02-.03.04-.04.06-.05.11-.16.19-.17.28-.17.02,0,.1-.02.16-.04.06-.02.12-.04.18-.06.11-.04.21-.09.27-.16-.05,0-.1,0-.13,0-.05,0-.03-.02-.05,0-.06-.36-.1-.71-.13-1-.02-.15-.04-.29-.05-.41,0-.07-.02-.13-.03-.19-.01-.04,0-.21-.02-.32-.05-.96-.12-1.85-.5-3.83.1-.58.16-1.16.23-1.75l.1-.88.06-.88c-.2,1.31-.53,1.13-.91.31-.2-.41-.38-.98-.61-1.62-.25-.63-.45-1.33-.72-1.98-.12.91-.31,1.68-.35,2.18-.31-1.42-.66-2.82-1.13-4.18,0-.53.36-.18.84.45-.13-.28-.26-.54-.36-.74-.07-1.58.54-.93,1.23.1-.02.56-.09,1.13-.16,1.67.68.99,1.29,1.97,1.73,1.68-.13-.28-.26-.85-.42-1.46.18.27.33.44.38.29.05-.17-.2-.62-.53-1.31.23-.4.43-.8.63-1.21l-.39-.18c-.12-1.01-.32-2.01-.52-3.01-.24-.99-.46-2-.77-2.98-1.22-1.88-2.58-3.48-4.17-5.2-.39-.43-.82-.86-1.24-1.32-.42-.46-.89-.91-1.35-1.4-.47-.49-.98-.97-1.48-1.51-.54-.51-1.07-1.07-1.67-1.63.8.37,1.03.29,1.17.02.14-.26.15-.69.46-.91.16.49.47.96.88,1.45.41.49.88,1.02,1.42,1.57,1.03,1.14,2.25,2.45,3.04,4.06-.43-.83-.52-1.2-.46-1.32.06-.12.29,0,.46.18-1.32-1.71-2.77-3.31-4.31-4.78.56-.28-.5-1.35-1.5-2.72,0,.44-.24.48-.64.27-.39-.21-.97-.63-1.6-1.17-1.29-1.03-2.93-2.39-4.11-2.94.05-.21.26-.32.78-.13.26.09.59.26,1,.55.41.29.93.65,1.51,1.2-1.04-1.49-2.2-1.88-3.32-2.21-.55-.18-1.14-.29-1.71-.55-.57-.27-1.17-.59-1.81-1.19.67.37.99.63,1.36.6-.43-.14-.98-.4-1.55-.71-.57-.29-1.17-.6-1.68-.9-1.04-.57-1.74-1.05-1.2-1l.7.31c-2.28-1.15-5.98-2.49-9.31-2.92-3.32-.48-6.12-.26-6.5.27-.05-.14.7-1.23,1.03-1.43-3.13,1.01-6,2.43-8.56,4.02.29-.52-.36-1.15-.63-1.81-.13-.33-.16-.67.1-1.02.26-.36.82-.65,1.87-.91-.31,0-.64.01-1,.03-.18.01-.37.02-.56.04-.19.02-.4.06-.61.1-.42.08-.89.19-1.4.32-.26.07-.52.14-.8.23-.14.04-.28.09-.43.14-.14.05-.29.12-.44.18.42-.07,1.01.15,1.34.4.34.25.43.55-.11.7-.2-.02-.39-.04-.56-.05-.17,0-.32,0-.46,0-.29,0-.52,0-.73,0-.42.01-.71.03-1.03.07-.32.04-.66.07-1.16.15-.5.09-1.16.21-2.14.37.62-.14.73.24.46.74-.13.25-.36.52-.66.78-.3.26-.66.54-1.1.73.18-.32-.74-1.17-.14-1.62l-1.9,1.68c-.6.59-1.17,1.21-1.74,1.8.9-.82-.4-1.11-1.58-.87.28-.03-.6.57-1.68,1.3-.27.18-.55.37-.83.56-.27.2-.53.41-.77.61-.49.4-.91.75-1.14.98l1.81-1.08c-.55.42-1.01.81-1.4,1.19-.39.38-.72.71-.96,1.08-.5.72-.82,1.36-1.12,2-.08.16-.15.32-.23.48-.07.17-.14.33-.21.51-.15.34-.31.69-.51,1.06-.2.37-.44.76-.74,1.17-.28.43-.6.91-1,1.43.15-.66-.4-2.37-2.23-.22-.06.35-.07.97-.13,1.71-.03.37-.06.78-.1,1.22-.04.44-.1.89-.12,1.39-.03.49-.07,1-.12,1.52-.03.26-.06.52-.09.78-.04.26-.08.52-.09.8-.05.54-.12,1.09-.22,1.63l-.04.2-.02.1v.05s-.03.07-.03.07l-.09.3-.07.29c-.1.38-.17.78-.28,1.18-.24.29-.47.56-.7.81l-.25,1.06-.13.54-.07.27-.03.14s-.01.11-.05.12l-2.51-.31c.49-.09,1.14-.19,2.23-.19l.02-.02v-.05s0-.1,0-.1c0-.06,0-.13,0-.2,0-.13.01-.26.02-.4.01-.26.02-.53.03-.81.02-.54.03-1.08.04-1.6.02-.52-.02-1.03.01-1.47,0-.42.04-.92.08-1.4.04-.49.08-.98.13-1.47.08-.48.17-.95.26-1.41.19-.91.35-1.81.62-2.5-.17.2-.32.35-.43.48-.11.13-.2.22-.27.3-.15.15-.24.22-.34.32-.19.21-.42.56-1.14,1.96-.86.83.3-1.79.73-2.64l-.93,1.62-.46.81c-.14.28-.27.56-.4.84l-.4.85-.2.42-.1.21-.03.05s0,0,0,0h0s0,0-.01.01l-.03.04s-.03.06-.05.09l-.09.17c.14.12.23.27.28.48.05.2.06.48.04.75-.2.06-.49.1-.73.17-.24.07-.45.18-.41.38l1.42-.06c.07-.39.11-.8.14-1.15.02-.17.02-.34.04-.5,0-.04.01-.08.01-.11v-.02s-.02,0,0-.06l.18-.57c.14,0,.25.14.31.39.03.12.06.28.07.45.03.04.05.08.08.13.02.06.04.13.05.2.06.29.11.67.11,1.14,0,.23-.01.49-.03.77-.01.14-.03.28-.04.43,0,.07-.02.15-.03.22l-.02.11v.06s-.01.04-.03.03c-.44.02-1.01,0-1.64-.06-.32-.03-.65-.07-1-.11-.19-.03-.38-.06-.57-.08-.21-.04-.42-.07-.63-.11-.6-.25-.32-.58.11-.88.43-.3,1.02-.56.99-.7-.35.09-1.56.03-2.73-.02-1.18-.06-2.32-.12-2.55-.23.72-.1,1.45-.18,2.18-.26-1.4-.3-2.58-.1-3.81.07-.61.08-1.24.17-1.93.18-.69.03-1.43-.02-2.28-.19-.58.01-1.47-.21-2.25-.35-.77-.12-1.43-.19-1.5.06,2.04.74,2.53,3.6,1.42,4.41-.1,0-.51-.03-1.09-.07-.58-.04-1.33-.04-2.12-.08-.79-.01-1.61-.02-2.31-.03-.7,0-1.3,0-1.64-.05-.98-.15-.42-.73.22-1.3.63-.57,1.33-1.14.47-1.28-.03.23-1,.73-1.4.91-1.22.12.33-.8-2.22-.04-.1.47-1.39.82-2.14,1.04-.37.11-.61.18-.49.18.12,0,.58-.09,1.62-.19-2.37,1.01-2.66.66-5.45,1.85.55.06.09.74-.73,1.57-.41.43-.92.88-1.44,1.32-.52.46-1.08.88-1.59,1.23.03-.26-.59-.22-.89-.19-2.25,1.24-3.96,2.24-5.58,3.32-1.61,1.08-3.17,2.2-4.93,3.85-.46.15-2.3,1.64-1.85.68-.2.3-.35.62-.59,1-.23.39-.56.81-1.04,1.39-1.23.86-.7.21-.12-.52.59-.72,1.26-1.5.17-.98.06.12-.06.38-.27.75-.21.37-.51.84-.86,1.34-.68,1.02-1.5,2.25-2.01,3.2.5-.04,1.25-1,2.08-2.15.82-1.16,1.76-2.48,2.38-3.36.19.18.21.53.11,1.01-.11.48-.35,1.09-.68,1.82-.68,1.44-1.71,3.33-2.9,5.46-.51.82-.81,1.32-1.05,1.58-.23.27-.36.31-.44.27-.16-.08-.12-.5-.24-.18-1.72,2.62-2.1,4.23-2.37,5.49-.1.43-.19.84-.28,1.25-.1.43-.21.87-.35,1.33-.14.46-.28.98-.46,1.52-.09.27-.19.56-.3.85-.06.15-.11.3-.17.45-.06.15-.11.34-.23.39-.9-.31-2.04-.75-3.35-1.25-.88-.42-1.28-.65-1.42-.84-.15-.19-.06-.33.08-.46.14-.13.34-.24.47-.35.13-.11.17-.24.03-.39,1.19.16,2.13.47,3.03.86l.07.02s.06.03.06,0l.07-.13c.04-.08.09-.17.13-.25.09-.16.18-.33.26-.48.18-.33.35-.64.53-.95.37-.61.73-1.31,1.05-2-.25.4-.5.87-.75,1.28-.25.42-.48.83-.7,1.23.12-.62.4-1.44.7-2.23.3-.78.69-1.5,1.03-1.99-.29.32-.72.98-1.19,1.87-.22.45-.47.94-.72,1.48-.12.27-.24.55-.36.84-.06.15-.12.29-.19.44l-.09.23-.05.11s-.08-.02-.12-.04c-.92-.33-1.91-.6-2.94-.81-1.04-.21-2.19-.36-3.29-.42-1.11-.09-2.2,0-3.23,0-.51.03-1.01.1-1.49.14-.48.05-.95.06-1.37.15-.48.24-1.14.52-1.56.75-.41.25-.58.46-.16.44.56-.21,1.15-.37,1.72-.55.86.05.07.44-.61.77-.69.33-1.3.6-.2.45-.55.21-1.06.56-1.6.85-.27.16-.55.29-.82.47-.27.18-.54.36-.82.54-.28.17-.57.35-.86.53-.28.2-.57.4-.87.59-.29.2-.63.36-.93.59-.31.22-.63.43-.97.64-.31-.08-.63-.15-.95-.22.1.06.6-.17,1.14-.5.27-.16.54-.38.81-.55.27-.17.51-.35.68-.52-.12.12-.29.24-.49.36-.1.06-.21.12-.32.18-.11.07-.22.13-.34.21-.48.29-1.06.56-1.61.9-.53.37-1.05.75-1.47,1.16-.39.43-.66.89-.72,1.33l.95-.66c.31-.23.67-.39.99-.58-.17.23-.35.46-.54.7-.16.26-.32.53-.48.8-.16.27-.33.54-.49.81-.16.28-.29.58-.45.87-.15.29-.31.58-.47.87-.16.29-.28.6-.44.89-.15.3-.31.59-.49.87-.15.3-.3.6-.48.89.6-.39.63-.53.74-.74.12-.2.31-.48,1.14-1.04-.43.2-.43-.05-.22-.54.13-.23.32-.5.53-.8.11-.15.22-.3.34-.46.12-.16.23-.32.37-.46.27-.29.53-.57.75-.83.22-.26.4-.48.53-.63.24-.32.18-.45-.52-.2,1.1-.3,1.74-.81,2.55-1.26.75-.5,1.65-.95,2.92-1.17-.18-.19-1.01-.03,1.01-.88.06-.11.23-.3.36-.39.07-.02.09-.02.15-.03-.05,0-.08,0-.13.01.08-.07.08-.08-.05,0-.53.1-.96.19-1.18.14.1-.12.23-.26.4-.4.17-.14.36-.3.59-.42.46-.25,1.01-.52,1.56-.78.58-.2,1.16-.4,1.68-.58.25-.1.5-.15.72-.21.22-.06.41-.12.56-.18,1.39-.1-.53.37.25.51.29-.11.59-.25.89-.35l.92-.26c.11.28,1.02.42,1.49.65.24.11.36.2.24.29-.13.09-.5.13-1.27.27.92-.07,1.85.01,2.77.11.31.09.64.19.98.3.43.12,1.25.32,1.97.56,1.47.51,3.03,1.06,4.3,1.45.09-.13.15-.31.22-.49.06-.17.12-.35.18-.51.12-.33.22-.65.32-.95.27-.58.53-1.31.77-1.98.24-.67.44-1.32.59-1.81.3-.97.39-1.38.15-.28l.19-.49.07-.19.06-.14.23-.55c.15-.37.3-.74.46-1.1.34-.72.64-1.46,1.01-2.16l.14.03c1.22-2,2.4-4.13,3.89-6.17,1.49-2.03,3.3-3.96,5.62-5.4,1.08-1.16,2.22-2.38,4.47-3.8.23.03.46.05.69.09.4-.31.92-.66,1.5-1.01.59-.33,1.22-.68,1.83-.98,1.22-.63,2.32-1.14,2.59-1.56,1.26.08,3.44-.9,5.86-1.81,2.4-.93,5.05-1.79,6.79-2.02v-.63c2.42-.42,4.72-.91,7.77-1.26l-.21-.54c.66-.12,1.43-.18,2.26-.16.84.02,1.74.11,2.69.24s1.94.3,2.94.49c1.23.23,2.48.46,3.74.7-.22.05-.79,0-1.44-.13-.13-.03-.27-.05-.41-.08-.1-.02-.2-.05-.31-.07-.2-.05-.4-.11-.59-.17l.55.21.28.1.14.05.07.02.14.04c.66.17,1.33.34,2,.51,1.36.35,2.77.68,4.11.95.49-1.52.93-3.1,1.34-4.59.1-.38.21-.74.32-1.11.19-.49.21-.6.28-.82.13-.42.27-.83.4-1.24.61-1.61,1.36-3.13,2.48-4.24.11-.26.22-.5.33-.71.11-.22.23-.41.37-.58.27-.34.55-.63.84-.9-.06.08-.11.16-.14.24.07-.09.18-.22.28-.36.38-.33.73-.68,1.18-1.02-.42.25-.75.55-1.03.82.12-.17.26-.37.41-.58.15-.22.34-.42.52-.66.36-.46.75-.98,1.13-1.5.26,0,.53,0,.8.02.07-.08.13-.14.2-.21,1.04-.7.53-.89-.27-.74.4-.52.74-1.01.98-1.44.7,0,1.3-.57,1.94-1.19.16-.16.32-.31.49-.46.17-.14.36-.26.55-.37.38-.22.78-.36,1.2-.35.05-.11.17-.26.34-.43.17-.17.38-.38.65-.57.53-.39,1.19-.86,1.83-1.33.66-.45,1.35-.86,1.86-1.28.26-.2.48-.4.64-.59.17-.18.28-.33.31-.49.09.11.48.03-.18.29,1.42-.42,2.78-.87,3.97-1.48l.8.54.69-.47c.23-.15.47-.27.71-.41l1.46-.82c.25,0,.48.01.69.02.21.02.4.05.57.08.33.06.56.12.68.21.23.17-.03.41-.91.81,1.09-.36,1.87-.59,2.49-.75.3-.09.57-.12.81-.16.24-.03.46-.06.67-.09.85-.11,1.59-.28,3.6-.63l-.21.48c.35,0,.76,0,1.18-.03.42-.02.87-.08,1.3-.07.85,0,1.65.02,2.03.31.74.36,2.06.72,3.7,1.25.83.25,1.72.58,2.67.92.47.19.96.39,1.45.59.49.21.99.45,1.5.68,2.02.96,4.08,2.19,5.91,3.62,1.84,1.42,3.45,3.04,4.64,4.63,0-.52.12-.59.33-.4.21.18.51.63.81,1.14.15.25.31.52.47.77.16.25.3.5.46.71.3.41.6.67.87.56,0,.58.48,1.58-.49.72,1.33,1.51,1.96,2.91,2.58,4.1.27.62.57,1.17.89,1.73.16.28.33.55.52.83.1.14.2.27.31.41.1.14.21.28.33.42-.15.55-.77-.61-.8-.15.18.27.73,1.07.7,1.52-.05.45-.47-.44-.84-.96.19.46.38.87.55,1.23.16.36.32.68.47.95.32.54.58.92.86,1.18.55.52,1.09.57,1.59.6,0,.55.03,1.03.08,1.45.05.42.09.8.17,1.16.08.35.21.68.34,1.02.13.34.3.67.51,1.04-.05.19-.11.42-.16.61-.06.19-.13.34-.19.38-.13.09-.25-.25-.48-1.53.09.73.2,2.96.19,5.02-.01,2.07-.15,3.95.22,4.09-.13.31-.25,1.05-.35,1.76-.11.72-.18,1.4-.19,1.65-.17.83-.33,1.51-.38,1.72,0,.04.06.05.11.06l.14.04c.09.03.18.05.27.08.18.05.34.1.51.15.33.09.63.18.91.26.58.17,1.09.31,1.63.48.26.08.55.16.82.26.26.09.54.18.84.28.46.13.95.35,1.58.58l-.79-.46c.76-.19,1.44,0,2.19.41.75.42,1.62.97,2.79,1.59l-.11.05c.31.22.6.41.84.6.25.19.47.36.66.51.4.3.71.52.97.69.5.37.78.53,1.06.69.27.17.57.3,1.03.72.45.41,1.14,1.01,2.08,2.17l.15-.65c.31-.14.69.05,1.12.45.41.42.86,1.05,1.36,1.76.93,1.47,1.94,3.26,3.08,4.57-.15-.41-.28-.82-.44-1.23.72.66,1.15,2,1.37,3.39l.09.51c.03.17.05.31.11.59.1.49.22.99.34,1.48.12.49.26.98.4,1.43.14.45.29.93.44,1.31.11.38-.03.17-.26-.25-.12-.2-.25-.48-.39-.72-.14-.24-.28-.48-.4-.68.15.39.29.75.42,1.07.13.35.25.66.35.94.22.56.4,1,.54,1.32.29.65.45.85.54.85.1,0,.14-.2.21-.36.03-.08.08-.15.13-.18.03-.02.06-.02.1-.02.04-.01.09-.02.15-.03.37-.34,1.02-.79,2.22-1.41.46,0,.11.47.08.73-.01.13.07.2.42.11.35-.08.97-.35,2.02-.76.26-.05.67-.18,1.14-.37.25-.09.54-.22.86-.35.65-.27,1.47-.6,2.38-.86,1.82-.54,4.07-.66,5.54-.03-.31-.21-.64-.39-.68-.55-.02-.08.03-.14.19-.2.16-.05.43-.1.84-.08,1.25.12,2.83.87,4.25,1.65.72.38,1.4.81,2.06,1.13.64.36,1.28.6,1.87.73.21.25.26.39.22.46.22.1.45.24.7.41.25.16.53.34.81.53.54.42,1.15.86,1.68,1.36.57.46,1.05.99,1.52,1.38.56.65,1.03,1.16,1.35,1.37,0,.54.21,1.31.57,2.2.19.45.39.92.62,1.41.12.24.24.49.36.75.06.13.13.25.19.38.03.06.06.13.1.19l.12.07c1.1-1,2.46-2.32,3.71-3.38l.47-.38c.16-.11.31-.21.46-.32.15-.1.3-.2.44-.3.1-.06.2-.12.3-.19.4-.25.8-.47,1.18-.64,1.56-.73,2.87-.83,2.94-.18.9-.15,1.83-.24,2.76-.18l.69.02c.23,0,.46.06.69.08l.69.09c.23.03.45.1.68.15l-.18.15c.21.06.41.12.61.17.1.03.19.05.29.08.09.03.18.07.27.1.35.13.67.24.97.33.29.12.56.23.81.32.25.09.49.16.7.25.42.18.82.28,1.17.4.34.13.67.23,1,.34.31.3.28.42.2.43-.09.01-.26-.05-.32-.02.94.93,1.59,1.71,2.07,2.4.23.35.48.65.67.96.19.31.37.59.57.86.18.28.33.56.53.85.09.14.2.28.29.44.09.16.18.32.27.48.19.33.43.68.61,1.11.19.42.45.88.63,1.43-.17.19-.35.37-.53.55.15.27.16.86.15,1.65,0,.2-.02.41-.04.63-.03.33-.08.73-.15,1.14-.16.82-.37,1.74-.61,2.71l.08.13s.1.07.15.11c.11.07.22.14.33.21.22.14.45.28.67.43.46.29.94.59,1.42.89.49.3,1,.61,1.51.92.37.19.74.38,1.11.58.75.37,1.51.76,2.28,1.07.78.3,1.56.57,2.33.8-.08.04-.24.1-.72-.01,1.64.54,3.38,1.17,5.12,1.93,1.75.69,3.49,1.47,5.14,2.08,3.29,1.27,6.18,2.04,7.64,1.28,1.47.2,2.95.35,4.42.51-5.51-1.48,1.04-.73-1.15-1.63,2.19.39,5.49,1.91,2.78,1.43l-.4-.2c-.62.44,1.09.95,2.92,1.37,1.83.44,3.79.81,3.64,1.18,1.39.25,2.76.5,4.16.72l.29-3.94c-9.71-.08-19.17-.58-28.31-.62l1.2.89-3.64-.05c-.96-.21-1.28-.7,1.32-.66-1.37-.51-4.36.42-4.43.62-5.09-.36,1.99-1.04.43-1.06l-2.12.07.48.1c-1.72.36-1.87.75-4.99.71-1.98-.18-1.01-.55-1.79-.58,0-.06-.26-.09-1.19-.03l-4.59-.08,1.84.7c-2.03.35-4.32-.04-2.2.76-.78-.31-2.24-.49-4.02-.59-.89-.05-1.86-.09-2.87-.11-.5,0-1.02-.01-1.53-.02-.25,0-.54,0-.75-.01l-.68-.02c-1.82-.11-3.57-.56-4.87-1.16-.66-.28-1.21-.6-1.63-.87-.21-.13-.39-.28-.54-.39-.15-.12-.25-.2-.39-.35-.84-.47-1.56-1.08-2.27-1.72-.71-.64-1.37-1.31-2-2-.04.02-.08,0-.12.04l-.11.17-.23.35c-.15.23-.31.46-.46.7-.3.46-.65.92-.99,1.39-.33.48-.71.92-1.09,1.37-.19.22-.38.46-.58.68l-.16.16-.16.15-.23.22c.08-.06.17-.11.26-.14.04-.02.08-.03.13-.05.06-.03.11-.05.16-.06.17-.05.29-.01.3.13,0,.07,0,.16-.08.29-.05.11-.11.22-.21.37-.1.14-.23.32-.41.51-.19.18-.42.39-.7.62-.07-.49-.38-.53-.84-.35-.48.16-1.08.58-1.81.98-.35.22-.75.42-1.15.62-.39.21-.81.37-1.22.52-.4.16-.81.25-1.18.32-.37.08-.72.08-1.03.03,1.04.01-.7.81-2.44,1.28-1.72.49-3.42.7-1.78,1.11-1.18.05-1.22-.1-1.2-.29.02-.2.1-.38-.76-.56-2.24.38-4.76.04-7.17-.86-1.21-.45-2.37-1.05-3.52-1.77l-.44-.28s-.06-.04-.12-.08l-.18-.13-.35-.25-.71-.51-.7-.58c-.94-.77-1.88-1.58-2.8-2.37-.04.02-.07.03-.11.06l-.11.13-.21.27-.42.54c-.28.36-.56.73-.85,1.09-.56.76-1.13,1.42-1.69,2.12.01.15.36-.05.53-.02.18.02.18.28-.39,1.2l-.51.4-.42.24-.84.47c-.54.32-1.12.6-1.69.87-.46.5-.49.94-.72,1.38-.11.22-.27.45-.55.68-.14.12-.31.24-.52.36-.21.12-.48.22-.79.33.39-.06.99-.16.28.44-2.94,1.82-6.02,3.42-9.3,4.57-3.27,1.16-6.71,1.97-10.23,2.19-3.51.22-7.08-.08-10.47-1.01-3.39-.91-6.57-2.52-9.25-4.66,1.39,1.29.31.71-.93,0,.75.55-.29.44-.29.78-1.52-1.27-2.97-2.6-4.23-4.08-.67-.02-1.85-1.07-2.9-2.15-.51-.56-1.03-1.08-1.44-1.51-.41-.42-.77-.7-1.01-.7.44.45.84.92,1.3,1.34-1.15-.64-1,.35-.59,1.57.37,1.25,1.09,2.66.54,2.96.36.16.69.4,1.04.66.35.26.69.56,1.03.9.17.17.34.35.51.53.18.18.36.36.55.55.37.38.76.77,1.15,1.17,1.63,1.54,3.71,3.1,6.28,3.5.45.33.2.32-.12.29-.31-.04-.68-.12-.47.14,1.37.09,2.77.62,5.39,1.72l-.34.03c.96.25,1.85.54,2.69.74.85.18,1.65.41,2.42.55.78.14,1.52.29,2.26.42.74.1,1.47.21,2.21.31.74.08,1.49.13,2.28.2.39.04.79.05,1.2.06.41,0,.83.02,1.26.03.43.02.87,0,1.33-.02.46-.02.93-.04,1.42-.06.49-.02.99-.1,1.52-.15.52-.07,1.07-.1,1.63-.22-.26-.14-.51-.28-.76-.44.95-.14,1.54-.22,2-.24.23-.01.43-.02.63-.02.2-.01.4-.03.63-.06.48-.36.39-.45.01-.41-.19.02-.45.08-.74.14-.3.06-.63.12-.97.19-1.35.3-2.74.44-1.83-.18.34.11.8.11,1.35.08.28-.02.58-.05.89-.08.32-.04.66-.09,1-.17.69-.16,1.45-.32,2.22-.57.76-.26,1.56-.49,2.32-.81.38-.15.76-.31,1.14-.46.38-.15.75-.3,1.1-.46.7-.33,1.39-.6,1.99-.88.6-.28,1.15-.51,1.61-.65.47-.14.83-.25,1.11-.22,1.28-.81,1-.83.72-.85-.14-.01-.28-.02-.22-.13.05-.12.31-.29.91-.73l.85-.17.33-.82c1.57-1.13,2.62-1.44,2.87-1.27-.37.31-1,.94-1.38,1.3.56-.33,1.22-.77,1.81-1.33.61-.55,1.24-1.14,1.76-1.75.51-.57,1.15-1.29,1.15-1.36.14-.2.26-.36.34-.39l-.46.36-.12.1-.03.02-.07.06-.14.12-.55.48c.16-.17.31-.35.47-.52l.12-.13s.09-.09.09-.11l.1-.13c.13-.17.27-.35.41-.53.15-.18.25-.34.38-.51l.18-.25.09-.13s.06-.13.1-.06c.26.21.54.43.83.63.14.1.3.2.45.29l.06.04.11.06.28.16.57.32c1.61.87,3.32,1.56,5.06,2.05,1.75.48,3.53.74,5.25.79,1.73.05,3.4-.13,4.94-.45l-.64-.21c.76-.12,1.39-.31,1.94-.41.55-.13,1.01-.26,1.43-.35.42-.09.77-.21,1.11-.28.34-.08.65-.14.97-.24.32-.09.64-.18.99-.28.35-.1.72-.26,1.16-.43.86-.35,1.94-.89,3.33-1.86l-.17.19c.99-.97,2.32-2.15,3.64-3.42-.24.35-.2.42-.01.35.09-.04.22-.11.37-.2.07-.05.15-.09.23-.14l.12-.08s.03,0,.05-.01c.37-.16.62-.21.43.28.35-.58.61-1.06.77-1.41.08-.18.14-.33.2-.47.05-.12.09-.3.13-.25.09,0,.15-.06.31-.07.17-.01.41.02,1.09.26.13.3.23.58.32.83.12.02.23.04.33.06.15.05.29.09.43.13.27.08.51.17.82.28.3.11.65.26,1.11.44.23.1.49.2.79.31.3.12.64.24,1.03.37-.67-.15-.89-.15-.91-.06-.02.09.18.28.39.45.39.35.78.74-.81.36,1.59.97,3.21,1.42,4.64,1.61,1.43.19,2.76.06,3.68-.04,1.98-.19,3.52-.33,5.01.4,2.99-1.25-5.64-.69-3.96-.96-1.4-.41,2.47-.93,4.52-.81,2.08.03,3.54,1.6,8.78,1.58-.52,0-.56.09-1.08.08,1.96.32,3.84-.43,6.25.09,1.35-.76,3.12.04,3.51-.92l-4.81.22c2.72-.25,5.28-1.38,9.77-.83-.35.19-1.68.45-2.6.59,1.31.28,2.53-.19,3.89.1-.39.97-5.84.21-8.76.95,1.41.41,5.52-.7,4.05.35,2.11-1.33,5.16.17,8.71-.85l-.23.58c.56-.09,1.72-.36,2.76-.35l-1.87.75c2.87-.64,5.54.56,8.29.21-5.77.02-1.29-.7-3.73-1.12,7.11-.77,4.09,1.51,12.06,1.24-1.08.08-4.05-.35-2.36-.62,1.52.12,3.52.34,4.45.64,5.28-.12-.81-.59,1.44-.95.75.29,1.33.29,1.92.17l.4-5.39c-.78.05-1.67.3-2.99.19l.09-.58c-2.88-.72-3.32-.51-3.69-.28-.37.22-.67.46-3.25-.32.79-.1,1.59-.22,2.38-.33-.92-.12-1.85-.24-2.77-.37l.7-.53c-1.53-.09-2.52-.21-3.48-.43-.96-.22-1.89-.52-3.3-.98.57.56-.65.96-3.19.27-1.63-.82,1.11-.26-2.49-1.2.91-.11,1.92-.32,3.32.64.21-.14.89-.14,1.11-.28-1.75-.88-4.61-1.38-5.88-1.78.48.17,1.06.38,1.34.56l-2.68-.4-2.67-.47c-.73-.48-.03-.43.65-.38-.52-.14-.98-.21-1.5-.3-.51-.11-1.09-.24-1.84-.5.56-.31.63-.78,2.8-.24-.83-.17-1.63-.42-2.45-.62-.81-.21-1.64-.42-2.43-.68-.23-.33-2.12-1.53-1.46-1.43-.43-.22-.87-.46-1.36-.67-.49-.21-1.02-.41-1.58-.61-.14-.05-.28-.1-.42-.15-.09-.04-.08-.02-.1-.02h-.06c-.08,0-.17-.01-.27-.02-.1-.01-.2-.03-.31-.05l-.17-.04s-.14-.02-.12-.07c-.02-.14-.03-.31-.02-.49l.03-.37c.03-.36.03-.71.04-1.06-.05-.12-.11-.3-.16-.57-.03-.13-.06-.29-.09-.47-.03-.18-.06-.39-.12-.63-.06-.53-.12-1.06-.18-1.58-.1-.52-.2-1.03-.31-1.55-.03-.13-.05-.26-.08-.39l-.11-.38-.23-.76c-.08-.25-.15-.51-.25-.76-.11-.25-.21-.49-.32-.74-.86-1.97-2.19-3.91-4.26-5.45-.26-.43-.52-.86-.8-1.3-.3-.41-.61-.82-.94-1.24-.43-.3-.74-.42-.92-.49-.18-.06-.25-.04-.25.03,0,.14.29.47.48.77.18.31.29.57,0,.53-.14-.02-.37-.12-.76-.29-.19-.09-.42-.19-.69-.33-.27-.14-.58-.3-.96-.45-.53-.22-.94-.4-1.27-.56-.34-.13-.58-.24-.76-.33-.36-.19-.44-.34-.42-.46.02-.25.44-.45-.33-.82-.61-.04-1.32-.12-2.12-.13-.8.01-1.66-.02-2.57.06-1.83.05-3.83.28-5.99.5,1.34-.52,2.48-.57,3.79-.72M264.13,66.36c.42-.15,1.06-.4,1.7-.55.63-.16,1.25-.22,1.59-.07-.96.75-1.74.51-3.28.61M232.67,27.9c.18.26.35.62.44,1.06.1.44.16.95.2,1.49-.27-.73-.45-1.59-.64-2.55M95.2,64.2c.05,0,.09,0,.13,0,1.42.56,1.93.77,1.77.71-.15-.05-.93-.37-1.91-.72M91.24,63.28c-.33.06-.31.15-.18.24.23-.14.97-.11,1.79.05-.21-.18-.62-.36-1.61-.29M315.43,106.73l.72.15c-1.63.17-1.17.02-.72-.15"/>
      <path class="cls-1" d="M89.83,107.03c.03.06,0,.21-.03.32-.02.12-.05.23-.08.33-.16.1-.27.18-.34.24-.09.09-.14.16-.18.21-.09.11-.09.21-.25.55.2-.41.36-.66.45-.7.1-.06.16.01.23.07.03.03.07.07.13.11,0,0,0,0,.03.02l.06.08s.08.1.12.14c.08.09.17.17.25.25.36.28.71.39,1.06.17l.17.81c-.12-.18-.21-.15-.33-.33.12.83.55.85,1.04.86.25,0,.51,0,.78.09.26.09.53.28.81.64.35.54.51,1.03.06.86.43.25.88.46,1.33.67.29.3.03.45-.26.15.29.22.57.46.87.66l.9.61-.04.03c.4,0,1.21.04,1.58.09.32.5-.32,0-.32.24.41.1.79.23,1.21.3.1.3-.12.42-.45.41-.33-.02-.75-.21-1.09-.46.01.99.29,1.08.75,1.12.23.02.51.05.83.2.16.07.33.18.52.33.19.15.4.32.62.57-.38-.11-.77-.21-1.13-.35.1.61.42.93.82,1.24.21.15.43.32.67.5.24.18.5.38.77.64-.09-.21-.6-.79-.84-1.35-.25-.55-.29-1,.39-.9.27.28.71.53,1.49.48-.21.55.49.69,1.33.91l-.3.72c.99.09,1.03-.32,1.66-.52.99.33,1.08.97,1.23,1.51.85.22.59-.08.39-.39-.2-.32-.34-.66.64-.55.66.29,1.26.32,1.9.29.63-.01,1.31-.22,2.13-.42.96.28-.17.48.17.71.29-.21.57-.42.85-.63.21,0,.15.2.12.3.71-.27.03-.77,1.12-1.06.11-.44.68-.17,1.42.02.73.2,1.64.32,2.2-.32.38.14-.05.5.12.77.42-.26.81-.48.82-.58.1-.13.18-.22.25-.31.17-.2.28-.41.81-1.06.23.09.42.19.56.3-.14-.3.04-.78.57-1.4.2-.29.29-.2.44-.21.14.01.29.05.45.1.02-.57,0-1.11-.03-1.43.35.35.71.75,1.1,1.18.03.32-.25.37-.58.44.09.04.19.08.27.1.1.8-.39.83-.83.94.02-.28.04-.59.06-.91-.46.15-.85.52-1.06,1.1.08-.05.18-.02.27.07-.11.07-.19.16-.22.27-.03.12.11.01.31-.03-.14.35-.29.69-.45,1l.24-.27c.06.5.08.94.08,1.29.79.44,1.63.77,2.47,1.21.42.22.83.47,1.25.77.43.29.86.63,1.28,1.05-.86-.11-.92.5-1.55.92.13-.5-.21-.83-.67-1.18-.46-.35-.97-.76-1.25-1.34.28.61-.1.68-.29.6l.91.77.96.71c-.54.31-.1.66.05,1.29.74-1.09,1.61.91,2.53,1.35-.28.3-.76.41-1.38-.54,0,.78.57.86,1.11.93.55.07,1.09.11,1.18.83-.18-.2-.23-.36-.46-.3.68.25,1.46,1.63.97,1.59-.07-.06-.13-.13-.19-.2.56.72,1.53,1.72,2.45,2.48.23.19.47.36.7.49.23.14.46.25.66.33.41.16.75.2.98.06-.08.11-1.02.76-1.24.84,1.6-.13,3.12-.26,4.67-.55-.79.51-1.27,2.84-2.77,2.28.26.37.6.82,1.51,1.15-.16-.29.22-1.47.59-1.28.12.73.19.95.3,1.18.11.22.23.48.55,1.21-.25-.41.98-1.25,1.51-.83-.21.11-.75,1.16-1.04,1.13.75-.04,1.48-.09,2.21-.14-.49-.04-.71.92-.6,1.47,0-.16.31.06.68.34.38.26.83.57,1.07.63l-.47-.65c.8.59,1.47.43,2.13.24.33-.09.66-.19,1.01-.21.34-.01.7.07,1.12.28-.33.15-1.34,1.27-.53,1.87.37-.21,1.2-.73,2.14-1.19.94-.45,1.96-.82,2.82-.78l.13.49,1.32.05c-.55.34-1.55.82-2.62,1.23-.27.1-.55.21-.81.29-.27.08-.53.16-.78.22-.51.13-.99.23-1.37.28.52.62-.02.52.99.98.2.52-.79.24-1.1.11l1.13.7c.38.23.78.42,1.17.63.22-.8,2.17.01,2.33-.66l-2.94-.3c.12-.39.73-.77,1.51-.94.77-.18,1.7-.16,2.49.25.31.48-.83,1.23-.9,1.5.31-.14,1.82.07,1.91.32l-.88.17c.88.62,1.92-.5,2.84.63.38.19.94,1.34,1.14.9-.43-1.08.27-3.88.87-4.45.11.09,1.77,1.38,2.13,1.95.49.88-1.38,1.45-.97,2.2.08-.21.51-.38.68-.43.19.15.11.31.1.44-.01.14.05.27.53.3.33-.78,1.9.42.59-.61.96-.07.94.35,2.02.51-.24-.6,1.24-1.6,2.15-1.77-.08.2.09.5.17.63.92.14,1.62.33,2.31.51.69.17,1.37.26,2.25.31.15.21,1,.48.63.82.26-.14.5-.41,1.04-.41,1.05.75-1.22.07-.42.96.04-.24.4-.38.84-.53.44-.16.97-.3,1.35-.46-.13-.37-.57-.39-1.08-.28-.51.13-1.09.3-1.48.45,0-.51.35-1.03.91-1.47.55-.46,1.31-.88,2.18-1.15,1.38-.3.64.64.88.49.67.04,1.13-.12,1.48-.3.35-.19.6-.42.83-.63.46-.44.86-.76,1.97-.54.94.5.23,1.28.48,1.72-.55.24-1.02.16-1.43.07-.41-.09-.78-.21-1.17-.16l.99.21c-.34.25-1.1.5-1.54.35.39.25,1.54.18,2.84.04.65-.1,1.34-.21,2-.28.66-.08,1.3-.09,1.84-.1.32-.3.89-.67.53-.86l-.62.24c-.69-.38,1.03-1,.18-1.05.38-.28.77-.62,1.21-.89.44-.27.95-.44,1.56-.49l.43.65c-.09-.21-.87-.17-1.15.11.21-.21.71-.11,1.22-.08.5.02.99-.03,1.11-.58l-.96-.24c.35-.31.72-.73,1.13-1.08.2-.18.42-.33.65-.46.22-.14.47-.24.73-.28-.69-.53-.2.18-1.18-.39.96.83-2.54.75-1.22,1.52-1.02-.74-1.38.02-2.56-.6.09.23.46.37-.42.46-.02.08-.09.19-.13.26-.03,0-.04,0-.06,0,.02,0,.03.01.05.02-.03.05-.03.05.02,0,.23.06.42.14.52.26-.29.65-1.66.97-2.07,1.36-.54-.03.16-.31-.17-.52l-.62.55c-.18-.53-1.52-.66-.38-1.18l-1.08.16c-.34-.1-.73-.14-1.1-.12-.37.02-.72.06-.98.21-.52-.07-1.23.73-.83.26-.56.17-1.12.35-1.68.51l-.02-.14c-.85,0-1.71.25-2.62.39-.23.04-.46.06-.69.08-.23,0-.47-.01-.7-.05-.47-.07-.95-.21-1.42-.47-.29.06-.58.13-.93.15-.17.01-.35.02-.55,0-.2-.02-.41-.07-.65-.13l-.14-.49c-.75.08-2.11-.71-2.49-.25-.3-.66-1.14-.92-2.07-1.01-.46-.05-.95-.08-1.4-.12-.44-.05-.84-.15-1.14-.28l-.19.59c-.42-.13-.85-.2-1.31-.25-.23-.02-.47-.04-.73-.05-.26,0-.52-.03-.8-.06l-.09.54c-.52.06-1.09-.23-1.69-.59-.61-.36-1.26-.76-1.96-1.05.17-.15.5.04.71.27-.61-.92-1.55-1.07-2.52-1.19-.24-.03-.49-.05-.72-.09-.23-.05-.45-.11-.67-.18-.42-.15-.8-.38-1.06-.76-.46,0-.69-.2-.88-.45.03.02.07.02.1.02-.03-.02-.09-.05-.15-.08-.11-.17-.23-.34-.36-.52.08.21.17.38.28.48-.29-.12-.72-.33-1.2-.44l.12-.61s-.06-.03-.1-.04c-.28-.42-.46.05-.47.56-.25-.04-.5-.05-.72-.01.08-.5-.22-.59-.54-.69-.32-.1-.65-.23-.58-.8-.53.23-2.15-1.03-2.97-.34.07-.12-.01-.25.21-.11-.38-.39-.72-.82-1.27-.89l.28-.73-1.54.06c-.27-.8-.32-1.17.59-1.19-.94-.17-1.25-.35-1.53-.5-.28-.15-.54-.27-1.37-.44l.38-.31c-.39-.33-1.45-.42-1.4-.92-.07-.75-1.04-1.78-2.14-3-.52-.64-1.07-1.32-1.57-2.01-.13-.17-.25-.35-.36-.52-.11-.18-.21-.37-.3-.55-.19-.37-.35-.73-.48-1.09-.82,1.29-.28-1.47-1.25-.93.17-.33.11-.77.62-.54-1.08-1.07-.72-2.15-2.06-2.54.2-.31.59.02.68-.21-.06-.03-.19-.09-.29-.18-.05-.05-.07-.05-.17-.24-.04-.08-.05-.11-.06-.16,0-.04-.01-.09,0-.13.02-.17.12-.13.26,0,.04,0,.25.32.27.29.06.04.12.08.19.11-.03-.04-.05-.08-.08-.11l-.04-.05s-.02-.02-.06-.09c-.06-.09-.11-.18-.16-.26-.04-.06-.08-.12-.12-.17-.16-.22-.31-.4-.45-.54-.29-.28-.54-.41-.78-.45-.47-.06-.86.27-1.23.61-.18-1.32-.55-1.88-1.22-1.78,0-.17,0-.37-.01-.53,0-.09,0-.17,0-.24,0-.08,0-.11.01-.16.02-.08.08-.2.16-.13.08.05.21.19.39.47-.04-.09-.1-.22-.17-.39-.08-.15-.14-.43-.3-.48-.65.24-1.59.57-2.35.92-.77.36-1.34.68-1.34,1-.12-.06-.38,0-.63.1-.13.05-.23.1-.35.16-.07.04-.12.08-.15.11-1.14.23-1.25.18-2.36.43l.33.08c-.31,1-.93.35-1.84.53l.02-.1c-1.09-.28-1.3-.21-1.53-.14-.22.06-.46.11-1.47-.32l.07.59c-.14.63-.62.38-1.18.04-.29-.16-.59-.38-.9-.54-.31-.16-.63-.25-.95-.19.12.14.24.27.37.41-.38.17-.76-.38-1.07-.98-.15-.3-.3-.6-.44-.87-.13-.27-.26-.49-.4-.57-.09-.15.26-.1.46-.12-1.28-1.21-.43.69-1.66.43-.06-.47.64-.88-.07-1.25-.06-.12-.25-.15-.53-.15-.27-.02-.61-.02-.98-.05-.37-.01-.75-.09-1.07-.23-.32-.14-.6-.34-.72-.67.03.4.08.82-.54.69-.41-.21-.76-.78-1.09-1.3-.17-.26-.37-.47-.58-.64-.21-.16-.46-.24-.78-.19-.03-.14,0-.23.05-.29-.35-.12-.8-.45-1.28-.72-.48-.27-.91-.55-1.27-.53.28-.45.19-.83-.03-1.19-.24-.37-.65-.67-1.03-1.05-.26-.27-.51-.54-.72-.8-.21-.26-.38-.49-.51-.72-.25-.45-.32-.89-.04-1.33l-.22-.36-.06-.09s-.07,0-.1,0h-.22s-.87.03-.87.03l-1.73.05.12-.19c-.28-.02-.54-.02-.78-.02-.12,0-.23,0-.34,0-.1,0-.15.01-.22.02-.27.03-.49.09-.68.17-.38.15-.64.38-.91.6-.34-.13-.09-.3-.06-.4-2.17-.38-2.39-.3-4.21.63l-.19-.6c-.49.35-3.14-.95-5.27-.24.02-.07.06-.19.23-.27-2.4.71-5.74-1.68-6.62.52l-1.58.54c2.05.17-.3.95.54,1.32-.81.13-2.08-.66-1.09-.78l.15.11c.36-1.15-2.54-.41-2.49-1.19-4.03.06-7.96-.58-11.73-.63l.43.89-1.32-.05c-.35-.21-.46-.7.48-.66-.49-.51-1.57.42-1.6.62-1.84-.36.72-1.04.15-1.06l-.77.07.17.1c-.62.36-.68.75-1.8.71-.71-.18-.37-.55-.65-.58,0-.06-.09-.09-.43-.03l-1.66-.08.66.7c-.74.35-1.56-.04-.79.76-1.12-1.23-6.19-.44-6.88-.82-1.03.51-2.05.5-3.3.44.31.15.5.94-.59.84.4-1.63-1.99-.71-2.87-1.88.78.78-3.09.19-1.86,1.3-.91-.13-.05-.61-.74-1-2.16.63-4.75-.41-7.42-.2-.04.21.4.54-.17.86l-1.41-1.07c-.53.11-.48,1.24-1.45.49.14.18.34.45-.01.52-5.22-1.04-10.67.86-15.97-1.11.72.42.24.46-.31.47.36.1,0,.53.06.82l-2.22-.81c-.4.81-2.38.05-2.61.83l.7-.14c-.94.91,1.31,2.02,1.17,3.19,1.05-1.03,2.76,1.53,4.48.05.38.24-.32.38-.12.65.44-.5.96-.6,1.94-.38l-.11.12c2.74-.12,3.91.37,6.99.7l-.23-.58c.66.08.8.26,1.11.4.76-.88-1.86-.05-1.17-1.01.88,1.17,4.66.02,5.25,1.35,1.02,0-.3-.67.72-.66l.27.36.26-.46c.67.08,1,.53,1.03.83-.16-.04-.46.09-.63.11.86.43,2.44-.15,2.73,0l-.98-.22c2.77-.34,6.16.14,8.84-.6l-.2-.27c2.05-.5,1.64.3,3.89.07l-.08.07c.45-.27,1.05-.41,1.67-.38-.57.32,1.07.62.32.97,2.22-.54,1.1-.42,2.56-1.44l.34.45c.5-.41.54-.62,1.66-.74-.92.39.72.69-.32,1.2,2.36.99,3.5-1,4.58.45,1.08-1.25-2.04-.69-1.43-.96-.51-.41.89-.93,1.63-.81.75.03,1.28,1.6,3.17,1.58-.19,0-.2.09-.39.08.71.32,1.39-.43,2.26.09.49-.76,1.13.04,1.27-.92l-1.74.22c.98-.25,1.91-1.38,3.53-.83-.13.19-.61.45-.94.59.47.28.91-.19,1.4.1-.14.97-2.11.21-3.16.95.51.41,1.99-.7,1.46.35.76-1.33,1.86.17,3.15-.85l-.08.58c.2-.09.62-.36,1-.35l-.68.75c1.04-.64,2,.56,3,.21-2.08.02-.47-.7-1.35-1.12,2.57-.77,1.48,1.51,4.36,1.24-.39.08-1.46-.35-.85-.62.55.12,1.27.34,1.61.64,1.91-.12-.29-.59.52-.95.65.7.94-.29,1.77-.51v.59c2.18.38.58-1.22,2.54-.77l-.83.82,1.02-.21-.21.67c1.11-.5,1.45-.37,2.54-.18-.25-.41.14-1.07,1.1-1.08.66.35-.37.56,1,.47-.31.37-.65.83-1.24.29-.06.19-.3.37-.37.56.71.4,1.78.09,2.27.09-.19-.02-.42-.05-.53-.14l1.98-.81c.31.22.06.4-.18.57.4-.06.68-.33,1.27-.38-.15.48-.12.97-.95,1.2l1.88-.53c.13.21.97.57.72.75,1.04.28,2.56-.93,3.95-.56.07-.09.22-.18.51-.25,1.3.11,2.45.69,4,.04l.88.86c1.21-.19-1.18-1.08.83-1.4.18-.03.32-.05.43-.05.11,0,.21.02.22.05.05.06.06.17.06.29-.01.25-.05.56,0,.68.1-.22.32-.54.62-.73.14-.09.32-.17.43-.13.06.12.08.32.03.57-.09,0-.13-.05-.16-.12l-.05-.09s-.01-.04-.03-.03c-.02,0-.04,0-.06.02M100.9,116.42c-.34-.03-1.1.02-1.15-.39.64-.43.74-.03,1.15.39M121.43,117.72c-.23-.02-.25-.27-.23-.7.13.14.23.38.23.7M175.29,140.28s-.02.02-.02.03c-.63-.12-.41-.07.02-.03M176.58,140.32c.11-.1.09-.18.02-.25-.06.16-.34.22-.67.23.11.14.29.21.65.02M49.81,101.63l.26.15c-.59.17-.42.02-.26-.15"/>
    </g>
  </g>
</svg>