<?xml version="1.0" encoding="UTF-8"?>
<svg id="Layer_2" data-name="Layer 2" xmlns="http://www.w3.org/2000/svg" viewBox="0 0 212.22 179.57">
  <defs>
    <style>
      .cls-1 {
        fill: #fff;
      }
    </style>
  </defs>
  <g id="Layer_3" data-name="Layer 3">
    <path class="cls-1" d="M184.22,60.3c-.06.07-.12.13-.17.2-3.67-14.12-11.03-26.74-20.97-36.75C148.49,9.07,128.34,0,106.09,0,66.92,0,34.28,28.12,27.02,65.38h32.84c6.79-23.18,28.1-40.08,53.33-40.08,15.36,0,29.26,6.26,39.33,16.38,10.06,10.13,16.28,24.11,16.28,39.56v1.23c-6.45-22.16-25.02-39.28-47.71-44.11v28.1c18.95,1.44,35.58,11.35,46.11,25.97,1.35,1.85,2.58,3.75,3.71,5.74.29.52.58,1.04.87,1.59.59,1.12,1.16,2.25,1.7,3.4,2.44-8.84,7.17-16.73,13.45-23,6.84-6.81,15.56-11.73,25.28-13.89v-22.82c-11.1,2.48-20.85,8.49-28.01,16.84h0Z"/>
    <path class="cls-1" d="M99.02,154.26c-15.36,0-29.26-6.26-39.32-16.38-10.06-10.13-16.28-24.11-16.28-39.56v-1.23c6.45,22.16,25.02,39.28,47.71,44.11v-28.1c-18.95-1.44-35.58-11.35-46.1-25.97-1.35-1.85-2.58-3.75-3.72-5.75-.29-.51-.58-1.04-.87-1.59-.59-1.12-1.16-2.25-1.69-3.4-2.44,8.84-7.17,16.72-13.46,23-6.84,6.81-15.56,11.73-25.28,13.89v22.82c11.1-2.47,20.85-8.49,28.01-16.83.06-.07.12-.13.17-.2,3.67,14.12,11.03,26.74,20.98,36.75,14.59,14.67,34.73,23.75,56.98,23.75,39.17,0,71.81-28.12,79.07-65.38h-32.85c-6.79,23.18-28.1,40.08-53.33,40.08h0Z"/>
  </g>
</svg>