<?xml version="1.0" encoding="UTF-8"?>
<svg id="Layer_2" data-name="Layer 2" xmlns="http://www.w3.org/2000/svg" viewBox="0 0 180.14 198.72">
  <defs>
    <style>
      .cls-1 {
        fill: #fff;
      }
    </style>
  </defs>
  <g id="Layer_3" data-name="Layer 3">
    <g>
      <path class="cls-1" d="M6.03,139.47l-6.03,27.58c13.45-.35,28.72-3.31,40.31-8.4,13.51-5.92,22.81-18.72,24.34-33.48l1.82-17.46c-14.65,15.79-38.34,26.92-60.43,31.76"/>
      <path class="cls-1" d="M75.4,21.77l1.18-11.35c-9.85,14.25-29.31,22.98-48.15,26.67l-5.01,22.94c7.34-.05,16.88-1.17,23.54-3.22,15.61-4.81,26.76-18.69,28.45-35.03h0Z"/>
      <path class="cls-1" d="M180.13,167.02l-6.06-27.73c-22.82-5.15-47.12-17.01-61.63-33.77-6.41-7.4-10.2-16.73-10.81-26.53v-.27c14.29,19.49,40.2,32.56,66.42,33.08l-5.53-25.27c-21.1-4.38-43.27-14.79-55.16-30.63-5.16-6.87-8.08-15.17-8.61-23.76,12.27,16.69,35.13,27.51,57.98,27.89l-5.06-23.09C128.92,32.31,100,20.26,92.27,0h-9.9s-10.51,198.72-10.51,198.72h37.16l-4.13-67.09c16.9,20.88,45.76,34.4,75.25,35.39h0Z"/>
      <path class="cls-1" d="M73.22,76l-6.92,2.68c-3.29,13.43-11.62,22.84-21.55,26.76-9.33,3.69-21.77,6.24-32.37,6.35l3.73-17.05c3.1,1.4,6.52,2.18,10.15,2.18,7.4,0,14.04-3.27,18.58-8.45-4,2.81-8.88,4.47-14.14,4.47-4.92,0-9.49-1.43-13.34-3.93-3.03-1.96-5.62-4.57-7.56-7.63-.8-1.25-1.49-2.59-2.05-3.98h39.34l2.43-6.01c.69-1.72,1.86-3.14,3.32-4.12,1.45-.99,3.21-1.54,5.05-1.54,4.1,0,7.5,2.72,8.65,6.34l6.68,2.59c.61.23.61,1.11,0,1.34h0Z"/>
    </g>
  </g>
</svg>