<?xml version="1.0" encoding="UTF-8"?>
<svg id="Layer_2" data-name="Layer 2" xmlns="http://www.w3.org/2000/svg" viewBox="0 0 147.29 191.21">
  <defs>
    <style>
      .cls-1 {
        fill: #fff;
      }
    </style>
  </defs>
  <g id="Layer_3" data-name="Layer 3">
    <path class="cls-1" d="M123.14,127.82c-.56,1.62-1.2,3.21-1.93,4.77-.36.78-.74,1.55-1.14,2.33-.41.76-.83,1.52-1.26,2.27-.44.75-.9,1.49-1.38,2.21-.24.37-.49.74-.74,1.1-.74,1.08-1.53,2.14-2.38,3.17-1.11,1.39-2.31,2.7-3.58,4-1.6,1.61-3.28,3.1-5.02,4.45-.53.41-1.05.81-1.59,1.19-.54.38-1.08.75-1.62,1.11-.36.25-.72.48-1.09.71-.87.55-1.75,1.07-2.64,1.55-.5.28-.99.55-1.5.8-2.14,1.09-4.34,2.02-6.58,2.79-.99.35-1.99.65-2.99.93-.2.07-.4.11-.59.17-.56.15-1.1.28-1.66.41-1.11.26-2.22.48-3.34.66-2.81.47-5.64.7-8.47.7-.85,0-1.7-.02-2.54-.07-.85-.04-1.69-.09-2.53-.18-1.12-.11-2.24-.26-3.35-.44-1.12-.2-2.22-.4-3.33-.65-.55-.13-1.1-.26-1.65-.42-.19-.04-.39-.1-.58-.16-.73-.2-1.45-.42-2.17-.65-2.55-.82-5.05-1.86-7.48-3.09-.5-.25-1-.52-1.5-.8-.89-.48-1.77-1-2.64-1.55-.73-.45-1.46-.95-2.18-1.45-.71-.49-1.42-1.02-2.12-1.56-1.74-1.36-3.42-2.84-5.02-4.45v-.02c-18.81-18.92-20.54-48.97-4.17-69.94-9.15,33.68,12.52,69.81,60.44,59.06l.18-10.65c-45.56,3.61-52.32-48.86-19.35-99.14,0,0,42.42,52.24,42.96,53.03,9.94,14.23,12.02,32.1,6.55,47.8h-.04ZM130.62,70.17L73.63,0,16.66,70.17c-5.24,6.43-9.23,13.5-11.98,20.91-.37.99-.71,1.98-1.04,2.97-.32,1-.62,2.01-.91,3.01-.28,1.01-.54,2.02-.78,3.02-.12.52-.23,1.02-.34,1.54-.09.38-.17.76-.23,1.14-.45,2.3-.79,4.62-1.02,6.95-.04.38-.08.77-.11,1.16-.87,10.38.45,20.88,3.89,30.79.99,2.83,2.16,5.6,3.48,8.32.81,1.63,1.67,3.24,2.59,4.82.3.52.62,1.04.95,1.56.64,1.04,1.32,2.07,2.02,3.08.7,1,1.43,2,2.18,2.99,1.13,1.47,2.33,2.92,3.59,4.32.84.93,1.71,1.84,2.6,2.75,1.8,1.81,3.67,3.51,5.59,5.09.96.79,1.95,1.55,2.94,2.28.99.73,2.01,1.44,3.02,2.13,1.01.67,2.05,1.33,3.1,1.94,2.61,1.55,5.3,2.93,8.05,4.14,1.65.72,3.32,1.38,5,1.97.56.2,1.12.38,1.7.57,1.13.36,2.27.71,3.41,1.02,1.15.31,2.3.59,3.45.84,1.15.26,2.32.48,3.48.68,4.08.69,8.2,1.03,12.33,1.03s8.25-.35,12.32-1.03c1.17-.21,2.33-.42,3.48-.68,1.16-.25,2.31-.54,3.45-.84,1.14-.31,2.28-.65,3.41-1.02.57-.19,1.13-.38,1.69-.57,1.69-.6,3.35-1.26,5-1.97,2.75-1.21,5.44-2.58,8.06-4.14,1.04-.61,2.08-1.28,3.1-1.94,1.02-.68,2.03-1.39,3.02-2.13.99-.74,1.98-1.49,2.94-2.28,1.93-1.58,3.79-3.28,5.6-5.09,26.76-26.94,28.88-69.88,4.9-99.35h-.01Z"/>
  </g>
</svg>