<?xml version="1.0" encoding="UTF-8"?>
<svg id="Layer_2" data-name="Layer 2" xmlns="http://www.w3.org/2000/svg" viewBox="0 0 7.87 7.52">
  <defs>
    <style>
      .cls-1 {
        fill: #e3eeff;
      }
    </style>
  </defs>
  <g id="Carbon_Climate" data-name="Carbon &amp;amp; Climate">
    <g>
      <path class="cls-1" d="M.85,3.63l1.07.6-.04.78.74.37v.97c-1.13-.39-1.85-1.54-1.77-2.72h0ZM5.92,4.78c-.43,1.22-1.74,1.93-2.98,1.65l1.42-1.34-.42-.91h-1.55l-.33-.73.98-.45v-1.08h-1.45c.38-.4.88-.69,1.43-.8,0,0,0,0,.01,0V.41C.08.8-1.11,4.59,1.26,6.66c1.45,1.25,3.69,1.12,4.99-.28.61-.64.95-1.46,1.01-2.3h-1.19c-.01.24-.06.48-.15.71h0Z"/>
      <path class="cls-1" d="M6.94,2.43h0c-.13,0-.26.03-.37.08-.08-.46-.47-.81-.95-.81-.53,0-.97.43-.97.97v.12s-.07,0-.1,0c-.39,0-.71.32-.71.72,0,.01,0,.03,0,.04h4.04v-.18c0-.52-.42-.94-.93-.94h0Z"/>
      <path class="cls-1" d="M6.81,1.24v-.05c0-.34-.28-.62-.62-.62-.04,0-.08,0-.12.01-.1-.33-.42-.58-.78-.58-.39,0-.71.27-.8.64-.09-.05-.19-.07-.29-.07-.34,0-.62.28-.62.62v.05h3.23Z"/>
    </g>
  </g>
</svg>