<?xml version="1.0" encoding="UTF-8"?>
<svg id="Layer_2" data-name="Layer 2" xmlns="http://www.w3.org/2000/svg" viewBox="0 0 46.11 8.37">
  <defs>
    <style>
      .cls-1 {
        fill: #265ef9;
      }
    </style>
  </defs>
  <g id="Carbon_Climate" data-name="Carbon &amp;amp; Climate">
    <g>
      <path class="cls-1" d="M19.69,2.72c.06-.07.14-.12.23-.16.09-.04.18-.06.29-.06.11,0,.22.02.31.07.1.05.18.12.26.21l.34-.32c-.11-.14-.24-.24-.4-.31-.16-.07-.34-.11-.53-.11-.17,0-.34.03-.48.09s-.28.14-.39.25c-.11.11-.2.24-.26.39-.06.15-.09.31-.09.49s.03.34.09.49c.06.15.15.28.26.39.11.11.24.19.39.25.15.06.31.09.48.09.2,0,.38-.04.53-.11s.29-.18.4-.31l-.34-.32c-.08.09-.16.16-.26.21-.1.05-.2.07-.31.07-.11,0-.2-.02-.29-.06-.09-.04-.16-.09-.23-.16-.06-.07-.11-.15-.15-.24-.04-.09-.05-.19-.05-.31s.02-.21.05-.31c.04-.09.09-.17.15-.24"/>
      <path class="cls-1" d="M24.02,3.57c-.04.09-.09.17-.15.24-.06.07-.14.12-.22.16-.08.04-.18.06-.28.06s-.19-.02-.28-.06c-.09-.04-.16-.09-.22-.16-.06-.07-.11-.15-.15-.24-.04-.09-.05-.19-.05-.3s.02-.21.05-.3c.04-.09.08-.17.15-.24.06-.07.14-.12.22-.16.09-.04.18-.06.28-.06s.19.02.28.06c.08.04.16.09.22.16.06.07.11.15.15.24.04.09.05.19.05.3s-.02.21-.05.3M24.25,2.39c-.11-.11-.24-.19-.39-.25-.15-.06-.31-.09-.49-.09s-.34.03-.49.09c-.15.06-.28.15-.39.26-.11.11-.2.24-.26.39s-.09.31-.09.49.03.34.09.48c.06.15.15.28.26.39.11.11.24.2.39.26.15.06.31.09.49.09s.34-.03.49-.09c.15-.06.28-.14.39-.25.11-.11.2-.24.26-.39.06-.15.09-.31.09-.49s-.03-.34-.09-.49c-.06-.15-.15-.28-.26-.39"/>
      <polygon class="cls-1" points="27.28 3.52 26.16 2.09 25.73 2.09 25.73 4.45 26.25 4.45 26.25 3.02 27.37 4.45 27.8 4.45 27.8 2.09 27.28 2.09 27.28 3.52"/>
      <path class="cls-1" d="M30.57,3.26c-.08-.05-.16-.09-.25-.12-.09-.03-.19-.06-.28-.08-.09-.02-.18-.04-.26-.06-.08-.02-.14-.05-.19-.09-.05-.04-.07-.09-.07-.15,0-.05.01-.09.04-.13.03-.04.07-.07.14-.1.06-.02.14-.04.25-.04s.2.02.31.05c.11.03.21.08.31.14l.16-.41c-.1-.07-.22-.12-.36-.15-.14-.04-.28-.05-.42-.05-.21,0-.39.03-.53.1-.14.07-.25.15-.31.27-.07.11-.1.23-.1.37,0,.12.02.23.07.31.05.08.11.15.19.2.08.05.16.09.26.12.09.03.19.06.28.08.09.02.18.04.26.07.08.02.14.05.19.09.05.04.07.09.07.15,0,.05-.01.09-.05.13-.03.04-.08.07-.14.09s-.15.03-.25.03c-.14,0-.27-.02-.4-.07-.13-.05-.25-.1-.34-.18l-.18.41c.1.08.23.15.4.2.17.05.34.08.52.08.21,0,.39-.03.53-.1.14-.07.25-.16.32-.27.07-.11.1-.23.1-.36,0-.12-.02-.22-.07-.3-.05-.08-.11-.15-.19-.2"/>
      <polygon class="cls-1" points="32.5 3.46 33.54 3.46 33.54 3.04 32.5 3.04 32.5 2.53 33.68 2.53 33.68 2.09 31.98 2.09 31.98 4.45 33.72 4.45 33.72 4.01 32.5 4.01 32.5 3.46"/>
      <polygon class="cls-1" points="39.05 3.77 38.36 2.09 37.79 2.09 38.77 4.45 39.28 4.45 40.26 2.09 39.74 2.09 39.05 3.77"/>
      <polygon class="cls-1" points="41.84 3.46 42.88 3.46 42.88 3.04 41.84 3.04 41.84 2.53 43.02 2.53 43.02 2.09 41.32 2.09 41.32 4.45 43.06 4.45 43.06 4.01 41.84 4.01 41.84 3.46"/>
      <path class="cls-1" d="M46.04,3.45c-.05-.08-.11-.15-.19-.2-.08-.05-.16-.09-.25-.12-.09-.03-.19-.06-.28-.08-.09-.02-.18-.04-.26-.06-.08-.02-.14-.05-.19-.09-.05-.04-.07-.09-.07-.15,0-.05.01-.09.04-.13.03-.04.07-.07.14-.1.06-.02.14-.04.25-.04s.2.02.31.05c.11.03.21.08.31.14l.16-.41c-.1-.07-.22-.12-.36-.15-.14-.04-.28-.05-.42-.05-.21,0-.39.03-.53.1-.14.07-.25.15-.31.27-.07.11-.1.23-.1.37,0,.12.02.23.07.31.05.08.11.15.19.2.08.05.16.09.26.12.09.03.19.06.28.08.09.02.18.04.26.07.08.02.14.05.19.09.05.04.07.09.07.15,0,.05-.02.09-.05.13-.03.04-.08.07-.14.09-.06.02-.15.03-.25.03-.14,0-.27-.02-.4-.07-.13-.05-.25-.1-.34-.18l-.18.41c.1.08.23.15.4.2.17.05.34.08.52.08.21,0,.39-.03.53-.1.14-.07.25-.16.32-.27.07-.11.1-.23.1-.36,0-.12-.02-.22-.07-.3"/>
      <path class="cls-1" d="M36.32,3c-.04.12-.14.2-.27.2h-.6v-.66h0s.45,0,.45,0h.14c.13,0,.23.06.27.2.02.09.03.17,0,.26M36.45,3.61s0,0,0,0c0,0,.4-.17.42-.73,0,0,.02-.47-.33-.68-.06-.04-.18-.09-.32-.1-.01,0-.09,0-.1,0h-1.17v2.36h.52v-.82s.44,0,.44,0c0,0,.02,0,.02,0l.45.82h.56l-.49-.83Z"/>
      <path class="cls-1" d="M4.73,5.01c-.7.9-1.61.95-1.81.95-1.24,0-2.24-1.21-2.24-2.7S1.69.56,2.93.56c.23,0,1.12.05,1.81.94l.16.2V.6s-.05-.03-.05-.03C3.92.08,3.08.06,2.92.07,1.31.07,0,1.5,0,3.26s1.31,3.19,2.92,3.19c.24,0,1.04-.04,1.92-.49l.05-.03v-1.12s-.16.2-.16.2Z"/>
      <path class="cls-1" d="M18.3,7.77l-3.46-4.61,1.84-2.32c.29-.38.54-.55.54-.55l.24-.17h-1.19s-.02.07-.02.07c-.06.2-.19.39-.28.51,0,0-1.22,1.74-1.44,2.06-.24-.32-1.51-2.06-1.51-2.06-.08-.11-.19-.26-.26-.51l-.02-.07h-1.31l.28.18s.32.2.7.76c.52.7,1.47,1.97,1.68,2.26l-1.88,2.37c-.29.38-.54.55-.54.55l-.24.17h1.19s.02-.07.02-.07c.06-.21.3-.53.3-.54l1.46-2.08c.49.66,3.31,4.46,3.31,4.46.05.07.09.15.1.19h1.06l-.22-.18s-.08-.05-.34-.42"/>
      <path class="cls-1" d="M11.33,3.12c-.01-1.1-.6-2.17-1.52-2.71-1.33-.82-3.03-.34-3.81,1-.14.23-.29.52-.38.79,0,0,0,.02.01,0,.49-.9,1.47-1.73,2.71-1.7.57.01,1.12.24,1.52.65,1.53,1.58.73,4.7-1.56,4.7-1.42,0-1.9-1.37-1.95-1.81.78.71,1.95-.36,2.05-.42.95-.56,1.75-.07,1.75-.07,0,0,.05-.3.02-.53-.18-1.46-1.31-2.12-2.61-1.91-1.15.18-1.7,1.19-1.7,1.84.21-.27.33-.36.56-.52.34-.66.91-.85.91-.85-.21.19-.41.52-.5.67.21-.1.38-.15.69-.21.01,0,.1-.02.11-.02.46-.58,1.01-.57,1.01-.57-.36.16-.55.45-.63.55.76,0,1.36.24,1.67.81-.94-.93-2.4-.5-2.43-.49.18.37.97.51.97.51,0,0-.73.2-1.3-.37-1.14.45-1.33,1.32-1.06,2.2.17.56.58,1.08,1.05,1.35,2.08,1.19,4.44-.4,4.44-2.9h0Z"/>
    </g>
  </g>
</svg>