<?xml version="1.0" encoding="UTF-8"?>
<svg id="Layer_2" data-name="Layer 2" xmlns="http://www.w3.org/2000/svg" viewBox="0 0 186.13 177.78">
  <defs>
    <style>
      .cls-1 {
        fill: #fff;
      }
    </style>
  </defs>
  <g id="Layer_3" data-name="Layer 3">
    <g>
      <path class="cls-1" d="M20.06,85.77l25.32,14.26-1.01,18.39,17.55,8.75v22.87c-26.67-9.28-43.72-36.37-41.86-64.25h0ZM140.13,113.12c-10.07,28.85-41.08,45.53-70.36,39.13l33.54-31.72-9.83-21.62h-36.71l-7.69-17.32,23.1-10.74-.25-25.58h-34.05c9.06-9.53,20.93-16.38,33.93-18.98.11-.02.21-.04.32-.07V9.73C1.83,18.85-26.34,108.51,29.92,157.49c34.18,29.56,87.17,26.38,117.95-6.7,14.49-15.17,22.42-34.57,23.82-54.39h-28.12c-.35,5.68-1.48,11.33-3.45,16.73h0Z"/>
      <path class="cls-1" d="M164.07,57.43h0c-3.16,0-6.16.68-8.87,1.87-1.85-10.82-11.21-19.05-22.49-19.05-12.6,0-22.83,10.28-22.83,22.97v2.87c-.78-.11-1.57-.17-2.38-.17-9.33,0-16.9,7.61-16.9,17.01,0,.31.03.6.04.89h95.49v-4.18c0-12.27-9.88-22.21-22.07-22.21h0Z"/>
      <path class="cls-1" d="M161.17,29.29v-1.15c0-8.15-6.58-14.77-14.68-14.77-.94,0-1.86.1-2.76.27-2.48-7.9-9.83-13.64-18.5-13.64-9.2,0-16.9,6.44-18.9,15.09-2.05-1.1-4.4-1.73-6.89-1.73-8.1,0-14.68,6.62-14.68,14.77v1.15h76.4Z"/>
    </g>
  </g>
</svg>