<svg width="50" height="88" viewBox="0 0 50 88" fill="none" xmlns="http://www.w3.org/2000/svg">
<path d="M21.8078 87.3082C21.5009 87.2757 21.6078 87.6616 21.566 87.736C22.0822 87.6477 21.7985 87.2105 21.8078 87.3082Z" fill="white"/>
<path d="M22.2019 83.5576L22.2994 83.4044C22.0533 83.5205 21.8073 83.6134 21.5566 83.7109C21.7748 83.6598 21.9883 83.618 22.2019 83.553V83.5576Z" fill="white"/>
<path d="M17.8339 82.6757C18.0521 83.4416 19.4214 83.0284 20.1455 83.3858L20.2477 83.5576L20.6933 83.0981C19.7417 83.0331 18.4281 83.0656 17.8339 82.6757Z" fill="white"/>
<path d="M16.1954 80.5311C16.2139 80.8189 15.6662 80.5497 16.6363 80.805C16.5992 80.7586 16.5946 80.74 16.576 80.7075C16.4924 80.675 16.381 80.6286 16.1954 80.5311Z" fill="white"/>
<path d="M16.5806 80.712C16.4045 80.4015 16.9884 80.8649 16.5806 80.712V80.712Z" fill="white"/>
<path d="M14.7007 79.9649C14.9096 79.9881 15.1045 80.0253 15.3134 80.0346C15.2716 79.8535 14.8539 79.5704 15.0674 79.5657C14.5057 79.394 14.5243 79.5797 14.7007 79.9649Z" fill="white"/>
<path d="M13.9766 80.1181L14.2928 80.1832C14.2789 80.0995 14.2184 80.0436 13.9766 80.1181Z" fill="white"/>
<path d="M14.9514 80.3176L14.2922 80.183C14.3108 80.3176 14.2179 80.5126 14.5893 80.2619C14.45 80.4058 14.6543 80.3037 14.956 80.3176H14.9514Z" fill="white"/>
<path d="M15.2345 80.5682C15.4619 80.8421 15.8193 81.116 15.1788 81.0557C15.7126 81.2738 15.9957 81.232 16.005 81.1114C16.0097 80.9953 15.759 80.7771 15.2345 80.5682Z" fill="white"/>
<path d="M17.4022 83.2651L17.8061 83.5901L18.2656 83.4972C18.0335 83.5436 17.4347 83.0608 17.4022 83.2697V83.2651Z" fill="white"/>
<path d="M11.9527 77.681C11.832 77.7646 11.8645 78.0895 11.7856 78.2566L12.2219 78.3959C12.1105 78.1824 11.8413 77.8574 11.9527 77.681Z" fill="white"/>
<path d="M11.7856 78.2566C11.5628 78.1916 11.3493 78.1081 11.1311 78.0199C11.5489 78.433 11.7206 78.3912 11.7856 78.2566Z" fill="white"/>
<path d="M13.5077 80.6935C13.9162 80.7353 14.3247 80.7632 14.7146 80.7911C14.2597 80.7261 13.7816 80.6843 13.322 80.5868L13.5077 80.6982V80.6935Z" fill="white"/>
<path d="M10.226 76.0101L10.7041 76.0472L9.91034 75.9172L10.226 76.0101Z" fill="white"/>
<path d="M9.13511 74.8357C9.5111 74.8728 9.27437 74.2647 9.57609 74.3854C9.2883 74.0698 8.87054 73.9305 8.51312 73.7681C8.80556 74.0002 9.01907 74.3018 9.13511 74.8357Z" fill="white"/>
<path d="M7.94214 73.4663C8.09996 73.5824 8.29958 73.6706 8.5131 73.768C8.35528 73.6474 8.17887 73.5406 7.94214 73.4663Z" fill="white"/>
<path d="M10.3605 77.2122C10.3838 77.1148 10.472 76.8873 10.2816 76.5717L10.1795 77.0265C10.2352 77.0822 10.2956 77.1472 10.3605 77.2122Z" fill="white"/>
<path d="M10.1756 77.046V77.032C9.98026 76.832 9.85932 76.6833 9.80817 76.6182C9.85467 76.674 9.957 76.8088 10.1756 77.046Z" fill="white"/>
<path d="M10.4079 77.2595C10.4079 77.2595 10.3795 77.2312 10.3606 77.2123C10.3512 77.2595 10.3512 77.2784 10.4079 77.2595Z" fill="white"/>
<path d="M12.2358 79.4171C11.7856 79.3846 10.9872 79.0226 11.4142 79.8071C11.8088 79.7653 11.5535 79.3429 12.2358 79.4171Z" fill="white"/>
<path d="M10.2956 77.8481C10.4441 78.0338 10.6112 78.2102 10.7644 78.3913C10.8201 78.3031 10.8294 78.1035 11.0429 78.1499C10.7969 78.0524 10.537 77.9595 10.291 77.8481H10.2956Z" fill="white"/>
<path d="M9.95673 77.6951L10.2962 77.8485L10.1288 77.6393L9.95673 77.6951Z" fill="white"/>
<path d="M8.3135 74.6454C7.98857 74.5108 7.79362 74.2415 7.56152 73.9491C7.64043 74.1394 7.73325 74.3251 7.83073 74.5061C7.93749 74.6825 8.04891 74.8496 8.1696 75.0074C8.30422 74.9795 8.58273 74.9796 8.31814 74.6454H8.3135Z" fill="white"/>
<path d="M9.14967 75.8711C9.14967 75.8711 9.10745 75.843 9.08868 75.8336C9.08868 75.8852 9.10276 75.9227 9.14967 75.8711Z" fill="white"/>
<path d="M5.76015 70.7136C5.74635 70.7412 5.73255 70.7688 5.71875 70.7964C5.74174 70.7918 5.76475 70.7872 5.78774 70.7826L5.76015 70.7136Z" fill="white"/>
<path d="M8.15104 75.1048C8.27172 75.3973 8.45742 75.4808 8.6663 75.5319C8.48527 75.388 8.32744 75.2069 8.16962 75.0027C8.10928 75.0166 8.07677 75.0352 8.15104 75.1002V75.1048Z" fill="white"/>
<path d="M7.25055 72.7096C7.25983 72.886 7.29232 73.0717 7.3341 73.2666C7.36195 73.067 7.3666 72.705 7.25055 72.7096Z" fill="white"/>
<path d="M9.10724 75.6845C9.10724 75.6845 9.13484 75.6982 9.14864 75.7074C9.14864 75.5787 9.12563 75.6155 9.10724 75.6845Z" fill="white"/>
<path d="M9.1081 75.6854C8.96394 75.6063 8.81049 75.5737 8.66632 75.5319C8.81049 75.6528 8.94999 75.7551 9.08951 75.8342C9.08951 75.7877 9.09415 75.7319 9.1081 75.6854Z" fill="white"/>
<path d="M2.95218 70.6209C3.31889 70.5466 3.95483 71.2057 3.92698 72.0505C4.50257 72.6029 5.3613 71.6049 5.71872 70.7972C5.5609 70.8437 5.43094 70.9087 4.94819 70.3377C4.90642 70.4909 4.9482 70.9086 4.95284 71.2335C4.96212 71.5538 4.90641 71.7906 4.62326 71.5817C4.03839 70.7694 4.419 70.7926 4.40508 70.2867C4.12657 70.8483 3.33284 69.3675 2.77582 69.7899L3.31426 70.5373C3.22142 70.593 2.95218 70.3516 2.95218 70.6209Z" fill="white"/>
<path d="M6.28042 72.0087L6.45682 72.2408C6.3547 71.9252 6.36861 71.6467 6.44752 71.1361C6.08082 70.7926 5.91372 70.7601 5.78839 70.7786C5.98799 71.2057 6.15508 71.6513 6.37788 72.0691L6.28042 72.0087Z" fill="white"/>
<path d="M7.10665 73.3549C6.65175 73.3781 6.13187 72.8536 5.98798 73.4477C6.47537 74.1811 6.58212 73.8051 7.01845 74.1347C6.1922 73.0207 7.40372 74.3529 7.07415 73.3874C7.26446 73.5823 7.42231 73.768 7.56156 73.9444C7.46409 73.717 7.38051 73.4895 7.33409 73.262C7.33409 73.276 7.33411 73.2899 7.32947 73.3038L7.32483 73.3085C7.3109 73.3828 7.29697 73.4152 7.28768 73.3456C7.28304 73.3456 7.26912 73.3317 7.26448 73.327C7.21342 73.3502 7.15771 73.3549 7.10665 73.3549C6.97203 72.9743 7.16236 73.2481 7.26448 73.327C7.28305 73.3224 7.30626 73.3178 7.32483 73.3085C7.02775 72.9557 6.72603 72.6122 6.45216 72.2408C6.49858 72.3801 6.56355 72.5286 6.66567 72.7097C6.77243 72.8861 6.91633 73.0903 7.102 73.3549H7.10665Z" fill="white"/>
<path d="M10.2728 80.0027C10.2588 79.9467 10.2775 79.9233 10.2961 79.9C10.1888 79.8767 10.1374 79.8813 10.2728 80.0027Z" fill="white"/>
<path d="M9.96604 79.4263C10.0867 79.4542 10.2492 79.3985 10.4906 79.6445C10.6484 79.923 10.3699 79.7931 10.2956 79.9045C10.5323 79.9555 11.0429 80.1319 10.6623 79.5795L10.5463 79.5563C10.1842 79.0736 9.97531 78.2102 10.0914 78.2427C9.97066 78.6141 9.9057 78.9018 9.97069 79.4263H9.96604Z" fill="white"/>
<path d="M8.16497 76.4834C7.86325 76.2235 7.55689 75.9636 7.27374 75.6804C7.30624 75.9079 7.32943 76.1492 7.3712 76.3767L7.5151 76.2235C7.88645 76.7991 7.99322 76.5206 8.16497 76.4834Z" fill="white"/>
<path d="M5.89049 70.5141L6.33147 70.4722L5.52844 70.1195L5.89049 70.5141Z" fill="white"/>
<path d="M5.28241 69.1733L5.64982 69.0942L5.30103 68.8105L5.28241 69.1733Z" fill="white"/>
<path d="M35.9928 15.0535L36.2672 15.3232C36.1509 15.1883 36.0672 15.1046 35.9928 15.0535Z" fill="white"/>
<path d="M34.6416 12.7279L34.4517 12.765C34.5999 12.8206 34.6926 12.8252 34.6416 12.7279Z" fill="white"/>
<path d="M9.48328 32.2654C9.98924 31.908 10.7087 31.583 10.3049 31.4809L9.86856 31.4717C9.78965 31.8337 9.65502 32.0751 9.48328 32.2608V32.2654Z" fill="white"/>
<path d="M20.2151 7.52441C20.1548 7.54298 20.0898 7.56155 20.0248 7.58476C20.0666 7.77043 20.1038 7.94217 20.1409 8.1C20.1641 7.92825 20.1873 7.7333 20.2151 7.52906V7.52441Z" fill="white"/>
<path d="M19.0593 6.26651L19.6767 5.8302C19.5096 5.90911 19.31 6.04834 19.0593 6.26651Z" fill="white"/>
<path d="M43.0298 27.981L43.5775 28.2224C43.3083 27.5911 43.234 27.9531 43.0298 27.981Z" fill="white"/>
<path d="M3.71811 53.9149C3.927 53.4925 4.03375 53.149 4.08481 52.8473C3.79237 53.3486 3.39783 53.7432 3.71811 53.9149Z" fill="white"/>
<path d="M31.7733 16.3162C31.95 16.4696 32.0663 16.5068 32.1407 16.4556C31.964 16.2975 31.8338 16.2232 31.7733 16.3162Z" fill="white"/>
<path d="M4.23332 51.5801C4.18226 51.6497 4.14979 51.724 4.10801 51.7982C4.13586 52.1278 4.15441 52.4574 4.08478 52.8473C4.30294 52.4759 4.45149 52.0489 4.23332 51.5801Z" fill="white"/>
<path d="M41.0252 79.691C40.9832 79.705 40.9412 79.7331 40.8992 79.7424C40.9272 79.7891 40.9692 79.7564 41.0252 79.691Z" fill="white"/>
<path d="M25.6786 82.9217C25.8132 82.8706 26.036 82.8336 26.2495 82.7918C26.1428 82.7825 25.971 82.8149 25.6786 82.9217Z" fill="white"/>
<path d="M4.01056 63.375C4.06152 63.4167 4.08006 63.6808 4.01056 63.375V63.375Z" fill="white"/>
<path d="M2.69653 65.1804C2.64092 65.1202 2.57143 65.0784 2.47876 65.0877C2.5807 65.097 2.65019 65.1295 2.69653 65.1804Z" fill="white"/>
<path d="M2.31708 47.867C2.31708 47.867 2.31709 47.8482 2.32651 47.8387C2.22762 47.9235 2.24645 47.9093 2.31708 47.867Z" fill="white"/>
<path d="M3.89911 63.8724C3.93166 63.7469 3.95027 63.6073 3.95957 63.4539C3.93632 63.5236 3.91771 63.6492 3.89911 63.8724Z" fill="white"/>
<path d="M4.0802 63.7788C4.0802 63.8904 4.0802 63.9741 4.0802 64.0578C4.14996 64.0857 4.18716 64.0439 4.0802 63.7788Z" fill="white"/>
<path d="M3.93164 62.9432C3.95024 63.1246 3.96419 63.2874 3.95954 63.4548C3.97815 63.3897 3.99674 63.3618 4.01069 63.3758C3.99209 63.2828 3.95954 63.1572 3.93164 62.9432Z" fill="white"/>
<path d="M48.484 52.1696C48.4747 52.1928 48.47 52.2207 48.4561 52.2486C48.6653 52.5788 48.6188 52.43 48.484 52.1696Z" fill="white"/>
<path d="M9.34863 22.4432C9.34863 22.4432 9.34863 22.471 9.34863 22.4896C9.3579 22.4757 9.37644 22.4618 9.38571 22.4479H9.34863V22.4432Z" fill="white"/>
<path d="M9.64574 21.1946C9.84999 21.9001 9.65967 22.1369 9.3858 22.4525L10.6066 22.6057L9.64574 21.1946Z" fill="white"/>
<path d="M39.1956 20.6376L39.1028 19.6907C40.1333 20.3545 40.2957 21.1482 40.37 20.1687C39.1956 20.6376 38.6432 17.1841 37.4642 17.69L37.4178 17.0541C37.4874 17.2073 37.5663 17.1933 37.6313 17.3419C37.6127 16.0561 36.4291 17.0541 35.8721 15.7126C35.705 15.2252 35.6864 14.8307 35.9881 15.0535C35.7142 14.7796 35.4265 14.5104 35.1479 14.2412C35.004 13.9487 35.2315 13.9023 35.3754 14.1947L34.4099 12.7743L34.447 12.765C34.1499 12.6583 33.5976 12.3473 33.3469 12.1848C33.2726 11.7206 33.5743 12.3009 33.6486 12.1245L32.892 11.4792C32.9616 10.9779 33.6533 11.4746 33.955 12.0595C34.5584 10.6391 33.2726 11.5582 32.8688 9.54363L33.4862 10.2167C33.7832 9.33937 33.1798 8.88912 32.9895 7.78901C32.9291 8.12322 33.1659 10.1099 32.335 9.4183C32.2561 9.12122 32.0843 8.77769 31.5691 8.45276C31.9404 8.2021 31.5459 7.80757 31.1467 7.25983L31.6666 6.96739C31.1142 6.44751 30.896 6.67033 30.4272 6.46145C30.0094 5.75589 30.2926 5.34737 30.4968 4.96674C29.8145 3.83413 30.4179 6.13185 29.4246 4.92498C29.3689 4.79501 29.3085 4.67895 29.2482 4.5629C29.2017 4.47006 29.0578 4.25655 28.9557 4.11266C28.7283 3.79237 28.4869 3.49997 28.2316 3.21681C27.7256 2.65051 27.1501 2.14915 26.5049 1.60606C26.2031 1.05368 26.2542 0.974782 26.3702 0.984066C26.4863 0.99335 26.6673 1.0862 26.5652 0.821613C26.2867 0.728777 26.0314 0.654526 25.79 0.608107C25.6415 0.403867 25.7204 0.269204 25.7668 0.20886C25.479 -0.0046645 25.4465 0.190302 25.3722 0.334198C25.3026 0.478095 25.1959 0.575587 24.8245 0.232092C24.7595 0.422407 24.6388 0.301719 24.4671 0C24.2257 0.17639 23.859 0.278524 23.4366 0.594168C23.0235 0.895887 22.5546 1.41578 22.3179 2.16776C22.0116 2.29309 22.2808 1.62001 22.1183 1.45754C21.5102 2.65513 21.2921 3.08681 21.111 3.52778C21.0229 3.74131 20.9439 3.95018 20.8604 4.21476C20.7861 4.47006 20.6654 4.82285 20.6004 5.20348L19.6721 5.84405C20.4844 5.46342 20.3405 6.57747 20.2151 7.53833C20.5494 7.43621 20.8372 7.34804 20.9996 7.27377L20.489 8.58274C20.3173 8.6663 20.2244 8.43884 20.1455 8.10927C20.1316 8.21603 20.1223 8.31351 20.1223 8.39706C19.6674 8.68021 19.5235 8.28105 19.4493 7.7983C19.6396 7.72403 19.8392 7.65902 20.0341 7.59403C19.9274 7.11128 19.7835 6.61923 19.4586 6.47998C19.4632 6.59138 19.4121 6.76777 19.3332 6.94416C19.3054 6.81419 19.2636 6.71672 19.1893 6.71672C19.1104 6.71672 19.1383 6.91632 19.1336 7.18555L18.4095 7.07415L18.5859 7.28765L17.2258 8.57345C17.068 10.0356 17.2769 11.5071 16.4414 13.3917C16.2928 12.7047 15.824 12.8811 15.3459 12.5608C16.1535 12.3984 15.9679 11.0615 16.6502 10.226C16.2974 10.6623 16.1303 10.4117 16.1257 10.2399C15.94 10.8805 15.7497 11.5117 15.578 12.1569C15.202 11.8738 15.0674 12.3194 14.6357 12.6443C15.6198 12.8022 14.4268 14.1855 14.2783 14.9978C13.9858 14.8817 13.8048 14.5614 14.3572 13.7816C13.2199 14.3293 14.6032 15.4944 13.582 16.084C13.6887 15.8797 13.7955 15.7961 13.7027 15.6383C13.6748 16.2464 12.83 17.2815 12.7465 16.8777L12.8579 16.6735C12.4262 17.3141 11.8645 18.3399 11.4792 19.2775C11.1079 20.2198 10.9083 21.0693 11.21 21.3524C11.1125 21.3199 10.458 20.735 10.3605 20.5772C10.718 21.798 11.1079 23.0142 11.4932 24.2072C10.9965 23.6919 9.12583 23.8079 9.35792 22.4943C9.10726 22.7775 8.79625 23.1349 8.68021 23.9425C8.87516 23.7569 9.83139 23.808 9.73856 24.1422C8.65237 24.6574 9.09333 24.5507 8.01178 25.3166C8.30886 25.0427 9.08403 25.8643 8.81481 26.3888C8.70805 26.2403 7.84003 25.9942 7.83074 25.7482L8.16962 27.5214C8.15105 27.113 7.38979 27.099 6.98131 27.2801C7.22268 27.2197 6.44749 28.4452 6.39179 28.849L6.86062 28.3662C6.06222 29.8423 7.55688 30.4458 6.90702 31.9405C6.77705 31.6759 5.85796 30.9889 5.42163 31.7223C5.60266 32.0008 6.03437 32.6274 6.42428 33.3701C6.81884 34.1128 7.15768 34.9669 7.10662 35.7003L6.72598 35.8535C6.70742 36.2341 6.70742 36.6194 6.69813 37.0047C6.13647 36.1042 5.22668 33.709 4.98994 32.4557C4.53969 32.9524 4.59074 32.4882 4.28902 33.3841C3.90375 33.5976 4.0616 32.7481 4.14051 32.4835L3.20285 34.4888C3.81093 34.6049 3.24925 36.2898 3.76449 36.3734C3.81091 35.5518 3.86198 34.7302 3.94553 33.9133C4.25653 33.9736 4.54896 34.4517 4.69286 35.0783C4.83676 35.7096 4.85069 36.5034 4.55361 37.2089C4.19155 37.5014 3.59277 36.5823 3.38389 36.5451C3.52314 36.8051 3.30034 38.063 3.12395 38.1605C3.08217 37.9191 3.03575 37.6731 3.00325 37.4317C2.51586 38.1884 3.37923 39.0239 2.50193 39.8408C2.35339 40.1658 1.4343 40.6532 1.77316 40.811C2.61333 40.435 4.75786 40.9456 5.17563 41.4516C5.09672 41.5537 4.04301 43.0251 3.59739 43.3315C2.90576 43.7585 2.53442 42.1571 1.9449 42.5145C2.10273 42.5795 2.2234 42.9462 2.2559 43.0901C2.02845 43.4197 1.77781 42.807 1.6664 43.6239C2.25128 43.9071 1.23471 45.2254 2.09809 44.1253C2.09345 44.9376 1.77315 44.9144 1.59212 45.8334C2.04702 45.6338 2.78972 46.9428 2.81757 47.7366C2.66903 47.6623 2.42765 47.7923 2.31624 47.8619C2.12129 48.6418 1.95419 49.2405 1.7778 49.8254C1.6107 50.4103 1.42038 50.9859 1.33682 51.7332C1.16972 51.8492 0.900491 52.5548 0.668399 52.2113C0.756594 52.4434 0.942272 52.6662 0.905137 53.1304C0.255281 53.9752 0.942272 52.0814 0.208862 52.6987C0.575567 52.8009 0.552354 53.9613 0.756595 54.6436C1.05367 54.5647 1.0908 54.1841 1.07224 53.7431C1.04903 53.2975 0.937617 52.7869 0.863348 52.4388C1.25326 52.4852 1.61532 52.8194 1.90776 53.33C2.0563 53.5853 2.17699 53.8871 2.28839 54.2213C2.40444 54.5555 2.49729 54.9268 2.56227 55.3121C2.66904 56.5422 2.01917 55.8087 2.11665 56.0269C2.0331 56.6025 2.08418 57.0156 2.19558 57.3406C2.30234 57.6655 2.45087 57.9022 2.59012 58.125C2.87792 58.566 3.07289 58.9652 2.80366 59.8889C2.32091 60.6363 1.81029 59.94 1.45287 60.1117C1.34147 59.6104 1.42966 59.2205 1.54107 58.877C1.64783 58.5335 1.7778 58.2318 1.7778 57.8883L1.52251 58.7238C1.36469 58.4035 1.25328 57.7212 1.40646 57.3591C1.17901 57.6747 1.11401 58.6634 1.09544 59.7961C1.08151 60.9333 1.16509 62.2098 1.06297 63.1382C1.25329 63.4446 1.51785 63.9644 1.67567 63.6813C1.62461 63.4956 1.57355 63.3146 1.53642 63.1243C1.70817 62.8411 1.87528 63.0918 2.0099 63.3146C2.15379 63.5374 2.26985 63.737 2.31163 63.3749C2.50658 63.7231 2.73865 64.0852 2.92432 64.489C3.12392 64.8882 3.24462 65.3291 3.2539 65.8537L2.74331 66.1693C2.89649 66.109 2.91969 65.4359 2.70617 65.1806C2.86863 65.3709 2.75258 65.798 2.72473 66.225C2.68759 66.6521 2.71546 67.0791 3.14715 67.2091C3.20285 66.9399 3.27248 66.6753 3.34675 66.4061C3.79236 67.0606 4.6186 67.729 4.73 68.6202C5.13848 68.0585 4.60469 68.4392 5.03638 67.6547C4.38188 68.4206 4.47471 65.4916 3.86663 66.5499C4.46078 65.7376 3.91769 65.3802 4.41436 64.4379C4.23797 64.4936 4.10801 64.7907 4.07552 64.0526C4.01517 64.0294 3.93625 63.9598 3.88983 63.918C3.88983 63.8948 3.88984 63.8855 3.89448 63.867C3.88984 63.8809 3.88518 63.8948 3.88054 63.9088C3.84805 63.8809 3.84343 63.8809 3.87592 63.9227C3.82022 64.1083 3.74128 64.2662 3.64845 64.3451C3.16106 64.0526 3.00788 62.8504 2.75722 62.4605C2.799 62.001 2.98932 62.6276 3.16571 62.363C3.03574 62.1727 2.89647 61.9824 2.78043 61.7828C3.19355 61.6853 3.39779 60.5574 3.70879 61.5786L3.67168 60.6455C3.89449 60.0885 3.96411 59.3505 3.81557 58.8585C3.9177 58.4082 3.38388 57.698 3.69953 58.1018C3.6299 57.5959 3.53706 57.0853 3.49064 56.5747L3.59739 56.5654C3.67631 55.818 3.56025 55.0382 3.5324 54.2259C3.54169 53.4182 3.63916 52.5873 4.11263 51.7843C4.0755 51.2691 4.03836 50.7306 4.28902 49.909L4.66966 49.8069C4.62788 49.1385 5.37987 47.9547 5.05958 47.6112C6.12256 47.1192 5.93225 44.5801 6.40108 43.5079L5.95545 43.3454C6.19683 42.5888 6.2386 41.8182 6.35464 40.8202L5.9369 40.76C5.86263 39.8409 6.85132 38.7361 7.25516 37.4503C7.37585 37.5896 7.22732 37.9005 7.06021 38.1001C8.44812 36.8793 7.53832 34.6513 8.7127 33.514C8.70806 33.1194 8.85194 32.892 9.0469 32.6924C9.03298 32.7249 9.03299 32.7574 9.03299 32.7853C9.05156 32.7528 9.07477 32.7017 9.09334 32.646C9.21867 32.5207 9.35791 32.4 9.48788 32.2561C9.33934 32.3582 9.20474 32.465 9.12119 32.5671C9.21866 32.3025 9.32543 31.8848 9.39042 31.4577L9.87316 31.467C9.88244 31.4345 9.89173 31.4066 9.90101 31.3741C10.2167 31.0585 9.83602 30.9889 9.43683 31.0585C9.45075 30.8357 9.44611 30.6221 9.40898 30.4411C10.2027 30.4179 9.61786 29.3271 10.5091 29.2157C10.2816 28.8072 11.1264 27.1733 10.5044 26.6348C10.6019 26.6673 10.6994 26.5698 10.6112 26.7833C10.8897 26.3934 11.1821 26.0082 11.1636 25.5301L11.7624 25.5951L11.521 24.3325C12.1152 23.924 12.4123 23.7847 12.5237 24.5321C12.5979 22.8981 12.8347 23.3345 12.8347 21.8955L13.1317 22.1183C13.3313 21.7099 13.2385 20.8326 13.6377 20.7304C14.1808 20.4426 14.8121 19.3471 15.5455 18.0846C16.2835 16.822 17.1376 15.3923 18.0985 14.45C16.9102 14.3154 19.1475 13.6702 18.4884 13.1411C18.7855 13.1457 19.1058 12.9182 19.064 13.3917C19.5607 12.1291 20.4751 11.9248 20.3869 10.7737C20.684 10.7876 20.5447 11.2193 20.7443 11.1868C20.7582 11.0661 20.7908 10.7087 20.9904 10.6809C21.19 10.653 21.0646 10.964 21.0414 11.2007C21.7516 10.0496 21.1807 9.4972 20.619 9.00052C21.2921 8.61989 21.4545 8.31354 21.3385 7.62191C21.6727 7.56156 22.109 7.37587 21.7005 8.12321C21.8491 7.93289 22.3365 7.3898 22.7357 6.8467C22.7821 6.78172 22.8239 6.72136 22.8656 6.66102C22.8889 6.61924 22.9121 6.58211 22.9353 6.54497C22.9771 6.46606 23.0142 6.39179 23.0374 6.31288C23.0838 6.1597 23.0838 6.0019 22.9956 5.87193C23.1442 5.91835 23.2741 5.56558 23.2927 5.42168C23.7383 4.87859 23.7801 4.91569 24.1932 4.2844C24.1514 4.2844 24.105 4.28905 24.0586 4.29369C24.1004 3.45816 24.2814 3.35605 24.4764 3.25393C24.5785 3.45353 24.6899 3.67171 24.8291 3.79704L24.8106 3.8945C25.2005 4.82751 25.2655 4.81358 25.3815 4.87857C25.4326 4.90642 25.4883 4.93429 25.5625 5.0689C25.6368 5.19887 25.7343 5.44025 25.8318 5.82088C25.906 5.67234 25.9803 5.51916 26.0499 5.36134C26.3609 4.97143 26.5234 5.44025 26.6163 5.93692C26.6441 6.06689 26.6534 6.17827 26.6859 6.31753C26.7276 6.47071 26.7741 6.62387 26.8298 6.76777C26.9412 7.06021 27.099 7.32019 27.3311 7.50122L27.3079 7.02309C27.9299 7.33874 27.2104 9.16296 27.4425 9.73391C27.4425 9.89173 27.215 9.63644 27.0618 9.51576C27.4796 11.1497 27.6607 9.35794 28.4358 10.2724C28.2919 10.6298 27.6142 10.4812 28.0042 11.1775C28.0042 11.6417 30.1255 12.5654 30.1858 13.8141C30.2647 13.4799 30.3436 13.1503 30.7893 13.5263C31.3138 14.204 31.1977 15.954 32.2421 16.2232C32.2421 16.3485 32.205 16.4181 32.1586 16.4506C32.6599 16.9055 33.4908 18.1078 34.0478 18.2424C33.5233 18.883 34.1685 19.6675 34.7998 20.3869C35.4125 21.1111 36.0067 21.7702 35.3754 22.0905C35.7142 22.6614 36.0252 23.2463 36.3502 23.8265L36.197 23.8451C36.689 25.0195 37.1764 25.2794 37.6824 25.5347C37.7241 25.8411 37.5106 25.7065 37.4317 25.7158C37.9841 27.5121 38.0816 27.656 39.3859 28.7887L39.0285 29.1229C39.4416 29.4106 39.4324 31.8615 40.5789 33.3516C40.5232 33.3516 40.4257 33.3516 40.3143 33.2402C40.9549 34.085 41.0523 35.3569 41.2612 36.4013C41.433 37.4596 41.6836 38.309 42.5981 38.4065C42.8766 38.7871 43.1273 39.1817 43.3918 39.5716C43.0019 37.8541 44.1624 39.6041 44.2181 38.8289C44.5151 39.4695 44.2598 40.6949 43.9303 39.9058L43.9721 39.7527C43.5079 39.7294 43.5961 40.2725 43.7214 40.8388C43.8467 41.4051 43.986 41.9946 43.6982 42.0503C44.659 45.3507 44.8633 48.716 45.2439 51.8539L45.8706 51.399C45.9077 51.7703 45.9309 52.1417 45.9634 52.5131C45.8381 52.8241 45.4807 52.9633 45.4157 52.1742C45.0815 52.6337 45.8891 53.4507 46.0377 53.4646C45.9448 55.0336 45.1789 52.9447 45.2207 53.4228L45.346 54.0541L45.4064 53.901C45.7499 54.3883 46.0237 54.4116 46.0655 55.3678C45.9727 55.9805 45.671 55.7066 45.6617 55.9434C45.6153 55.9434 45.5967 56.0269 45.6663 56.3054C45.6895 56.7696 45.6756 57.2292 45.6663 57.6933L46.1908 57.1178C46.4694 57.7258 46.1909 58.436 46.785 57.7676C46.3255 58.2596 46.3023 59.5779 46.2326 60.7755C46.1491 61.987 46.0563 63.1614 45.8567 63.4121C46.0934 64.3033 45.9123 65.1434 45.5642 66.1182C45.7452 65.9047 46.3719 65.914 46.0377 66.7774C44.9747 66.0904 44.9886 68.1792 43.8699 68.4763C44.2645 68.3046 44.0649 68.8894 43.8699 69.4418C43.6935 69.9988 43.4986 70.5141 44.1206 70.2634C43.6796 70.8808 43.6842 70.0917 43.1644 70.4445C42.9648 71.3264 42.3753 72.1155 41.7022 72.8768C41.0106 73.6334 40.2354 74.3529 39.5716 75.193C39.6691 75.3323 40.0961 75.2256 39.9615 75.7408C39.4973 75.8336 39.0285 75.9125 38.5782 75.9868C38.3369 76.3303 38.9357 76.9384 37.9841 77.0544C38.1558 77.0823 38.4158 77.1241 38.2394 77.3608C36.3641 78.4702 34.6977 79.8349 32.7574 80.8839C30.8496 81.9469 28.6726 82.671 26.4445 82.3786C27.0665 82.555 26.7091 82.6804 26.2728 82.7778C26.5698 82.801 26.347 83.1723 26.4445 83.3812C25.7993 83.2883 25.1726 83.2002 24.5553 83.0563C24.4299 83.3858 23.9472 83.4556 23.4784 83.488C23.2463 83.5113 23.0142 83.5298 22.8331 83.5809C22.6521 83.6226 22.5175 83.7015 22.4757 83.85C22.6707 83.8082 22.861 83.7758 23.0513 83.7201C22.6846 84.0961 22.9678 84.4581 23.367 84.8388C23.7615 85.2194 24.2721 85.6186 24.2535 86.0642C24.6806 85.6139 25.3212 85.846 26.0592 85.9714C26.4259 86.0317 26.8159 86.0874 27.1965 86.0178C27.5725 85.9436 27.9392 85.7671 28.2502 85.4097C28.6308 85.5025 28.032 85.7579 28.2641 85.9111C28.5612 85.4422 28.9929 85.2472 29.8934 85.1497L29.8237 85.2704C31.0028 84.8387 31.8615 84.5927 32.762 84.3142C33.2169 84.1796 33.6811 84.045 34.1917 83.8547C34.7116 83.6829 35.2686 83.4463 35.9278 83.1446L35.5239 82.866C36.0856 82.62 36.2527 82.6524 36.559 82.6014C36.6797 82.1326 36.3084 82.3507 35.9324 82.5643C35.5518 82.7731 35.1526 82.9588 35.2454 82.4853C35.5332 82.5875 35.9046 82.4947 36.313 82.3044C36.5173 82.2115 36.7354 82.0954 36.9536 81.9701C37.1625 81.8308 37.3806 81.687 37.5988 81.5477C38.4622 80.9721 39.2652 80.3687 39.799 80.5775C40.5278 79.9695 39.2606 80.364 39.9847 79.7652L40.3561 79.8116L40.2957 79.3846C40.7831 79.0133 41.2473 79.0504 41.4283 79.2036C41.2984 79.2871 41.1545 79.5424 41.0477 79.6678C41.2519 79.5889 41.4562 79.445 41.6512 79.2732C41.8368 79.0922 42.0132 78.8879 42.171 78.6837C42.496 78.2891 42.7234 77.9039 42.858 77.8343C42.612 78.0246 42.366 78.2149 42.106 78.3866C42.9091 77.3608 43.8746 76.2978 44.6869 75.1188C45.5039 73.949 46.2048 72.7004 46.5158 71.4703L46.2419 71.5399C46.72 69.6971 47.1378 70.2959 47.718 68.2953L47.7412 68.3834C47.6855 67.9239 47.7737 67.3762 47.9455 66.8424C48.029 67.418 48.6789 66.03 48.7439 66.7635C48.8321 65.7098 48.781 65.4405 48.7067 65.2502C48.6232 65.0645 48.4839 64.9439 48.224 64.2197L48.6185 63.983C48.4004 63.4817 48.2379 63.4213 48.2797 62.4187C48.4653 63.2774 48.8878 61.8338 49.1523 62.8132C49.4216 62.298 49.4958 61.8199 49.5144 61.3975C49.5376 60.9751 49.4634 60.5991 49.3937 60.2695C49.3287 59.94 49.2777 59.6429 49.3009 59.3737C49.3195 59.1091 49.4262 58.8677 49.6954 58.6217C49.208 58.1483 49.0873 58.6031 49.0595 59.1091C49.0456 59.6058 49.0595 60.1953 48.9713 59.9121C48.8088 60.1396 48.6371 59.9307 48.5164 59.5918C48.3957 59.253 48.2982 58.7888 48.34 58.4639C48.34 58.1343 48.6418 57.8465 48.9295 57.4287C49.0734 57.2199 49.2173 56.9738 49.3194 56.6768C49.4123 56.3797 49.4541 56.0316 49.4216 55.6092C49.4309 55.7763 49.5005 55.7856 49.5098 55.9527C49.7094 55.3028 49.092 54.7411 49.4308 53.9334C48.8181 53.5574 49.3519 52.9308 48.6093 52.8844C48.7207 53.3857 48.8506 53.887 48.9342 54.3976C48.6882 53.5389 47.7087 52.838 47.9687 51.3758C48.1265 51.464 48.3725 51.8632 48.5118 52.1417C48.6742 51.7007 48.2843 51.3572 48.4375 50.9023C49.1988 50.9209 48.8181 52.7359 49.4865 53.6085C49.7418 53.1211 48.7532 51.9003 49.598 52.2763C49.0549 51.9978 49.0409 51.5847 49.0456 51.1019C49.0363 50.6284 49.0456 50.0853 48.5721 49.584H49.0177C48.9203 49.4216 48.6557 49.0827 48.6185 48.7532L49.2777 49.2545C48.665 48.4189 49.3891 47.4117 48.9527 46.5854C49.3287 48.4143 48.5118 47.096 48.3493 47.9269C47.8387 46.8639 48.0569 46.4926 48.3168 46.0655C48.5814 45.6385 48.8646 45.165 48.4654 43.935C48.6046 44.2599 48.5071 45.2671 48.1822 44.7844C48.159 44.2877 48.1775 43.6239 48.3307 43.2758C47.8433 41.6372 47.9547 43.6379 47.5231 43.0019C47.899 42.3103 47.096 42.2499 46.7386 41.5862L47.1703 41.4655C46.9335 39.5298 46.1584 41.2195 45.9913 39.4742L46.7989 39.9987L46.3812 39.1817L46.9243 39.2142C46.2698 38.3833 46.293 38.0584 46.1212 37.0975C45.8938 37.4085 45.3089 37.2321 45.0257 36.4337C45.0907 35.8024 45.5317 36.6055 45.0861 35.4821C45.4389 35.6446 45.8659 35.8164 45.6431 36.4477C45.8009 36.4477 45.9959 36.6148 46.1491 36.6194C46.2373 35.9278 45.7127 35.0969 45.5596 34.6884C45.606 34.8509 45.6431 35.0505 45.6153 35.1712C45.2346 34.6838 44.8262 34.2103 44.4316 33.7369C44.4966 33.4212 44.6962 33.579 44.8958 33.7369C44.7287 33.4212 44.4502 33.2634 44.232 32.7899C44.6173 32.7899 44.9608 32.6228 45.3785 33.2587C45.0582 32.7806 44.7473 32.3025 44.4084 31.8383C44.5152 31.6758 44.4966 30.8821 44.7008 31.0353C44.6265 30.5618 44.2552 30.0976 43.8699 29.601C43.4754 29.1089 43.0762 28.5798 42.9648 27.9577C42.8766 27.9253 42.7605 27.8371 42.612 27.6189C42.2128 26.542 42.2128 25.4094 41.1637 24.3929L41.4144 23.4134C40.8203 22.5129 41.1266 24.7131 40.1379 23.2231C39.3906 22.1926 40.4257 22.5546 40.3932 22.0812C39.813 21.668 38.7407 21.0043 38.6664 19.7417C38.9542 20.0202 39.0099 20.3312 39.2188 20.6237L39.1956 20.6376ZM32.3489 9.44612C32.5671 9.60394 33.0823 9.87784 32.9616 10.1796C32.3721 10.2121 32.465 9.89173 32.3489 9.44612ZM18.4373 8.6245C18.4188 8.38777 18.6416 8.1882 18.9619 8.01181C18.8598 8.22997 18.6973 8.44347 18.4373 8.6245ZM3.39315 59.94C3.39315 59.94 3.37923 59.9214 3.36995 59.9167C3.53241 59.3969 3.46742 59.5779 3.39315 59.94ZM3.23535 61.0308C3.30497 61.1376 3.3653 61.1236 3.42565 61.0772C3.3096 61.0076 3.27711 60.7663 3.3096 60.4877C3.19356 60.5667 3.11002 60.7152 3.23535 61.0308ZM45.8195 56.0734L45.9216 55.8459C46.0841 56.3333 45.9588 56.1987 45.8195 56.0734Z" fill="white"/>
<path d="M19.1893 6.41955C19.2913 6.40565 19.37 6.43345 19.4488 6.47052C19.4442 6.34541 19.3747 6.29444 19.1893 6.41955Z" fill="white"/>
<path d="M42.9276 27.9346C42.9276 27.9346 42.9368 27.9575 42.9368 27.9712C42.9688 27.9804 43.0009 27.9804 43.0238 27.9758L42.923 27.9346H42.9276Z" fill="white"/>
<path d="M1.5968 42.9144C1.72237 42.6959 1.83863 42.5843 1.9456 42.5192C1.84328 42.4773 1.72237 42.561 1.5968 42.9144Z" fill="white"/>
<path d="M4.82752 66.5036C4.73004 66.2993 4.64648 66.0858 4.55829 65.877C4.65577 66.188 4.58614 66.3272 4.55829 66.5036C4.65577 66.4618 4.76718 66.2993 4.83217 66.5036H4.82752Z" fill="white"/>
<path d="M4.49336 73.1975C4.59567 73.2673 4.60964 73.3975 4.7073 73.4626L4.87471 73.337C4.64218 72.9417 4.33992 72.7371 4.48873 73.1975H4.49336Z" fill="white"/>
<path d="M3.5649 67.5107C3.21676 67.6686 3.45814 68.0678 3.68559 68.518C3.67631 68.4902 3.66238 68.4624 3.65774 68.4345C4.21012 68.4067 3.862 67.9749 3.56028 67.5107H3.5649Z" fill="white"/>
<path d="M3.73663 68.6295C3.80174 68.769 3.85756 68.9179 3.89011 69.0667C4.10869 69.0527 3.87615 68.876 3.73663 68.6295Z" fill="white"/>
<path d="M3.58816 62.3816C3.51389 62.6183 4.08017 62.4744 3.94091 62.6183C4.44687 62.8272 3.20753 61.1654 3.58816 62.3816Z" fill="white"/>
<path d="M2.48807 68.2591L2.88338 67.9475L2.44623 67.7754L2.48807 68.2591Z" fill="white"/>
<path d="M1.92633 64.2058C1.91705 64.4843 1.92634 64.7628 1.93562 65.0367C2.00989 65.0089 2.07487 65.1063 2.13057 65.2224C2.04238 64.7257 2.0563 64.1641 1.92633 64.2012V64.2058Z" fill="white"/>
<path d="M2.13062 65.2271C2.17239 65.487 2.22345 65.733 2.33021 65.8583C2.29308 65.7191 2.22345 65.422 2.13062 65.2271Z" fill="white"/>
<path d="M2.04706 67.1998C2.05634 67.1116 2.07027 67.0234 2.07955 66.9352L1.97742 66.355L2.04241 67.1998H2.04706Z" fill="white"/>
<path d="M1.8196 55.3817L1.74996 54.4719C1.59678 54.3651 1.48074 54.6019 1.52251 54.9454C1.61999 55.1682 1.65713 55.5071 1.8196 55.3817Z" fill="white"/>
<path d="M0.413119 58.0646C0.51524 57.8186 0.622015 57.8047 0.775196 57.6701L0.199585 57.6237L0.413119 58.0646Z" fill="white"/>
<path d="M0.408484 55.377C0.255303 55.2749 0.0464183 54.003 0 55.1774C0.15318 55.2842 0.218168 56.2126 0.408484 55.377Z" fill="white"/>
<path d="M3.49533 41.9482L3.44427 42.171L4.36335 42.3846L3.49533 41.9482Z" fill="white"/>
<path d="M5.33808 29.6706C4.71143 30.6036 5.77907 30.1348 5.14778 30.9471C5.25918 31.2674 5.66301 30.2833 5.74192 30.599C5.76513 29.8934 6.03435 29.6288 5.33808 29.6706Z" fill="white"/>
<path d="M5.74194 30.599C5.73728 30.7106 5.74194 30.8315 5.75125 30.9664C5.7652 30.7664 5.76054 30.6641 5.74194 30.599Z" fill="white"/>
<path d="M23.2973 82.7035C23.0838 82.6524 22.8703 82.6106 22.6567 82.5503C22.796 82.6571 22.9353 82.7453 23.0792 82.8427L23.2927 82.7035H23.2973Z" fill="white"/>
<path d="M22.1044 83.4601L21.9419 82.8613L21.5613 83.4183C21.7098 83.3858 21.9883 83.3302 22.1044 83.4601Z" fill="white"/>
<path d="M32.2886 7.1438L32.14 7.18091C32.0704 7.3573 32.154 7.50123 32.3164 7.79367L32.2886 7.14845V7.1438Z" fill="white"/>
<path d="M36.9443 15.5269L36.87 15.3784L36.5497 15.9169L36.9443 15.5269Z" fill="white"/>
<path d="M41.3494 22.3086C41.2194 22.0023 40.9363 21.7098 40.811 21.4034C41.2241 22.0022 40.7831 22.6846 41.3494 22.3086Z" fill="white"/>
</svg>
