<svg width="252" height="89" viewBox="0 0 252 89" fill="none" xmlns="http://www.w3.org/2000/svg">
<rect x="3.89031e-06" y="1.10153e-05" width="252" height="89" rx="44.5" fill="#FF6121" fill-opacity="0.1"/>
<rect x="8" y="8.00001" width="236" height="73" rx="36.5" fill="#FF6121" fill-opacity="0.2"/>
<g clip-path="url(#clip0_70_2578)">
<rect x="236" y="15" width="60" height="220" rx="30" transform="rotate(90 236 15)" fill="#FF6121"/>
<path d="M56.7564 50V41.48H53.3964V39.5H62.5464V41.48H59.1864V50H56.7564ZM61.9465 50L66.6265 39.5H69.0265L73.7215 50H71.1715L67.3315 40.73H68.2915L64.4365 50H61.9465ZM64.2865 47.75L64.9315 45.905H70.3315L70.9915 47.75H64.2865ZM76.9859 47.6L76.8509 44.795L81.8759 39.5H84.5759L80.0459 44.375L78.6959 45.815L76.9859 47.6ZM74.8109 50V39.5H77.2259V50H74.8109ZM81.9959 50L78.2609 45.425L79.8509 43.7L84.8309 50H81.9959ZM88.1494 43.73H93.2044V45.62H88.1494V43.73ZM88.3294 48.05H94.0444V50H85.9144V39.5H93.8494V41.45H88.3294V48.05ZM102.401 50V41.48H99.041V39.5H108.191V41.48H104.831V50H102.401ZM116.698 39.5H119.128V50H116.698V39.5ZM111.928 50H109.498V39.5H111.928V50ZM116.878 45.695H111.748V43.64H116.878V45.695ZM123.848 43.73H128.903V45.62H123.848V43.73ZM124.028 48.05H129.743V50H121.613V39.5H129.548V41.45H124.028V48.05ZM135.924 50V39.5H140.469C141.409 39.5 142.219 39.655 142.899 39.965C143.579 40.265 144.104 40.7 144.474 41.27C144.844 41.84 145.029 42.52 145.029 43.31C145.029 44.09 144.844 44.765 144.474 45.335C144.104 45.905 143.579 46.345 142.899 46.655C142.219 46.955 141.409 47.105 140.469 47.105H137.274L138.354 46.01V50H135.924ZM138.354 46.28L137.274 45.125H140.334C141.084 45.125 141.644 44.965 142.014 44.645C142.384 44.325 142.569 43.88 142.569 43.31C142.569 42.73 142.384 42.28 142.014 41.96C141.644 41.64 141.084 41.48 140.334 41.48H137.274L138.354 40.325V46.28ZM146.764 50V39.5H149.194V48.02H154.459V50H146.764ZM158.052 43.73H163.107V45.62H158.052V43.73ZM158.232 48.05H163.947V50H155.817V39.5H163.752V41.45H158.232V48.05ZM165.88 50V39.5H170.65C171.79 39.5 172.795 39.72 173.665 40.16C174.535 40.59 175.215 41.195 175.705 41.975C176.195 42.755 176.44 43.68 176.44 44.75C176.44 45.81 176.195 46.735 175.705 47.525C175.215 48.305 174.535 48.915 173.665 49.355C172.795 49.785 171.79 50 170.65 50H165.88ZM168.31 48.005H170.53C171.23 48.005 171.835 47.875 172.345 47.615C172.865 47.345 173.265 46.965 173.545 46.475C173.835 45.985 173.98 45.41 173.98 44.75C173.98 44.08 173.835 43.505 173.545 43.025C173.265 42.535 172.865 42.16 172.345 41.9C171.835 41.63 171.23 41.495 170.53 41.495H168.31V48.005ZM183.343 50.18C182.513 50.18 181.748 50.05 181.048 49.79C180.358 49.52 179.753 49.14 179.233 48.65C178.723 48.16 178.323 47.585 178.033 46.925C177.753 46.265 177.613 45.54 177.613 44.75C177.613 43.96 177.753 43.235 178.033 42.575C178.323 41.915 178.728 41.34 179.248 40.85C179.768 40.36 180.378 39.985 181.078 39.725C181.778 39.455 182.548 39.32 183.388 39.32C184.318 39.32 185.153 39.475 185.893 39.785C186.643 40.095 187.273 40.545 187.783 41.135L186.223 42.575C185.843 42.175 185.428 41.88 184.978 41.69C184.528 41.49 184.038 41.39 183.508 41.39C182.998 41.39 182.533 41.47 182.113 41.63C181.693 41.79 181.328 42.02 181.018 42.32C180.718 42.62 180.483 42.975 180.313 43.385C180.153 43.795 180.073 44.25 180.073 44.75C180.073 45.24 180.153 45.69 180.313 46.1C180.483 46.51 180.718 46.87 181.018 47.18C181.328 47.48 181.688 47.71 182.098 47.87C182.518 48.03 182.978 48.11 183.478 48.11C183.958 48.11 184.423 48.035 184.873 47.885C185.333 47.725 185.778 47.46 186.208 47.09L187.588 48.845C187.018 49.275 186.353 49.605 185.593 49.835C184.843 50.065 184.093 50.18 183.343 50.18ZM185.368 48.53V44.585H187.588V48.845L185.368 48.53ZM192.08 43.73H197.135V45.62H192.08V43.73ZM192.26 48.05H197.975V50H189.845V39.5H197.78V41.45H192.26V48.05Z" fill="white"/>
</g>
<defs>
<clipPath id="clip0_70_2578">
<rect x="236" y="15" width="60" height="220" rx="30" transform="rotate(90 236 15)" fill="white"/>
</clipPath>
</defs>
</svg>
