<svg width="458" height="51" viewBox="0 0 458 51" fill="none" xmlns="http://www.w3.org/2000/svg">
<path d="M457.443 24.0925C457.615 24.5196 457.68 24.8399 457.726 25.0488C457.773 25.2577 457.791 25.3643 457.824 25.42C457.88 25.5268 457.931 25.4201 457.959 25.5732C457.921 24.7006 457.694 24.2179 457.564 23.9765C457.434 23.7212 457.36 23.6794 457.346 23.7026C457.318 23.749 457.439 24.1389 457.448 24.0925H457.443Z" fill="white"/>
<path d="M436.295 14.911L436.704 14.9249C435.599 14.7346 434.499 14.5536 433.394 14.3818L436.295 14.911Z" fill="white"/>
<path d="M415.444 11.0629C417.375 11.6802 423.038 12.1908 426.733 13.0031L427.332 13.1935L429.058 13.2492C424.537 12.4043 418.628 11.6245 415.444 11.0629Z" fill="white"/>
<path d="M404.345 8.80237C405.023 9.02053 401.904 8.59805 406.954 9.18292C406.703 9.13186 406.629 9.11795 406.485 9.08546C406.03 9.02511 405.408 8.94162 404.345 8.80237Z" fill="white"/>
<path d="M406.485 9.08542C405.051 8.78835 408.699 9.36857 406.485 9.08542V9.08542Z" fill="white"/>
<path d="M396.241 7.90639L399.174 8.13384C398.576 7.9853 395.976 7.66507 396.946 7.72541C393.943 7.4469 394.551 7.59075 396.241 7.91104V7.90639Z" fill="white"/>
<path d="M393.442 7.83679L394.96 7.95748C394.7 7.89714 394.301 7.84143 393.442 7.83679Z" fill="white"/>
<path d="M398.186 8.22214L394.964 7.95752C395.382 8.05964 395.414 8.17106 396.44 8.0875C396.166 8.15713 396.812 8.13394 398.186 8.22214Z" fill="white"/>
<path d="M399.996 8.48669C401.625 8.75592 403.733 9.06238 400.79 8.81636C406.374 9.46622 405.585 9.12727 399.996 8.48669Z" fill="white"/>
<path d="M414.325 11.2393L416.488 11.6617L418.387 11.8473C417.44 11.7498 414.205 11.114 414.325 11.2393Z" fill="white"/>
<path d="M378.04 5.86865C377.85 5.91971 379.006 6.1472 379.219 6.25861L381.387 6.3793C380.282 6.22612 378.179 5.9847 378.04 5.86865Z" fill="white"/>
<path d="M379.214 6.25872L375.97 6.08228C378.857 6.35614 379.391 6.35156 379.214 6.25872Z" fill="white"/>
<path d="M392.885 8.14313L398.213 8.49127L391.859 8.03638L392.885 8.14313Z" fill="white"/>
<path d="M365.679 4.80571L367.531 4.79177L364.24 4.77783L365.679 4.80571Z" fill="white"/>
<path d="M357.472 4.21158C358.842 4.17444 355.625 3.84952 357.068 3.86808C354.836 3.73347 352.923 3.71497 351.206 3.70569C353.03 3.77067 354.97 3.91914 357.472 4.21158Z" fill="white"/>
<path d="M348.318 3.66849C349.228 3.69634 350.175 3.70102 351.206 3.70566C350.236 3.67317 349.279 3.65457 348.318 3.66849Z" fill="white"/>
<path d="M370.465 5.57152C370.219 5.50653 369.745 5.3534 367.935 5.15845L369.193 5.46012C369.583 5.49261 370.019 5.52974 370.465 5.57152Z" fill="white"/>
<path d="M369.234 5.47406L369.188 5.46477C367.809 5.34872 366.849 5.26516 366.44 5.22803C366.793 5.26052 367.633 5.3348 369.234 5.47406Z" fill="white"/>
<path d="M370.786 5.59946C370.669 5.59016 370.581 5.58083 370.465 5.57153C370.586 5.59944 370.66 5.61342 370.786 5.59946Z" fill="white"/>
<path d="M384.437 7.08474C382.529 7.00583 378.56 6.75061 382.371 7.28442C383.745 7.28442 381.563 6.97333 384.437 7.08474Z" fill="white"/>
<path d="M372.345 5.9801L375.775 6.32359C375.71 6.26789 375.097 6.13324 376.044 6.16573L372.345 5.9801Z" fill="white"/>
<path d="M370.655 5.9012L372.345 5.98007L371.073 5.85474L370.655 5.9012Z" fill="white"/>
<path d="M354.2 4.24869C352.71 4.23012 351.08 4.128 349.242 4.02124C351.206 4.19299 353.239 4.35081 355.174 4.48542C355.453 4.44365 356.307 4.39258 354.2 4.24869Z" fill="white"/>
<path d="M361.507 4.83831C361.404 4.83831 361.269 4.82899 361.176 4.82434C361.376 4.85689 361.539 4.87551 361.507 4.83831Z" fill="white"/>
<path d="M331.158 2.94435C331.26 2.96295 331.344 2.97696 331.446 2.99556C331.469 2.98626 331.488 2.97692 331.516 2.96297L331.158 2.9397V2.94435Z" fill="white"/>
<path d="M355.504 4.54576C356.98 4.68966 357.867 4.70363 358.716 4.70363C357.611 4.634 356.437 4.55974 355.179 4.48547C355.054 4.50404 355.031 4.52255 355.509 4.54576H355.504Z" fill="white"/>
<path d="M343.268 3.44103C344.039 3.51994 344.907 3.61282 345.826 3.7103C345.079 3.59889 343.547 3.4039 343.268 3.44103Z" fill="white"/>
<path d="M360.68 4.73154C360.754 4.73154 360.819 4.7362 360.903 4.74085C360.42 4.66179 360.48 4.68503 360.68 4.73154Z" fill="white"/>
<path d="M360.68 4.7314C359.918 4.70355 359.315 4.70817 358.712 4.70817C359.612 4.75923 360.448 4.80101 361.176 4.82422C360.995 4.79637 360.814 4.75926 360.684 4.7314H360.68Z" fill="white"/>
<path d="M325.615 3.93314C325.884 3.76139 329.784 3.78461 333.13 4.16988C336.44 4.2163 334.314 3.48752 331.45 2.99548C331.343 3.06975 331.339 3.13934 327.931 3.07436C329.12 3.23218 335.465 3.71024 332.587 3.71952C328.08 3.57098 328.902 3.45958 326.715 3.25069C328.567 3.57098 320.969 3.30184 321.934 3.68711L325.889 3.76134C325.959 3.81704 324.524 3.83102 325.62 3.93314H325.615Z" fill="white"/>
<path d="M337.93 3.37607L339.332 3.43648C337.74 3.31115 336.598 3.17183 334.504 2.91189C332.17 2.87475 331.682 2.91659 331.52 2.96765L338.413 3.37607H337.935H337.93Z" fill="white"/>
<path d="M345.612 3.81706C344.507 3.94703 341.142 3.82635 343.185 4.16985C347.288 4.41122 346.072 4.18374 348.527 4.25337C341.899 3.87738 350.44 4.26259 345.659 3.84483C346.963 3.89125 348.133 3.96093 349.242 4.02128C348.049 3.91451 346.903 3.80779 345.821 3.71031C345.881 3.71959 345.923 3.72415 345.974 3.73343H346.007H346.002C346.285 3.77521 346.378 3.79844 346.058 3.76131C346.035 3.76131 345.956 3.7613 345.919 3.75666C345.872 3.77987 345.747 3.79849 345.617 3.81242C343.7 3.64995 345.32 3.74274 345.919 3.75666C345.942 3.74738 345.993 3.74271 346.002 3.73343C345.997 3.73343 345.988 3.73343 345.979 3.73343L339.332 3.4364C340.734 3.54781 342.493 3.64532 345.617 3.81706H345.612Z" fill="white"/>
<path d="M378.801 7.37723C378.597 7.3401 378.606 7.32611 378.593 7.31218C378.161 7.29826 377.998 7.29832 378.801 7.37723Z" fill="white"/>
<path d="M376.091 7.01063C376.573 7.0292 376.982 6.9828 378.546 7.14527C379.897 7.33094 378.532 7.23804 378.597 7.31231C379.544 7.3448 381.911 7.47944 378.964 7.10345L378.495 7.08486C375.835 6.76922 372.433 6.22621 372.902 6.24013C373.663 6.48615 374.341 6.67642 376.1 7.00599L376.091 7.01063Z" fill="white"/>
<path d="M360.67 5.3488L355.142 5.04248L357.941 5.4185L357.806 5.30245C360.944 5.57632 360.276 5.39521 360.67 5.34415V5.3488Z" fill="white"/>
<path d="M330.531 2.81439L331.278 2.6427L328.066 2.77269L330.531 2.81439Z" fill="white"/>
<path d="M323.341 2.47552L323.619 2.30383L321.716 2.32231L323.341 2.47552Z" fill="white"/>
<path d="M75.7501 42.3535L77.3701 42.4556C76.6042 42.3999 76.1075 42.3674 75.7501 42.3535Z" fill="white"/>
<path d="M64.0573 41.142L63.7602 41.2023C64.3079 41.2115 64.5307 41.2023 64.0573 41.142Z" fill="white"/>
<path d="M146.668 1.92317C144.291 1.8489 141.636 1.69569 141.929 1.89065L142.667 2.06245C144.319 1.95569 145.591 1.92317 146.668 1.92317Z" fill="white"/>
<path d="M26.3981 14.4561C26.6209 14.4329 26.8576 14.405 27.0897 14.3818C27.6421 14.2054 28.162 14.0337 28.6215 13.8851C27.9531 14.0569 27.1918 14.2518 26.3981 14.4561Z" fill="white"/>
<path d="M24.9313 15.6119C23.9054 15.779 22.8842 15.96 21.8677 16.1457C22.5593 16.0343 23.5434 15.858 24.9313 15.6119Z" fill="white"/>
<path d="M139.849 46.4616L141.752 46.3409C138.791 46.2109 140.09 46.3734 139.849 46.4616Z" fill="white"/>
<path d="M249.675 0.479535C247.632 0.382056 246.003 0.335706 244.573 0.317139C247.038 0.451752 249.02 0.641999 249.675 0.479535Z" fill="white"/>
<path d="M70.9318 44.0292C71.9252 44.0942 72.3522 44.0942 72.329 44.0478C71.3032 43.9828 70.7229 43.9596 70.9318 44.0292Z" fill="white"/>
<path d="M238.664 0.279855C239.026 0.298422 239.379 0.312398 239.746 0.330965C241.241 0.307756 242.745 0.284528 244.574 0.312379C242.754 0.210259 240.67 0.145242 238.669 0.279855H238.664Z" fill="white"/>
<path d="M372.702 43.0915C372.869 43.0869 373.073 43.0775 373.231 43.0683C373.278 43.0358 373.046 43.0544 372.702 43.0915Z" fill="white"/>
<path d="M440.208 35.479C439.558 35.66 438.495 35.9293 437.488 36.1753C437.98 36.0732 438.806 35.8736 440.208 35.479Z" fill="white"/>
<path d="M294.413 1.23148C294.654 1.21755 295.94 1.26861 294.413 1.23148V1.23148Z" fill="white"/>
<path d="M301.803 2.28064C301.478 2.28992 301.232 2.31309 301.19 2.35487C301.315 2.31309 301.529 2.28528 301.803 2.28064Z" fill="white"/>
<path d="M223.467 1.51465C223.421 1.51465 223.388 1.51465 223.337 1.51465C223.793 1.55185 223.714 1.5472 223.467 1.51465Z" fill="white"/>
<path d="M296.706 1.39852C296.135 1.35675 295.476 1.31497 294.756 1.27783C295.072 1.30568 295.662 1.34282 296.706 1.39852Z" fill="white"/>
<path d="M296.4 1.29187C296.924 1.31508 297.337 1.33835 297.732 1.35692C297.927 1.32907 297.755 1.30115 296.4 1.29187Z" fill="white"/>
<path d="M292.287 1.18042C293.16 1.20363 293.972 1.24075 294.756 1.27788C294.459 1.25467 294.334 1.24082 294.413 1.23618C293.967 1.22225 293.336 1.20827 292.287 1.18042Z" fill="white"/>
<path d="M247.999 48.9727C248.101 48.9773 248.217 48.982 248.324 48.9866C249.86 48.8891 249.187 48.9077 247.999 48.9727Z" fill="white"/>
<path d="M107.138 6.1101C107.208 6.10084 107.245 6.09618 107.309 6.08691C107.24 6.08691 107.147 6.09156 107.082 6.09619L107.133 6.1101H107.138Z" fill="white"/>
<path d="M101.689 6.63455C103.996 6.22142 105.323 6.16112 107.087 6.09613L105.24 5.6366L101.689 6.63455Z" fill="white"/>
<path d="M103.819 44.5862L99.999 44.136C104.645 44.1731 107.988 44.4934 104.404 43.9967C104.112 44.2938 100.384 44.0524 96.6615 43.7878C92.9388 43.5233 89.216 43.2354 88.9236 43.5279L86.4077 43.1844C87.1318 43.2494 87.2479 43.2262 87.9627 43.2911C83.0795 42.5717 84.2771 43.4444 77.9596 42.7806C75.7593 42.5253 74.2322 42.2885 75.7408 42.3581L70.8204 42.0286C69.3954 41.8708 69.7528 41.7965 71.1732 41.9543L63.6906 41.2163L63.7463 41.2023C62.6694 41.1837 60.237 41.0631 59.0487 40.9842C57.1642 40.6732 60.0096 41.0306 59.5315 40.896L55.3817 40.5525C53.7199 40.1812 57.1595 40.455 60.0142 40.8078C56.2311 39.717 56.5607 40.5896 48.2983 39.1228L52.202 39.5592C49.7372 38.8769 46.6829 38.6075 42.3335 37.7349C43.3501 38.0227 51.0462 39.5406 46.5576 39.0718C45.3043 38.849 43.6471 38.589 41.2241 38.3523C41.2334 38.1248 38.8753 37.8324 35.9417 37.3543L36.1924 37.0944C33.0127 36.6441 33.2402 36.8298 31.3556 36.6302C27.8417 35.9525 27.164 35.5672 26.3749 35.2097C20.7861 33.9982 30.1673 36.3841 23.5294 35.0472C21.2178 34.4902 19.2543 34.0168 17.1748 33.5155C15.0999 33.0096 12.9136 32.4711 10.2213 31.6263C7.17163 30.3869 10.8201 31.6588 9.7432 31.1714C8.80555 30.9114 7.87718 30.6282 6.96738 30.3079C6.32681 30.0109 6.56819 30.0388 6.68424 30.0527C5.5702 29.5793 5.50521 29.6071 5.27311 29.57C5.15707 29.5468 5.00388 29.5143 4.67431 29.3565C4.34474 29.2033 3.8295 28.9433 3.06824 28.4095C2.83151 28.3213 2.32091 27.9639 1.81959 27.3419C1.32291 26.7245 0.932997 25.8054 1.32291 24.9328C1.68497 24.0415 2.67834 23.2059 3.74132 22.5189C4.81358 21.8227 5.97867 21.2239 7.02773 20.6576C8.13248 20.263 6.58211 21.0521 6.9581 21.015C8.41099 20.3001 9.50646 19.8638 10.3606 19.525C11.2193 19.1861 11.8506 18.9587 12.4447 18.7405C13.6423 18.3135 14.6914 17.9142 17.2862 17.0601C18.8041 16.7306 20.3266 16.4335 21.8491 16.155C18.4698 16.7167 22.6521 15.4309 26.3795 14.4654C25.1634 14.6 24.1282 14.7254 23.4366 14.8275C25.4233 14.3448 27.4193 13.8899 29.4199 13.4582C30.158 13.37 29.5685 13.5788 28.603 13.8945C29.0068 13.7924 29.3921 13.6902 29.6938 13.6159C31.8708 13.3235 30.78 13.6996 29.2714 14.1498C28.5287 14.2334 27.7906 14.3122 27.0712 14.3911C25.6229 14.8646 24.2814 15.352 24.6249 15.4587C25.0055 15.3427 25.7482 15.157 26.5698 14.976C26.1939 15.1013 25.9525 15.1942 26.1382 15.1896C26.347 15.1803 26.9598 14.9853 27.9253 14.7207L29.3503 14.781L29.6567 14.5908C32.2886 14.1684 34.9251 13.7784 37.571 13.421C43.169 12.1909 48.0337 10.9748 57.0574 9.74007C54.8432 10.2507 56.6211 10.1903 56.5375 10.492C54.0356 10.4873 49.5608 11.4853 44.8912 12.098C47.3281 11.7824 46.8129 12.0006 46.2002 12.1306C48.962 11.6478 51.7239 11.1929 54.4951 10.752C54.3373 11.0073 56.2868 10.7056 58.4778 10.5431C56.7742 10.2692 64.6654 9.50332 68.0585 9.02057C68.286 9.15518 67.4876 9.39189 63.3332 9.80965C67.9471 9.65647 69.1911 8.62593 73.7262 8.47739C72.7096 8.57951 72.1619 8.61203 71.7674 8.73272C74.1208 8.35209 79.9323 7.92043 78.5816 8.18501L77.5696 8.28247C80.9396 7.98075 86.0735 7.52587 90.4832 7.13595C94.8976 6.72283 98.5925 6.34686 99.0799 6.11013C99.1495 6.15655 98.2304 6.64853 97.8266 6.75994C101.809 6.02189 105.797 5.30245 109.789 4.60153C108.749 5.01001 112.875 5.54846 107.287 6.10548C108.897 6.04514 110.889 5.97087 114.273 5.64594C113.173 5.66451 111.506 5.32568 113.005 5.20035C117.146 5.32568 115.879 5.22349 120.971 5.25134C119.323 5.27455 121.119 4.63405 123.723 4.50872C123.32 4.61084 123.969 5.01924 123.022 5.12601L129.47 4.26269C127.859 4.43908 129.205 4.71754 130.663 4.79181C129.985 4.72218 136.261 4.52265 137.983 4.39732H135.23C142.546 4.14666 142.421 3.33894 149.68 3.07435C148.808 3.21825 147.536 3.82166 151.231 3.74275C152.911 3.40854 158.676 2.17381 165.096 1.77462L166.335 1.89066L171.26 1.57505C168.197 2.0578 159.609 3.1672 154.921 3.66852C157.664 3.69173 155.692 3.81706 159.79 3.66852C161.243 3.76136 157.562 3.96095 156.355 4.01201L165.904 3.79386C165.467 3.49214 173.196 3.26926 172.825 3.02324L162.464 3.64993C162.032 3.35286 168.434 2.56836 175.201 2.45695C176.928 2.53586 173.929 3.04646 174.073 3.14393C174.951 3.01396 180.488 2.78192 181.115 2.84691L178.246 3.079C182.016 3.10685 184.383 2.52662 188.918 2.73551C190.482 2.72622 193.592 3.05581 193.857 2.86549C191.304 2.55449 190.784 1.45894 192.478 1.16186C193.026 1.17115 200.694 1.37541 202.481 1.53323C205.058 1.77925 198.624 2.24807 200.82 2.4616C200.912 2.3734 202.333 2.2527 202.927 2.21092C204.57 2.26662 202.249 2.48022 205.814 2.40596C206.408 2.08103 213.069 2.36413 207.499 2.12275C210.985 2.00207 211.208 2.15524 215.302 2.11346C213.998 1.9185 218.978 1.39397 222.474 1.29649C222.269 1.3754 223.054 1.48217 223.435 1.52859C230.588 1.54251 234.426 1.69578 241.097 1.73291C241.709 1.81182 244.926 1.92784 243.557 2.05317C244.518 2.00675 245.4 1.89997 247.456 1.91389C251.434 2.22025 242.87 1.9139 245.901 2.27132C246.161 2.09029 251.225 2.06239 254.154 1.98348C253.258 1.6864 247.386 1.85359 244.448 1.95106C244.439 1.56115 249.55 1.18047 256.526 1.09228C262.069 1.06907 258.926 1.38008 259.887 1.33366C270.294 1.56576 268.767 0.795253 277.405 1.25944C280.831 1.58901 277.549 1.76075 278.306 1.95571C273.789 1.94643 271.38 1.6447 268.321 1.59828L272.086 1.78856C270.647 1.83962 267.634 1.84886 265.996 1.74674C268.864 2.00668 283.574 2.1367 291.595 2.60552C293.025 2.56375 295.49 2.55915 294.325 2.41989L291.786 2.37808C289.455 2.10421 296.576 2.24813 293.364 2.05317C296.776 2.02068 300.605 1.92314 305.395 2.22021L306.287 2.54059C306.189 2.45239 303.158 2.25277 301.807 2.28991C303.813 2.23421 309.146 2.94897 311.351 2.67046L307.995 2.33626C311.421 2.32698 315.663 2.20168 319.91 2.48948C317.989 2.12277 318.931 2.47554 315.923 2.01135C318.522 2.52196 305.047 1.53791 309.239 2.14599C306.152 1.64003 303.882 1.77461 299.839 1.30579C299.96 1.40326 301.269 1.5333 297.699 1.36619C297.537 1.3894 297.156 1.40791 296.915 1.42183C296.808 1.41719 296.766 1.41253 296.673 1.40789C296.743 1.41253 296.799 1.41719 296.868 1.42648C296.715 1.43576 296.701 1.43577 296.943 1.43112C297.792 1.50075 298.479 1.57499 298.758 1.63534C296.98 1.78852 291.303 1.60287 289.381 1.65857C287.264 1.55181 290.272 1.57504 289.116 1.44506L286.243 1.52859C285.965 1.31042 280.622 1.032 285.617 1.04128L281.123 0.915945C278.482 0.734913 274.843 0.604906 272.596 0.646682C270.48 0.558488 267.24 0.772012 269.087 0.646682L262.036 0.655975L261.971 0.604865C255.018 0.470252 247.656 0.762774 239.709 0.345009C237.369 0.386785 234.946 0.442406 231.033 0.37742L230.272 0.196438C227.269 0.25214 221.244 0.0247132 219.953 0.21967C216.709 -0.26308 205.364 0.20108 200.077 0.196438L199.882 0.433176C196.243 0.470311 192.757 0.590985 188.24 0.767375L188.523 0.971588C184.634 1.21296 178.511 1.02266 172.356 1.21297C172.774 1.12478 174.333 1.10159 175.443 1.12016C168.071 0.832365 159.934 1.89998 153.255 1.80714C151.598 1.9464 150.391 1.965 149.226 1.96036C149.379 1.95572 149.518 1.9464 149.639 1.93248C149.467 1.93712 149.216 1.94643 148.956 1.95571C148.223 1.95107 147.462 1.94177 146.645 1.93713C147.341 1.96033 148.009 1.97429 148.59 1.96965C147.309 2.02535 145.364 2.12742 143.46 2.26203L142.639 2.07176C142.486 2.08104 142.36 2.08559 142.198 2.09488C140.323 2.09488 140.699 2.26669 141.706 2.39202C140.75 2.47093 139.872 2.55449 139.195 2.63805C137.658 2.34561 134.205 2.99078 132.111 2.70763C130.835 2.95365 122.544 3.34361 121.551 3.80315C121.481 3.75673 120.92 3.76139 121.95 3.70104C119.824 3.77531 117.703 3.85414 115.804 4.07695L114.885 3.8495L110.276 4.52266C107.454 4.53194 106.279 4.50867 109.06 4.10947C102.334 4.89394 103.592 4.59682 97.8823 5.34416L98.1469 5.13994C96.0952 5.29777 92.8413 5.79447 91.5926 5.7434C89.2856 5.75269 83.618 6.19368 77.0544 6.80176C70.4955 7.43769 63.0407 8.16178 57.1595 8.73736C59.499 8.99266 51.6775 9.15976 51.269 9.65179C50.5681 9.61001 48.9295 9.75864 50.8095 9.39658C44.8494 10.311 41.7997 10.4409 37.7381 11.4389C37.0372 11.4204 38.9821 11.049 38.3647 11.0722C37.8913 11.1743 36.4894 11.4853 35.8582 11.5132C35.2408 11.5364 36.7122 11.2625 37.6499 11.0536C31.5598 12.0748 31.026 12.618 30.65 13.0496C27.5493 13.4488 26.0221 13.7785 23.8637 14.484C22.7775 14.6001 20.9718 14.8507 24.7131 14.0059C23.6548 14.2148 20.4241 14.86 17.4579 15.6166C14.4918 16.3593 11.7995 17.2458 11.7438 17.4269C11.0708 17.5475 8.86125 18.3738 8.346 18.6291C6.06686 19.5064 4.86464 20.1098 3.69489 20.7782C3.11467 21.1217 2.54835 21.4885 1.90314 22.013C1.5875 22.2869 1.244 22.5886 0.905149 22.9924C0.570937 23.3963 0.213524 23.893 0 24.58C0.17639 24.0787 0.45026 23.647 0.756621 23.271C0.515246 23.7398 0.283146 24.2319 0.153174 24.8074C0.0232029 25.383 0.0464115 26.0514 0.283145 26.7012C0.519878 27.3511 0.946929 27.9685 1.51787 28.5348C2.08418 29.1104 2.79438 29.6349 3.63455 30.1316L3.5185 30.1037C4.46079 30.7165 5.2592 31.1295 5.91834 31.4545C6.57748 31.7748 7.09272 32.0022 7.51513 32.174C8.35994 32.5175 8.8102 32.6707 9.25581 32.8192C9.70143 32.9678 10.1424 33.1163 10.9872 33.4041C11.832 33.6919 13.076 34.1282 15.1463 34.7827L14.7517 34.4392C15.2066 34.3232 17.0309 34.9034 19.3843 35.5858C21.733 36.2635 24.6156 37.034 27.0944 37.4286L25.3398 36.9458C28.0506 37.3496 32.7481 39.0393 35.4636 39.5406C36.0485 39.6799 34.5167 39.4524 33.6811 39.3364C40.7599 40.7986 34.6513 39.2203 39.9708 40.0001C40.927 40.3065 38.6479 40.2044 42.2221 40.7753C43.104 40.9703 45.722 41.2256 48.7253 41.5227C51.7286 41.8198 55.1171 42.1632 57.5494 42.6042C56.4818 42.3535 55.4281 42.1029 57.9161 42.3118C61.7132 42.7295 68.1375 43.9271 71.6142 43.8807C72.0923 43.9596 72.2733 44.0107 72.2919 44.0432C75.207 44.2428 81.7612 44.7766 83.5298 44.7162C84.8388 45.2175 89.3738 45.5099 93.5654 45.7327C97.757 45.9602 101.6 46.1181 101.545 46.4708L110.513 47.0371L110.276 47.0929C116.004 47.5014 118.042 47.4456 120.066 47.3946C121.389 47.5199 120.418 47.5292 120.307 47.5617C128.676 48.1698 129.512 48.179 136.553 48.1604L137.273 48.425C139.181 48.3833 149.374 49.3302 157.613 49.3348C157.53 49.358 157.358 49.3952 156.704 49.4045C165.964 49.4741 178.845 50.6995 182.257 49.929L188.37 49.8455C180.47 49.6273 189.554 49.5066 186.305 49.3024C189.41 49.3163 194.33 49.7015 190.515 49.6783L189.916 49.6273C188.505 50.0451 199.733 49.943 199.515 50.2308C215.065 50.4164 230.226 50.6902 244.792 50.602L243.111 50.2771L248.194 50.2585C249.526 50.3282 249.986 50.5092 246.361 50.5278C248.268 50.7042 252.437 50.3097 252.539 50.2354C259.636 50.2911 249.772 50.6624 251.949 50.6485L254.906 50.5882L254.238 50.5557C256.633 50.3886 256.842 50.24 261.201 50.1936C263.958 50.2168 262.616 50.3839 263.702 50.3746C263.702 50.3885 263.791 50.3932 264.041 50.3932C264.297 50.3932 264.714 50.3793 265.364 50.3561L271.765 50.2678L269.198 50.0497C272.035 49.864 275.219 49.9383 272.257 49.7015C274.43 49.8918 280.399 49.8037 286.16 49.6459C291.92 49.4927 297.467 49.2653 298.799 49.2931C302.763 48.9635 306.686 48.8196 311.541 48.6432C310.33 48.6339 309.596 48.3694 313.788 48.2301C312.284 48.9217 321.465 48.1697 324.873 48.439C321.832 48.3044 336.77 47.752 332.002 47.5757C335.498 47.4364 332.225 47.7985 334.885 47.7985C343.185 47.0929 353.211 46.8607 363.469 45.9788C363.623 45.8859 361.896 45.8953 364.087 45.6029L369.536 45.575C371.56 45.3615 371.36 44.9529 375.088 44.9111C374.559 44.8879 373.77 44.8555 375.125 44.7069C385.184 44.0106 395.428 42.8734 405.687 41.5041C415.941 40.1162 426.204 38.5658 436.323 36.6348C433.57 37.0944 435.381 36.6813 437.451 36.1846C436.095 36.4677 437.437 35.9803 437.145 35.9385C439.957 35.3722 442.761 34.7409 445.542 33.9518C446.247 33.5619 448.452 32.8424 450.518 31.9279C451.553 31.473 452.551 30.9718 453.312 30.4983C454.078 30.0342 454.602 29.5885 454.746 29.3935C453.999 29.983 453.201 30.4751 452.388 30.9207C453.168 30.4101 453.228 30.243 452.922 30.3172C452.616 30.3915 451.919 30.6468 451.13 30.9114C449.552 31.4452 447.579 31.9233 447.751 31.6263C445.945 32.5129 443.365 33.1813 440.468 33.8218C437.567 34.4671 434.336 35.103 431.157 36.0407C429.708 36.2449 432.345 35.6508 431.56 35.7065C429.959 36.231 427.982 36.672 424.273 37.2429L424.681 37.1222C419.496 38.0599 415.764 38.5891 411.87 39.0904C407.971 39.587 403.904 40.0512 398.014 40.6825L398.91 40.7985C396.375 41.0678 395.837 41.0585 394.644 41.1374C391.78 41.8058 401.751 40.339 399.151 41.0074C397.448 40.9888 392.987 41.5041 388.656 41.9404C384.325 42.386 380.124 42.762 378.964 42.6134C375.06 42.9709 380.134 42.7667 376.23 43.1148L375.181 43.0683L374.211 43.333C371.648 43.5279 370.339 43.4629 370.237 43.3562C370.859 43.319 372.001 43.1751 372.665 43.1055C369.332 43.2355 363.307 43.9318 362.16 43.9643L365.92 43.7553C355.267 44.744 342.219 45.4079 331.914 46.2341L332.703 46.2945C324.831 46.9026 326.381 46.5219 317.729 47.0139L318.044 46.9768C316.318 47.1579 314.001 47.311 311.634 47.3992C313.816 47.1903 307.507 47.3296 310.371 47.0789C301.826 47.622 306.147 47.4085 300.512 47.998L299.203 47.8727C297.281 48.0908 297.124 48.1837 292.797 48.3647C296.344 48.1048 290.026 48.1883 293.995 47.868C284.906 47.7752 280.52 48.6293 276.342 48.1744C272.183 48.7499 284.21 48.2533 281.875 48.4064C283.834 48.5132 278.44 48.8521 275.59 48.866C272.689 48.917 270.642 48.3694 263.345 48.4994C264.069 48.4901 264.12 48.4529 264.844 48.4436C262.11 48.3693 259.492 48.6943 256.141 48.5411C254.266 48.8521 251.792 48.5783 251.253 48.9496L257.951 48.7825C254.159 48.931 250.599 49.4045 244.341 49.242C244.829 49.1631 246.69 49.0517 247.967 48.9867C246.138 48.8938 244.443 49.0888 242.55 48.9867C243.088 48.62 250.687 48.8474 254.753 48.5132C252.79 48.3832 247.061 48.8614 249.104 48.4436C246.17 48.9774 241.914 48.4437 236.97 48.8475L237.295 48.6246C236.515 48.6617 234.891 48.7732 233.452 48.7685L236.056 48.4761C232.054 48.7314 228.341 48.2811 224.502 48.4064C232.537 48.4064 226.308 48.6758 229.706 48.8382C219.791 49.1214 224.006 48.2672 212.907 48.3136C214.411 48.2951 218.547 48.4808 216.198 48.569C214.086 48.5133 211.296 48.4064 210.001 48.2811C202.648 48.2579 211.129 48.5178 207.996 48.6246C205.494 48.3322 204.384 48.6989 201.158 48.7453L201.14 48.5225C192.761 48.2625 198.912 48.9635 191.369 48.6711L194.562 48.4111L190.626 48.425L191.443 48.1836C187.163 48.2951 185.831 48.2208 181.64 48.0583C182.61 48.2347 181.083 48.4576 177.374 48.374C174.844 48.1791 178.794 48.1976 173.535 48.0955C174.728 47.9887 176.032 47.8448 178.316 48.1048C178.553 48.0351 179.49 47.9934 179.732 47.9238C177.012 47.7103 172.885 47.7195 170.982 47.6685C171.715 47.6963 172.593 47.7334 173.038 47.7752L165.407 47.868C164.209 47.7473 165.166 47.7102 166.108 47.6731C164.562 47.6499 163.49 47.7195 161.22 47.6685C161.814 47.506 161.68 47.3157 164.896 47.3296L157.627 47.2971C157.145 47.1996 153.909 46.9489 154.856 46.9164C150.836 46.6658 144.969 46.8979 139.64 46.5127C139.362 46.5359 138.805 46.5452 137.667 46.5173C132.654 46.2434 128.226 45.8025 122.275 45.7189L118.924 45.199C114.268 44.9994 123.459 45.8767 115.712 45.5425C110.225 45.3104 113.683 45.1386 111.766 44.9297C109.032 44.9204 104.269 44.9484 99.2563 44.3124C100.927 44.3728 102.227 44.512 103.787 44.5955L103.819 44.5862ZM46.6736 39.0857C47.783 39.1971 49.9972 39.3456 50.7863 39.5823C49.4959 39.6705 48.5396 39.4199 46.6736 39.0857ZM34.7905 13.3421C33.9875 13.5557 32.7203 13.732 31.2859 13.9084C32.3118 13.7042 33.4815 13.5046 34.7905 13.3421ZM277.688 0.957649C277.642 0.957649 277.609 0.9623 277.568 0.966942C275.084 0.823045 275.966 0.878738 277.688 0.957649ZM282.845 1.18045C283.365 1.16188 283.328 1.12941 283.11 1.09228C282.748 1.1387 281.587 1.11546 280.269 1.0644C280.636 1.13403 281.3 1.18973 282.841 1.1758L282.845 1.18045ZM264.311 50.2725L263.303 50.2308C265.568 50.1286 264.937 50.1982 264.311 50.2725Z" fill="white"/>
<path d="M25.1309 15.4679C24.8152 15.4958 24.7224 15.4679 24.6388 15.4447C24.2211 15.57 24.2211 15.6165 25.1309 15.4679Z" fill="white"/>
<path d="M139.496 46.4848L139.673 46.4941C139.771 46.4848 139.822 46.4755 139.85 46.4615L139.496 46.4848Z" fill="white"/>
<path d="M202.904 2.54519C201.841 2.52662 201.251 2.49404 200.857 2.45691C200.801 2.51261 201.284 2.54983 202.904 2.54519Z" fill="white"/>
<path d="M310.204 1.70032L306.895 1.62598C308.496 1.67704 309.062 1.74674 309.87 1.81636C309.8 1.76066 309.169 1.65854 310.204 1.70032Z" fill="white"/>
<path d="M338.803 4.49465C339.285 4.49465 339.824 4.55029 340.302 4.55029L340.177 4.4389C338.12 4.32285 336.681 4.32755 338.803 4.49465Z" fill="white"/>
<path d="M313.235 2.573C313.491 2.7726 315.566 2.79586 317.877 2.86549C317.738 2.86085 317.608 2.85155 317.469 2.84691C318.165 2.61482 315.691 2.59157 313.235 2.573Z" fill="white"/>
<path d="M318.416 2.88403C319.131 2.90724 319.859 2.93507 320.556 2.97685C320.83 2.88401 319.688 2.91188 318.416 2.88403Z" fill="white"/>
<path d="M289.395 1.23613C290.491 1.31504 290.091 1.01331 290.709 1.11079C291.943 0.906547 283.379 1.18971 289.395 1.23613Z" fill="white"/>
<path d="M315.083 3.27391L314.261 3.00476L312.957 3.13463L315.083 3.27391Z" fill="white"/>
<path d="M296.817 2.40584L300.512 2.59611C300.456 2.55433 300.93 2.54976 301.506 2.54976C299.226 2.46156 296.734 2.33157 296.817 2.40584Z" fill="white"/>
<path d="M301.506 2.5498C302.694 2.59622 303.822 2.63331 304.481 2.61939C303.84 2.59618 302.457 2.55445 301.506 2.5498Z" fill="white"/>
<path d="M310.023 3.13012L308.932 3.03719L306.324 2.92114L310.023 3.13012Z" fill="white"/>
<path d="M257.055 1.44971L253.017 1.46829C252.604 1.54256 253.704 1.60291 255.208 1.58898C256.173 1.54721 257.673 1.53326 257.055 1.44971Z" fill="white"/>
<path d="M269.254 2.28064C268.163 2.21101 268.089 2.15997 267.476 2.07178L267.346 2.35951L269.249 2.28528L269.254 2.28064Z" fill="white"/>
<path d="M257.482 2.15991C257.079 2.23418 251.62 2.31307 256.74 2.36413C257.148 2.28986 261.196 2.2806 257.482 2.15991Z" fill="white"/>
<path d="M196.651 1.83495L197.677 1.81636L197.524 1.34753L196.651 1.83495Z" fill="white"/>
<path d="M143.103 4.48083C147.884 4.39264 144.226 4.14195 148.548 4.10482C149.667 3.94699 145.015 4.13267 146.162 3.98877C143.284 4.2255 141.766 4.22553 143.103 4.48083Z" fill="white"/>
<path d="M146.157 3.99339C146.617 3.95161 147.109 3.90982 147.629 3.8634C146.793 3.92839 146.403 3.96554 146.157 3.99339Z" fill="white"/>
<path d="M451.135 32.0997C452.114 31.6913 453.085 31.2363 454.041 30.684C453.41 31.0182 452.774 31.3014 452.133 31.5613C451.803 31.7516 451.469 31.9234 451.135 32.1044V32.0997Z" fill="white"/>
<path d="M456.176 28.3909C456.436 28.2563 456.691 28.0984 456.942 27.9035C457.123 27.5692 457.258 27.184 457.355 26.7941C457.443 26.3949 457.471 25.9771 457.434 25.5732C457.448 26.0328 457.318 26.7105 457.035 27.2397C456.761 27.7782 456.403 28.1959 456.181 28.3909H456.176Z" fill="white"/>
<path d="M38.3369 37.229L38.0955 37.2614C38.5504 37.41 39.2606 37.5353 40.6764 37.7628L38.3369 37.2244V37.229Z" fill="white"/>
<path d="M79.6306 42.4185L78.9204 42.3489L80.2294 42.7387L79.6306 42.4185Z" fill="white"/>
<path d="M114.533 44.6976C113.108 44.6001 111.432 44.5537 109.997 44.4515C113.108 44.6001 114.895 45.0596 114.533 44.6976Z" fill="white"/>
</svg>
