<svg width="221" height="19" viewBox="0 0 221 19" fill="none" xmlns="http://www.w3.org/2000/svg">
<path d="M219.898 8.15007C220.311 8.66532 220.357 9.09699 220.422 9.1759C220.482 9.27802 220.534 9.17594 220.561 9.32912C220.547 9.11095 220.506 8.91134 220.455 8.7396C220.399 8.58177 220.339 8.48429 220.278 8.38217C220.153 8.16864 220.06 8.08972 219.99 8.02474C219.847 7.89476 219.786 7.88084 219.772 7.90869C219.749 7.95975 219.893 8.18721 219.898 8.15472V8.15007Z" fill="white"/>
<path d="M208.869 5.32327L209.068 5.27216L207.462 5.23499L208.869 5.32327Z" fill="white"/>
<path d="M198.847 4.10706C199.761 4.52946 202.486 4.42731 204.259 4.76616L204.542 4.87756L205.383 4.71516C203.206 4.47843 200.369 4.35308 198.847 4.1117V4.10706Z" fill="white"/>
<path d="M193.56 2.90479C193.88 3.06261 192.39 2.9141 194.808 3.05336C194.688 3.0255 194.655 3.01628 194.586 3.00236C194.367 2.98379 194.07 2.95585 193.564 2.90943L193.56 2.90479Z" fill="white"/>
<path d="M194.581 2.99779C193.898 2.83037 195.642 3.0815 194.581 2.99779V2.99779Z" fill="white"/>
<path d="M189.684 2.67266L191.086 2.66337C190.803 2.56589 189.559 2.45448 190.023 2.43128C188.588 2.38486 188.876 2.48234 189.679 2.66801L189.684 2.67266Z" fill="white"/>
<path d="M188.342 2.8166H189.066C188.941 2.77947 188.751 2.75626 188.342 2.8166Z" fill="white"/>
<path d="M190.612 2.83523L189.071 2.82129C189.271 2.89092 189.285 2.9977 189.777 2.83987C189.642 2.92807 189.953 2.85844 190.612 2.83987V2.83523Z" fill="white"/>
<path d="M191.476 2.95593C192.251 3.09055 193.258 3.21591 191.852 3.22055C194.521 3.39694 194.149 3.12768 191.476 2.95593Z" fill="white"/>
<path d="M198.304 4.39489L199.334 4.59446L200.249 4.57587C199.794 4.58051 198.248 4.28349 198.304 4.39489Z" fill="white"/>
<path d="M181.004 1.9115C180.911 1.97648 181.463 2.12499 181.561 2.22247L182.596 2.20853C182.071 2.12497 181.069 2.01826 181.004 1.9115Z" fill="white"/>
<path d="M181.561 2.22241L180.01 2.25029C181.384 2.34777 181.64 2.30597 181.561 2.22241Z" fill="white"/>
<path d="M188.069 3.16478L190.617 3.10449L187.581 3.13226L188.069 3.16478Z" fill="white"/>
<path d="M175.109 1.56795L175.995 1.4519L174.422 1.6143L175.109 1.56795Z" fill="white"/>
<path d="M171.2 1.40086C171.855 1.29874 170.323 1.13166 171.01 1.0806C169.947 1.05739 169.032 1.12702 168.215 1.19665C169.083 1.17808 170.007 1.2384 171.2 1.40086Z" fill="white"/>
<path d="M166.837 1.28483C167.273 1.27091 167.723 1.23379 168.215 1.19202C167.751 1.2013 167.296 1.22913 166.837 1.28483Z" fill="white"/>
<path d="M177.383 2.06467C177.267 2.01361 177.044 1.89289 176.181 1.79541L176.775 2.0275C176.961 2.03679 177.169 2.05075 177.383 2.06467Z" fill="white"/>
<path d="M176.798 2.03678L176.775 2.02749C176.116 1.98571 175.661 1.9579 175.466 1.94397C175.633 1.95325 176.032 1.98108 176.798 2.03214V2.03678Z" fill="white"/>
<path d="M177.536 2.07397C177.48 2.07397 177.439 2.06933 177.383 2.0647C177.439 2.08786 177.476 2.09714 177.536 2.07397Z" fill="white"/>
<path d="M184.044 2.70984C183.13 2.7609 181.236 2.76089 183.051 3.04404C183.71 2.9512 182.67 2.78411 184.044 2.70984Z" fill="white"/>
<path d="M178.279 2.36639L179.913 2.50567C179.885 2.44997 179.593 2.35707 180.043 2.32922L178.274 2.36639H178.279Z" fill="white"/>
<path d="M177.471 2.385L178.279 2.36642L177.671 2.31531L177.471 2.385Z" fill="white"/>
<path d="M169.636 1.59583C168.926 1.64689 168.15 1.62368 167.273 1.59583C168.211 1.67474 169.176 1.73968 170.095 1.7861C170.23 1.7304 170.638 1.6376 169.631 1.59583H169.636Z" fill="white"/>
<path d="M173.117 1.8186C173.066 1.8186 173.006 1.8186 172.959 1.8186C173.057 1.84177 173.131 1.85104 173.117 1.8186Z" fill="white"/>
<path d="M158.667 1.25232C158.713 1.26622 158.755 1.28005 158.801 1.29395C158.811 1.28468 158.82 1.27086 158.834 1.26159L158.662 1.25232H158.667Z" fill="white"/>
<path d="M170.253 1.82796C170.954 1.89759 171.381 1.86973 171.785 1.82796C171.256 1.82332 170.699 1.80935 170.1 1.78149C170.04 1.8047 170.03 1.82332 170.253 1.82796Z" fill="white"/>
<path d="M164.432 1.27552C164.799 1.33122 165.212 1.38697 165.648 1.43803C165.291 1.35912 164.567 1.23374 164.432 1.27552Z" fill="white"/>
<path d="M172.722 1.75817C172.76 1.75817 172.792 1.75817 172.829 1.75817C172.602 1.70258 172.63 1.72574 172.722 1.75817Z" fill="white"/>
<path d="M172.723 1.7583C172.361 1.76758 172.073 1.80479 171.785 1.83264C172.217 1.83728 172.611 1.83263 172.959 1.82335C172.871 1.80478 172.788 1.78151 172.723 1.7583Z" fill="white"/>
<path d="M156.017 2.43594C156.147 2.25491 158.003 2.14823 159.595 2.40353C161.174 2.32462 160.166 1.67934 158.806 1.29407C158.755 1.37298 158.751 1.44722 157.131 1.49828C157.692 1.61897 160.714 1.86036 159.34 1.9764C157.196 1.99497 157.586 1.84652 156.546 1.71655C157.423 1.97649 153.807 1.95782 154.262 2.3106L156.147 2.25496C156.179 2.31066 155.497 2.37095 156.017 2.43594Z" fill="white"/>
<path d="M161.889 1.42868H162.557C161.8 1.36834 161.257 1.27551 160.264 1.09448C159.15 1.1409 158.918 1.20594 158.839 1.26164L162.121 1.4101L161.893 1.42868H161.889Z" fill="white"/>
<path d="M165.546 1.55405C165.017 1.73044 163.416 1.749 164.386 2.00894C166.34 2.07857 165.76 1.89751 166.934 1.86502C163.778 1.78146 167.844 1.79081 165.569 1.58193C166.191 1.57264 166.749 1.58659 167.278 1.60051C166.711 1.54945 166.164 1.49835 165.648 1.438C165.676 1.44265 165.695 1.4473 165.718 1.45194H165.732C165.867 1.48444 165.913 1.50303 165.76 1.47982C165.751 1.47982 165.709 1.47982 165.695 1.47982C165.672 1.50767 165.611 1.52619 165.551 1.5494C164.641 1.47049 165.407 1.49375 165.695 1.47982C165.704 1.47054 165.732 1.46123 165.737 1.45194H165.723L162.557 1.42871C163.225 1.48441 164.061 1.50763 165.546 1.5494V1.55405Z" fill="white"/>
<path d="M181.343 3.36445C181.245 3.34119 181.25 3.32731 181.245 3.31335C181.041 3.32731 180.962 3.33654 181.343 3.36445Z" fill="white"/>
<path d="M180.047 3.16934C180.28 3.15541 180.474 3.08577 181.217 3.15075C181.862 3.24823 181.208 3.24828 181.24 3.31326C181.691 3.28541 182.823 3.26685 181.417 3.08117L181.194 3.09511C179.927 2.94657 178.311 2.60304 178.534 2.58911C178.896 2.78871 179.217 2.93724 180.047 3.16469V3.16934Z" fill="white"/>
<path d="M172.709 2.37566L170.072 2.34778L171.404 2.58452L171.339 2.47776C172.834 2.59381 172.514 2.44993 172.704 2.37566H172.709Z" fill="white"/>
<path d="M158.37 1.1456L158.723 0.945923L157.196 1.19195L158.37 1.1456Z" fill="white"/>
<path d="M154.944 1.05269L155.079 0.871704L154.174 0.955225L154.944 1.05269Z" fill="white"/>
<path d="M37.1765 14.0452H37.9516C37.5849 14.0359 37.3528 14.0359 37.1765 14.0452Z" fill="white"/>
<path d="M31.6065 13.6506L31.4623 13.7297C31.7228 13.6971 31.8344 13.6692 31.6065 13.6506Z" fill="white"/>
<path d="M70.9086 0.890231C69.776 0.746334 68.5088 0.518834 68.6527 0.723075L69.0055 0.913462C69.79 0.853119 70.398 0.86238 70.9086 0.890231Z" fill="white"/>
<path d="M13.5681 5.68053C13.6749 5.68517 13.7909 5.69447 13.9023 5.69911C14.1669 5.59699 14.4129 5.49957 14.6311 5.41138C14.3108 5.49029 13.9487 5.58305 13.5681 5.68053Z" fill="white"/>
<path d="M12.8951 6.61365L11.4143 6.69264C11.7485 6.69264 12.2266 6.66471 12.8951 6.61365Z" fill="white"/>
<path d="M67.6872 15.201L68.5923 15.02C67.1812 14.9782 67.7986 15.1035 67.6872 15.201Z" fill="white"/>
<path d="M119.903 0.472522C118.933 0.388969 118.158 0.347174 117.476 0.337891C118.645 0.458578 119.592 0.639628 119.903 0.472522Z" fill="white"/>
<path d="M34.8417 16.0319C35.3151 16.0272 35.524 15.9994 35.5101 15.953C35.0227 15.953 34.7442 15.9762 34.8417 16.0319Z" fill="white"/>
<path d="M114.667 0.323909C114.839 0.342476 115.006 0.356333 115.182 0.370259C115.893 0.337766 116.607 0.314634 117.475 0.333201C116.612 0.245006 115.619 0.184654 114.667 0.323909Z" fill="white"/>
<path d="M178.414 14.2495C178.492 14.2495 178.59 14.2541 178.664 14.2587C178.687 14.2309 178.576 14.2356 178.414 14.2495Z" fill="white"/>
<path d="M210.772 13.2329C210.456 13.2979 209.941 13.3814 209.453 13.4604C209.695 13.4418 210.089 13.3722 210.772 13.2329Z" fill="white"/>
<path d="M141.181 0.597745C141.298 0.579143 141.907 0.597745 141.181 0.597745V0.597745Z" fill="white"/>
<path d="M144.691 1.47522C144.538 1.49382 144.417 1.5217 144.398 1.56821C144.459 1.5217 144.561 1.49382 144.691 1.47522Z" fill="white"/>
<path d="M107.44 1.57263C107.44 1.57263 107.403 1.57263 107.375 1.57263C107.588 1.6097 107.551 1.60506 107.44 1.57263Z" fill="white"/>
<path d="M142.272 0.713885C141.998 0.681392 141.687 0.658219 141.344 0.63501C141.492 0.653577 141.776 0.681392 142.272 0.713885Z" fill="white"/>
<path d="M142.128 0.616321C142.379 0.630247 142.574 0.639562 142.764 0.648846C142.857 0.616353 142.778 0.593112 142.128 0.616321Z" fill="white"/>
<path d="M140.169 0.588501C140.583 0.593143 140.972 0.611755 141.344 0.634965C141.2 0.616397 141.144 0.607077 141.181 0.597794C140.968 0.597794 140.666 0.593143 140.169 0.588501Z" fill="white"/>
<path d="M119.1 16.4822C119.147 16.4868 119.202 16.4961 119.258 16.5008C119.987 16.4126 119.666 16.4265 119.1 16.4822Z" fill="white"/>
<path d="M52.1229 3.6473C52.1549 3.64272 52.1733 3.63813 52.2053 3.63354C52.1733 3.63354 52.1275 3.63354 52.1 3.63354L52.1229 3.6473Z" fill="white"/>
<path d="M49.5284 3.91684C50.6239 3.61512 51.2552 3.61507 52.0953 3.63363L51.2087 3.09058L49.5284 3.91684Z" fill="white"/>
<path d="M50.5449 14.7137L48.73 14.4491C50.9441 14.2541 52.5316 14.4305 50.8327 14.0963C50.5449 14.7229 43.74 13.8178 43.4569 14.4212L42.2639 14.2216C42.6074 14.2495 42.6631 14.2124 43.0066 14.2356C40.6857 13.8039 41.2427 14.5976 38.2348 14.3237C37.1904 14.2077 36.4616 14.073 37.1811 14.0405H34.8323C34.1546 13.9848 34.3264 13.8874 35.0041 13.9431L31.4391 13.7435L31.467 13.7249C30.9518 13.7899 29.7866 13.8503 29.2203 13.8735C28.3245 13.7157 29.6799 13.841 29.4524 13.7435H27.4704C26.6813 13.5114 28.3291 13.4882 29.6892 13.6135C27.8974 12.8383 28.0367 13.6507 24.1004 12.9405L25.9664 13.024C24.8013 12.5645 23.3392 12.5692 21.2643 12.1375C21.747 12.3046 25.4094 13.0937 23.2602 13.0519C22.6614 12.9498 21.8723 12.8523 20.7072 12.8616C20.7212 12.6342 19.5886 12.583 18.1867 12.4391L18.3167 12.156C16.7942 12.0725 16.8963 12.2349 15.9865 12.2628C14.3015 12.0307 13.9858 11.7521 13.6145 11.5061C10.9315 11.093 15.4202 12.1235 12.2312 11.7429C10.0171 11.3019 8.43422 11.1951 5.78373 10.8006C4.2937 10.3457 6.08547 10.6892 5.56558 10.4756C5.1014 10.4478 4.64184 10.4153 4.18229 10.3689C3.86665 10.2714 3.98735 10.2296 4.05234 10.211C3.5046 10.0996 3.42569 10.146 3.35606 10.2017C3.28179 10.2482 3.14717 10.3039 2.5623 10.1043C2.40912 10.1275 2.1956 10.0532 1.99136 9.88613C1.88924 9.80722 1.79641 9.69583 1.73607 9.55658C1.67108 9.41732 1.7175 9.20842 1.87996 9.07381C2.20489 8.80922 2.60874 8.6978 2.92902 8.58639C3.09149 8.53533 3.24931 8.47505 3.39321 8.4147C3.67172 8.30794 3.95023 8.20583 4.20553 8.08051C4.76255 8.02016 3.99663 8.32184 4.19159 8.39147C5.63984 7.88087 6.29899 7.70908 6.87458 7.53733C7.45481 7.36094 7.9654 7.20321 9.20941 6.81794C9.94746 6.76224 10.6855 6.71115 11.4189 6.66937C9.78036 6.69722 11.7903 6.10774 13.5727 5.65748C12.9832 5.62963 12.4819 5.59708 12.1477 5.60173C13.1039 5.41141 14.0601 5.23506 15.021 5.06331C15.3784 5.0726 15.0953 5.20255 14.6404 5.38822C14.8353 5.33716 15.0163 5.29072 15.1602 5.25359C16.2093 5.23966 15.6894 5.47176 14.9699 5.72706C14.6125 5.7085 14.2551 5.69452 13.9069 5.67595C13.2153 5.94982 12.5794 6.23763 12.7511 6.39081C12.9322 6.33047 13.2896 6.25622 13.6841 6.18195C13.5031 6.25622 13.3917 6.3166 13.4799 6.33052C13.582 6.34909 13.8744 6.24234 14.334 6.10773L15.0303 6.35376L15.1741 6.20519C16.4414 6.12163 17.704 6.04273 18.9712 5.97774C21.6402 5.36502 23.9519 4.64557 28.2595 4.15818C27.2104 4.48775 28.0599 4.5712 28.0274 4.86363C26.8251 4.65475 24.6992 5.26756 22.4665 5.4161C23.6316 5.34183 23.3902 5.49958 23.0978 5.57385L27.0526 4.94727C26.983 5.18864 27.9113 5.05403 28.9604 5.06796C28.1388 4.66412 31.908 4.52953 33.5187 4.27887C33.6301 4.42741 33.2541 4.60842 31.272 4.71982C33.4769 4.91014 34.0571 3.97247 36.2202 4.12565C35.7375 4.16279 35.4729 4.15351 35.2872 4.24635C36.4059 4.02818 39.1771 3.96785 38.5365 4.14424L38.0538 4.17665C41.2659 4.02347 47.8295 3.63364 48.2936 3.22052C48.3261 3.27158 47.8944 3.7172 47.7041 3.8054L53.3811 2.21317C52.889 2.57523 54.8665 3.29471 52.2067 3.60572C52.9726 3.61964 53.9242 3.63364 55.5302 3.44797C55.0057 3.42011 54.2073 3.0116 54.9222 2.95126C56.8949 3.24833 56.2915 3.09518 58.7192 3.32727C57.9347 3.2855 58.7842 2.71914 60.0236 2.69129C59.8332 2.77948 60.1442 3.21119 59.694 3.28546L62.7576 2.65423C61.9917 2.77492 62.6369 3.09984 63.3332 3.22517C63.0082 3.13233 65.9976 3.14622 66.8145 3.07195L65.5056 2.99307C68.9869 2.96522 68.9219 2.15281 72.3755 2.08783C71.9623 2.20851 71.3589 2.77947 73.1181 2.79804C73.9165 2.51025 76.6506 1.42404 79.7049 1.15481L80.2944 1.29409L82.6385 1.07594C81.1857 1.50299 77.1055 2.436 74.8774 2.81663C76.1818 2.90946 75.2441 2.98837 77.1937 2.92803C77.8853 3.05336 76.1353 3.16943 75.5644 3.19264H80.1041C79.8952 2.877 83.5669 2.80731 83.3905 2.55201L78.4655 2.96984C78.2567 2.66348 81.2971 2.02289 84.5185 2.02289C85.3401 2.1343 83.9151 2.58917 83.9847 2.69129C84.4025 2.57524 87.0344 2.43604 87.3314 2.51031L85.9714 2.70058C87.7631 2.78878 88.8864 2.24108 91.0449 2.51495C91.7876 2.52424 93.2683 2.8909 93.3937 2.70523C92.1775 2.36173 91.9268 1.26628 92.7345 0.987772C92.9945 1.00634 96.643 1.2895 97.4924 1.4566C98.7178 1.72583 95.6589 2.13893 96.7033 2.36638C96.7451 2.28283 97.4228 2.17143 97.7059 2.13429C98.4858 2.19928 97.3856 2.39886 99.0799 2.3478C99.3584 2.02751 102.529 2.35251 99.8783 2.074C101.535 1.97188 101.642 2.12962 103.587 2.10641C102.965 1.90217 105.332 1.40551 106.994 1.30803C106.897 1.38694 107.268 1.4937 107.449 1.54012C110.852 1.56333 112.676 1.71194 115.846 1.72586C116.139 1.80477 117.666 1.90222 117.016 2.03683C117.471 1.98577 117.893 1.87432 118.868 1.87432C120.757 2.15747 116.686 1.90219 118.13 2.24104C118.255 2.06001 120.66 1.99967 122.052 1.89755C121.625 1.60976 118.836 1.81867 117.438 1.93008C117.434 1.54016 119.866 1.13631 123.185 0.987772C125.821 0.913502 124.327 1.25234 124.782 1.20128C129.73 1.32197 129.006 0.560755 133.114 0.90425C134.743 1.17812 133.179 1.40091 133.541 1.58659C131.392 1.64693 130.25 1.38236 128.792 1.37308L130.579 1.51689C129.897 1.59116 128.463 1.63297 127.683 1.55406C129.048 1.7908 136.043 1.70722 139.854 1.99501C140.531 1.92539 141.706 1.86503 141.153 1.75363L139.947 1.76292C138.842 1.54011 142.226 1.53082 140.699 1.40549C142.323 1.29873 144.143 1.1177 146.422 1.28945L146.844 1.58659C146.798 1.50303 145.359 1.37769 144.714 1.45195C145.67 1.34983 148.2 1.92544 149.253 1.58194L147.661 1.34056C149.291 1.24308 151.314 0.992454 153.334 1.14563C152.424 0.834632 152.865 1.1642 151.44 0.792851C152.674 1.23382 146.264 0.630364 148.255 1.11776C146.789 0.69535 145.707 0.890289 143.785 0.518942C143.841 0.61642 144.463 0.713894 142.769 0.630341C142.69 0.658192 142.509 0.686003 142.393 0.70457C142.342 0.70457 142.323 0.699919 142.277 0.695277C142.309 0.699919 142.337 0.704574 142.37 0.709216C142.295 0.723142 142.291 0.723142 142.402 0.709216C142.806 0.760276 143.131 0.816024 143.266 0.871726C142.416 1.06668 139.719 1.00169 138.805 1.09917C137.797 1.03419 139.227 1.00172 138.679 0.890311L137.31 1.02959C137.18 0.816065 134.641 0.635024 137.013 0.556113L134.878 0.509649C133.62 0.370394 131.893 0.296102 130.821 0.370372C129.813 0.310028 128.272 0.565374 129.15 0.416835L125.798 0.509649L125.766 0.458539C122.461 0.398195 118.956 0.741705 115.178 0.356433C114.064 0.407493 112.913 0.467886 111.051 0.407543L110.689 0.226448C109.259 0.286791 106.395 0.0500716 105.783 0.240387C104.237 -0.242364 98.8432 0.161566 96.3273 0.101222L96.2345 0.337847C94.5031 0.337847 92.8459 0.426133 90.6968 0.54682L90.8314 0.751034C88.9839 0.945991 86.0689 0.667472 83.1399 0.741741C83.3395 0.658188 84.0822 0.667435 84.6067 0.70457C81.0975 0.291447 77.2308 1.18731 74.0512 0.922722C73.262 1.0202 72.6911 1.00632 72.1341 0.969186C72.2083 0.969186 72.2733 0.959889 72.329 0.955247C72.2501 0.955247 72.1294 0.955252 72.0041 0.959893C71.656 0.932042 71.2939 0.90887 70.904 0.881019C71.2382 0.922795 71.5538 0.955261 71.8323 0.969186C71.2243 0.992395 70.3005 1.03885 69.3954 1.11776L69.0008 0.90425C68.9266 0.90425 68.8662 0.913434 68.792 0.918076C67.9007 0.862374 68.0818 1.04345 68.5599 1.19663C68.105 1.24769 67.6872 1.30345 67.3669 1.36843C66.6335 1.02958 64.995 1.56335 63.997 1.21057C63.3935 1.41481 59.4433 1.50767 58.9791 1.92543C58.9466 1.87437 58.6774 1.86047 59.1694 1.83726C58.1575 1.82798 57.1456 1.82324 56.2451 1.97178L55.8041 1.70728L53.6132 2.18075C52.267 2.06471 51.7054 1.99043 53.0283 1.71192C49.8301 2.19003 50.4289 1.95331 47.7134 2.41749L47.8387 2.2271C46.864 2.28281 45.3136 2.60776 44.7194 2.48707C42.5145 2.2457 33.9179 3.04409 28.292 3.18335C29.4199 3.63361 25.6693 3.1508 25.4837 3.59178C25.1448 3.4943 24.3603 3.48971 25.2562 3.2994C22.4108 3.67538 20.9393 3.48976 19.0037 4.04678C18.6648 3.95394 19.5932 3.79606 19.2961 3.74964C19.0686 3.8007 18.4002 3.95857 18.0939 3.91215C17.7968 3.86573 18.5023 3.75895 18.948 3.65683C16.0282 3.99568 15.7822 4.43666 15.6105 4.82658C14.1158 4.82658 13.3778 4.95648 12.3519 5.34176C11.8228 5.29534 10.9501 5.2907 12.7511 4.99362C12.2405 5.05396 10.6809 5.22571 9.2419 5.46245C7.80294 5.6899 6.48466 5.99625 6.4661 6.14943C6.13188 6.1355 5.04567 6.43262 4.79037 6.53474C4.22407 6.66935 3.78311 6.78076 3.41176 6.88752C3.21681 6.93858 3.06826 6.9804 2.87794 7.04539C2.66442 7.11501 2.46482 7.17533 2.27451 7.25425C2.08419 7.33316 1.89388 7.40743 1.69428 7.48634C1.50861 7.58382 1.30436 7.67196 1.10476 7.78801C0.919085 7.91334 0.700938 8.03875 0.515265 8.21514C0.315666 8.38224 0.134613 8.59109 0 8.87424C0.055702 8.76748 0.134638 8.67458 0.199624 8.58175L0.459565 8.33118C0.42243 8.43794 0.375989 8.53074 0.320288 8.63286C0.283153 8.74426 0.213536 8.84173 0.185685 8.9717C0.143908 9.09239 0.111418 9.24099 0.129985 9.38489C0.148552 9.53343 0.204258 9.67729 0.278527 9.8119C0.594171 10.3318 1.21154 10.8006 2.28845 11.1952H2.20487C2.48802 11.3391 2.79439 11.4458 3.02648 11.534C3.23072 11.6129 3.4164 11.6732 3.58351 11.7289C3.91308 11.845 4.17301 11.91 4.38654 11.9703C4.80894 12.0817 5.03177 12.1189 5.24994 12.156C5.69555 12.221 6.12259 12.3231 8.1325 12.8384L7.95146 12.5784C8.18355 12.3788 9.06552 12.6062 10.2028 12.894C11.3354 13.1818 12.7186 13.5207 13.9162 13.581L13.0761 13.3396C14.3851 13.3535 16.6131 14.4444 17.9175 14.644C18.196 14.7183 17.4626 14.6626 17.0587 14.644C20.4473 15.2985 17.5322 14.4073 20.0852 14.6069C20.5401 14.8112 19.44 14.9458 21.1528 15.1454C21.9976 15.3635 26.1707 15.1036 28.4869 15.5817C27.981 15.4192 27.4796 15.2568 28.668 15.2614C30.4829 15.3635 33.5372 16.083 35.2037 15.8091C35.4311 15.8555 35.5193 15.8927 35.524 15.9252C36.9165 15.9252 40.0405 16.0459 40.8899 15.8835C42.1293 16.7376 49.533 15.9716 49.4634 16.6679L53.7338 16.821L53.6178 16.8907C56.3426 17.0532 57.3174 16.9186 58.2829 16.7839C58.9095 16.8582 58.45 16.9046 58.3943 16.9417C62.377 17.2341 62.7761 17.2156 66.1275 16.9696L66.4664 17.211C67.3762 17.1088 72.2223 17.7448 76.14 17.5637C76.1028 17.5869 76.0193 17.6333 75.7083 17.6566C80.1134 17.4941 86.236 18.5014 87.8652 17.6891L90.771 17.5219C87.0158 17.4059 91.3373 17.1646 89.7916 17.0067C91.2677 16.9789 93.6072 17.3038 91.7922 17.327L91.5091 17.2805C90.836 17.7122 96.1741 17.4848 96.072 17.7819C103.466 17.8283 110.675 18.079 117.605 18.0604L116.807 17.7262H119.225C119.861 17.8098 120.08 17.9954 118.353 17.9907C119.263 18.1764 121.245 17.8098 121.291 17.7355C124.666 17.8469 119.977 18.144 121.013 18.144L122.419 18.1068L122.103 18.0697C123.241 17.9212 123.343 17.7772 125.413 17.7726C126.727 17.8283 126.086 17.9768 126.606 17.9815C126.606 18.0047 126.778 18.014 127.4 17.9815L130.445 17.9723L129.224 17.7216C130.57 17.5731 132.088 17.6983 130.677 17.4105C132.747 17.8608 142.035 17.3874 143.303 17.4942C145.187 17.2574 147.053 17.2109 149.365 17.1738C148.789 17.132 148.437 16.8442 150.428 16.8256C149.718 17.4709 154.086 16.9882 155.71 17.3828C154.262 17.1367 161.373 17.1135 159.099 16.77C160.761 16.7607 159.21 16.9974 160.473 17.0996C164.418 16.7143 169.199 16.9093 174.087 16.5751C174.157 16.4915 173.335 16.408 174.375 16.2316L176.979 16.5007C177.945 16.4079 177.843 15.9809 179.62 16.1619C179.365 16.1062 178.989 16.0273 179.634 15.9623C184.434 15.8788 189.317 15.461 194.219 15.0014C199.121 14.5373 204.027 14.0498 208.934 13.6971C207.597 13.7342 208.469 13.595 209.472 13.4326C208.813 13.4929 209.458 13.2329 209.309 13.1401C210.674 13.0333 212.039 12.9034 213.413 12.727C213.752 12.5042 214.833 12.272 215.873 11.9842C216.913 11.7104 217.92 11.3205 218.069 11.0791C217.656 11.2834 217.238 11.4458 216.82 11.5989C217.609 11.1533 216.95 11.1812 216.142 11.2091C215.33 11.2369 214.351 11.237 214.42 10.9909C212.647 11.8218 209.402 11.3901 206.381 12.3556C205.684 12.3556 206.947 12.1328 206.566 12.0817C205.805 12.3788 204.853 12.5413 203.076 12.6666L203.27 12.597C198.299 13.2004 196.141 13.2097 190.519 13.5393L190.951 13.7249C189.744 13.7899 189.484 13.7389 188.913 13.7249C187.553 14.1659 192.302 13.4835 191.072 13.9477C189.438 13.6414 182.554 14.5559 181.435 14.1056C179.574 14.217 181.997 14.3284 180.136 14.4351L179.634 14.3284L179.175 14.5326C177.954 14.5744 177.327 14.4352 177.276 14.3237C177.573 14.3237 178.116 14.2448 178.432 14.217C176.845 14.1474 173.976 14.5141 173.433 14.4909L175.225 14.4816C170.156 14.8808 163.945 14.9689 159.043 15.4238L159.419 15.5167C155.673 15.8417 156.411 15.5121 152.294 15.7256L152.442 15.6977C151.621 15.823 150.521 15.9112 149.393 15.9298C150.428 15.7813 147.429 15.7488 148.789 15.577C144.728 15.888 146.779 15.7905 144.106 16.2454L143.484 16.0877C142.569 16.2641 142.495 16.3476 140.439 16.4358C142.124 16.2501 139.12 16.2037 141.005 15.967C136.679 15.6792 134.599 16.4683 132.608 15.9484C130.63 16.4543 136.349 16.1526 135.24 16.2733C136.173 16.4125 133.611 16.6586 132.25 16.6307C130.872 16.64 129.897 16.0552 126.425 16.1063C126.768 16.1063 126.792 16.0691 127.14 16.0644C125.84 15.9577 124.596 16.2548 123.004 16.0737C122.113 16.3708 120.934 16.0737 120.683 16.4451L123.867 16.3337C122.062 16.4451 120.372 16.8907 117.397 16.6958C117.629 16.6215 118.511 16.5194 119.119 16.459C118.251 16.3569 117.443 16.5379 116.542 16.4312C116.798 16.0645 120.409 16.3336 122.345 16.0366C121.412 15.8927 118.687 16.329 119.657 15.9252C118.265 16.4404 116.236 15.8834 113.887 16.2733L114.041 16.0505C113.669 16.0876 112.899 16.1944 112.216 16.1898L113.456 15.9019C111.553 16.1479 109.789 15.6931 107.964 15.8231C111.785 15.8231 108.823 16.0876 110.438 16.2501C105.727 16.5425 107.728 15.6746 102.455 15.7628C103.169 15.7349 105.138 15.9066 104.019 16.004C103.016 15.953 101.689 15.8649 101.071 15.7442C97.576 15.7674 101.605 15.9763 100.12 16.1016C98.9314 15.8277 98.4022 16.199 96.8704 16.2733L96.8611 16.0505C92.8784 15.8695 95.8028 16.5101 92.2146 16.2965L93.7325 16.004L91.8619 16.0644L92.2518 15.8138C90.214 15.9809 89.5827 15.9205 87.5914 15.8231C88.0509 15.9902 87.3268 16.2269 85.5583 16.2037C84.356 16.0505 86.236 16.0041 83.734 15.9902C84.3003 15.8602 84.9223 15.6977 86.0085 15.9205C86.1199 15.8509 86.5655 15.7906 86.6816 15.7163C85.3865 15.5445 83.4277 15.6281 82.5225 15.6142C82.8706 15.6281 83.2884 15.6466 83.5019 15.6838L79.872 15.9252C79.3011 15.8277 79.756 15.772 80.2062 15.7117C79.4728 15.7209 78.9622 15.8138 77.8807 15.8091C78.1638 15.6327 78.1035 15.4425 79.6306 15.3914L76.1725 15.5167C75.945 15.4332 74.4039 15.2567 74.8542 15.201C72.9417 15.0478 70.152 15.4378 67.6176 15.2196C67.483 15.2521 67.2184 15.2754 66.6799 15.2846C64.2987 15.1732 62.1913 14.8761 59.3597 15.02L57.7676 14.6347C55.5534 14.6208 59.9214 15.1314 56.2312 15.1082C53.6178 15.1082 55.2703 14.7879 54.3605 14.6626C53.0562 14.774 50.7863 15.0061 48.405 14.6254C49.1988 14.6022 49.8208 14.6812 50.5635 14.6905L50.5449 14.7137ZM23.3113 13.0705C23.8405 13.0705 24.9034 13.0194 25.2748 13.1865C24.6528 13.3861 24.1979 13.2283 23.3113 13.0705ZM17.6111 5.62496C17.2305 5.74565 16.6224 5.77353 15.9308 5.77353C16.4228 5.69462 16.9845 5.63888 17.6111 5.62496ZM133.225 0.634988C133.225 0.634988 133.188 0.639639 133.17 0.644281C131.99 0.537518 132.408 0.579286 133.225 0.634988ZM135.676 0.774265C135.922 0.746414 135.908 0.713944 135.801 0.681451C135.63 0.737153 135.077 0.727779 134.451 0.70457C134.622 0.764914 134.943 0.8114 135.676 0.774265ZM126.861 17.9212L126.383 17.8701C127.46 17.7911 127.158 17.8562 126.861 17.9212Z" fill="white"/>
<path d="M12.9886 6.5024C12.8351 6.48379 12.7886 6.45127 12.7467 6.41406C12.5468 6.47917 12.5468 6.521 12.9886 6.5024Z" fill="white"/>
<path d="M67.5201 15.2334H67.6035C67.6498 15.2241 67.673 15.2148 67.6869 15.2009L67.5201 15.2334Z" fill="white"/>
<path d="M97.6642 2.50104C97.1582 2.47319 96.8751 2.43606 96.6894 2.39429C96.6615 2.44999 96.8936 2.49176 97.6642 2.50104Z" fill="white"/>
<path d="M148.696 0.681396L147.123 0.699869C147.884 0.709152 148.153 0.76485 148.539 0.811268C148.506 0.760208 148.209 0.672004 148.696 0.68593V0.681396Z" fill="white"/>
<path d="M162.292 2.51032C162.524 2.49175 162.78 2.52888 163.007 2.51032L162.947 2.40356C161.967 2.37107 161.28 2.42676 162.292 2.51032Z" fill="white"/>
<path d="M150.131 1.46124C150.251 1.65156 151.236 1.61899 152.34 1.61435C152.275 1.61435 152.21 1.61446 152.145 1.60981C152.48 1.35451 151.301 1.41018 150.131 1.46124Z" fill="white"/>
<path d="M152.596 1.61898C152.934 1.61898 153.283 1.62829 153.612 1.64686C153.742 1.54474 153.199 1.60969 152.596 1.61898Z" fill="white"/>
<path d="M138.795 0.704563C139.315 0.764907 139.13 0.467907 139.422 0.55146C140.012 0.32401 135.931 0.774191 138.795 0.704563Z" fill="white"/>
<path d="M151.003 2.11102L150.618 1.86499L149.996 2.03679L151.003 2.11102Z" fill="white"/>
<path d="M142.319 1.71646L144.078 1.82322C144.05 1.78144 144.277 1.76745 144.551 1.75352C143.47 1.72103 142.281 1.64684 142.319 1.71646Z" fill="white"/>
<path d="M144.551 1.75357C145.118 1.77214 145.651 1.78142 145.967 1.75357C145.661 1.74893 145.006 1.73965 144.551 1.75357Z" fill="white"/>
<path d="M148.599 2.11103L148.079 2.05074L146.84 1.99963L148.599 2.11103Z" fill="white"/>
<path d="M123.408 1.3822L121.486 1.43331C121.291 1.51222 121.811 1.56327 122.526 1.54007C122.985 1.48901 123.7 1.46111 123.403 1.3822H123.408Z" fill="white"/>
<path d="M129.21 2.08321C128.69 2.02751 128.658 1.97649 128.365 1.89758L128.305 2.18543L129.21 2.08321Z" fill="white"/>
<path d="M123.612 2.08777C123.422 2.16668 120.827 2.29674 123.259 2.29674C123.454 2.21783 125.376 2.17132 123.612 2.08777Z" fill="white"/>
<path d="M94.6888 1.74052L95.1771 1.73121L95.1027 1.25696L94.6888 1.74052Z" fill="white"/>
<path d="M69.2329 3.35043C71.5074 3.40149 69.7621 3.04396 71.8231 3.12751C72.3522 3.00219 70.1427 3.05794 70.6858 2.94653C69.3165 3.09971 68.597 3.05799 69.2329 3.35043Z" fill="white"/>
<path d="M70.6859 2.94657C70.904 2.92336 71.1361 2.89089 71.3821 2.85376C70.9876 2.89554 70.7973 2.92336 70.6859 2.94657Z" fill="white"/>
<path d="M216.17 12.3462C216.671 12.2348 217.173 12.1234 217.688 11.9609C217.344 12.0398 217.01 12.0817 216.676 12.1374L216.17 12.3462Z" fill="white"/>
<path d="M218.89 10.9073C219.062 10.9166 219.238 10.9306 219.438 10.8935C219.512 10.8006 219.573 10.7356 219.647 10.6242C219.721 10.5128 219.786 10.4014 219.847 10.29C219.912 10.1507 219.967 9.99747 220.004 9.85357C220.037 9.69111 220.046 9.49621 220.037 9.3291C220.046 9.74687 219.786 10.2435 219.531 10.471C219.28 10.717 219.034 10.8609 218.89 10.9073Z" fill="white"/>
<path d="M19.3425 12.0724L19.2265 12.1328C19.44 12.2349 19.7789 12.2767 20.4566 12.3556L19.3425 12.0724Z" fill="white"/>
<path d="M39.0332 13.8642L38.6943 13.8363L39.3117 14.1473L39.0332 13.8642Z" fill="white"/>
<path d="M55.6509 14.3516C54.9732 14.3145 54.1748 14.3377 53.4925 14.3005C54.9732 14.3145 55.818 14.6998 55.6509 14.3516Z" fill="white"/>
</svg>
