<svg width="556" height="77" viewBox="0 0 556 77" fill="none" xmlns="http://www.w3.org/2000/svg">
<path d="M554.625 36.9431C554.852 37.9272 554.847 38.2707 554.917 38.3775C554.973 38.4889 555.024 38.3775 555.047 38.5354C555.033 37.6441 554.847 37.1288 554.759 36.8364C554.652 36.5486 554.587 36.479 554.569 36.5022C554.532 36.5486 554.62 36.9849 554.625 36.9385V36.9431Z" fill="white"/>
<path d="M530.575 22.9574L531.067 23.027C529.74 22.6881 528.412 22.3632 527.085 22.0569C528.25 22.3447 529.415 22.6464 530.575 22.9574Z" fill="white"/>
<path d="M505.361 16.8904C507.7 17.6702 514.58 18.6961 519.045 19.9122L519.769 20.1675L521.858 20.4089C516.399 19.0535 509.223 17.7259 505.361 16.8904Z" fill="white"/>
<path d="M491.876 13.7526C492.698 14.0218 488.906 13.3673 495.051 14.3235C494.745 14.2539 494.657 14.2353 494.48 14.1935C493.928 14.1007 493.167 13.9707 491.876 13.7526Z" fill="white"/>
<path d="M494.48 14.1935C492.735 13.785 497.177 14.6437 494.48 14.1935V14.1935Z" fill="white"/>
<path d="M482.008 12.295L485.582 12.7174C484.853 12.527 481.687 12.035 482.871 12.1557C479.209 11.6822 479.951 11.8679 482.008 12.295Z" fill="white"/>
<path d="M478.601 12.0491L480.453 12.2672C480.133 12.1883 479.65 12.1048 478.601 12.0491Z" fill="white"/>
<path d="M484.375 12.7407L480.453 12.2626C480.959 12.3925 481.001 12.5039 482.254 12.49C481.92 12.5411 482.704 12.5597 484.38 12.7407H484.375Z" fill="white"/>
<path d="M486.58 13.1306C488.562 13.5112 491.129 13.9661 487.546 13.5158C490.948 14.0264 492.406 14.2075 492.164 14.1053C491.923 14.0079 489.983 13.6319 486.58 13.1306Z" fill="white"/>
<path d="M503.996 16.9787L506.623 17.5868L508.93 17.9396C507.779 17.7539 503.857 16.8348 504.001 16.974L503.996 16.9787Z" fill="white"/>
<path d="M459.82 9.19885C459.588 9.24063 460.999 9.52388 461.254 9.64921L463.9 9.88595C462.549 9.67242 459.987 9.31954 459.82 9.19885Z" fill="white"/>
<path d="M461.254 9.64928L457.295 9.30579C460.818 9.72819 461.468 9.7514 461.254 9.64928Z" fill="white"/>
<path d="M477.914 12.3229L484.408 13.0146C481.827 12.7128 479.251 12.425 476.67 12.1511L477.914 12.3229Z" fill="white"/>
<path d="M444.739 7.53716L446.995 7.60674L442.979 7.4397L444.739 7.53716Z" fill="white"/>
<path d="M434.717 6.58565C436.388 6.60422 432.461 6.14931 434.225 6.22822C431.5 6.00077 429.165 5.90789 427.062 5.83362C429.291 5.96823 431.663 6.19574 434.717 6.58565Z" fill="white"/>
<path d="M423.535 5.68506C424.649 5.75004 425.805 5.7871 427.062 5.83352C425.879 5.75925 424.714 5.70827 423.535 5.68506Z" fill="white"/>
<path d="M450.573 8.52582C450.272 8.45155 449.696 8.27521 447.487 7.9967L449.018 8.35878C449.492 8.40984 450.03 8.47012 450.573 8.52582Z" fill="white"/>
<path d="M449.074 8.36808L449.018 8.35414C447.333 8.17311 446.164 8.04777 445.662 7.99207C446.094 8.03848 447.12 8.14991 449.069 8.36808H449.074Z" fill="white"/>
<path d="M450.969 8.56778C450.824 8.55382 450.718 8.53983 450.578 8.52588C450.727 8.56308 450.815 8.57708 450.969 8.56778Z" fill="white"/>
<path d="M467.618 10.7633C465.288 10.5776 460.447 10.1088 465.098 10.8468C466.773 10.9211 464.114 10.4894 467.618 10.7633Z" fill="white"/>
<path d="M452.866 9.02259L457.053 9.53788C456.979 9.47754 456.232 9.31504 457.383 9.38931L452.866 9.01794V9.02259Z" fill="white"/>
<path d="M450.81 8.86468L452.866 9.02254L451.316 8.83691L450.81 8.86468Z" fill="white"/>
<path d="M430.716 6.49278C428.891 6.41387 426.909 6.2467 424.663 6.07495C427.062 6.31633 429.546 6.5577 431.904 6.76658C432.243 6.73409 433.287 6.71559 430.716 6.49278Z" fill="white"/>
<path d="M439.643 7.38401C439.517 7.37471 439.354 7.36538 439.238 7.35608C439.485 7.39793 439.684 7.42121 439.643 7.38401Z" fill="white"/>
<path d="M402.572 4.39001C402.693 4.40862 402.8 4.42716 402.926 4.45042C402.953 4.44112 402.972 4.4319 403.009 4.4226L402.572 4.39001Z" fill="white"/>
<path d="M432.308 6.84094C434.109 7.04518 435.195 7.09619 436.23 7.13332C434.879 7.01728 433.445 6.89657 431.909 6.7666C431.755 6.78053 431.728 6.79453 432.308 6.84094Z" fill="white"/>
<path d="M417.366 5.27655C418.303 5.38332 419.371 5.50866 420.49 5.63399C419.575 5.49937 417.705 5.2487 417.366 5.27655Z" fill="white"/>
<path d="M438.635 7.24479C438.728 7.24944 438.807 7.25411 438.905 7.26341C438.314 7.16575 438.388 7.19364 438.635 7.24479Z" fill="white"/>
<path d="M438.635 7.24469C437.702 7.18435 436.968 7.16115 436.23 7.13794C437.33 7.21685 438.351 7.29575 439.238 7.36074C439.015 7.3236 438.792 7.28183 438.635 7.24934V7.24469Z" fill="white"/>
<path d="M395.79 5.21622C396.12 5.04911 400.887 5.18836 404.977 5.67111C409.024 5.81965 406.43 5.02583 402.925 4.4456C402.795 4.51987 402.79 4.58959 398.627 4.42249C400.075 4.6128 407.831 5.28584 404.317 5.20693C398.808 4.92378 399.81 4.83552 397.141 4.56165C399.402 4.933 390.114 4.45032 391.293 4.86808L396.129 5.04906C396.218 5.10477 394.463 5.0816 395.8 5.21157L395.79 5.21622Z" fill="white"/>
<path d="M410.839 5.03518L412.552 5.14193C410.607 4.96554 409.215 4.78917 406.657 4.4596C403.802 4.34819 403.208 4.37612 403.009 4.42254L411.429 5.04912L410.844 5.03518H410.839Z" fill="white"/>
<path d="M420.23 5.73614C418.879 5.82434 414.766 5.58764 417.264 6.00076C422.281 6.38603 420.791 6.11685 423.795 6.27931C415.699 5.65731 426.129 6.35818 420.29 5.76402C421.882 5.8615 423.317 5.96823 424.667 6.07499C423.214 5.92181 421.808 5.77329 420.49 5.63404C420.564 5.64332 420.615 5.65263 420.675 5.66192H420.712L420.703 5.66656C421.051 5.72226 421.163 5.7455 420.773 5.69909C420.745 5.69909 420.648 5.68979 420.606 5.68979C420.55 5.713 420.397 5.72686 420.234 5.73614C417.895 5.50869 419.868 5.65266 420.606 5.68979C420.634 5.68051 420.699 5.68049 420.708 5.66656C420.699 5.66656 420.689 5.66656 420.68 5.66192L412.561 5.13733C414.274 5.29515 416.428 5.44835 420.239 5.73614H420.23Z" fill="white"/>
<path d="M460.739 10.7493C460.493 10.7029 460.502 10.689 460.488 10.6704C459.964 10.6333 459.764 10.6286 460.739 10.7493Z" fill="white"/>
<path d="M457.434 10.2433C458.024 10.2804 458.525 10.2619 460.428 10.5033C462.076 10.7632 460.409 10.5962 460.488 10.6751C461.644 10.7586 464.531 11.0185 460.934 10.4847L460.358 10.443C457.118 9.98808 452.964 9.27791 453.535 9.3104C454.463 9.5982 455.289 9.81636 457.434 10.2388V10.2433Z" fill="white"/>
<path d="M438.616 7.86213L431.867 7.32837L435.283 7.81567L435.121 7.69498C438.95 8.09418 438.133 7.89462 438.621 7.85749L438.616 7.86213Z" fill="white"/>
<path d="M401.802 4.23684L402.716 4.08838L398.789 4.12544L401.802 4.23684Z" fill="white"/>
<path d="M393.019 3.6937L393.354 3.53119L391.028 3.49878L393.019 3.6937Z" fill="white"/>
<path d="M90.3533 64.7756L92.3307 64.9659C91.393 64.8777 90.7942 64.8174 90.3533 64.7756Z" fill="white"/>
<path d="M76.0982 62.8771L75.7361 62.9189C76.4046 62.9653 76.6784 62.9653 76.0982 62.8771Z" fill="white"/>
<path d="M176.961 2.81631C174.055 2.7931 170.806 2.70963 171.168 2.8953L172.068 3.0484C174.087 2.90451 175.642 2.83952 176.961 2.81631Z" fill="white"/>
<path d="M30.3669 21.8155C30.6408 21.7644 30.9193 21.7134 31.2024 21.6623C31.8662 21.4209 32.4928 21.1935 33.0499 20.9939C32.2422 21.2399 31.3277 21.5231 30.3669 21.8202V21.8155Z" fill="white"/>
<path d="M28.6169 23.1522C27.3822 23.4447 26.1521 23.751 24.9266 24.0713C25.7575 23.8624 26.9458 23.57 28.6169 23.1522Z" fill="white"/>
<path d="M168.628 71.3345L170.954 71.2602C167.333 71.056 168.921 71.2509 168.628 71.3345Z" fill="white"/>
<path d="M302.935 0.527921C300.433 0.416517 298.447 0.365497 296.697 0.337646C299.709 0.481543 302.137 0.685743 302.935 0.527921Z" fill="white"/>
<path d="M84.4628 66.1867C85.6743 66.3074 86.1988 66.3307 86.1663 66.2843C84.9177 66.1589 84.2075 66.1031 84.4628 66.1867Z" fill="white"/>
<path d="M289.469 0.281898C289.91 0.300465 290.342 0.319087 290.792 0.337654C292.621 0.319087 294.459 0.30052 296.697 0.337654C294.473 0.230892 291.925 0.156568 289.474 0.281898H289.469Z" fill="white"/>
<path d="M453.293 65.9593C453.502 65.9453 453.748 65.9268 453.939 65.9129C453.999 65.8804 453.711 65.9129 453.293 65.9593Z" fill="white"/>
<path d="M535.268 52.809C534.493 53.0921 533.217 53.5145 532.01 53.8997C532.604 53.728 533.588 53.417 535.268 52.809Z" fill="white"/>
<path d="M357.649 1.79989C357.946 1.79061 359.515 1.86487 357.649 1.79989V1.79989Z" fill="white"/>
<path d="M366.686 2.98816C366.287 2.98816 365.985 3.00668 365.939 3.05309C366.097 3.01132 366.357 2.9928 366.686 2.98816Z" fill="white"/>
<path d="M270.884 1.51208C270.828 1.51208 270.786 1.51208 270.721 1.51208C271.279 1.54929 271.181 1.54464 270.884 1.51208Z" fill="white"/>
<path d="M360.452 2.0087C359.751 1.953 358.948 1.90201 358.071 1.85095C358.456 1.8788 359.18 1.92515 360.452 2.0087Z" fill="white"/>
<path d="M360.081 1.89734C360.726 1.93447 361.227 1.96241 361.71 1.98562C361.947 1.96241 361.738 1.92983 360.081 1.89734Z" fill="white"/>
<path d="M355.049 1.70703C356.117 1.74417 357.11 1.79525 358.066 1.85096C357.7 1.8231 357.546 1.80449 357.644 1.79985C357.096 1.78128 356.326 1.75345 355.044 1.70703H355.049Z" fill="white"/>
<path d="M300.884 74.8623C301.009 74.8623 301.148 74.8716 301.283 74.8763C303.163 74.7695 302.336 74.7927 300.884 74.8623Z" fill="white"/>
<path d="M128.662 8.19639C128.751 8.18709 128.793 8.17776 128.872 8.16846C128.783 8.17311 128.676 8.18243 128.597 8.18708L128.662 8.19639Z" fill="white"/>
<path d="M122.006 8.9297C124.824 8.42374 126.439 8.31229 128.597 8.18231L126.341 7.79712L122.006 8.93435V8.9297Z" fill="white"/>
<path d="M124.61 68.308L119.945 67.7046C125.622 67.9274 129.702 68.373 125.329 67.7417C124.972 68.0249 120.418 67.6443 115.874 67.2172C111.33 66.7995 106.79 66.3353 106.428 66.6138L103.36 66.1543C104.242 66.2564 104.386 66.2331 105.258 66.3352C99.3027 65.3837 100.756 66.3167 93.0548 65.3233C90.3718 64.9566 88.5105 64.6271 90.3533 64.7803L84.3514 64.1768C82.6153 63.9354 83.0517 63.8843 84.7831 64.1211C81.7427 63.7451 78.7023 63.3459 75.6665 62.9327L75.7361 62.9236C74.4225 62.84 71.461 62.5568 70.0174 62.4036C67.7197 61.9626 71.1871 62.5151 70.6069 62.3433L65.552 61.7166C63.5328 61.2246 67.7197 61.7445 71.1918 62.2829C68.8894 61.6191 67.8404 61.4939 66.109 61.2989C64.3776 61.09 61.9545 60.8254 56.9414 59.7624L61.6853 60.4958C58.6913 59.6277 54.9779 59.1311 49.6955 57.8825C50.9255 58.2677 60.2742 60.3937 54.8154 59.572C53.2929 59.2471 51.283 58.8572 48.3354 58.4069C48.3493 58.1795 45.49 57.6828 41.9343 56.9262L42.2407 56.6895C38.388 55.9329 38.6618 56.1371 36.378 55.7425C32.1308 54.6935 31.3184 54.2154 30.3715 53.7698C23.6409 51.8898 34.9298 55.4084 26.9366 53.2639C24.1561 52.4098 21.798 51.6763 19.3193 50.8593C16.8452 50.0331 14.2365 49.1512 11.0847 47.754C7.5337 45.8694 11.7903 47.9118 10.537 47.1923C9.44149 46.7374 8.36922 46.2454 7.32481 45.6977C6.60068 45.2335 6.87455 45.3217 7.01381 45.3635C5.75123 44.5976 5.6816 44.5975 5.41238 44.5047C5.27776 44.4583 5.11066 44.3655 4.73931 44.1195C4.38189 43.8595 3.80166 43.451 3.01719 42.6247C2.75261 42.4576 2.23272 41.9053 1.7639 41.0233C1.29971 40.1506 0.965504 38.8974 1.32292 37.6163C1.6525 36.3305 2.59479 35.0772 3.73668 34.0189C4.88321 32.9512 6.18757 32.0182 7.38052 31.1873C8.65238 30.5282 6.8792 31.6979 7.32017 31.5726C8.97731 30.4911 10.2492 29.8226 11.2472 29.3073C12.2498 28.7967 12.9925 28.4439 13.6934 28.119C15.1045 27.4738 16.3439 26.8797 19.44 25.631C21.255 25.074 23.0792 24.5634 24.9127 24.0853C20.8511 25.1018 25.8597 23.2219 30.3576 21.8294C28.8908 22.1033 27.6375 22.3538 26.8019 22.5441C29.1925 21.8107 31.6016 21.1238 34.02 20.4739C34.9112 20.3114 34.201 20.5807 33.0406 21.0031C33.5326 20.8546 33.9968 20.7153 34.3588 20.6039C36.9908 20.0794 35.6771 20.5714 33.8529 21.1888C32.9524 21.3512 32.0611 21.5184 31.1931 21.6762C29.4478 22.3168 27.8371 22.9712 28.2548 23.0362C28.7144 22.8737 29.6102 22.5999 30.599 22.3213C30.1441 22.4931 29.8563 22.6138 30.0837 22.586C30.3344 22.5488 31.0724 22.2843 32.2375 21.9083L33.9643 21.8155L34.331 21.588C37.5106 20.8778 40.7089 20.2326 43.9117 19.6292C50.6935 17.8885 56.6025 16.2592 67.5851 14.3885C64.8928 15.057 67.0606 14.8713 66.9538 15.1776C63.9041 15.3447 58.4639 16.6677 52.7916 17.661C55.753 17.1504 55.131 17.4057 54.3837 17.5867C57.7351 16.8811 61.0958 16.2127 64.4658 15.5814C64.2754 15.8506 66.6474 15.4051 69.3165 15.0987C67.2369 14.9363 76.8502 13.6412 80.9814 12.9681C81.2599 13.0934 80.2851 13.3673 75.2255 14.0497C80.8468 13.6087 82.36 12.5039 87.8885 12.1C86.6491 12.2578 85.9807 12.3228 85.5025 12.4621C88.3712 11.9422 95.4593 11.2042 93.8114 11.543L92.5767 11.6962C96.6894 11.2321 102.951 10.5218 108.336 9.90909C113.72 9.29637 118.232 8.76256 118.826 8.5119C118.914 8.55367 117.791 9.08749 117.299 9.21282C122.159 8.30766 127.028 7.43039 131.902 6.58094C130.635 7.02655 135.681 7.41644 128.853 8.1777C130.821 8.05701 133.253 7.90846 137.389 7.46284C136.043 7.51854 134.01 7.2401 135.839 7.06371C140.898 7.04514 139.348 6.98481 145.572 6.84555C143.558 6.91982 145.754 6.22353 148.933 6.01929C148.441 6.13534 149.235 6.5252 148.074 6.65981L155.952 5.60146C153.984 5.82427 155.631 6.06568 157.414 6.09817C156.588 6.04711 164.256 5.67575 166.363 5.504L163.003 5.58299C171.943 5.13273 171.79 4.32964 180.665 3.89794C179.597 4.06041 178.047 4.69175 182.559 4.53393C184.61 4.16258 191.657 2.80714 199.511 2.29654L201.024 2.38935L207.049 1.99486C203.308 2.51939 192.808 3.77728 187.075 4.38071C190.427 4.34822 188.017 4.51534 193.026 4.28325C194.804 4.34824 190.301 4.61741 188.83 4.69168L200.504 4.29719C199.97 4.00011 209.421 3.65655 208.966 3.41518L196.298 4.21356C195.769 3.92112 203.595 3.02071 211.872 2.81183C213.979 2.86753 210.317 3.41516 210.493 3.51728C211.561 3.36874 218.338 3.06245 219.104 3.1228L215.599 3.39206C220.209 3.37349 223.105 2.75612 228.647 2.92323C230.56 2.89538 234.361 3.19706 234.686 3.00675C231.562 2.71896 230.927 1.62806 233.001 1.31706C233.674 1.31706 243.051 1.46101 245.237 1.60955C248.389 1.84164 240.521 2.35226 243.204 2.54721C243.32 2.45902 245.056 2.32437 245.78 2.2826C247.79 2.32437 244.954 2.55652 249.313 2.45904C250.037 2.12947 258.183 2.38007 251.374 2.16655C255.64 2.0273 255.909 2.17579 260.922 2.12009C259.325 1.92977 265.415 1.38677 269.695 1.28465C269.444 1.36356 270.405 1.46567 270.869 1.51209C279.619 1.52138 284.317 1.67919 292.473 1.73489C293.225 1.8138 297.161 1.94376 295.48 2.06444C296.655 2.01803 297.732 1.92054 300.248 1.93911C305.112 2.26403 294.636 1.92054 298.344 2.28724C298.665 2.10621 304.852 2.10156 308.44 2.04586C307.34 1.74414 300.159 1.87414 296.571 1.96234C296.557 1.57242 302.81 1.21038 311.342 1.1686C318.123 1.18717 314.275 1.47489 315.454 1.43775C328.182 1.76732 326.316 0.978205 336.881 1.54915C341.068 1.92514 337.057 2.05048 337.981 2.25936C332.457 2.18974 329.51 1.86479 325.768 1.78124L330.373 2.01333C328.614 2.05047 324.928 2.02263 322.923 1.90658C324.678 2.05976 330.053 2.18974 336.217 2.38006C342.382 2.56573 349.33 2.81643 354.232 3.1135C355.977 3.09493 358.99 3.13669 357.57 2.97422L354.464 2.88606C351.619 2.57041 360.322 2.83958 356.395 2.58892C360.568 2.61677 365.247 2.58897 371.105 2.98816L372.191 3.32701C372.071 3.23881 368.367 2.97423 366.714 2.98352C369.165 2.96495 375.687 3.79584 378.384 3.56839L374.285 3.15997C378.472 3.22959 383.661 3.20172 388.851 3.60092C386.502 3.18315 387.653 3.55914 383.977 3.02069C387.157 3.59163 370.683 2.2919 375.803 2.99746C372.034 2.42651 369.253 2.51007 364.31 1.96234C364.458 2.06446 366.055 2.21766 361.696 1.98092C361.497 1.99949 361.032 2.01334 360.735 2.02263C360.601 2.01334 360.554 2.00868 360.443 2.00404C360.531 2.01332 360.596 2.01799 360.684 2.02727C360.494 2.03191 360.475 2.03657 360.772 2.03657C361.812 2.12012 362.652 2.20832 362.991 2.2733C360.814 2.38935 353.875 2.10153 351.526 2.12938C348.936 1.99012 352.612 2.05977 351.201 1.91123L347.687 1.95304C347.348 1.73024 340.817 1.37278 346.926 1.45634L341.435 1.26606C338.204 1.04325 333.752 0.866833 331.009 0.8854C328.419 0.769354 324.455 0.950345 326.72 0.843583L318.1 0.783293L318.021 0.727537C309.517 0.53258 300.512 0.77867 290.792 0.337696C287.928 0.37483 284.971 0.421262 280.181 0.351635L279.248 0.17054C275.572 0.226242 268.205 0.00346578 266.627 0.203065C262.658 -0.275044 248.779 0.235517 242.318 0.277293L242.076 0.518677C237.625 0.583663 233.359 0.732179 227.84 0.959629L228.183 1.15931C223.425 1.44246 215.938 1.3264 208.409 1.60491C208.92 1.50743 210.827 1.46099 212.183 1.47028C203.168 1.28924 193.221 2.49615 185.051 2.54257C183.023 2.71431 181.551 2.76074 180.122 2.7793C180.312 2.77002 180.479 2.75606 180.623 2.74213C180.414 2.75142 180.108 2.76538 179.787 2.7793C178.887 2.78859 177.963 2.80254 176.961 2.81183C177.815 2.81647 178.632 2.81646 179.342 2.80254C177.778 2.88609 175.401 3.03458 173.075 3.21561L172.073 3.04845C171.882 3.06238 171.729 3.0717 171.534 3.08562C169.246 3.13204 169.701 3.29458 170.931 3.39206C169.761 3.49418 168.689 3.6009 167.858 3.70302C165.983 3.44772 161.759 4.1858 159.201 3.96299C157.641 4.23686 147.508 4.87734 146.301 5.37402C146.218 5.3276 145.531 5.35545 146.789 5.25797C144.194 5.39722 141.599 5.55041 139.283 5.8382L138.16 5.63863L132.534 6.47418C129.085 6.58559 127.65 6.60877 131.044 6.10281C122.832 7.14259 124.369 6.79914 117.397 7.77857L117.722 7.56506C115.22 7.80643 111.246 8.44697 109.724 8.45161C106.911 8.56301 99.9851 9.26396 91.9825 10.2248C83.98 11.1718 74.9006 12.4111 67.7383 13.3581C69.1633 13.4138 67.4969 13.604 65.4081 13.8593C63.3239 14.1146 60.8173 14.4395 60.5713 14.6948C59.7218 14.7088 57.7212 14.9734 60.0096 14.4721C52.7591 15.8367 49.0549 16.2267 44.1299 17.6006C43.2758 17.6471 45.6385 17.0994 44.8865 17.1736C44.3109 17.3175 42.612 17.7631 41.8461 17.8513C41.0941 17.9349 42.8812 17.5171 44.0139 17.2246C36.6287 18.8168 35.9928 19.4527 35.5425 19.9169C31.7873 20.6457 29.9445 21.1563 27.3497 22.1264C26.6952 22.2471 25.8225 22.4329 25.6786 22.4236C25.5347 22.4143 26.1103 22.1868 28.3662 21.5462C27.0897 21.8804 23.1952 22.9248 19.6489 24.1271C16.0932 25.3015 12.9182 26.694 12.8532 26.889C12.4587 27.0189 11.6046 27.3856 10.783 27.7801C9.96137 28.1793 9.17226 28.6065 8.8659 28.7829C6.22006 30.1754 4.86464 31.1224 3.58813 32.1668C2.95685 32.6959 2.34412 33.2529 1.70355 34.0373C1.08155 34.8218 0.334212 35.8291 0 37.4212C0.129971 36.8364 0.357424 36.2886 0.62665 35.778C0.24602 36.9478 -0.0789083 38.2707 0.278513 39.8582C0.622008 41.4364 1.71284 43.1168 3.54172 44.6533L3.41175 44.5928C4.43295 45.5166 5.33347 46.1526 6.0808 46.6493C6.8235 47.1459 7.42694 47.494 7.90969 47.7679C8.88447 48.311 9.41364 48.557 9.93353 48.803C10.4534 49.0444 10.9733 49.2811 11.9666 49.736C12.96 50.1909 14.4268 50.8594 16.8963 51.8481L16.4321 51.435C16.9798 51.3886 19.1522 52.2705 21.9698 53.2778C24.7874 54.2897 28.2502 55.4223 31.2488 56.0953L29.1368 55.4083C32.4093 56.1418 38.077 58.3328 41.3727 59.0894C42.0829 59.2844 40.2215 58.913 39.2142 58.7134C43.4986 59.8088 43.8003 59.7717 43.8282 59.665C43.856 59.5489 43.6193 59.3446 46.8454 59.962C48.0058 60.3519 45.23 60.0595 49.5748 60.9368C50.647 61.2061 53.8267 61.6842 57.4798 62.2133C61.1329 62.7425 65.2549 63.3274 68.2164 63.9308C66.9213 63.6059 65.6355 63.2855 68.662 63.6615C73.2852 64.3392 81.1114 65.936 85.3494 66.0846C85.9342 66.1913 86.1524 66.2517 86.1756 66.2889C89.7313 66.6556 97.7245 67.5329 99.8876 67.5561C101.484 68.1224 107.017 68.6376 112.133 69.0415C117.248 69.4499 121.946 69.7656 121.871 70.1137C125.52 70.434 129.173 70.7357 132.821 71.0235L132.529 71.0699C139.529 71.6872 142.017 71.6919 144.491 71.7059C146.106 71.873 144.918 71.8543 144.783 71.8775C155.009 72.7502 156.035 72.7781 164.641 72.9545L165.518 73.2377C167.853 73.2516 180.312 74.4492 190.38 74.6117C190.283 74.6349 190.069 74.6673 189.271 74.6673C200.592 74.9272 216.342 76.3337 220.515 75.6003L227.988 75.5864C218.329 75.28 229.436 75.2615 225.463 75.0201C229.265 75.0711 235.281 75.4983 230.611 75.4379L229.882 75.3775C228.155 75.786 241.886 75.786 241.621 76.0645C260.639 76.3708 279.183 76.6586 297.003 76.5101L294.947 76.1898L301.162 76.1481C302.796 76.2085 303.353 76.3894 298.92 76.4266C300.085 76.5101 301.947 76.4498 303.529 76.357C305.112 76.2642 306.417 76.1388 306.482 76.1017C315.166 76.1109 303.098 76.5472 305.757 76.5147L309.373 76.4359L308.557 76.408C311.486 76.2223 311.741 76.0738 317.07 75.9903C320.444 75.9903 318.806 76.1667 320.129 76.1528C320.129 76.1667 320.235 76.1712 320.546 76.1666C320.857 76.1666 321.368 76.1481 322.166 76.1202L329.997 75.9624L326.859 75.7721C330.327 75.5586 334.221 75.591 330.601 75.3868C333.256 75.5539 340.557 75.3914 347.599 75.1408C354.641 74.8994 361.422 74.5652 363.056 74.5652C367.902 74.1567 372.697 73.9339 378.634 73.6461C377.154 73.6647 376.258 73.4187 381.378 73.1773C379.539 73.9061 390.763 72.9267 394.927 73.0984C393.07 73.0659 396.705 72.8198 400.075 72.5645C403.445 72.3046 406.55 72.0354 403.64 72.0261C407.91 71.7801 403.914 72.2443 407.163 72.1608C417.301 71.1953 429.555 70.6011 442.079 69.2689C442.264 69.1668 440.157 69.2503 442.831 68.865L449.487 68.5866C451.957 68.2802 451.711 67.8764 456.26 67.6489C455.614 67.6535 454.649 67.6582 456.306 67.4447C468.579 66.2425 481.07 64.5063 493.547 62.3757C499.786 61.3081 506.02 60.1384 512.217 58.8527C518.414 57.5576 524.578 56.1557 530.659 54.5079C527.345 55.3248 529.522 54.6842 532.01 53.9044C530.38 54.3732 531.986 53.7002 531.634 53.6955C535.008 52.744 538.364 51.681 541.655 50.3767C542.482 49.8521 545.081 48.7055 547.453 47.2758C548.641 46.5656 549.76 45.7812 550.591 45.057C551.422 44.3375 551.974 43.7109 552.104 43.4417C551.338 44.3144 550.47 45.071 549.565 45.758C550.424 45.006 550.479 44.8157 550.136 44.9782C549.788 45.1313 549.017 45.6095 548.117 46.0737C546.316 47.0206 544.004 47.9118 544.194 47.5683C542.101 48.8495 539.051 49.9914 535.589 51.0776C532.121 52.1731 528.24 53.2314 524.411 54.545C522.666 54.9164 525.845 54.0158 524.894 54.1597C522.967 54.8746 520.581 55.5476 516.093 56.4992L516.589 56.3367C510.314 57.8035 505.783 58.653 501.049 59.4746C496.314 60.2869 491.366 61.0622 484.194 62.0926L485.29 62.1483C482.207 62.5893 481.548 62.6125 480.095 62.7657C478.35 63.1881 480.518 62.8818 482.723 62.5615C484.928 62.2412 487.17 61.907 485.587 62.3387C483.512 62.4362 478.081 63.2438 472.798 63.9401C467.521 64.641 462.396 65.2444 460.98 65.1562C456.218 65.7132 462.405 65.2491 457.647 65.8015L456.371 65.8108L455.187 66.1217C452.059 66.4467 450.467 66.4374 450.337 66.3399C451.098 66.2702 452.486 66.0753 453.298 65.9732C449.232 66.2702 441.879 67.2404 440.477 67.3147L445.068 66.9387C432.066 68.4194 416.131 69.5567 403.538 70.694L404.503 70.731C394.881 71.5712 396.779 71.1488 386.2 71.8683L386.586 71.8219C384.474 72.0494 381.647 72.2582 378.75 72.4021C381.419 72.1422 373.709 72.4299 377.209 72.1096C366.76 72.843 372.048 72.5321 365.154 73.2423L363.553 73.1401C361.204 73.3954 361.014 73.4929 355.722 73.7529C360.058 73.4326 352.334 73.6276 357.189 73.2377C346.076 73.3027 340.715 74.2125 335.6 73.8133C330.512 74.4446 345.218 73.79 342.368 73.971C344.763 74.0499 338.167 74.4631 334.681 74.5142C331.13 74.6024 328.632 74.0825 319.706 74.2821C320.593 74.2635 320.653 74.2263 321.54 74.2124C318.198 74.166 314.995 74.5095 310.896 74.3796C308.603 74.7045 305.576 74.4445 304.917 74.8205L313.106 74.607C308.464 74.7834 304.114 75.28 296.46 75.1454C297.054 75.0665 299.333 74.9459 300.893 74.8716C298.655 74.7881 296.585 74.9876 294.264 74.8994C294.923 74.528 304.216 74.7277 309.188 74.361C306.788 74.2449 299.783 74.7555 302.276 74.3238C298.688 74.8715 293.48 74.3563 287.436 74.774L287.835 74.5512C286.879 74.5884 284.897 74.7045 283.138 74.7045L286.327 74.4074C281.434 74.672 276.89 74.2217 272.197 74.3424C282.028 74.347 274.402 74.6116 278.561 74.774C266.432 75.0526 271.589 74.2078 258.016 74.217C259.854 74.2031 264.914 74.4028 262.041 74.4863C259.455 74.4213 256.043 74.3053 254.461 74.1707C245.469 74.1104 255.839 74.4167 252.01 74.5049C248.951 74.1985 247.591 74.5606 243.65 74.5838L243.627 74.361C233.382 74.036 240.902 74.788 231.678 74.4259L235.587 74.1985L230.773 74.1753L231.771 73.9433C226.535 74.0129 224.906 73.92 219.786 73.7112C220.974 73.9015 219.104 74.101 214.569 73.971C211.477 73.7389 216.309 73.8179 209.876 73.6368C211.333 73.544 212.93 73.4234 215.72 73.7158C216.008 73.6508 217.154 73.6183 217.456 73.5533C214.128 73.3073 209.082 73.2562 206.757 73.1726C207.652 73.2144 208.725 73.2609 209.272 73.3119L199.938 73.284C198.475 73.1448 199.641 73.1216 200.796 73.0984C198.907 73.052 197.598 73.0984 194.822 73.0056C195.546 72.8524 195.384 72.6621 199.316 72.7317L190.431 72.5645C189.842 72.4624 185.887 72.1422 187.043 72.1282C182.127 71.7987 174.955 71.8962 168.443 71.381C168.104 71.3949 167.422 71.3902 166.034 71.3345C159.906 70.9307 154.499 70.3644 147.225 70.0952L143.131 69.4685C137.445 69.1157 148.673 70.2994 139.204 69.7052C132.501 69.2828 136.725 69.2318 134.386 68.9533C131.044 68.8512 125.227 68.6979 119.109 67.8578C121.147 67.9877 122.739 68.1781 124.642 68.3266L124.61 68.308ZM54.95 59.5953C56.2961 59.7949 58.9884 60.1152 59.9493 60.4122C58.3803 60.403 57.2199 60.0827 54.95 59.5953ZM40.5232 19.8102C39.5531 20.1026 38.0166 20.4043 36.2806 20.7339C37.5199 20.4182 38.9403 20.1072 40.5232 19.8102ZM337.197 1.26606C337.136 1.26606 337.099 1.26607 337.053 1.27071C334.017 1.09432 335.094 1.1593 337.197 1.26606ZM343.505 1.55844C344.141 1.54916 344.099 1.5167 343.83 1.47492C343.389 1.5167 341.968 1.47497 340.358 1.40534C340.803 1.47961 341.62 1.54451 343.505 1.5538V1.55844ZM320.834 76.0459L319.604 76.0135C322.375 75.8882 321.6 75.967 320.834 76.0459Z" fill="white"/>
<path d="M28.8536 22.9852C28.473 23.0502 28.3616 23.0362 28.2595 23.0223C27.7535 23.1987 27.7581 23.2452 28.8536 22.9852Z" fill="white"/>
<path d="M168.197 71.3438L168.411 71.3578C168.527 71.3531 168.592 71.3391 168.629 71.3298L168.197 71.3438Z" fill="white"/>
<path d="M245.729 2.62147C244.43 2.60754 243.706 2.57973 243.223 2.54724C243.153 2.60294 243.743 2.64004 245.729 2.62147Z" fill="white"/>
<path d="M376.959 2.59353L372.916 2.44507C374.87 2.53326 375.566 2.61673 376.55 2.70028C376.462 2.64458 375.696 2.52854 376.959 2.58888V2.59353Z" fill="white"/>
<path d="M411.907 6.18178C412.496 6.20035 413.156 6.27472 413.74 6.28865L413.587 6.1726C411.076 5.98693 409.317 5.94505 411.907 6.18178Z" fill="white"/>
<path d="M380.658 3.53589C380.969 3.74013 383.504 3.81446 386.335 3.94443C386.163 3.93515 386.005 3.92583 385.834 3.91655C386.683 3.70303 383.661 3.6148 380.658 3.54054V3.53589Z" fill="white"/>
<path d="M386.994 3.97229C387.867 4.01407 388.758 4.0604 389.607 4.12075C389.946 4.03719 388.549 4.03263 386.994 3.97229Z" fill="white"/>
<path d="M351.512 1.71628C352.854 1.81376 352.361 1.50741 353.123 1.61417C354.631 1.4285 344.159 1.57238 351.512 1.71628Z" fill="white"/>
<path d="M382.914 4.27857L381.916 3.99072L380.319 4.09283L382.914 4.27857Z" fill="white"/>
<path d="M360.587 3.01614L365.103 3.27611C365.038 3.23433 365.614 3.23431 366.32 3.25288C363.534 3.11826 360.485 2.94187 360.587 3.01614Z" fill="white"/>
<path d="M366.32 3.25281C367.772 3.32244 369.151 3.38279 369.959 3.38279C369.174 3.34566 367.485 3.27602 366.32 3.25281Z" fill="white"/>
<path d="M376.736 4.01858L375.399 3.89789L372.21 3.72156L376.736 4.01858Z" fill="white"/>
<path d="M311.964 1.54446L307.025 1.53528C306.519 1.60955 307.865 1.67444 309.703 1.67444C310.887 1.63731 312.72 1.6373 311.964 1.5491V1.54446Z" fill="white"/>
<path d="M326.882 2.49148C325.55 2.40793 325.462 2.35687 324.71 2.26404L324.552 2.54724L326.882 2.49148Z" fill="white"/>
<path d="M312.483 2.2594C311.991 2.32903 305.317 2.37088 311.574 2.45443C312.075 2.38016 317.023 2.4033 312.483 2.2594Z" fill="white"/>
<path d="M238.08 1.95765L239.338 1.93441L239.147 1.46094L238.08 1.95765Z" fill="white"/>
<path d="M172.607 5.46239C178.451 5.26279 173.976 5.09565 179.263 4.96104C180.628 4.78 174.941 5.06785 176.343 4.90075C172.825 5.20246 170.968 5.24422 172.607 5.46239Z" fill="white"/>
<path d="M176.343 4.90068C176.905 4.84962 177.504 4.79386 178.14 4.73352C177.118 4.81707 176.64 4.86354 176.343 4.90068Z" fill="white"/>
<path d="M548.145 47.3223C549.263 46.6585 550.359 45.9297 551.394 45.0616C550.707 45.5955 549.992 46.0736 549.273 46.51C548.901 46.7885 548.525 47.0623 548.145 47.3223Z" fill="white"/>
<path d="M553.497 41.9193C553.747 41.6919 553.998 41.4458 554.221 41.1626C554.49 40.3225 554.606 39.4127 554.518 38.5354C554.522 39.0274 554.448 39.7609 554.23 40.4107C554.026 41.0652 553.705 41.6315 553.497 41.9147V41.9193Z" fill="white"/>
<path d="M44.8355 57.019L44.543 57.033C45.0954 57.2279 45.9541 57.4137 47.6763 57.7711L44.8401 57.019H44.8355Z" fill="white"/>
<path d="M95.0879 65.0449L94.2199 64.9381L95.8167 65.3976L95.0879 65.0449Z" fill="white"/>
<path d="M137.7 68.8141C135.959 68.6655 133.908 68.5633 132.162 68.4055C135.959 68.6701 138.146 69.19 137.7 68.8141Z" fill="white"/>
</svg>
