<svg width="3" height="117" viewBox="0 0 3 117" fill="none" xmlns="http://www.w3.org/2000/svg">
<path d="M0.496407 0.134323C0.510306 -0.0371036 0.362033 0.0231657 0.338867 0C0.371299 0.287255 0.533472 0.12969 0.496407 0.134323Z" fill="white"/>
<path d="M0.826329 2.98474L0.765869 2.93359L0.910036 3.35681L0.826329 2.98474Z" fill="white"/>
<path d="M0.821581 5.64906C1.07224 5.3984 0.779822 4.68357 0.868017 4.2101L0.923716 4.13117L0.724121 3.91766C0.756614 4.49325 0.886591 5.24522 0.816963 5.64906H0.821581Z" fill="white"/>
<path d="M0.283142 7.0701C0.380804 6.98174 0.366856 7.377 0.3157 6.73987C0.306398 6.77242 0.297103 6.78173 0.292452 6.80033C0.292452 6.85614 0.292448 6.93523 0.287797 7.0701H0.283142Z" fill="white"/>
<path d="M0.292385 6.80008C0.208989 6.98541 0.283119 6.52209 0.292385 6.80008V6.80008Z" fill="white"/>
<path d="M0.348155 8.09531L0.259959 7.72394C0.204257 7.80285 0.190336 8.13247 0.14856 8.00714C0.194978 8.38777 0.250676 8.30883 0.348155 8.09066V8.09531Z" fill="white"/>
<path d="M0.529079 8.44775L0.492002 8.25775C0.468834 8.29019 0.459575 8.34117 0.529079 8.44775Z" fill="white"/>
<path d="M0.413147 7.8493L0.492199 8.25856C0.534054 8.20275 0.613116 8.19809 0.464297 8.07252C0.538706 8.10508 0.464303 8.02603 0.413147 7.85396V7.8493Z" fill="white"/>
<path d="M0.450265 7.61716C0.505967 7.40828 0.538462 7.14371 0.626657 7.51506C0.594164 6.8095 0.417772 6.9116 0.450265 7.61716Z" fill="white"/>
<path d="M1.08161 5.78466L1.15601 5.50563L1.0723 5.26379C1.11416 5.38471 1.00255 5.79861 1.08161 5.78V5.78466Z" fill="white"/>
<path d="M0.21814 10.3985C0.269296 10.4217 0.357663 10.2729 0.427422 10.245L0.366962 9.97064C0.329757 10.1102 0.2972 10.3799 0.21814 10.3985Z" fill="white"/>
<path d="M0.427063 10.2491L0.52008 10.6584C0.529382 10.291 0.487521 10.2259 0.427063 10.2491Z" fill="white"/>
<path d="M0.803035 8.51313L0.612732 7.84003L0.807681 8.64311L0.803035 8.51313Z" fill="white"/>
<path d="M0.213742 11.9624L0.0881958 11.7299L0.274202 12.1438L0.213742 11.9624Z" fill="white"/>
<path d="M0.232092 12.9971C0.129971 12.8254 0.0603438 13.2339 0 13.0528C0.0185673 13.336 0.106745 13.5727 0.185656 13.7909C0.14388 13.5588 0.153185 13.3174 0.236738 13.0018L0.232092 12.9971Z" fill="white"/>
<path d="M0.297295 14.149C0.274042 14.0327 0.227536 13.9164 0.18103 13.7862C0.204283 13.9071 0.236837 14.028 0.297295 14.149Z" fill="white"/>
<path d="M0.492345 11.3539C0.45979 11.3865 0.376072 11.4469 0.338867 11.6748L0.487689 11.512C0.487689 11.4608 0.487689 11.4051 0.487689 11.3492L0.492345 11.3539Z" fill="white"/>
<path d="M0.492054 11.5071H0.487399C0.487399 11.6885 0.482739 11.8094 0.478088 11.8605C0.478088 11.814 0.482753 11.7117 0.492054 11.5071Z" fill="white"/>
<path d="M0.492065 11.3121C0.492065 11.3121 0.492065 11.3399 0.492065 11.3538C0.505951 11.3399 0.510579 11.3306 0.492065 11.3121Z" fill="white"/>
<path d="M0.668457 9.58533C0.752168 9.82716 0.840536 10.3294 0.966102 9.84113C0.863789 9.66906 0.789372 9.94807 0.668457 9.58533Z" fill="white"/>
<path d="M0.677877 11.1134L0.710435 10.6763C0.67323 10.6856 0.612778 10.7646 0.570923 10.6437L0.673251 11.1087L0.677877 11.1134Z" fill="white"/>
<path d="M0.723997 11.3256L0.677643 11.1125L0.663757 11.2747L0.723997 11.3256Z" fill="white"/>
<path d="M0.436343 13.4056C0.501328 13.5913 0.505962 13.8002 0.515246 14.0276C0.543097 13.7816 0.561653 13.5217 0.561653 13.2803C0.515235 13.2478 0.431701 13.141 0.436343 13.4056Z" fill="white"/>
<path d="M0.478088 12.4818C0.478088 12.4818 0.48277 12.5099 0.487443 12.5239C0.501461 12.4959 0.506125 12.4771 0.478088 12.4818Z" fill="white"/>
<path d="M0.515259 16.3113C0.515259 16.3113 0.533792 16.2881 0.543059 16.2742C0.533792 16.2742 0.524526 16.2696 0.515259 16.265V16.3113Z" fill="white"/>
<path d="M0.589618 13.2392C0.617522 13.0532 0.580319 12.9416 0.533813 12.8346C0.547765 12.9741 0.557065 13.123 0.561716 13.2811C0.584969 13.295 0.598919 13.2997 0.589618 13.2392Z" fill="white"/>
<path d="M0.366705 14.7849C0.399259 14.6872 0.422509 14.5756 0.450412 14.4593C0.403906 14.5523 0.3295 14.7477 0.366705 14.7849Z" fill="white"/>
<path d="M0.445588 12.5886C0.445588 12.5886 0.440978 12.5701 0.440978 12.5608C0.408543 12.621 0.42242 12.6164 0.445588 12.5886Z" fill="white"/>
<path d="M0.445618 12.5888C0.468871 12.6865 0.506081 12.7608 0.538635 12.8352C0.524683 12.7236 0.510738 12.6167 0.487485 12.5237C0.478184 12.5469 0.459569 12.5702 0.445618 12.5888Z" fill="white"/>
<path d="M1.47146 17.003C1.3322 16.9705 1.20687 16.4785 1.35541 16.0561C1.25329 15.6383 0.798392 15.9122 0.543091 16.2742C0.603435 16.2882 0.659129 16.2882 0.73804 16.7152C0.812309 16.5667 0.914441 15.7637 1.03977 16.1257C1.1094 16.692 0.993347 16.5899 0.919078 16.8684C1.09083 16.6317 1.16974 17.5926 1.4204 17.4672L1.33221 16.9705C1.36934 16.9612 1.43432 17.1423 1.47146 17.003Z" fill="white"/>
<path d="M0.557025 15.4573L0.538439 15.2809C0.51523 15.4805 0.459545 15.6244 0.352783 15.8936C0.422411 16.1861 0.47346 16.2464 0.515236 16.2696L0.533793 15.4016L0.552379 15.4619L0.557025 15.4573Z" fill="white"/>
<path d="M0.53846 14.4871C0.686999 14.6264 0.751983 15.0488 0.914447 14.7889C0.905164 14.269 0.78913 14.4268 0.724145 14.1158C0.761279 14.9513 0.640598 13.8744 0.557045 14.4778C0.533836 14.3154 0.52454 14.1668 0.515256 14.0276C0.496689 14.1761 0.473469 14.3246 0.445618 14.4592C0.445618 14.45 0.450269 14.4454 0.45491 14.4407C0.473478 14.4036 0.482751 14.3943 0.473468 14.4314C0.473468 14.4314 0.473468 14.4454 0.473468 14.45C0.492035 14.4547 0.510628 14.4732 0.529196 14.4871C0.496703 14.7285 0.492035 14.5243 0.473468 14.45C0.464184 14.45 0.459548 14.4407 0.450264 14.4407L0.533814 15.2762C0.552381 15.0998 0.552381 14.877 0.533814 14.4825L0.53846 14.4871Z" fill="white"/>
<path d="M1.29073 10.2863C1.27669 10.3143 1.26734 10.3097 1.2533 10.3144C1.27202 10.3706 1.28605 10.3893 1.29073 10.2863Z" fill="white"/>
<path d="M1.2022 10.6297C1.179 10.5694 1.12332 10.5184 1.13724 10.3188C1.18366 10.147 1.20684 10.3187 1.2579 10.3095C1.21613 10.1888 1.15116 9.89171 1.07689 10.2677L1.09545 10.328C1.04439 10.6669 0.858719 11.0985 0.83551 11.0382C0.970123 10.9407 1.06762 10.8525 1.19759 10.6297H1.2022Z" fill="white"/>
<path d="M0.90979 12.584L0.984075 13.2803L1.11403 12.9228L1.03513 12.9414C1.06762 12.5469 0.970134 12.6304 0.90979 12.5793V12.584Z" fill="white"/>
<path d="M0.441275 16.3905L0.283142 16.2975L0.506361 16.7021L0.441275 16.3905Z" fill="white"/>
<path d="M0.459315 17.2954L0.320312 17.2629L0.403714 17.5039L0.459315 17.2954Z" fill="white"/>
<path d="M2.16772 68.4299L2.2048 68.6338C2.1909 68.5365 2.18163 68.4762 2.16772 68.4299Z" fill="white"/>
<path d="M2.17747 66.9447L2.10736 66.9073C2.14475 66.9774 2.1728 67.0055 2.17747 66.9447Z" fill="white"/>
<path d="M0.473462 39.553C0.34349 39.8501 0.143894 40.1844 0.301716 40.1472L0.454904 40.0543C0.427053 39.8455 0.445615 39.6877 0.478108 39.5484L0.473462 39.553Z" fill="white"/>
<path d="M1.37877 54.7927C1.39272 54.7648 1.41134 54.7369 1.4253 54.7043C1.37414 54.6299 1.32763 54.5648 1.28113 54.5043C1.31368 54.5927 1.34622 54.6904 1.37877 54.7927Z" fill="white"/>
<path d="M2.00081 55.001L1.90314 55.3963C1.93569 55.308 1.96826 55.1824 2.00081 55.001Z" fill="white"/>
<path d="M2.3302 76.5299L2.48312 76.7708C2.48312 76.3954 2.40434 76.5623 2.3302 76.5299Z" fill="white"/>
<path d="M0.515267 26.5792C0.454923 26.8345 0.431708 27.0433 0.422424 27.2197C0.510619 26.9087 0.640596 26.6581 0.515267 26.5792Z" fill="white"/>
<path d="M0.566284 67.845C0.594086 67.9701 0.626527 68.0257 0.658962 68.0211C0.63116 67.8913 0.603353 67.8172 0.566284 67.845Z" fill="white"/>
<path d="M0.422368 27.9624C0.436294 27.916 0.445585 27.8742 0.459511 27.8278C0.436301 27.6375 0.413084 27.4518 0.422368 27.2197C0.357382 27.4471 0.320248 27.7117 0.422368 27.9624Z" fill="white"/>
<path d="M2.20483 105.913C2.20483 105.913 2.19555 105.959 2.18628 105.978C2.20482 105.982 2.20947 105.954 2.20483 105.913Z" fill="white"/>
<path d="M0.677752 114.473C0.668451 114.389 0.66847 114.25 0.66847 114.119C0.659169 114.185 0.65915 114.287 0.677752 114.473Z" fill="white"/>
<path d="M0.39441 20.9425C0.37612 20.9105 0.385265 20.7551 0.39441 20.9425V20.9425Z" fill="white"/>
<path d="M0.988708 20.0109C1.00758 20.0534 1.02644 20.0864 1.06418 20.0911C1.02644 20.0769 1.00286 20.0487 0.988708 20.0109Z" fill="white"/>
<path d="M1.36469 29.8795C1.36469 29.8795 1.36469 29.8888 1.36469 29.8981C1.39261 29.8422 1.38796 29.8516 1.36469 29.8795Z" fill="white"/>
<path d="M0.464078 20.6561C0.445543 20.7303 0.431625 20.809 0.417725 20.9017C0.431625 20.86 0.445543 20.7859 0.464078 20.6561Z" fill="white"/>
<path d="M0.389867 20.6929C0.3945 20.628 0.399147 20.5725 0.40378 20.5261C0.380614 20.503 0.362068 20.5261 0.389867 20.6929Z" fill="white"/>
<path d="M0.403842 21.2137C0.403842 21.1021 0.408477 20.9998 0.417779 20.9021C0.408477 20.9393 0.399182 20.9579 0.394531 20.944C0.394531 20.9998 0.399191 21.0788 0.403842 21.2137Z" fill="white"/>
<path d="M1.80102 90.1676C1.80102 90.1676 1.79174 90.1954 1.78711 90.2093C1.85197 90.4039 1.83809 90.3159 1.80102 90.1676Z" fill="white"/>
<path d="M2.04355 44.5542C2.04355 44.5542 2.03855 44.5391 2.03353 44.5291C2.03353 44.5391 2.03353 44.5492 2.0285 44.5592H2.04355V44.5542Z" fill="white"/>
<path d="M2.15383 45.2439C1.96352 44.9515 1.98672 44.7844 2.0285 44.5616L1.59216 44.789L2.15383 45.2439Z" fill="white"/>
<path d="M2.21415 71.9808L2.34878 71.4981C2.57159 72.0829 2.49731 72.5054 2.68763 72.0505C2.21416 71.9809 2.64121 70.1659 2.16774 70.1009L2.26523 69.7806C2.26059 69.8735 2.28843 69.8874 2.28379 69.9756C2.51124 69.3536 1.94031 69.516 2.00994 68.713C2.04707 68.4345 2.11669 68.2395 2.17239 68.4298L2.05634 67.8078C2.06563 67.6268 2.14918 67.6732 2.13989 67.8496L2.10275 66.9027L2.11669 66.9119C2.04242 66.7773 1.92637 66.471 1.87995 66.3225C1.94958 66.0811 1.93101 66.4432 1.99135 66.3828L1.8753 65.8583C1.99599 65.6448 2.11667 66.081 2.0981 66.4431C2.57157 65.9511 1.97743 66.0068 2.25594 64.9485L2.31628 65.4452C2.58551 65.1249 2.48802 64.7396 2.65513 64.1779C2.56693 64.3126 2.23273 65.3012 2.11669 64.7303C2.15382 64.5678 2.16774 64.359 2.0749 64.0526C2.24201 64.0526 2.20023 63.7509 2.19095 63.3749L2.41377 63.4027C2.34879 62.9943 2.23737 63.0267 2.13525 62.79C2.15846 62.3351 2.33022 62.2423 2.47412 62.1355C2.51125 61.4114 2.19561 62.6368 2.15383 61.7781C2.23738 61.1747 2.14917 60.7523 2.01455 60.0328C2.09347 59.6104 2.14916 60.107 2.21415 59.9538L2.03779 59.5779C2.03779 59.485 2.09813 59.5175 2.12598 59.5315C2.05635 59.2158 1.90315 59.5036 1.84281 59.0116C1.59679 58.877 2.20025 57.995 1.92174 57.3823C1.98673 57.2291 2.05634 57.4565 2.14454 57.4101C1.96351 56.57 2.00992 56.6906 1.76391 55.999L1.9078 55.4095C1.7407 55.8412 1.54109 55.2888 1.37863 54.8061C1.29971 54.9592 1.22546 55.0892 1.19297 55.1774L1.07228 54.4069C1.10941 54.314 1.18368 54.3929 1.27652 54.5183C1.25795 54.4672 1.23939 54.4161 1.22547 54.379C1.30902 54.1051 1.43433 54.2444 1.55966 54.444C1.51789 54.5368 1.46683 54.6296 1.42041 54.7225C1.55503 54.9128 1.70355 55.0939 1.83816 55.0521C1.81031 55.001 1.79177 54.9035 1.77784 54.7968C1.81498 54.8478 1.84745 54.8803 1.87066 54.8571C1.89387 54.8293 1.84281 54.7504 1.78711 54.625L2.03314 54.4486L1.93565 54.4069L2.08884 53.3949C1.83818 52.6708 1.47148 52.0442 1.36936 50.8976C1.55039 51.1808 1.66643 50.958 1.8846 50.9766C1.65715 51.2876 1.98207 51.8631 1.93565 52.4619C1.95886 52.1509 2.06097 52.2206 2.0981 52.2995L1.88924 51.2411C2.06563 51.2643 2.01922 51.0137 2.09349 50.7398C1.74535 50.9487 1.86137 49.9507 1.75461 49.519C1.87066 49.4912 1.99135 49.5979 1.9635 50.1225C2.22809 49.5422 1.55504 49.3705 1.77784 48.7996C1.77784 48.9295 1.76391 48.9991 1.82425 49.0502C1.72213 48.7485 1.80103 48.0151 1.90315 48.1868V48.3168C1.94493 47.4627 1.90779 45.7174 1.61072 45.592C1.64785 45.5828 1.96815 45.7034 2.02849 45.7545L1.03049 44.232C1.28579 44.3666 1.88924 43.8514 2.03314 44.5569C2.07027 44.3527 2.11204 44.102 2.02385 43.675C1.98671 43.8142 1.65713 44.0184 1.63392 43.8328C1.91707 43.3129 1.78712 43.4707 2.02849 42.8301C1.97279 43.039 1.57359 42.807 1.58751 42.4774C1.64786 42.5284 1.98207 42.4495 2.02385 42.5702L1.63392 41.7532C1.70355 41.9575 1.9635 41.7904 2.0749 41.6047C1.99599 41.6883 2.08418 40.8991 2.0424 40.6809L1.94959 41.0291C2.00993 40.1054 1.39721 40.1193 1.42041 39.2002C1.49933 39.3116 1.91709 39.4741 1.96815 39.0099C1.76855 38.7964 1.00266 38.063 0.849478 37.2553L0.965524 37.1021L0.835539 36.4801C1.13726 36.8654 1.77318 37.9516 2.0192 38.5457C2.11204 38.2022 2.15382 38.4483 2.14454 37.933C2.2513 37.752 2.307 38.2161 2.31164 38.3693L2.38128 37.1671C2.14919 37.2228 2.14455 36.248 1.94959 36.2944L2.19095 37.6035C1.95885 37.6545 1.52718 36.8468 1.56896 35.9927C1.66179 35.7745 1.98672 36.1552 2.06564 36.1366C1.98672 36.0252 1.91245 35.3289 1.96815 35.25L2.09349 35.6121C2.18168 35.1386 1.78248 34.8369 2.00529 34.266C2.01922 34.071 2.307 33.6765 2.16774 33.644C1.89852 33.9643 1.07228 34.0292 0.872682 33.8157C0.891249 33.7461 1.12796 32.7805 1.25793 32.5577C1.46682 32.2328 1.75926 33.0452 1.93565 32.7667C1.87067 32.7527 1.79176 32.5763 1.76855 32.502C1.82425 32.2932 1.96814 32.5856 1.93565 32.14C1.69892 32.0657 1.95422 31.2255 1.73606 31.9265C1.66643 31.4855 1.78248 31.4576 1.7732 30.9424C1.62002 31.1049 1.2533 30.4782 1.18368 30.0373C1.24402 30.0651 1.32293 29.963 1.36007 29.9166C1.38328 29.016 1.49002 28.5333 1.49002 27.6931C1.54573 27.6142 1.61538 27.2104 1.7175 27.3821C1.67572 27.2615 1.5968 27.15 1.58751 26.8901C1.79175 26.3888 1.61999 27.4703 1.86601 27.0851C1.72676 27.0526 1.67571 26.4166 1.58751 26.0453C1.37399 26.1567 1.54573 26.8994 1.63392 27.2661C1.34149 27.2661 1.0305 26.6255 0.895885 25.7436C0.821616 25.0473 1.0862 25.4418 1.04443 25.3211C1.09549 24.0075 0.529172 24.2025 0.742697 23.1163C0.92837 22.6846 1.11406 23.0977 1.24867 23.0002C1.3183 23.5712 1.12799 23.8729 1.13727 24.2582L1.22547 23.7847C1.28581 23.9658 1.33687 24.3463 1.28117 24.5506C1.44827 24.1885 1.31364 22.3364 1.46682 21.3245C1.40184 21.1435 1.33685 20.8325 1.26258 20.981L1.29043 21.3013C1.13725 21.5937 1.08156 20.6979 1.01193 21.1017C0.905169 20.67 0.738051 20.1919 0.826246 19.5885L1.03978 19.4771C0.979437 19.491 0.914449 19.8716 0.979435 20.0434C0.886598 19.7927 1.26724 19.115 0.988727 18.8412L0.840185 19.2636C0.733423 18.8319 0.50597 18.298 0.575598 17.7642C0.366715 18.0102 0.598816 17.8896 0.352799 18.2702C0.65916 17.9407 0.338865 19.6395 0.663793 19.1104C0.376 19.5003 0.543116 19.7881 0.297099 20.2987C0.366726 20.2848 0.431698 20.1176 0.399206 20.5679C0.417773 20.5865 0.445626 20.6375 0.459552 20.6654C0.459552 20.6793 0.459547 20.684 0.454905 20.6979C0.454905 20.6886 0.459556 20.6839 0.464198 20.6747C0.473482 20.6932 0.478124 20.6979 0.464198 20.6654C0.496691 20.5586 0.533816 20.4704 0.570951 20.4379C0.733415 20.6607 0.728782 21.3756 0.812335 21.617C0.779843 21.8815 0.733412 21.5055 0.654501 21.6494L0.779839 22.0115C0.622017 22.0486 0.519892 22.7217 0.427056 22.0904L0.417763 22.6567C0.329568 22.9909 0.297077 23.4505 0.362063 23.729C0.32957 23.9982 0.533832 24.4021 0.413145 24.17L0.510605 25.0566L0.473462 25.0659C0.454895 25.9432 0.733411 26.8669 0.450259 27.8695C0.492035 28.1666 0.538466 28.4683 0.492048 28.9603L0.357417 29.0578C0.403835 29.4385 0.222808 30.195 0.362063 30.3575C1.3411e-07 30.766 0.283153 32.1957 0.218167 32.8595L0.394559 32.8827C0.385276 33.3422 0.436331 33.7786 0.505959 34.3495L0.663793 34.3124C0.793765 34.8044 0.552384 35.5749 0.570951 36.3501C0.510607 36.2991 0.529166 36.0995 0.561658 35.9602C0.208879 36.8886 0.816959 37.9145 0.561658 38.7546C0.61736 38.9635 0.598793 39.1167 0.561658 39.2606C0.561658 39.242 0.561678 39.2234 0.552394 39.2095C0.552394 39.2327 0.552394 39.2606 0.552394 39.2977C0.524543 39.3905 0.492054 39.4834 0.468844 39.5901C0.505979 39.5019 0.538469 39.4184 0.552394 39.3441C0.552394 39.5066 0.575605 39.7526 0.61274 39.9893L0.445613 40.0915C0.445613 40.0915 0.445617 40.1286 0.450259 40.1472C0.389915 40.3839 0.529171 40.3375 0.654501 40.2122C0.682352 40.3329 0.714859 40.4442 0.756636 40.5278C0.48741 40.7181 0.849476 41.1591 0.55704 41.419C0.696295 41.5815 0.6638 42.6259 0.960877 42.7559C0.923743 42.7652 0.905173 42.8348 0.900531 42.7048C0.868039 42.9741 0.830889 43.2386 0.914442 43.48L0.700936 43.5914L0.988727 44.1763C0.858756 44.529 0.784492 44.6776 0.617386 44.3248C0.868045 45.1743 0.710219 45.0164 0.960877 45.7406L0.8216 45.7034C0.826242 45.9634 1.01193 46.3765 0.895885 46.5343C0.635942 47.1146 0.858762 49.3983 0.617386 50.8837C1.02123 50.5959 0.436345 51.5754 0.751989 51.6311C0.654511 51.7193 0.603451 51.9235 0.519898 51.6821C0.612734 52.4387 0.366713 52.8193 0.631297 53.3439C0.533819 53.4321 0.492046 53.1814 0.431702 53.2604C0.450269 53.3207 0.515254 53.5017 0.459552 53.5806C0.40385 53.6595 0.380636 53.4692 0.33886 53.3485C0.352785 54.1237 0.649871 54.2026 0.928381 54.2583C0.79841 54.6529 0.81696 54.8478 0.997992 55.131C0.905155 55.2656 0.812332 55.4977 0.779839 55.0149C0.765914 55.2841 0.645227 56.6674 0.868035 56.6953C0.812333 56.7788 0.849477 57.0759 0.877328 57.1456C0.863402 57.7536 0.844822 57.8047 0.863389 58.4035L0.900531 58.2364C1.16976 58.4731 0.960881 58.733 0.993374 59.2112L0.965524 59.1972C0.770567 60.302 1.05835 59.6753 0.835539 60.7615L1.00264 60.7012C1.36006 60.8033 0.789126 61.6667 0.928381 62.298L1.02584 62.0705C1.14653 62.414 0.538466 63.036 0.492048 63.3795C0.459555 63.4538 0.440972 63.2588 0.417763 63.1567C0.204238 64.0619 0.635937 63.2727 0.686997 63.9504C0.570951 64.0758 0.385277 63.788 0.366709 64.2429C0.269231 64.4703 0.747352 65.5612 0.524544 66.1832C0.617381 66.0486 0.705565 65.9093 0.775193 66.225C0.807686 66.7077 0.4317 67.5247 0.719493 67.961C0.696284 68.0213 0.673064 68.0446 0.649854 68.0492C0.724124 68.4159 0.770559 69.2421 0.928381 69.4649C0.352794 69.8038 1.20687 71.7534 0.677704 71.7441L0.705554 72.8767L0.649854 72.8489C0.61272 73.573 0.742706 73.8283 0.868035 74.0836C0.830901 74.2507 0.784487 74.13 0.756636 74.1161C0.649874 75.1744 0.673061 75.2765 0.937646 76.1631L0.7659 76.2559C0.86802 76.4973 0.496691 77.7831 0.69629 78.8182C0.677722 78.809 0.645237 78.7858 0.617386 78.7022C0.821627 79.8673 0.139253 81.492 0.7659 81.919L0.919089 82.6895C0.970149 81.6962 1.19296 82.8381 1.29508 82.4296C1.33221 82.8195 1.10477 83.4415 1.07228 82.9588L1.10477 82.8845C0.775203 82.7081 0.988708 84.1192 0.7659 84.096C0.779826 86.0549 0.598816 87.9627 0.58489 89.8008L0.840185 89.5873L0.826246 90.2279C0.765902 90.395 0.62666 90.4554 0.635944 89.9958C0.492047 90.2372 0.756633 90.7617 0.812335 90.7756C0.710215 91.6715 0.515247 90.4275 0.510605 90.7013L0.529191 91.0727L0.55704 90.9891C0.659161 91.2908 0.770561 91.3187 0.756636 91.8664C0.705576 92.2146 0.598792 92.0428 0.589508 92.1821C0.570941 92.1821 0.561677 92.2285 0.580244 92.391L0.55704 93.1986L0.756636 92.8784C0.854114 93.2358 0.747338 93.635 0.974788 93.2636C0.622009 93.8114 0.849454 96.2716 0.73805 96.6058C0.886589 97.1071 0.881956 97.5991 0.863389 98.2118C0.905165 98.0587 1.13262 97.9705 1.10477 98.495C0.635948 98.3 0.900517 99.4605 0.566305 99.8875C0.789113 99.5069 0.622001 101.387 0.937646 100.788C0.900511 101.229 0.761263 100.816 0.654501 101.15C0.835532 102.199 0.538457 103.462 0.598801 104.757C0.659145 104.775 0.751995 104.562 0.844832 104.836L0.538455 105.518C0.566306 105.773 0.891228 105.755 0.677704 106.224C0.728764 106.159 0.807679 106.061 0.826246 106.233C0.529169 108.772 1.07227 111.422 0.510605 113.999C0.631293 113.651 0.640594 113.883 0.645236 114.147C0.673087 113.975 0.798417 114.147 0.877328 114.119L0.645236 115.201C0.877328 115.396 0.659138 116.357 0.881946 116.473L0.840185 116.129C1.10013 116.584 1.41575 115.493 1.74997 115.558C1.45289 115.048 2.18631 114.217 1.76391 113.381C1.83353 113.196 1.87068 113.539 1.94959 113.442C1.80569 113.228 1.77782 112.973 1.84281 112.499L1.87995 112.555C1.84746 111.223 1.98671 110.652 2.07955 109.157L1.91245 109.269C1.93566 108.948 1.98672 108.879 2.02849 108.73C1.77783 108.364 2.01457 109.631 1.7407 109.297C2.07491 108.869 1.74535 107.031 2.12598 106.744C2.12598 106.251 1.93565 106.887 1.93565 106.395L2.03779 106.265L1.90315 106.14C1.92636 105.815 2.05634 105.653 2.13989 105.639C2.13061 105.718 2.16311 105.862 2.17239 105.945C2.29308 105.523 2.13061 104.761 2.17239 104.618L2.1074 105.091C2.00992 103.74 2.14453 102.097 1.93565 100.793L1.85675 100.89C1.71285 99.8968 1.94029 100.092 1.8753 99.0009L1.89389 99.0427C1.81498 98.8246 1.77783 98.5321 1.78711 98.2351C1.87995 98.5089 1.96352 97.7151 2.06564 98.0772C1.91246 97.0003 1.94495 97.5434 1.65715 96.8286L1.78711 96.6661C1.67106 96.4248 1.61074 96.4015 1.5736 95.8585C1.68501 96.3041 1.76856 95.5103 1.91709 96.0116C2.20025 94.8651 1.63393 94.3127 2.04705 93.7882C1.68963 93.2636 1.84747 94.7769 1.7732 94.4844C1.65715 94.7304 1.50397 94.0481 1.54111 93.6907C1.55039 93.324 1.99599 93.0687 1.99135 92.1496C1.99135 92.2424 2.01455 92.2471 2.01455 92.3399C2.10739 91.9964 1.88925 91.6668 2.03779 91.2444C1.81962 91.0077 2.05171 90.6967 1.7732 90.6271L1.83816 91.4719C1.76389 90.9938 1.44363 90.5435 1.60145 89.7544C1.65715 89.8148 1.73142 90.0515 1.7732 90.2093C1.85675 89.9772 1.7175 89.7637 1.80105 89.527C2.07492 89.5966 1.86137 90.5528 2.07025 91.0634C2.1863 90.8174 1.87067 90.0932 2.16774 90.3532C1.78711 89.9818 2.21415 89.4481 1.92636 88.8214L2.09349 88.8632C2.06563 88.7657 1.99135 88.5614 1.99135 88.3804L2.20489 88.71C2.02385 88.2041 2.36271 87.7352 2.26523 87.2525C2.26987 88.2644 2.06563 87.4799 1.94494 87.907C1.72214 86.6583 2.37664 87.1875 2.29773 85.7903C2.32094 85.9806 2.20025 86.5005 2.12134 86.2034C2.15383 85.9388 2.2188 85.586 2.30699 85.4236C2.2745 84.4952 2.13526 85.5675 2.03779 85.1729C2.23738 84.8573 1.95423 84.7181 1.88924 84.3096H2.05634C2.16311 83.2512 1.70819 84.0264 1.83816 83.0748L2.07025 83.4787L2.00994 82.982L2.20024 83.0841C2.05634 82.5457 2.09348 82.3785 2.14919 81.8494C2.0285 81.9701 1.8428 81.7797 1.83816 81.3109C1.93564 80.9906 1.996 81.492 1.97279 80.8282C2.07956 80.9767 2.20952 81.1438 2.05634 81.4316C2.11205 81.4595 2.16309 81.5801 2.21415 81.608C2.3302 81.2645 2.24202 80.7446 2.23738 80.5032C2.23274 80.5961 2.22345 80.7075 2.20024 80.7632L1.96815 79.8023C2.03313 79.6491 2.08418 79.7699 2.1306 79.8905C2.11203 79.6956 2.03313 79.5609 2.0192 79.2731C2.15381 79.3474 2.29771 79.3288 2.36269 79.7327L2.20953 78.8182C2.26988 78.7579 2.37198 78.3494 2.42304 78.4655C2.50195 77.9595 2.15847 77.2215 2.26523 76.5484C2.23738 76.5112 2.21416 76.4417 2.19559 76.2978C2.22809 75.6665 2.3952 75.1048 2.20489 74.3528L2.45089 73.9258C2.39519 73.3363 2.14453 74.5013 2.0517 73.5219C1.97279 72.8303 2.26057 73.262 2.3302 73.0206C2.20487 72.6771 1.95423 72.0783 2.15383 71.4424C2.20025 71.6513 2.16311 71.8184 2.18168 72.0133L2.21415 71.9808ZM2.10275 64.7396C2.13988 64.8788 2.24666 65.162 2.14919 65.2641C1.95887 65.1063 2.04705 64.981 2.10275 64.7396ZM1.69891 53.7245C1.75461 53.8267 1.72678 53.9891 1.6618 54.1701C1.64787 54.0402 1.65249 53.887 1.69891 53.7245ZM0.529191 23.0513C0.529191 23.0513 0.533813 23.0606 0.538455 23.0652C0.473469 23.3762 0.496698 23.2694 0.529191 23.0513ZM0.603447 22.4015C0.580238 22.3365 0.557018 22.3411 0.533809 22.3689C0.575585 22.4154 0.58023 22.5593 0.566305 22.7264C0.608081 22.68 0.640582 22.5964 0.603447 22.4015ZM0.66844 92.2239L0.7102 92.0985C0.756619 92.3863 0.714858 92.3028 0.66844 92.2239Z" fill="white"/>
<path d="M1.92959 54.9732C1.90216 55.0144 1.87014 55.0235 1.83813 55.0327C1.86557 55.0875 1.89758 55.0875 1.92959 54.9732Z" fill="white"/>
<path d="M2.30231 76.4881C2.30231 76.4881 2.30231 76.502 2.30231 76.5113C2.31157 76.5252 2.32085 76.5298 2.33475 76.5345L2.30695 76.4881H2.30231Z" fill="white"/>
<path d="M2.02835 32.4696C2.00518 32.604 1.97274 32.6781 1.94031 32.7291C1.98201 32.7384 2.01445 32.6735 2.02835 32.4696Z" fill="white"/>
<path d="M0.315674 18.9526L0.357513 19.3711C0.348212 19.1712 0.385443 19.0967 0.413346 18.9944C0.376142 19.0037 0.315674 19.0828 0.315674 18.9526Z" fill="white"/>
<path d="M1.3556 15.3416C1.33699 15.2811 1.3556 15.2113 1.33235 15.1509L1.2533 15.1695C1.25795 15.4299 1.32304 15.6113 1.3556 15.3416Z" fill="white"/>
<path d="M0.877292 18.5674C1.01655 18.5349 0.970107 18.2749 0.942256 17.9825C0.942256 18.0011 0.942256 18.015 0.942256 18.0335C0.742657 17.9453 0.812306 18.2564 0.877292 18.5674Z" fill="white"/>
<path d="M0.937719 17.9133C0.933069 17.825 0.928418 17.732 0.937719 17.6436C0.858659 17.6111 0.919117 17.7552 0.937719 17.9133Z" fill="white"/>
<path d="M0.510929 21.5756C0.548134 21.4361 0.329575 21.4872 0.385382 21.4082C0.204009 21.2547 0.603941 22.3336 0.510929 21.5756Z" fill="white"/>
<path d="M1.34182 18.3306L1.1651 18.4375L1.30927 18.6003L1.34182 18.3306Z" fill="white"/>
<path d="M1.21154 20.6376L1.25795 20.1734C1.2301 20.1827 1.21155 20.1223 1.19763 20.048C1.19299 20.3358 1.15583 20.6515 1.20689 20.6376H1.21154Z" fill="white"/>
<path d="M1.20228 20.0441C1.20228 19.8953 1.20228 19.7511 1.17438 19.6674C1.17438 19.7465 1.18368 19.9232 1.20228 20.0441Z" fill="white"/>
<path d="M1.39265 18.9712L1.35544 19.106L1.34613 19.4363L1.39265 18.9712Z" fill="white"/>
<path d="M1.17902 25.6462L1.23007 26.1567C1.29041 26.2078 1.32756 26.0686 1.30435 25.8829C1.26258 25.7622 1.23936 25.5719 1.18366 25.6508L1.17902 25.6462Z" fill="white"/>
<path d="M1.65691 24.1096C1.61985 24.2486 1.58276 24.2579 1.52252 24.332L1.74032 24.3459L1.65691 24.105V24.1096Z" fill="white"/>
<path d="M1.70819 25.5904C1.76853 25.6415 1.87992 26.3285 1.866 25.6832C1.80565 25.6322 1.75461 25.1216 1.70819 25.5904Z" fill="white"/>
<path d="M1.43498 33.2589L1.43035 33.1287L1.0769 33.1473L1.43498 33.2589Z" fill="white"/>
<path d="M2.28376 40.0126C2.36731 39.4092 2.0656 39.8687 2.17236 39.3256C2.08881 39.1864 2.08415 39.7713 2.01453 39.6274C2.10272 39.9894 2.05167 40.1844 2.28841 40.0173L2.28376 40.0126Z" fill="white"/>
<path d="M2.00985 39.627C1.99595 39.5668 1.97739 39.5065 1.95422 39.4417C1.97739 39.5482 1.99132 39.5946 2.00985 39.627Z" fill="white"/>
<path d="M0.487495 115.893L0.417725 116.279L0.533989 116.027L0.487495 115.893Z" fill="white"/>
<path d="M0.752411 116.635L0.524536 116.728L0.729163 116.961C0.719862 116.872 0.701254 116.705 0.752411 116.635Z" fill="white"/>
<path d="M2.5579 63.6628L2.5021 63.6349C2.44164 63.6953 2.43697 63.7837 2.42767 63.9697L2.55325 63.6674L2.5579 63.6628Z" fill="white"/>
<path d="M2.39016 68.9171L2.3948 68.829L2.19092 68.9958L2.39016 68.9171Z" fill="white"/>
<path d="M2.65046 73.3317C2.65974 73.1506 2.61333 72.9418 2.62261 72.7607C2.65974 73.1553 2.39516 73.3827 2.65046 73.3317Z" fill="white"/>
</svg>
